<?xml version="1.0" encoding="utf-8" standalone="no"?>
<!DOCTYPE svg PUBLIC "-//W3C//DTD SVG 1.1//EN"
  "http://www.w3.org/Graphics/SVG/1.1/DTD/svg11.dtd">
<svg xmlns:xlink="http://www.w3.org/1999/xlink" width="240.52032pt" height="146.90808pt" viewBox="0 0 240.52032 146.90808" xmlns="http://www.w3.org/2000/svg" version="1.1">
 <metadata>
  <rdf:RDF xmlns:dc="http://purl.org/dc/elements/1.1/" xmlns:cc="http://creativecommons.org/ns#" xmlns:rdf="http://www.w3.org/1999/02/22-rdf-syntax-ns#">
   <cc:Work>
    <dc:type rdf:resource="http://purl.org/dc/dcmitype/StillImage"/>
    <dc:date>2026-06-25T11:22:12.754843</dc:date>
    <dc:format>image/svg+xml</dc:format>
    <dc:creator>
     <cc:Agent>
      <dc:title>Matplotlib v3.6.2, https://matplotlib.org/</dc:title>
     </cc:Agent>
    </dc:creator>
   </cc:Work>
  </rdf:RDF>
 </metadata>
 <defs>
  <style type="text/css">*{stroke-linejoin: round; stroke-linecap: butt}</style>
 </defs>
 <g id="figure_1">
  <g id="patch_1">
   <path d="M 0 146.90808 
L 240.52032 146.90808 
L 240.52032 0 
L 0 0 
L 0 146.90808 
z
" style="fill: none"/>
  </g>
  <g id="axes_1">
   <g id="patch_2">
    <path d="M 30.744984 124.13342 
L 239.80032 124.13342 
L 239.80032 0.72 
L 30.744984 0.72 
L 30.744984 124.13342 
z
" style="fill: none"/>
   </g>
   <g id="matplotlib.axis_1">
    <g id="xtick_1">
     <g id="line2d_1">
      <defs>
       <path id="m81f8553084" d="M 0 0 
L 0 2 
" style="stroke: #000000; stroke-width: 0.35"/>
      </defs>
      <g>
       <use xlink:href="#m81f8553084" x="30.744984" y="124.13342" style="stroke: #000000; stroke-width: 0.35"/>
      </g>
     </g>
     <g id="text_1">
      <!-- $\mathdefault{0.0}$ -->
      <g transform="translate(25.33464 134.668222) scale(0.08 -0.08)">
       <defs>
        <path id="CMR17-30" d="M 2688 2038 
C 2688 2430 2682 3099 2413 3613 
C 2176 4063 1798 4224 1466 4224 
C 1158 4224 768 4082 525 3620 
C 269 3137 243 2539 243 2038 
C 243 1671 250 1112 448 623 
C 723 -39 1216 -128 1466 -128 
C 1760 -128 2208 -7 2470 604 
C 2662 1048 2688 1568 2688 2038 
z
M 1466 -26 
C 1056 -26 813 328 723 816 
C 653 1196 653 1749 653 2109 
C 653 2604 653 3015 736 3407 
C 858 3954 1216 4121 1466 4121 
C 1728 4121 2067 3947 2189 3420 
C 2272 3054 2278 2623 2278 2109 
C 2278 1691 2278 1176 2202 797 
C 2067 96 1690 -26 1466 -26 
z
" transform="scale(0.015625)"/>
        <path id="CMMI12-3a" d="M 1178 307 
C 1178 492 1024 620 870 620 
C 685 620 557 467 557 313 
C 557 128 710 0 864 0 
C 1050 0 1178 153 1178 307 
z
" transform="scale(0.015625)"/>
       </defs>
       <use xlink:href="#CMR17-30" transform="scale(0.996264)"/>
       <use xlink:href="#CMMI12-3a" transform="translate(45.690477 0) scale(0.996264)"/>
       <use xlink:href="#CMR17-30" transform="translate(72.787654 0) scale(0.996264)"/>
      </g>
     </g>
    </g>
    <g id="xtick_2">
     <g id="line2d_2">
      <g>
       <use xlink:href="#m81f8553084" x="72.639841" y="124.13342" style="stroke: #000000; stroke-width: 0.35"/>
      </g>
     </g>
     <g id="text_2">
      <!-- $\mathdefault{0.1}$ -->
      <g transform="translate(67.229497 134.668222) scale(0.08 -0.08)">
       <defs>
        <path id="CMR17-31" d="M 1702 4083 
C 1702 4217 1696 4224 1606 4224 
C 1357 3927 979 3833 621 3820 
C 602 3820 570 3820 563 3808 
C 557 3795 557 3782 557 3648 
C 755 3648 1088 3686 1344 3839 
L 1344 467 
C 1344 243 1331 166 781 166 
L 589 166 
L 589 0 
C 896 6 1216 12 1523 12 
C 1830 12 2150 6 2458 0 
L 2458 166 
L 2266 166 
C 1715 166 1702 236 1702 467 
L 1702 4083 
z
" transform="scale(0.015625)"/>
       </defs>
       <use xlink:href="#CMR17-30" transform="scale(0.996264)"/>
       <use xlink:href="#CMMI12-3a" transform="translate(45.690477 0) scale(0.996264)"/>
       <use xlink:href="#CMR17-31" transform="translate(72.787654 0) scale(0.996264)"/>
      </g>
     </g>
    </g>
    <g id="xtick_3">
     <g id="line2d_3">
      <g>
       <use xlink:href="#m81f8553084" x="114.534698" y="124.13342" style="stroke: #000000; stroke-width: 0.35"/>
      </g>
     </g>
     <g id="text_3">
      <!-- $\mathdefault{0.2}$ -->
      <g transform="translate(109.124353 134.668222) scale(0.08 -0.08)">
       <defs>
        <path id="CMR17-32" d="M 2669 990 
L 2554 990 
C 2490 537 2438 460 2413 422 
C 2381 371 1920 371 1830 371 
L 602 371 
C 832 620 1280 1073 1824 1596 
C 2214 1966 2669 2400 2669 3033 
C 2669 3788 2067 4224 1395 4224 
C 691 4224 262 3603 262 3027 
C 262 2777 448 2745 525 2745 
C 589 2745 781 2783 781 3007 
C 781 3206 614 3264 525 3264 
C 486 3264 448 3257 422 3244 
C 544 3788 915 4057 1306 4057 
C 1862 4057 2227 3616 2227 3033 
C 2227 2477 1901 1998 1536 1583 
L 262 147 
L 262 0 
L 2515 0 
L 2669 990 
z
" transform="scale(0.015625)"/>
       </defs>
       <use xlink:href="#CMR17-30" transform="scale(0.996264)"/>
       <use xlink:href="#CMMI12-3a" transform="translate(45.690477 0) scale(0.996264)"/>
       <use xlink:href="#CMR17-32" transform="translate(72.787654 0) scale(0.996264)"/>
      </g>
     </g>
    </g>
    <g id="xtick_4">
     <g id="line2d_4">
      <g>
       <use xlink:href="#m81f8553084" x="156.429555" y="124.13342" style="stroke: #000000; stroke-width: 0.35"/>
      </g>
     </g>
     <g id="text_4">
      <!-- $\mathdefault{0.3}$ -->
      <g transform="translate(151.01921 134.668222) scale(0.08 -0.08)">
       <defs>
        <path id="CMR17-33" d="M 1414 2176 
C 1984 2176 2234 1673 2234 1094 
C 2234 322 1824 25 1453 25 
C 1114 25 563 193 390 691 
C 422 678 454 678 486 678 
C 640 678 755 780 755 947 
C 755 1132 614 1216 486 1216 
C 378 1216 211 1164 211 927 
C 211 335 787 -128 1466 -128 
C 2176 -128 2720 432 2720 1087 
C 2720 1718 2208 2176 1600 2246 
C 2086 2347 2554 2776 2554 3353 
C 2554 3856 2048 4224 1472 4224 
C 890 4224 378 3862 378 3347 
C 378 3123 544 3084 627 3084 
C 762 3084 877 3167 877 3334 
C 877 3500 762 3584 627 3584 
C 602 3584 570 3584 544 3571 
C 730 3999 1235 4076 1459 4076 
C 1683 4076 2106 3966 2106 3347 
C 2106 3167 2080 2851 1862 2574 
C 1670 2329 1453 2316 1242 2297 
C 1210 2297 1062 2284 1037 2284 
C 992 2278 966 2272 966 2227 
C 966 2182 973 2176 1101 2176 
L 1414 2176 
z
" transform="scale(0.015625)"/>
       </defs>
       <use xlink:href="#CMR17-30" transform="scale(0.996264)"/>
       <use xlink:href="#CMMI12-3a" transform="translate(45.690477 0) scale(0.996264)"/>
       <use xlink:href="#CMR17-33" transform="translate(72.787654 0) scale(0.996264)"/>
      </g>
     </g>
    </g>
    <g id="xtick_5">
     <g id="line2d_5">
      <g>
       <use xlink:href="#m81f8553084" x="198.324412" y="124.13342" style="stroke: #000000; stroke-width: 0.35"/>
      </g>
     </g>
     <g id="text_5">
      <!-- $\mathdefault{0.4}$ -->
      <g transform="translate(192.914067 134.668222) scale(0.08 -0.08)">
       <defs>
        <path id="CMR17-34" d="M 2150 4147 
C 2150 4281 2144 4288 2029 4288 
L 128 1254 
L 128 1088 
L 1779 1088 
L 1779 460 
C 1779 230 1766 166 1318 166 
L 1197 166 
L 1197 0 
C 1402 12 1747 12 1965 12 
C 2182 12 2528 12 2733 0 
L 2733 166 
L 2611 166 
C 2163 166 2150 230 2150 460 
L 2150 1088 
L 2803 1088 
L 2803 1254 
L 2150 1254 
L 2150 4147 
z
M 1798 3723 
L 1798 1254 
L 256 1254 
L 1798 3723 
z
" transform="scale(0.015625)"/>
       </defs>
       <use xlink:href="#CMR17-30" transform="scale(0.996264)"/>
       <use xlink:href="#CMMI12-3a" transform="translate(45.690477 0) scale(0.996264)"/>
       <use xlink:href="#CMR17-34" transform="translate(72.787654 0) scale(0.996264)"/>
      </g>
     </g>
    </g>
    <g id="text_6">
     <!-- $r/L$ -->
     <g transform="translate(128.247741 144.195552) scale(0.08 -0.08)">
      <defs>
       <path id="CMMI12-72" d="M 2490 2633 
C 2291 2598 2189 2457 2189 2316 
C 2189 2163 2310 2111 2400 2111 
C 2579 2111 2726 2265 2726 2457 
C 2726 2651 2528 2816 2208 2816 
C 1952 2816 1658 2700 1389 2335 
C 1344 2660 1088 2816 832 2816 
C 582 2816 454 2642 378 2508 
C 269 2278 173 1892 173 1860 
C 173 1834 198 1801 243 1801 
C 294 1801 301 1808 339 1957 
C 435 2342 557 2687 813 2687 
C 966 2687 1011 2604 1011 2419 
C 1011 2278 947 2028 902 1827 
L 723 1130 
C 698 1007 627 716 595 600 
C 550 432 480 128 480 96 
C 480 6 550 -64 646 -64 
C 717 -64 838 -20 877 109 
C 896 160 1133 1136 1171 1285 
C 1203 1427 1242 1562 1274 1705 
C 1299 1795 1325 1898 1344 1982 
C 1363 2040 1536 2355 1696 2495 
C 1773 2566 1939 2687 2202 2687 
C 2304 2687 2406 2674 2490 2633 
z
" transform="scale(0.015625)"/>
       <path id="CMMI12-3d" d="M 2746 4563 
C 2746 4569 2784 4665 2784 4678 
C 2784 4755 2720 4800 2669 4800 
C 2637 4800 2579 4800 2528 4659 
L 384 -1364 
C 384 -1370 346 -1466 346 -1479 
C 346 -1556 410 -1600 461 -1600 
C 499 -1600 557 -1594 602 -1460 
L 2746 4563 
z
" transform="scale(0.015625)"/>
       <path id="CMMI12-4c" d="M 2349 3860 
C 2406 4102 2426 4166 2989 4166 
C 3162 4166 3206 4166 3206 4287 
C 3206 4352 3136 4352 3110 4352 
C 2982 4352 2835 4339 2707 4339 
L 1850 4339 
C 1728 4339 1587 4352 1466 4352 
C 1414 4352 1344 4352 1344 4230 
C 1344 4166 1402 4166 1498 4166 
C 1888 4166 1888 4115 1888 4045 
C 1888 4032 1888 3994 1862 3898 
L 998 472 
C 941 249 928 185 480 185 
C 358 185 294 185 294 70 
C 294 0 333 0 461 0 
L 3328 0 
C 3469 0 3475 6 3520 121 
L 4013 1478 
C 4026 1510 4038 1548 4038 1567 
C 4038 1605 4006 1631 3974 1631 
C 3968 1631 3936 1631 3923 1605 
C 3910 1599 3910 1586 3859 1465 
C 3654 905 3366 185 2285 185 
L 1670 185 
C 1581 185 1568 185 1530 191 
C 1459 198 1453 211 1453 262 
C 1453 306 1466 344 1478 402 
L 2349 3860 
z
" transform="scale(0.015625)"/>
      </defs>
      <use xlink:href="#CMMI12-72" transform="scale(0.996264)"/>
      <use xlink:href="#CMMI12-3d" transform="translate(46.670612 0) scale(0.996264)"/>
      <use xlink:href="#CMMI12-4c" transform="translate(95.445531 0) scale(0.996264)"/>
     </g>
    </g>
   </g>
   <g id="matplotlib.axis_2">
    <g id="ytick_1">
     <g id="line2d_6">
      <defs>
       <path id="m6401527f5e" d="M 0 0 
L -2 0 
" style="stroke: #000000; stroke-width: 0.35"/>
      </defs>
      <g>
       <use xlink:href="#m6401527f5e" x="30.744984" y="124.13342" style="stroke: #000000; stroke-width: 0.35"/>
      </g>
     </g>
     <g id="text_7">
      <!-- $\mathdefault{0.92}$ -->
      <g transform="translate(10.690112 126.900821) scale(0.08 -0.08)">
       <defs>
        <path id="CMR17-39" d="M 2253 1871 
C 2253 448 1670 25 1190 25 
C 1043 25 685 43 538 281 
C 704 256 826 345 826 505 
C 826 678 685 736 595 736 
C 538 736 365 710 365 492 
C 365 68 742 -128 1203 -128 
C 1939 -128 2688 665 2688 2090 
C 2688 3857 1971 4224 1485 4224 
C 851 4224 243 3664 243 2800 
C 243 2000 762 1408 1414 1408 
C 1952 1408 2189 1910 2253 2122 
L 2253 1871 
z
M 1427 1510 
C 1254 1510 1011 1542 813 1929 
C 678 2181 678 2477 678 2793 
C 678 3174 678 3438 858 3722 
C 947 3857 1114 4076 1485 4076 
C 2240 4076 2240 2909 2240 2651 
C 2240 2193 2035 1510 1427 1510 
z
" transform="scale(0.015625)"/>
       </defs>
       <use xlink:href="#CMR17-30" transform="scale(0.996264)"/>
       <use xlink:href="#CMMI12-3a" transform="translate(45.690477 0) scale(0.996264)"/>
       <use xlink:href="#CMR17-39" transform="translate(72.787654 0) scale(0.996264)"/>
       <use xlink:href="#CMR17-32" transform="translate(118.478131 0) scale(0.996264)"/>
      </g>
     </g>
    </g>
    <g id="ytick_2">
     <g id="line2d_7">
      <g>
       <use xlink:href="#m6401527f5e" x="30.744984" y="105.849951" style="stroke: #000000; stroke-width: 0.35"/>
      </g>
     </g>
     <g id="text_8">
      <!-- $\mathdefault{0.94}$ -->
      <g transform="translate(10.690112 108.617352) scale(0.08 -0.08)">
       <use xlink:href="#CMR17-30" transform="scale(0.996264)"/>
       <use xlink:href="#CMMI12-3a" transform="translate(45.690477 0) scale(0.996264)"/>
       <use xlink:href="#CMR17-39" transform="translate(72.787654 0) scale(0.996264)"/>
       <use xlink:href="#CMR17-34" transform="translate(118.478131 0) scale(0.996264)"/>
      </g>
     </g>
    </g>
    <g id="ytick_3">
     <g id="line2d_8">
      <g>
       <use xlink:href="#m6401527f5e" x="30.744984" y="87.566481" style="stroke: #000000; stroke-width: 0.35"/>
      </g>
     </g>
     <g id="text_9">
      <!-- $\mathdefault{0.96}$ -->
      <g transform="translate(10.690112 90.333882) scale(0.08 -0.08)">
       <defs>
        <path id="CMR17-36" d="M 678 2198 
C 678 3712 1395 4076 1811 4076 
C 1946 4076 2272 4049 2400 3782 
C 2298 3782 2106 3782 2106 3558 
C 2106 3385 2246 3328 2336 3328 
C 2394 3328 2566 3353 2566 3571 
C 2566 3987 2246 4224 1805 4224 
C 1043 4224 243 3411 243 2011 
C 243 257 966 -128 1478 -128 
C 2099 -128 2688 431 2688 1295 
C 2688 2101 2170 2688 1517 2688 
C 1126 2688 838 2430 678 1979 
L 678 2198 
z
M 1478 25 
C 691 25 691 1212 691 1450 
C 691 1914 909 2585 1504 2585 
C 1613 2585 1926 2585 2138 2140 
C 2253 1889 2253 1624 2253 1302 
C 2253 954 2253 696 2118 438 
C 1978 173 1773 25 1478 25 
z
" transform="scale(0.015625)"/>
       </defs>
       <use xlink:href="#CMR17-30" transform="scale(0.996264)"/>
       <use xlink:href="#CMMI12-3a" transform="translate(45.690477 0) scale(0.996264)"/>
       <use xlink:href="#CMR17-39" transform="translate(72.787654 0) scale(0.996264)"/>
       <use xlink:href="#CMR17-36" transform="translate(118.478131 0) scale(0.996264)"/>
      </g>
     </g>
    </g>
    <g id="ytick_4">
     <g id="line2d_9">
      <g>
       <use xlink:href="#m6401527f5e" x="30.744984" y="69.283011" style="stroke: #000000; stroke-width: 0.35"/>
      </g>
     </g>
     <g id="text_10">
      <!-- $\mathdefault{0.98}$ -->
      <g transform="translate(10.690112 72.050412) scale(0.08 -0.08)">
       <defs>
        <path id="CMR17-38" d="M 1741 2289 
C 2144 2494 2554 2803 2554 3298 
C 2554 3884 1990 4224 1472 4224 
C 890 4224 378 3800 378 3215 
C 378 3054 416 2777 666 2533 
C 730 2469 998 2276 1171 2154 
C 883 2006 211 1652 211 945 
C 211 282 838 -128 1459 -128 
C 2144 -128 2720 366 2720 1022 
C 2720 1607 2330 1877 2074 2051 
L 1741 2289 
z
M 902 2855 
C 851 2887 595 3086 595 3388 
C 595 3781 998 4076 1459 4076 
C 1965 4076 2336 3716 2336 3298 
C 2336 2700 1670 2359 1638 2359 
C 1632 2359 1626 2359 1574 2398 
L 902 2855 
z
M 2080 1536 
C 2176 1466 2483 1253 2483 861 
C 2483 385 2010 25 1472 25 
C 890 25 448 443 448 951 
C 448 1459 838 1884 1280 2083 
L 2080 1536 
z
" transform="scale(0.015625)"/>
       </defs>
       <use xlink:href="#CMR17-30" transform="scale(0.996264)"/>
       <use xlink:href="#CMMI12-3a" transform="translate(45.690477 0) scale(0.996264)"/>
       <use xlink:href="#CMR17-39" transform="translate(72.787654 0) scale(0.996264)"/>
       <use xlink:href="#CMR17-38" transform="translate(118.478131 0) scale(0.996264)"/>
      </g>
     </g>
    </g>
    <g id="ytick_5">
     <g id="line2d_10">
      <g>
       <use xlink:href="#m6401527f5e" x="30.744984" y="50.999542" style="stroke: #000000; stroke-width: 0.35"/>
      </g>
     </g>
     <g id="text_11">
      <!-- $\mathdefault{1.00}$ -->
      <g transform="translate(10.690112 53.766943) scale(0.08 -0.08)">
       <use xlink:href="#CMR17-31" transform="scale(0.996264)"/>
       <use xlink:href="#CMMI12-3a" transform="translate(45.690477 0) scale(0.996264)"/>
       <use xlink:href="#CMR17-30" transform="translate(72.787654 0) scale(0.996264)"/>
       <use xlink:href="#CMR17-30" transform="translate(118.478131 0) scale(0.996264)"/>
      </g>
     </g>
    </g>
    <g id="ytick_6">
     <g id="line2d_11">
      <g>
       <use xlink:href="#m6401527f5e" x="30.744984" y="32.716072" style="stroke: #000000; stroke-width: 0.35"/>
      </g>
     </g>
     <g id="text_12">
      <!-- $\mathdefault{1.02}$ -->
      <g transform="translate(10.690112 35.483473) scale(0.08 -0.08)">
       <use xlink:href="#CMR17-31" transform="scale(0.996264)"/>
       <use xlink:href="#CMMI12-3a" transform="translate(45.690477 0) scale(0.996264)"/>
       <use xlink:href="#CMR17-30" transform="translate(72.787654 0) scale(0.996264)"/>
       <use xlink:href="#CMR17-32" transform="translate(118.478131 0) scale(0.996264)"/>
      </g>
     </g>
    </g>
    <g id="ytick_7">
     <g id="line2d_12">
      <g>
       <use xlink:href="#m6401527f5e" x="30.744984" y="14.432602" style="stroke: #000000; stroke-width: 0.35"/>
      </g>
     </g>
     <g id="text_13">
      <!-- $\mathdefault{1.04}$ -->
      <g transform="translate(10.690112 17.200003) scale(0.08 -0.08)">
       <use xlink:href="#CMR17-31" transform="scale(0.996264)"/>
       <use xlink:href="#CMMI12-3a" transform="translate(45.690477 0) scale(0.996264)"/>
       <use xlink:href="#CMR17-30" transform="translate(72.787654 0) scale(0.996264)"/>
       <use xlink:href="#CMR17-34" transform="translate(118.478131 0) scale(0.996264)"/>
      </g>
     </g>
    </g>
    <g id="text_14">
     <!-- $g_2(r)$ -->
     <g transform="translate(6.697584 71.838711) rotate(-90) scale(0.08 -0.08)">
      <defs>
       <path id="CMMI12-67" d="M 2163 811 
C 2138 708 2125 683 2042 587 
C 1779 249 1510 128 1312 128 
C 1101 128 902 293 902 734 
C 902 1072 1094 1787 1235 2075 
C 1421 2432 1709 2687 1978 2687 
C 2400 2687 2483 2164 2483 2126 
L 2464 2036 
L 2163 811 
z
M 2560 2394 
C 2477 2579 2298 2816 1978 2816 
C 1280 2816 486 1941 486 989 
C 486 325 890 0 1299 0 
C 1638 0 1939 268 2054 396 
L 1914 -176 
C 1824 -520 1786 -677 1555 -896 
C 1293 -1152 1050 -1152 909 -1152 
C 717 -1152 557 -1140 397 -1090 
C 602 -1034 653 -858 653 -789 
C 653 -689 576 -589 435 -589 
C 282 -589 115 -714 115 -921 
C 115 -1178 378 -1280 922 -1280 
C 1747 -1280 2176 -758 2259 -420 
L 2970 2426 
C 2989 2502 2989 2515 2989 2528 
C 2989 2617 2918 2688 2822 2688 
C 2669 2688 2579 2560 2560 2388 
L 2560 2394 
z
" transform="scale(0.015625)"/>
       <path id="CMR17-28" d="M 1958 -1562 
C 1958 -1556 1958 -1543 1939 -1524 
C 1645 -1223 858 -403 858 1596 
C 858 3595 1632 4408 1946 4729 
C 1946 4735 1958 4748 1958 4767 
C 1958 4787 1939 4800 1914 4800 
C 1843 4800 1299 4325 986 3620 
C 666 2909 576 2218 576 1603 
C 576 1141 621 360 1005 -467 
C 1312 -1133 1837 -1600 1914 -1600 
C 1946 -1600 1958 -1588 1958 -1562 
z
" transform="scale(0.015625)"/>
       <path id="CMR17-29" d="M 1683 1596 
C 1683 2057 1638 2839 1254 3665 
C 947 4332 422 4800 346 4800 
C 326 4800 301 4793 301 4761 
C 301 4748 307 4742 314 4729 
C 621 4408 1402 3595 1402 1603 
C 1402 -396 627 -1210 314 -1530 
C 307 -1543 301 -1549 301 -1562 
C 301 -1594 326 -1600 346 -1600 
C 416 -1600 960 -1127 1274 -422 
C 1594 289 1683 981 1683 1596 
z
" transform="scale(0.015625)"/>
      </defs>
      <use xlink:href="#CMMI12-67" transform="scale(0.996264)"/>
      <use xlink:href="#CMR17-32" transform="translate(46.710897 -14.943915) scale(0.697382)"/>
      <use xlink:href="#CMR17-28" transform="translate(79.192211 0) scale(0.996264)"/>
      <use xlink:href="#CMMI12-72" transform="translate(114.472979 0) scale(0.996264)"/>
      <use xlink:href="#CMR17-29" transform="translate(161.143591 0) scale(0.996264)"/>
     </g>
    </g>
   </g>
   <g id="line2d_13">
    <path d="M 46.018375 147.90808 
L 46.938982 102.572475 
L 47.98714 61.234459 
L 48.825666 36.365586 
L 49.454561 22.505166 
L 50.083455 12.639252 
L 50.71235 6.580536 
L 51.131613 4.530843 
L 51.341245 4.068992 
L 51.550876 3.965687 
L 51.760508 4.207488 
L 52.179771 5.669561 
L 52.599034 8.336 
L 53.227929 14.314443 
L 54.066455 25.269545 
L 55.324244 45.819531 
L 57.839823 88.424243 
L 58.88798 102.131177 
L 59.726507 110.103141 
L 60.355401 114.09575 
L 60.774664 115.767368 
L 61.193927 116.63946 
L 61.403559 116.777496 
L 61.61319 116.719292 
L 61.822822 116.467556 
L 62.242085 115.397721 
L 62.661348 113.602883 
L 63.290243 109.651183 
L 64.128769 102.331263 
L 65.176927 90.657425 
L 67.273242 63.578248 
L 68.740663 45.997399 
L 69.788821 36.01587 
L 70.627347 30.161946 
L 71.256242 27.173266 
L 71.675505 25.877133 
L 72.094768 25.142239 
L 72.514031 24.962712 
L 72.723662 25.077151 
L 73.142926 25.702046 
L 73.562189 26.833075 
L 74.191083 29.406269 
L 75.029609 34.256648 
L 76.077767 42.041882 
L 80.060767 73.88525 
L 80.899293 78.217299 
L 81.528187 80.490096 
L 82.157082 81.858574 
L 82.576345 82.25462 
L 82.995608 82.237397 
L 83.414871 81.813838 
L 83.834134 80.996988 
L 84.463029 79.077019 
L 85.091924 76.401762 
L 85.93045 71.852104 
L 87.188239 63.57072 
L 89.913449 44.936997 
L 90.961607 39.43598 
L 91.800133 36.252139 
L 92.429028 34.68122 
L 92.848291 34.044836 
L 93.267554 33.742451 
L 93.686817 33.772748 
L 94.10608 34.129317 
L 94.525343 34.80083 
L 95.154238 36.362427 
L 95.783133 38.523673 
L 96.621659 42.178551 
L 97.879448 48.782389 
L 100.395027 62.38252 
L 101.443184 66.769861 
L 102.281711 69.295384 
L 102.910605 70.520866 
L 103.329868 70.999149 
L 103.749131 71.200755 
L 104.168394 71.125682 
L 104.587658 70.778225 
L 105.006921 70.166858 
L 105.635815 68.783272 
L 106.474342 66.161739 
L 107.522499 61.898998 
L 109.199552 53.860246 
L 110.876604 46.082228 
L 111.924762 42.190842 
L 112.763288 39.912906 
L 113.392183 38.77576 
L 114.021077 38.163881 
L 114.44034 38.054348 
L 114.859603 38.182667 
L 115.278866 38.543953 
L 115.907761 39.503271 
L 116.536656 40.924323 
L 117.375182 43.43507 
L 118.42334 47.314535 
L 121.987076 61.293663 
L 122.825602 63.584887 
L 123.454497 64.839295 
L 124.083391 65.651266 
L 124.502655 65.93476 
L 124.921918 66.008354 
L 125.341181 65.872639 
L 125.760444 65.531465 
L 126.389338 64.650664 
L 127.018233 63.360402 
L 127.856759 61.09154 
L 129.114549 56.830658 
L 132.259022 45.536923 
L 133.097548 43.292968 
L 133.936074 41.660308 
L 134.564969 40.893006 
L 134.984232 40.612579 
L 135.403495 40.520693 
L 135.822758 40.617146 
L 136.242021 40.898797 
L 136.870916 41.654621 
L 137.49981 42.78126 
L 138.338337 44.782033 
L 139.386494 47.890171 
L 143.159862 59.740159 
L 143.998388 61.487746 
L 144.627283 62.409587 
L 145.256178 62.964406 
L 145.675441 63.121859 
L 146.094704 63.107318 
L 146.513967 62.922062 
L 147.142862 62.333425 
L 147.771756 61.394244 
L 148.610282 59.660773 
L 149.65844 56.88667 
L 151.754756 50.415774 
L 153.222177 46.254499 
L 154.270334 43.978651 
L 155.10886 42.745459 
L 155.737755 42.212176 
L 156.36665 42.032971 
L 156.785913 42.112202 
L 157.414807 42.523531 
L 158.043702 43.269163 
L 158.882228 44.731131 
L 159.930386 47.167681 
L 161.607438 51.869985 
L 163.494122 57.034226 
L 164.54228 59.269832 
L 165.380806 60.53736 
L 166.009701 61.132253 
L 166.638596 61.400176 
L 167.057859 61.393068 
L 167.686753 61.105738 
L 168.315648 60.498214 
L 168.944543 59.593987 
L 169.783069 57.986502 
L 170.831226 55.482276 
L 174.604594 45.835472 
L 175.443121 44.39008 
L 176.072015 43.619757 
L 176.70091 43.14739 
L 177.329804 42.987655 
L 177.958699 43.144135 
L 178.587594 43.609261 
L 179.216488 44.364644 
L 180.055015 45.772749 
L 181.103172 48.043484 
L 182.989856 52.846675 
L 184.457277 56.396194 
L 185.505435 58.412408 
L 186.343961 59.559603 
L 186.972856 60.100513 
L 187.60175 60.346844 
L 188.230645 60.291239 
L 188.85954 59.937018 
L 189.488434 59.298012 
L 190.32696 58.045468 
L 191.375118 55.954511 
L 193.05217 51.904016 
L 194.938854 47.428648 
L 195.987012 45.478285 
L 196.825538 44.36516 
L 197.454433 43.837601 
L 198.083328 43.593752 
L 198.712222 43.641031 
L 199.341117 43.976567 
L 199.970012 44.587335 
L 200.808538 45.789337 
L 201.856695 47.801255 
L 203.324116 51.199241 
L 205.420432 56.030711 
L 206.468589 57.916118 
L 207.307116 58.991675 
L 207.93601 59.500406 
L 208.564905 59.733699 
L 209.1938 59.684043 
L 209.822694 59.353932 
L 210.451589 58.75575 
L 211.290115 57.580137 
L 212.338273 55.612965 
L 213.805694 52.289001 
L 215.902009 47.556392 
L 216.950167 45.706134 
L 217.788693 44.648649 
L 218.417588 44.147023 
L 219.046482 43.915188 
L 219.675377 43.960785 
L 220.304272 44.281643 
L 220.933166 44.865882 
L 221.771692 46.016754 
L 222.81985 47.945779 
L 224.287271 51.210225 
L 226.383586 55.865317 
L 227.431744 57.68714 
L 228.27027 58.728614 
L 228.899165 59.222407 
L 229.52806 59.449958 
L 230.156954 59.403456 
L 230.785849 59.084781 
L 231.414744 58.505425 
L 232.25327 57.364449 
L 233.301428 55.45148 
L 234.768848 52.211922 
L 236.865164 47.586642 
L 237.913322 45.774146 
L 238.751848 44.737012 
L 239.380742 44.244749 
L 240.009637 44.017423 
L 240.219269 44.002188 
L 240.219269 44.002188 
" clip-path="url(#p36a1723825)" style="fill: none; stroke: #524582; stroke-linecap: round"/>
   </g>
   <g id="line2d_14">
    <path d="M 46.032348 147.90808 
L 46.938982 109.964071 
L 47.98714 75.485723 
L 48.825666 55.10445 
L 49.454561 43.873145 
L 50.083455 35.927849 
L 50.71235 31.039476 
L 51.131613 29.344498 
L 51.341245 28.932592 
L 51.550876 28.795142 
L 51.760508 28.919741 
L 51.970139 29.293656 
L 52.389402 30.737115 
L 52.808665 33.018666 
L 53.43756 37.772369 
L 54.276086 46.012915 
L 55.743507 63.225038 
L 57.420559 82.577767 
L 58.468717 92.339813 
L 59.307243 98.143381 
L 59.936138 101.148619 
L 60.355401 102.476901 
L 60.774664 103.258284 
L 61.193927 103.496492 
L 61.403559 103.415265 
L 61.822822 102.863013 
L 62.242085 101.81067 
L 62.87098 99.360119 
L 63.499874 95.974372 
L 64.338401 90.26192 
L 65.59619 79.94344 
L 68.531031 55.091371 
L 69.579189 48.27192 
L 70.417715 44.179636 
L 71.04661 42.000433 
L 71.675505 40.613991 
L 72.094768 40.13008 
L 72.514031 39.990969 
L 72.933294 40.184774 
L 73.352557 40.695108 
L 73.981452 42.008174 
L 74.610346 43.901919 
L 75.448873 47.15619 
L 76.706662 53.051633 
L 79.012609 64.132884 
L 80.060767 68.108812 
L 80.899293 70.441493 
L 81.528187 71.614998 
L 82.157082 72.262583 
L 82.576345 72.397233 
L 82.995608 72.296211 
L 83.414871 71.965249 
L 84.043766 71.058512 
L 84.672661 69.699627 
L 85.511187 67.286288 
L 86.559345 63.544495 
L 90.332712 49.17434 
L 91.171239 46.936489 
L 92.009765 45.341306 
L 92.638659 44.606644 
L 93.267554 44.280476 
L 93.686817 44.28859 
L 94.10608 44.472202 
L 94.734975 45.060332 
L 95.36387 45.992408 
L 96.202396 47.691156 
L 97.250553 50.36013 
L 100.81429 60.070782 
L 101.652816 61.669536 
L 102.491342 62.77714 
L 103.120237 63.250338 
L 103.749131 63.404164 
L 104.378026 63.23926 
L 105.006921 62.767313 
L 105.635815 62.010381 
L 106.474342 60.613339 
L 107.522499 58.382724 
L 109.828446 52.684157 
L 111.295867 49.440708 
L 112.344025 47.701844 
L 113.182551 46.773435 
L 113.811446 46.377176 
L 114.44034 46.246864 
L 115.069235 46.380264 
L 115.69813 46.76606 
L 116.536656 47.637702 
L 117.375182 48.854317 
L 118.632971 51.132056 
L 121.567813 56.734947 
L 122.615971 58.210235 
L 123.454497 59.020556 
L 124.083391 59.381574 
L 124.712286 59.519612 
L 125.341181 59.432927 
L 125.970075 59.127647 
L 126.808602 58.40518 
L 127.647128 57.370292 
L 128.904917 55.387521 
L 132.468653 49.385983 
L 133.516811 48.199042 
L 134.355337 47.5954 
L 134.984232 47.365553 
L 135.613127 47.33239 
L 136.242021 47.493488 
L 137.080547 47.993719 
L 137.919074 48.783402 
L 138.967231 50.090928 
L 140.853915 52.910589 
L 142.530968 55.293891 
L 143.579125 56.445503 
L 144.417652 57.086849 
L 145.256178 57.438639 
L 145.885072 57.500946 
L 146.513967 57.389485 
L 147.352493 56.98124 
L 148.191019 56.304205 
L 149.239177 55.150596 
L 150.916229 52.880368 
L 153.012545 50.077663 
L 154.060703 48.998741 
L 154.899229 48.387223 
L 155.737755 48.036998 
L 156.576281 47.965159 
L 157.414807 48.171297 
L 158.253334 48.637777 
L 159.301491 49.534578 
L 160.559281 50.942427 
L 163.913385 54.905328 
L 164.961543 55.746162 
L 165.800069 56.169741 
L 166.638596 56.34469 
L 167.477122 56.262575 
L 168.315648 55.931055 
L 169.154174 55.37321 
L 170.202332 54.414953 
L 171.879384 52.514821 
L 173.9757 50.150693 
L 175.233489 49.085755 
L 176.072015 48.618272 
L 176.910541 48.377667 
L 177.749068 48.376118 
L 178.587594 48.610809 
L 179.42612 49.064257 
L 180.474278 49.890477 
L 181.941698 51.373824 
L 184.666909 54.204615 
L 185.715066 54.999358 
L 186.763224 55.501967 
L 187.60175 55.661414 
L 188.440276 55.595049 
L 189.278803 55.308538 
L 190.32696 54.671499 
L 191.58475 53.586547 
L 195.987012 49.379215 
L 197.03517 48.826574 
L 197.873696 48.610645 
L 198.712222 48.609515 
L 199.550748 48.821591 
L 200.598906 49.362647 
L 201.856695 50.339752 
L 203.743379 52.171107 
L 205.630063 53.922871 
L 206.887853 54.771841 
L 207.93601 55.17874 
L 208.774537 55.277851 
L 209.613063 55.168991 
L 210.451589 54.859784 
L 211.499747 54.223254 
L 212.757536 53.179409 
L 216.740535 49.59111 
L 217.788693 49.019656 
L 218.627219 48.76825 
L 219.465745 48.716795 
L 220.304272 48.867749 
L 221.352429 49.324389 
L 222.400587 50.034614 
L 223.868008 51.317408 
L 226.80285 53.95043 
L 227.851007 54.608413 
L 228.899165 55.002278 
L 229.737691 55.1007 
L 230.576217 54.999289 
L 231.414744 54.704654 
L 232.462901 54.094175 
L 233.720691 53.088643 
L 237.913322 49.477825 
L 238.961479 48.973353 
L 239.800005 48.775924 
L 240.219269 48.750952 
L 240.219269 48.750952 
" clip-path="url(#p36a1723825)" style="fill: none; stroke: #367bc3; stroke-linecap: round"/>
   </g>
   <g id="line2d_15">
    <path d="M 46.167152 147.90808 
L 47.148614 121.137004 
L 47.98714 103.595075 
L 48.825666 90.490014 
L 49.664192 81.323186 
L 50.293087 76.704966 
L 50.921982 73.754491 
L 51.341245 72.593859 
L 51.760508 71.994555 
L 52.179771 71.885887 
L 52.599034 72.198747 
L 53.018297 72.866117 
L 53.647192 74.391672 
L 54.485718 77.090842 
L 57.420559 87.14879 
L 58.259086 89.031654 
L 58.88798 89.957721 
L 59.516875 90.434523 
L 59.936138 90.497866 
L 60.355401 90.359232 
L 60.774664 90.023598 
L 61.403559 89.168603 
L 62.032454 87.92539 
L 62.87098 85.746772 
L 63.919137 82.376508 
L 65.805821 75.382709 
L 67.692505 68.605433 
L 68.950295 64.874307 
L 69.998452 62.465825 
L 70.836979 61.048863 
L 71.675505 60.090039 
L 72.304399 59.659515 
L 72.933294 59.458081 
L 73.562189 59.463029 
L 74.400715 59.742873 
L 75.239241 60.266683 
L 76.49703 61.334497 
L 79.012609 63.524104 
L 80.060767 64.127919 
L 80.899293 64.393212 
L 81.737819 64.441924 
L 82.576345 64.268924 
L 83.414871 63.883346 
L 84.463029 63.136629 
L 85.720818 61.940437 
L 90.751975 56.746779 
L 91.800133 56.091588 
L 92.848291 55.680078 
L 93.896449 55.511831 
L 94.944606 55.565015 
L 96.202396 55.864188 
L 98.08908 56.596181 
L 100.604658 57.556145 
L 102.072079 57.855269 
L 103.329868 57.879996 
L 104.587658 57.679628 
L 106.055078 57.192886 
L 107.941762 56.295799 
L 111.295867 54.648829 
L 112.763288 54.166648 
L 114.230709 53.917586 
L 115.69813 53.906575 
L 117.375182 54.136031 
L 120.519655 54.879984 
L 122.615971 55.257337 
L 124.293023 55.339827 
L 125.970075 55.191489 
L 127.856759 54.785966 
L 134.145706 53.182791 
L 136.03239 53.077596 
L 137.919074 53.202056 
L 140.853915 53.660045 
L 143.788757 54.052886 
L 145.885072 54.096872 
L 147.981388 53.90264 
L 150.916229 53.363731 
L 154.270334 52.781291 
L 156.36665 52.633184 
L 158.672597 52.711594 
L 162.026701 53.10685 
L 165.171175 53.412838 
L 167.477122 53.415212 
L 169.9927 53.182331 
L 176.910541 52.376802 
L 179.42612 52.425592 
L 182.989856 52.769235 
L 186.553593 53.047948 
L 189.069171 53.018235 
L 192.004013 52.750072 
L 197.244801 52.238516 
L 199.970012 52.247686 
L 203.324116 52.515705 
L 207.726379 52.841129 
L 210.451589 52.799002 
L 214.015325 52.484481 
L 218.207956 52.151293 
L 220.933166 52.167857 
L 224.496903 52.444972 
L 228.689533 52.743717 
L 231.414744 52.71458 
L 234.97848 52.428758 
L 239.171111 52.122011 
L 240.219269 52.106265 
L 240.219269 52.106265 
" clip-path="url(#p36a1723825)" style="fill: none; stroke: #38bfa7; stroke-linecap: round"/>
   </g>
   <g id="line2d_16">
    <path d="M 46.420472 147.90808 
L 47.148614 133.208008 
L 47.98714 119.849813 
L 48.825666 109.783683 
L 49.664192 102.497206 
L 50.293087 98.556175 
L 50.921982 95.697895 
L 51.550876 93.733268 
L 52.179771 92.486312 
L 52.808665 91.795625 
L 53.43756 91.515435 
L 54.066455 91.516251 
L 55.114612 91.84289 
L 56.582033 92.317278 
L 57.420559 92.332299 
L 58.049454 92.151838 
L 58.678349 91.784501 
L 59.516875 90.990998 
L 60.355401 89.857485 
L 61.403559 88.010106 
L 62.661348 85.294396 
L 64.967295 79.602446 
L 67.063611 74.59703 
L 68.531031 71.638819 
L 69.788821 69.598972 
L 70.836979 68.272609 
L 71.885136 67.273397 
L 72.933294 66.567397 
L 73.981452 66.10503 
L 75.239241 65.788008 
L 77.125925 65.573814 
L 79.641503 65.280114 
L 81.318556 64.853035 
L 82.995608 64.179725 
L 84.882292 63.173948 
L 90.542344 59.959006 
L 92.429028 59.257147 
L 94.315712 58.821155 
L 96.412027 58.585848 
L 103.958763 58.005028 
L 106.893605 57.394464 
L 112.553656 56.169331 
L 115.278866 55.855719 
L 118.632971 55.723054 
L 124.712286 55.520199 
L 128.904917 55.087849 
L 134.564969 54.512846 
L 138.338337 54.376508 
L 147.981388 54.161957 
L 158.253334 53.635564 
L 172.298647 53.383529 
L 178.797225 53.199289 
L 195.987012 52.989202 
L 202.48559 52.957311 
L 212.128641 52.937753 
L 222.610219 52.825789 
L 234.139954 52.840948 
L 240.219269 52.769853 
L 240.219269 52.769853 
" clip-path="url(#p36a1723825)" style="fill: none; stroke: #8fe182; stroke-linecap: round"/>
   </g>
   <g id="patch_3">
    <path d="M 30.744984 124.13342 
L 30.744984 0.72 
" style="fill: none; stroke: #000000; stroke-width: 0.35; stroke-linejoin: miter; stroke-linecap: square"/>
   </g>
   <g id="patch_4">
    <path d="M 239.80032 124.13342 
L 239.80032 0.72 
" style="fill: none; stroke: #000000; stroke-width: 0.35; stroke-linejoin: miter; stroke-linecap: square"/>
   </g>
   <g id="patch_5">
    <path d="M 30.744984 124.13342 
L 239.80032 124.13342 
" style="fill: none; stroke: #000000; stroke-width: 0.35; stroke-linejoin: miter; stroke-linecap: square"/>
   </g>
   <g id="patch_6">
    <path d="M 30.744984 0.72 
L 239.80032 0.72 
" style="fill: none; stroke: #000000; stroke-width: 0.35; stroke-linejoin: miter; stroke-linecap: square"/>
   </g>
   <g id="text_15">
    <!-- $L=50$ -->
    <g transform="translate(210.51122 10.825669) scale(0.08 -0.08)">
     <defs>
      <path id="CMR17-3d" d="M 4115 2048 
C 4211 2048 4307 2048 4307 2156 
C 4307 2272 4198 2272 4090 2272 
L 512 2272 
C 403 2272 294 2272 294 2156 
C 294 2048 390 2048 486 2048 
L 4115 2048 
z
M 4090 927 
C 4198 927 4307 927 4307 1043 
C 4307 1152 4211 1152 4115 1152 
L 486 1152 
C 390 1152 294 1152 294 1043 
C 294 927 403 927 512 927 
L 4090 927 
z
" transform="scale(0.015625)"/>
      <path id="CMR17-35" d="M 730 3750 
C 794 3724 1056 3641 1325 3641 
C 1920 3641 2246 3961 2432 4140 
C 2432 4191 2432 4224 2394 4224 
C 2387 4224 2374 4224 2323 4198 
C 2099 4102 1837 4032 1517 4032 
C 1325 4032 1037 4055 723 4191 
C 653 4224 640 4224 634 4224 
C 602 4224 595 4217 595 4090 
L 595 2231 
C 595 2113 595 2080 659 2080 
C 691 2080 704 2093 736 2139 
C 941 2435 1222 2560 1542 2560 
C 1766 2560 2246 2415 2246 1293 
C 2246 1087 2246 716 2054 422 
C 1894 159 1645 25 1370 25 
C 947 25 518 319 403 812 
C 429 806 480 793 506 793 
C 589 793 749 838 749 1036 
C 749 1209 627 1280 506 1280 
C 358 1280 262 1190 262 1011 
C 262 454 704 -128 1382 -128 
C 2042 -128 2669 441 2669 1267 
C 2669 2054 2170 2662 1549 2662 
C 1222 2662 947 2540 730 2304 
L 730 3750 
z
" transform="scale(0.015625)"/>
     </defs>
     <use xlink:href="#CMMI12-4c" transform="scale(0.996264)"/>
     <use xlink:href="#CMR17-3d" transform="translate(94.044884 0) scale(0.996264)"/>
     <use xlink:href="#CMR17-35" transform="translate(193.433681 0) scale(0.996264)"/>
     <use xlink:href="#CMR17-30" transform="translate(239.124158 0) scale(0.996264)"/>
    </g>
   </g>
   <g id="legend_1">
    <g id="line2d_17">
     <path d="M 176.90208 82.230556 
L 186.90208 82.230556 
L 196.90208 82.230556 
" style="fill: none; stroke: #524582; stroke-linecap: round"/>
    </g>
    <g id="text_16">
     <!-- $K=5/8$ -->
     <g transform="translate(200.90208 85.030556) scale(0.08 -0.08)">
      <defs>
       <path id="CMMI12-4b" d="M 3200 2574 
C 3194 2593 3168 2644 3168 2663 
C 3168 2669 3174 2675 3283 2758 
L 3904 3242 
C 4762 3905 5043 4128 5485 4166 
C 5530 4172 5594 4172 5594 4281 
C 5594 4319 5574 4352 5523 4352 
C 5453 4352 5376 4339 5306 4339 
L 5062 4339 
C 4864 4339 4653 4352 4461 4352 
C 4416 4352 4339 4352 4339 4236 
C 4339 4172 4384 4166 4422 4166 
C 4493 4159 4576 4134 4576 4045 
C 4576 3917 4384 3765 4333 3726 
L 1824 1784 
L 2355 3886 
C 2413 4102 2426 4166 2880 4166 
C 3002 4166 3059 4166 3059 4287 
C 3059 4352 2995 4352 2963 4352 
C 2848 4352 2714 4339 2592 4339 
L 1837 4339 
C 1722 4339 1581 4352 1466 4352 
C 1414 4352 1344 4352 1344 4230 
C 1344 4166 1402 4166 1498 4166 
C 1888 4166 1888 4115 1888 4045 
C 1888 4032 1888 3994 1862 3898 
L 998 472 
C 941 249 928 185 480 185 
C 358 185 294 185 294 70 
C 294 0 352 0 390 0 
C 512 0 640 12 762 12 
L 1510 12 
C 1632 12 1766 0 1888 0 
C 1939 0 2010 0 2010 121 
C 2010 185 1952 185 1856 185 
C 1466 185 1466 236 1466 300 
C 1466 344 1504 504 1530 605 
L 1779 1593 
L 2752 2351 
C 2938 1943 3277 1128 3539 504 
C 3558 465 3571 427 3571 383 
C 3571 191 3315 185 3258 185 
C 3200 185 3136 185 3136 64 
C 3136 0 3206 0 3226 0 
C 3450 0 3686 12 3910 12 
L 4218 12 
C 4314 12 4422 0 4518 0 
C 4557 0 4627 0 4627 121 
C 4627 185 4570 185 4506 185 
C 4269 191 4186 242 4090 472 
L 3200 2574 
z
" transform="scale(0.015625)"/>
      </defs>
      <use xlink:href="#CMMI12-4b" transform="scale(0.996264)"/>
      <use xlink:href="#CMR17-3d" transform="translate(117.82143 0) scale(0.996264)"/>
      <use xlink:href="#CMR17-35" transform="translate(217.210227 0) scale(0.996264)"/>
      <use xlink:href="#CMMI12-3d" transform="translate(262.900704 0) scale(0.996264)"/>
      <use xlink:href="#CMR17-38" transform="translate(311.675623 0) scale(0.996264)"/>
     </g>
    </g>
    <g id="line2d_18">
     <path d="M 176.90208 92.200668 
L 186.90208 92.200668 
L 196.90208 92.200668 
" style="fill: none; stroke: #367bc3; stroke-linecap: round"/>
    </g>
    <g id="text_17">
     <!-- $K=4/5$ -->
     <g transform="translate(200.90208 95.000668) scale(0.08 -0.08)">
      <use xlink:href="#CMMI12-4b" transform="scale(0.996264)"/>
      <use xlink:href="#CMR17-3d" transform="translate(117.82143 0) scale(0.996264)"/>
      <use xlink:href="#CMR17-34" transform="translate(217.210227 0) scale(0.996264)"/>
      <use xlink:href="#CMMI12-3d" transform="translate(262.900704 0) scale(0.996264)"/>
      <use xlink:href="#CMR17-35" transform="translate(311.675623 0) scale(0.996264)"/>
     </g>
    </g>
    <g id="line2d_19">
     <path d="M 176.90208 102.17078 
L 186.90208 102.17078 
L 196.90208 102.17078 
" style="fill: none; stroke: #38bfa7; stroke-linecap: round"/>
    </g>
    <g id="text_18">
     <!-- $K=5/4$ -->
     <g transform="translate(200.90208 104.97078) scale(0.08 -0.08)">
      <use xlink:href="#CMMI12-4b" transform="scale(0.996264)"/>
      <use xlink:href="#CMR17-3d" transform="translate(117.82143 0) scale(0.996264)"/>
      <use xlink:href="#CMR17-35" transform="translate(217.210227 0) scale(0.996264)"/>
      <use xlink:href="#CMMI12-3d" transform="translate(262.900704 0) scale(0.996264)"/>
      <use xlink:href="#CMR17-34" transform="translate(311.675623 0) scale(0.996264)"/>
     </g>
    </g>
    <g id="line2d_20">
     <path d="M 176.90208 112.140892 
L 186.90208 112.140892 
L 196.90208 112.140892 
" style="fill: none; stroke: #8fe182; stroke-linecap: round"/>
    </g>
    <g id="text_19">
     <!-- $K=8/5$ -->
     <g transform="translate(200.90208 114.940892) scale(0.08 -0.08)">
      <use xlink:href="#CMMI12-4b" transform="scale(0.996264)"/>
      <use xlink:href="#CMR17-3d" transform="translate(117.82143 0) scale(0.996264)"/>
      <use xlink:href="#CMR17-38" transform="translate(217.210227 0) scale(0.996264)"/>
      <use xlink:href="#CMMI12-3d" transform="translate(262.900704 0) scale(0.996264)"/>
      <use xlink:href="#CMR17-35" transform="translate(311.675623 0) scale(0.996264)"/>
     </g>
    </g>
   </g>
  </g>
 </g>
 <defs>
  <clipPath id="p36a1723825">
   <rect x="30.744984" y="0.72" width="209.055336" height="123.41342"/>
  </clipPath>
 </defs>
</svg>
