<?xml version="1.0" encoding="utf-8" standalone="no"?>
<!DOCTYPE svg PUBLIC "-//W3C//DTD SVG 1.1//EN"
  "http://www.w3.org/Graphics/SVG/1.1/DTD/svg11.dtd">
<svg xmlns:xlink="http://www.w3.org/1999/xlink" width="240.52032pt" height="146.90847pt" viewBox="0 0 240.52032 146.90847" xmlns="http://www.w3.org/2000/svg" version="1.1">
 <metadata>
  <rdf:RDF xmlns:dc="http://purl.org/dc/elements/1.1/" xmlns:cc="http://creativecommons.org/ns#" xmlns:rdf="http://www.w3.org/1999/02/22-rdf-syntax-ns#">
   <cc:Work>
    <dc:type rdf:resource="http://purl.org/dc/dcmitype/StillImage"/>
    <dc:date>2026-06-25T11:22:11.555853</dc:date>
    <dc:format>image/svg+xml</dc:format>
    <dc:creator>
     <cc:Agent>
      <dc:title>Matplotlib v3.6.2, https://matplotlib.org/</dc:title>
     </cc:Agent>
    </dc:creator>
   </cc:Work>
  </rdf:RDF>
 </metadata>
 <defs>
  <style type="text/css">*{stroke-linejoin: round; stroke-linecap: butt}</style>
 </defs>
 <g id="figure_1">
  <g id="patch_1">
   <path d="M 0 146.90847 
L 240.52032 146.90847 
L 240.52032 0 
L 0 0 
L 0 146.90847 
z
" style="fill: none"/>
  </g>
  <g id="axes_1">
   <g id="patch_2">
    <path d="M 32.211744 124.13381 
L 239.444431 124.13381 
L 239.444431 23.09466 
L 32.211744 23.09466 
L 32.211744 124.13381 
z
" style="fill: none"/>
   </g>
   <g id="matplotlib.axis_1">
    <g id="xtick_1">
     <g id="line2d_1">
      <defs>
       <path id="me5fb6caa56" d="M 0 0 
L 0 2 
" style="stroke: #000000; stroke-width: 0.35"/>
      </defs>
      <g>
       <use xlink:href="#me5fb6caa56" x="133.300859" y="124.13381" style="stroke: #000000; stroke-width: 0.35"/>
      </g>
     </g>
     <g id="text_1">
      <!-- 1 -->
      <g transform="translate(131.183768 134.668612) scale(0.08 -0.08)">
       <defs>
        <path id="CMR17-31" d="M 1702 4083 
C 1702 4217 1696 4224 1606 4224 
C 1357 3927 979 3833 621 3820 
C 602 3820 570 3820 563 3808 
C 557 3795 557 3782 557 3648 
C 755 3648 1088 3686 1344 3839 
L 1344 467 
C 1344 243 1331 166 781 166 
L 589 166 
L 589 0 
C 896 6 1216 12 1523 12 
C 1830 12 2150 6 2458 0 
L 2458 166 
L 2266 166 
C 1715 166 1702 236 1702 467 
L 1702 4083 
z
" transform="scale(0.015625)"/>
       </defs>
       <use xlink:href="#CMR17-31" transform="scale(0.996264)"/>
      </g>
     </g>
    </g>
    <g id="xtick_2">
     <g id="line2d_2">
      <g>
       <use xlink:href="#me5fb6caa56" x="233.126361" y="124.13381" style="stroke: #000000; stroke-width: 0.35"/>
      </g>
     </g>
     <g id="text_2">
      <!-- 10 -->
      <g transform="translate(228.892178 134.668612) scale(0.08 -0.08)">
       <defs>
        <path id="CMR17-30" d="M 2688 2038 
C 2688 2430 2682 3099 2413 3613 
C 2176 4063 1798 4224 1466 4224 
C 1158 4224 768 4082 525 3620 
C 269 3137 243 2539 243 2038 
C 243 1671 250 1112 448 623 
C 723 -39 1216 -128 1466 -128 
C 1760 -128 2208 -7 2470 604 
C 2662 1048 2688 1568 2688 2038 
z
M 1466 -26 
C 1056 -26 813 328 723 816 
C 653 1196 653 1749 653 2109 
C 653 2604 653 3015 736 3407 
C 858 3954 1216 4121 1466 4121 
C 1728 4121 2067 3947 2189 3420 
C 2272 3054 2278 2623 2278 2109 
C 2278 1691 2278 1176 2202 797 
C 2067 96 1690 -26 1466 -26 
z
" transform="scale(0.015625)"/>
       </defs>
       <use xlink:href="#CMR17-31" transform="scale(0.996264)"/>
       <use xlink:href="#CMR17-30" transform="translate(45.690477 0) scale(0.996264)"/>
      </g>
     </g>
    </g>
    <g id="xtick_3">
     <g id="line2d_3">
      <g>
       <use xlink:href="#me5fb6caa56" x="61.820746" y="124.13381" style="stroke: #000000; stroke-width: 0.35"/>
      </g>
     </g>
     <g id="text_3">
      <!-- 2/3 -->
      <g transform="translate(55.469471 135.111394) scale(0.08 -0.08)">
       <defs>
        <path id="CMR17-32" d="M 2669 990 
L 2554 990 
C 2490 537 2438 460 2413 422 
C 2381 371 1920 371 1830 371 
L 602 371 
C 832 620 1280 1073 1824 1596 
C 2214 1966 2669 2400 2669 3033 
C 2669 3788 2067 4224 1395 4224 
C 691 4224 262 3603 262 3027 
C 262 2777 448 2745 525 2745 
C 589 2745 781 2783 781 3007 
C 781 3206 614 3264 525 3264 
C 486 3264 448 3257 422 3244 
C 544 3788 915 4057 1306 4057 
C 1862 4057 2227 3616 2227 3033 
C 2227 2477 1901 1998 1536 1583 
L 262 147 
L 262 0 
L 2515 0 
L 2669 990 
z
" transform="scale(0.015625)"/>
        <path id="CMR17-2f" d="M 2605 4575 
C 2637 4658 2637 4671 2637 4684 
C 2637 4761 2579 4800 2528 4800 
C 2451 4800 2426 4748 2400 4671 
L 326 -1376 
C 294 -1460 294 -1472 294 -1485 
C 294 -1562 352 -1600 403 -1600 
C 480 -1600 506 -1549 531 -1472 
L 2605 4575 
z
" transform="scale(0.015625)"/>
        <path id="CMR17-33" d="M 1414 2176 
C 1984 2176 2234 1673 2234 1094 
C 2234 322 1824 25 1453 25 
C 1114 25 563 193 390 691 
C 422 678 454 678 486 678 
C 640 678 755 780 755 947 
C 755 1132 614 1216 486 1216 
C 378 1216 211 1164 211 927 
C 211 335 787 -128 1466 -128 
C 2176 -128 2720 432 2720 1087 
C 2720 1718 2208 2176 1600 2246 
C 2086 2347 2554 2776 2554 3353 
C 2554 3856 2048 4224 1472 4224 
C 890 4224 378 3862 378 3347 
C 378 3123 544 3084 627 3084 
C 762 3084 877 3167 877 3334 
C 877 3500 762 3584 627 3584 
C 602 3584 570 3584 544 3571 
C 730 3999 1235 4076 1459 4076 
C 1683 4076 2106 3966 2106 3347 
C 2106 3167 2080 2851 1862 2574 
C 1670 2329 1453 2316 1242 2297 
C 1210 2297 1062 2284 1037 2284 
C 992 2278 966 2272 966 2227 
C 966 2182 973 2176 1101 2176 
L 1414 2176 
z
" transform="scale(0.015625)"/>
       </defs>
       <use xlink:href="#CMR17-32" transform="scale(0.996264)"/>
       <use xlink:href="#CMR17-2f" transform="translate(45.690477 0) scale(0.996264)"/>
       <use xlink:href="#CMR17-33" transform="translate(91.380954 0) scale(0.996264)"/>
      </g>
     </g>
    </g>
    <g id="xtick_4">
     <g id="line2d_4">
      <g>
       <use xlink:href="#me5fb6caa56" x="32.211744" y="124.13381" style="stroke: #000000; stroke-width: 0.35"/>
      </g>
     </g>
     <g id="text_4">
      <!-- 1/2 -->
      <g transform="translate(25.860469 135.111394) scale(0.08 -0.08)">
       <use xlink:href="#CMR17-31" transform="scale(0.996264)"/>
       <use xlink:href="#CMR17-2f" transform="translate(45.690477 0) scale(0.996264)"/>
       <use xlink:href="#CMR17-32" transform="translate(91.380954 0) scale(0.996264)"/>
      </g>
     </g>
    </g>
    <g id="text_5">
     <!-- $K$ -->
     <g transform="translate(132.257401 144.638724) scale(0.08 -0.08)">
      <defs>
       <path id="CMMI12-4b" d="M 3200 2574 
C 3194 2593 3168 2644 3168 2663 
C 3168 2669 3174 2675 3283 2758 
L 3904 3242 
C 4762 3905 5043 4128 5485 4166 
C 5530 4172 5594 4172 5594 4281 
C 5594 4319 5574 4352 5523 4352 
C 5453 4352 5376 4339 5306 4339 
L 5062 4339 
C 4864 4339 4653 4352 4461 4352 
C 4416 4352 4339 4352 4339 4236 
C 4339 4172 4384 4166 4422 4166 
C 4493 4159 4576 4134 4576 4045 
C 4576 3917 4384 3765 4333 3726 
L 1824 1784 
L 2355 3886 
C 2413 4102 2426 4166 2880 4166 
C 3002 4166 3059 4166 3059 4287 
C 3059 4352 2995 4352 2963 4352 
C 2848 4352 2714 4339 2592 4339 
L 1837 4339 
C 1722 4339 1581 4352 1466 4352 
C 1414 4352 1344 4352 1344 4230 
C 1344 4166 1402 4166 1498 4166 
C 1888 4166 1888 4115 1888 4045 
C 1888 4032 1888 3994 1862 3898 
L 998 472 
C 941 249 928 185 480 185 
C 358 185 294 185 294 70 
C 294 0 352 0 390 0 
C 512 0 640 12 762 12 
L 1510 12 
C 1632 12 1766 0 1888 0 
C 1939 0 2010 0 2010 121 
C 2010 185 1952 185 1856 185 
C 1466 185 1466 236 1466 300 
C 1466 344 1504 504 1530 605 
L 1779 1593 
L 2752 2351 
C 2938 1943 3277 1128 3539 504 
C 3558 465 3571 427 3571 383 
C 3571 191 3315 185 3258 185 
C 3200 185 3136 185 3136 64 
C 3136 0 3206 0 3226 0 
C 3450 0 3686 12 3910 12 
L 4218 12 
C 4314 12 4422 0 4518 0 
C 4557 0 4627 0 4627 121 
C 4627 185 4570 185 4506 185 
C 4269 191 4186 242 4090 472 
L 3200 2574 
z
" transform="scale(0.015625)"/>
      </defs>
      <use xlink:href="#CMMI12-4b" transform="scale(0.996264)"/>
     </g>
    </g>
   </g>
   <g id="matplotlib.axis_2">
    <g id="ytick_1">
     <g id="line2d_5">
      <defs>
       <path id="m5e631450bb" d="M 0 0 
L -2 0 
" style="stroke: #000000; stroke-width: 0.35"/>
      </defs>
      <g>
       <use xlink:href="#m5e631450bb" x="32.211744" y="124.13381" style="stroke: #000000; stroke-width: 0.35"/>
      </g>
     </g>
     <g id="text_6">
      <!-- $\mathdefault{−1.5}$ -->
      <g transform="translate(9.804547 126.901211) scale(0.08 -0.08)">
       <defs>
        <path id="CMSY10-0" d="M 4218 1472 
C 4326 1472 4442 1472 4442 1600 
C 4442 1728 4326 1728 4218 1728 
L 755 1728 
C 646 1728 531 1728 531 1600 
C 531 1472 646 1472 755 1472 
L 4218 1472 
z
" transform="scale(0.015625)"/>
        <path id="CMMI12-3a" d="M 1178 307 
C 1178 492 1024 620 870 620 
C 685 620 557 467 557 313 
C 557 128 710 0 864 0 
C 1050 0 1178 153 1178 307 
z
" transform="scale(0.015625)"/>
        <path id="CMR17-35" d="M 730 3750 
C 794 3724 1056 3641 1325 3641 
C 1920 3641 2246 3961 2432 4140 
C 2432 4191 2432 4224 2394 4224 
C 2387 4224 2374 4224 2323 4198 
C 2099 4102 1837 4032 1517 4032 
C 1325 4032 1037 4055 723 4191 
C 653 4224 640 4224 634 4224 
C 602 4224 595 4217 595 4090 
L 595 2231 
C 595 2113 595 2080 659 2080 
C 691 2080 704 2093 736 2139 
C 941 2435 1222 2560 1542 2560 
C 1766 2560 2246 2415 2246 1293 
C 2246 1087 2246 716 2054 422 
C 1894 159 1645 25 1370 25 
C 947 25 518 319 403 812 
C 429 806 480 793 506 793 
C 589 793 749 838 749 1036 
C 749 1209 627 1280 506 1280 
C 358 1280 262 1190 262 1011 
C 262 454 704 -128 1382 -128 
C 2042 -128 2669 441 2669 1267 
C 2669 2054 2170 2662 1549 2662 
C 1222 2662 947 2540 730 2304 
L 730 3750 
z
" transform="scale(0.015625)"/>
       </defs>
       <use xlink:href="#CMSY10-0" transform="scale(0.996264)"/>
       <use xlink:href="#CMR17-31" transform="translate(77.487468 0) scale(0.996264)"/>
       <use xlink:href="#CMMI12-3a" transform="translate(123.177945 0) scale(0.996264)"/>
       <use xlink:href="#CMR17-35" transform="translate(150.275122 0) scale(0.996264)"/>
      </g>
     </g>
    </g>
    <g id="ytick_2">
     <g id="line2d_6">
      <g>
       <use xlink:href="#m5e631450bb" x="32.211744" y="107.293952" style="stroke: #000000; stroke-width: 0.35"/>
      </g>
     </g>
     <g id="text_7">
      <!-- $\mathdefault{−1.0}$ -->
      <g transform="translate(9.804547 110.061353) scale(0.08 -0.08)">
       <use xlink:href="#CMSY10-0" transform="scale(0.996264)"/>
       <use xlink:href="#CMR17-31" transform="translate(77.487468 0) scale(0.996264)"/>
       <use xlink:href="#CMMI12-3a" transform="translate(123.177945 0) scale(0.996264)"/>
       <use xlink:href="#CMR17-30" transform="translate(150.275122 0) scale(0.996264)"/>
      </g>
     </g>
    </g>
    <g id="ytick_3">
     <g id="line2d_7">
      <g>
       <use xlink:href="#m5e631450bb" x="32.211744" y="90.454094" style="stroke: #000000; stroke-width: 0.35"/>
      </g>
     </g>
     <g id="text_8">
      <!-- $\mathdefault{−0.5}$ -->
      <g transform="translate(9.804547 93.221494) scale(0.08 -0.08)">
       <use xlink:href="#CMSY10-0" transform="scale(0.996264)"/>
       <use xlink:href="#CMR17-30" transform="translate(77.487468 0) scale(0.996264)"/>
       <use xlink:href="#CMMI12-3a" transform="translate(123.177945 0) scale(0.996264)"/>
       <use xlink:href="#CMR17-35" transform="translate(150.275122 0) scale(0.996264)"/>
      </g>
     </g>
    </g>
    <g id="ytick_4">
     <g id="line2d_8">
      <g>
       <use xlink:href="#m5e631450bb" x="32.211744" y="73.614235" style="stroke: #000000; stroke-width: 0.35"/>
      </g>
     </g>
     <g id="text_9">
      <!-- $\mathdefault{0.0}$ -->
      <g transform="translate(16.391054 76.381636) scale(0.08 -0.08)">
       <use xlink:href="#CMR17-30" transform="scale(0.996264)"/>
       <use xlink:href="#CMMI12-3a" transform="translate(45.690477 0) scale(0.996264)"/>
       <use xlink:href="#CMR17-30" transform="translate(72.787654 0) scale(0.996264)"/>
      </g>
     </g>
    </g>
    <g id="ytick_5">
     <g id="line2d_9">
      <g>
       <use xlink:href="#m5e631450bb" x="32.211744" y="56.774377" style="stroke: #000000; stroke-width: 0.35"/>
      </g>
     </g>
     <g id="text_10">
      <!-- $\mathdefault{0.5}$ -->
      <g transform="translate(16.391054 59.541778) scale(0.08 -0.08)">
       <use xlink:href="#CMR17-30" transform="scale(0.996264)"/>
       <use xlink:href="#CMMI12-3a" transform="translate(45.690477 0) scale(0.996264)"/>
       <use xlink:href="#CMR17-35" transform="translate(72.787654 0) scale(0.996264)"/>
      </g>
     </g>
    </g>
    <g id="ytick_6">
     <g id="line2d_10">
      <g>
       <use xlink:href="#m5e631450bb" x="32.211744" y="39.934518" style="stroke: #000000; stroke-width: 0.35"/>
      </g>
     </g>
     <g id="text_11">
      <!-- $\mathdefault{1.0}$ -->
      <g transform="translate(16.391054 42.701919) scale(0.08 -0.08)">
       <use xlink:href="#CMR17-31" transform="scale(0.996264)"/>
       <use xlink:href="#CMMI12-3a" transform="translate(45.690477 0) scale(0.996264)"/>
       <use xlink:href="#CMR17-30" transform="translate(72.787654 0) scale(0.996264)"/>
      </g>
     </g>
    </g>
    <g id="ytick_7">
     <g id="line2d_11">
      <g>
       <use xlink:href="#m5e631450bb" x="32.211744" y="23.09466" style="stroke: #000000; stroke-width: 0.35"/>
      </g>
     </g>
     <g id="text_12">
      <!-- $\mathdefault{1.5}$ -->
      <g transform="translate(16.391054 25.862061) scale(0.08 -0.08)">
       <use xlink:href="#CMR17-31" transform="scale(0.996264)"/>
       <use xlink:href="#CMMI12-3a" transform="translate(45.690477 0) scale(0.996264)"/>
       <use xlink:href="#CMR17-35" transform="translate(72.787654 0) scale(0.996264)"/>
      </g>
     </g>
    </g>
    <g id="text_13">
     <!-- Exponent -->
     <g transform="translate(6.254802 91.431013) rotate(-90) scale(0.08 -0.08)">
      <defs>
       <path id="CMR17-45" d="M 3885 1614 
L 3770 1614 
C 3629 676 3546 166 2419 166 
L 1530 166 
C 1274 166 1261 198 1261 415 
L 1261 2176 
L 1862 2176 
C 2464 2176 2522 1959 2522 1429 
L 2637 1429 
L 2637 3086 
L 2522 3086 
C 2522 2558 2464 2342 1862 2342 
L 1261 2342 
L 1261 3924 
C 1261 4141 1274 4172 1530 4172 
L 2406 4172 
C 3398 4172 3514 3778 3603 2933 
L 3718 2933 
L 3565 4339 
L 326 4339 
L 326 4172 
C 768 4172 838 4172 838 3886 
L 838 453 
C 838 166 768 166 326 166 
L 326 0 
L 3654 0 
L 3885 1614 
z
" transform="scale(0.015625)"/>
       <path id="CMR17-78" d="M 1664 1491 
C 1856 1740 2074 2022 2253 2233 
C 2464 2476 2707 2579 2989 2585 
L 2989 2752 
C 2880 2745 2656 2739 2541 2739 
C 2368 2739 2170 2739 2022 2752 
L 2022 2585 
C 2112 2572 2163 2508 2163 2419 
C 2163 2304 2099 2233 2067 2188 
L 1594 1587 
L 1030 2323 
C 973 2393 973 2406 973 2438 
C 973 2515 1037 2579 1146 2585 
L 1146 2752 
C 992 2739 717 2739 557 2739 
C 384 2739 179 2739 38 2752 
L 38 2585 
C 384 2585 461 2560 614 2368 
L 1350 1414 
C 1363 1401 1395 1363 1395 1344 
C 1395 1318 838 633 768 544 
C 480 198 179 172 6 166 
L 6 0 
C 115 6 339 12 454 12 
C 582 12 864 12 979 0 
L 979 166 
C 941 172 838 185 838 332 
C 838 448 890 518 947 595 
L 1478 1248 
L 2035 524 
C 2086 454 2163 358 2163 313 
C 2163 224 2086 172 1984 166 
L 1984 0 
C 2138 12 2413 12 2573 12 
C 2746 12 2950 12 3091 0 
L 3091 166 
C 2771 166 2675 179 2522 377 
L 1664 1491 
z
" transform="scale(0.015625)"/>
       <path id="CMR17-70" d="M 1408 -1114 
C 998 -1114 973 -1088 973 -834 
L 973 380 
C 1158 109 1427 -64 1766 -64 
C 2406 -64 3053 503 3053 1382 
C 3053 2196 2496 2816 1837 2816 
C 1453 2816 1139 2603 960 2345 
L 960 2816 
L 198 2745 
L 198 2577 
C 576 2577 634 2539 634 2228 
L 634 -834 
C 634 -1081 608 -1114 198 -1114 
L 198 -1280 
C 352 -1268 634 -1268 800 -1268 
C 966 -1268 1254 -1268 1408 -1280 
L 1408 -1114 
z
M 973 2015 
C 973 2106 973 2241 1222 2481 
C 1254 2506 1472 2700 1792 2700 
C 2259 2700 2643 2112 2643 1376 
C 2643 639 2234 38 1728 38 
C 1498 38 1248 148 1056 451 
C 973 594 973 632 973 736 
L 973 2015 
z
" transform="scale(0.015625)"/>
       <path id="CMR17-6f" d="M 2758 1356 
C 2758 2176 2163 2816 1466 2816 
C 768 2816 173 2176 173 1356 
C 173 550 768 -64 1466 -64 
C 2163 -64 2758 550 2758 1356 
z
M 1466 51 
C 1165 51 909 230 762 480 
C 602 768 582 1126 582 1408 
C 582 1676 595 2009 762 2297 
C 890 2508 1139 2713 1466 2713 
C 1754 2713 1997 2553 2150 2329 
C 2349 2028 2349 1606 2349 1408 
C 2349 1158 2336 774 2163 467 
C 1984 172 1709 51 1466 51 
z
" transform="scale(0.015625)"/>
       <path id="CMR17-6e" d="M 2656 1954 
C 2656 2282 2592 2816 1837 2816 
C 1331 2816 1069 2424 973 2166 
L 966 2166 
L 966 2816 
L 211 2745 
L 211 2578 
C 589 2578 646 2540 646 2231 
L 646 443 
C 646 198 621 166 211 166 
L 211 0 
C 365 12 646 12 813 12 
C 979 12 1267 12 1421 0 
L 1421 166 
C 1011 166 986 192 986 443 
L 986 1678 
C 986 2269 1344 2713 1792 2713 
C 2266 2713 2317 2289 2317 1980 
L 2317 443 
C 2317 198 2291 166 1882 166 
L 1882 0 
C 2035 12 2317 12 2483 12 
C 2650 12 2938 12 3091 0 
L 3091 166 
C 2682 166 2656 192 2656 443 
L 2656 1954 
z
" transform="scale(0.015625)"/>
       <path id="CMR17-65" d="M 2438 1503 
C 2464 1529 2464 1542 2464 1606 
C 2464 2251 2118 2816 1389 2816 
C 710 2816 173 2175 173 1394 
C 173 554 781 -64 1459 -64 
C 2176 -64 2458 619 2458 755 
C 2458 800 2419 800 2406 800 
C 2362 800 2355 787 2330 709 
C 2189 270 1837 51 1504 51 
C 1229 51 954 206 781 490 
C 582 819 582 1200 582 1503 
L 2438 1503 
z
M 589 1600 
C 634 2511 1126 2713 1382 2713 
C 1818 2713 2112 2308 2118 1600 
L 589 1600 
z
" transform="scale(0.015625)"/>
       <path id="CMR17-74" d="M 966 2585 
L 1862 2585 
L 1862 2752 
L 966 2752 
L 966 3968 
L 851 3968 
C 838 3292 614 2700 70 2687 
L 70 2585 
L 627 2585 
L 627 778 
C 627 655 627 -64 1370 -64 
C 1747 -64 1965 308 1965 784 
L 1965 1151 
L 1850 1151 
L 1850 790 
C 1850 347 1677 51 1408 51 
C 1222 51 966 179 966 765 
L 966 2585 
z
" transform="scale(0.015625)"/>
      </defs>
      <use xlink:href="#CMR17-45" transform="scale(0.996264)"/>
      <use xlink:href="#CMR17-78" transform="translate(62.586301 0) scale(0.996264)"/>
      <use xlink:href="#CMR17-70" transform="translate(110.879216 0) scale(0.996264)"/>
      <use xlink:href="#CMR17-6f" transform="translate(164.377025 0) scale(0.996264)"/>
      <use xlink:href="#CMR17-6e" transform="translate(210.067502 0) scale(0.996264)"/>
      <use xlink:href="#CMR17-65" transform="translate(260.962872 0) scale(0.996264)"/>
      <use xlink:href="#CMR17-6e" transform="translate(301.448532 0) scale(0.996264)"/>
      <use xlink:href="#CMR17-74" transform="translate(349.741448 0) scale(0.996264)"/>
     </g>
    </g>
   </g>
   <g id="line2d_12">
    <path d="M 231.233154 -1 
L 230.544744 8.729753 
L 229.735221 17.198669 
L 228.925699 23.667595 
L 227.913796 29.935316 
L 226.901893 34.846173 
L 225.687609 39.52657 
L 224.473325 43.281757 
L 223.259042 46.373592 
L 221.842377 49.36444 
L 220.425713 51.85779 
L 218.806668 54.24861 
L 217.187623 56.264543 
L 215.366198 58.187418 
L 213.342392 59.991748 
L 211.116205 61.663947 
L 208.687637 63.198916 
L 206.05669 64.597277 
L 203.02098 65.945682 
L 199.782891 67.141092 
L 196.14004 68.254 
L 191.890047 69.313019 
L 187.032912 70.281981 
L 181.568635 71.138579 
L 175.294836 71.891973 
L 168.009134 72.535148 
L 159.711529 73.040901 
L 149.99726 73.404144 
L 138.866326 73.592775 
L 126.116348 73.5812 
L 111.949705 73.342016 
L 96.97354 72.866949 
L 82.199755 72.180925 
L 68.640254 71.334211 
L 57.30694 70.410182 
L 48.604573 69.488964 
L 42.330774 68.619745 
L 37.878401 67.791105 
L 35.045072 67.050475 
L 33.426027 66.420196 
L 32.616505 65.907028 
L 32.414124 65.69968 
L 32.211744 65.194306 
L 32.211744 65.194306 
" clip-path="url(#p116ce9885a)" style="fill: none; stroke: #367bc3; stroke-linecap: round"/>
   </g>
   <g id="line2d_13">
    <path d="M 228.62136 147.90847 
L 227.711415 142.061359 
L 226.699512 136.784854 
L 225.485228 131.633136 
L 224.270945 127.395033 
L 222.85428 123.27724 
L 221.437616 119.813376 
L 219.818571 116.447983 
L 218.199526 113.561679 
L 216.378101 110.75157 
L 214.354295 108.047262 
L 212.128108 105.464206 
L 209.699541 103.008034 
L 207.068593 100.677909 
L 204.235264 98.468971 
L 200.997174 96.242863 
L 197.556704 94.151172 
L 193.711472 92.074911 
L 189.461479 90.032423 
L 184.604345 87.95201 
L 179.140068 85.863636 
L 173.06865 83.785747 
L 166.187709 81.668581 
L 158.294865 79.47764 
L 149.187737 77.186851 
L 138.461565 74.727707 
L 125.509206 71.998696 
L 108.711615 68.702269 
L 63.9855 60.045126 
L 54.27123 57.869075 
L 47.39029 56.112429 
L 42.330774 54.604476 
L 38.687923 53.302015 
L 36.056975 52.134067 
L 34.43793 51.212421 
L 33.223647 50.270047 
L 32.616505 49.561083 
L 32.414124 49.206037 
L 32.211744 48.354448 
L 32.211744 48.354448 
" clip-path="url(#p116ce9885a)" style="fill: none; stroke: #8fe182; stroke-linecap: round"/>
   </g>
   <g id="patch_3">
    <path d="M 32.211744 124.13381 
L 32.211744 23.09466 
" style="fill: none; stroke: #000000; stroke-width: 0.35; stroke-linejoin: miter; stroke-linecap: square"/>
   </g>
   <g id="patch_4">
    <path d="M 239.444431 124.13381 
L 239.444431 23.09466 
" style="fill: none; stroke: #000000; stroke-width: 0.35; stroke-linejoin: miter; stroke-linecap: square"/>
   </g>
   <g id="patch_5">
    <path d="M 32.211744 124.13381 
L 239.444431 124.13381 
" style="fill: none; stroke: #000000; stroke-width: 0.35; stroke-linejoin: miter; stroke-linecap: square"/>
   </g>
   <g id="patch_6">
    <path d="M 32.211744 23.09466 
L 239.444431 23.09466 
" style="fill: none; stroke: #000000; stroke-width: 0.35; stroke-linejoin: miter; stroke-linecap: square"/>
   </g>
   <g id="text_14">
    <!-- $\lambda=\frac{K^{-1}-K}{2}$ -->
    <g style="fill: #8fe182" transform="translate(57.484023 50.038434) scale(0.1 -0.1)">
     <defs>
      <path id="CMMI12-15" d="M 1978 3963 
C 1818 4416 1312 4416 1229 4416 
C 1190 4416 1120 4416 1120 4351 
C 1120 4300 1158 4294 1190 4287 
C 1286 4275 1363 4262 1466 4078 
C 1530 3957 2189 2055 2189 2042 
C 2189 2036 2182 2029 2131 1978 
L 467 305 
C 390 229 339 178 339 95 
C 339 6 416 -71 518 -71 
C 544 -71 614 -58 653 -20 
C 755 76 1670 1190 2253 1877 
C 2419 1380 2624 795 2822 261 
C 2854 165 2886 76 2976 -7 
C 3040 -64 3053 -64 3232 -64 
L 3354 -64 
C 3379 -64 3424 -64 3424 -13 
C 3424 12 3418 19 3392 44 
C 3334 114 3290 229 3264 305 
L 1978 3963 
z
" transform="scale(0.015625)"/>
      <path id="CMR17-3d" d="M 4115 2048 
C 4211 2048 4307 2048 4307 2156 
C 4307 2272 4198 2272 4090 2272 
L 512 2272 
C 403 2272 294 2272 294 2156 
C 294 2048 390 2048 486 2048 
L 4115 2048 
z
M 4090 927 
C 4198 927 4307 927 4307 1043 
C 4307 1152 4211 1152 4115 1152 
L 486 1152 
C 390 1152 294 1152 294 1043 
C 294 927 403 927 512 927 
L 4090 927 
z
" transform="scale(0.015625)"/>
     </defs>
     <use xlink:href="#CMMI12-15" transform="scale(0.996264)"/>
     <use xlink:href="#CMR17-3d" transform="translate(84.578081 0) scale(0.996264)"/>
     <use xlink:href="#CMMI12-4b" transform="translate(185.162392 39.226102) scale(0.697382)"/>
     <use xlink:href="#CMSY10-0" transform="translate(248.265294 64.533527) scale(0.498132)"/>
     <use xlink:href="#CMR17-31" transform="translate(287.009028 64.533527) scale(0.498132)"/>
     <use xlink:href="#CMSY10-0" transform="translate(310.352399 39.226102) scale(0.697382)"/>
     <use xlink:href="#CMMI12-4b" transform="translate(364.593392 39.226102) scale(0.697382)"/>
     <use xlink:href="#CMR17-32" transform="translate(290.43776 -34.355253) scale(0.697382)"/>
     <path d="M 185.162392 22.914133 
L 427.696295 22.914133 
L 427.696295 26.899083 
L 185.162392 26.899083 
L 185.162392 22.914133 
z
"/>
    </g>
   </g>
   <g id="text_15">
    <!-- $\gamma^2=\frac{K+K^{-1}-2}{2}$ -->
    <g style="fill: #367bc3" transform="translate(52.429567 93.822065) scale(0.1 -0.1)">
     <defs>
      <path id="CMMI12-d" d="M 2419 785 
C 2406 1097 2394 1586 2150 2158 
C 2022 2476 1805 2816 1338 2816 
C 550 2816 122 1815 122 1649 
C 122 1592 166 1592 186 1592 
C 243 1592 243 1605 275 1688 
C 410 2081 819 2393 1261 2393 
C 2150 2393 2278 1408 2278 779 
C 2278 378 2234 245 2195 118 
C 2074 -276 1862 -1064 1862 -1242 
C 1862 -1293 1882 -1351 1933 -1351 
C 2029 -1351 2086 -1140 2157 -886 
C 2310 -327 2349 -47 2381 207 
C 2400 360 2765 1409 3270 2407 
C 3315 2509 3405 2681 3405 2700 
C 3405 2707 3398 2752 3341 2752 
C 3328 2752 3296 2752 3283 2726 
C 3270 2713 3046 2280 2854 1848 
C 2758 1630 2630 1344 2419 785 
z
" transform="scale(0.015625)"/>
      <path id="CMR17-2b" d="M 2413 1472 
L 4109 1472 
C 4198 1472 4307 1472 4307 1580 
C 4307 1696 4205 1696 4109 1696 
L 2413 1696 
L 2413 3385 
C 2413 3475 2413 3584 2304 3584 
C 2189 3584 2189 3481 2189 3385 
L 2189 1696 
L 493 1696 
C 403 1696 294 1696 294 1587 
C 294 1472 397 1472 493 1472 
L 2189 1472 
L 2189 -194 
C 2189 -282 2189 -391 2298 -391 
C 2413 -391 2413 -289 2413 -194 
L 2413 1472 
z
" transform="scale(0.015625)"/>
     </defs>
     <use xlink:href="#CMMI12-d" transform="scale(0.996264)"/>
     <use xlink:href="#CMR17-32" transform="translate(56.018568 36.153639) scale(0.697382)"/>
     <use xlink:href="#CMR17-3d" transform="translate(116.173891 0) scale(0.996264)"/>
     <use xlink:href="#CMMI12-4b" transform="translate(216.758202 39.226102) scale(0.697382)"/>
     <use xlink:href="#CMR17-2b" transform="translate(279.861104 39.226102) scale(0.697382)"/>
     <use xlink:href="#CMMI12-4b" transform="translate(330.061236 39.226102) scale(0.697382)"/>
     <use xlink:href="#CMSY10-0" transform="translate(393.164139 64.533527) scale(0.498132)"/>
     <use xlink:href="#CMR17-31" transform="translate(431.907872 64.533527) scale(0.498132)"/>
     <use xlink:href="#CMSY10-0" transform="translate(455.251243 39.226102) scale(0.697382)"/>
     <use xlink:href="#CMR17-32" transform="translate(509.492236 39.226102) scale(0.697382)"/>
     <use xlink:href="#CMR17-32" transform="translate(363.125219 -34.355253) scale(0.697382)"/>
     <path d="M 216.758202 22.914133 
L 541.475418 22.914133 
L 541.475418 26.899083 
L 216.758202 26.899083 
L 216.758202 22.914133 
z
"/>
    </g>
   </g>
   <g id="text_16">
    <!-- Attractive Interactions -->
    <g transform="translate(148.464227 6.254802) scale(0.08 -0.08)">
     <defs>
      <path id="CMR17-41" d="M 2323 4441 
C 2291 4524 2278 4544 2214 4544 
C 2150 4544 2138 4524 2106 4441 
L 749 580 
C 627 236 371 166 147 166 
L 147 0 
C 262 12 518 12 640 12 
C 800 12 1056 12 1210 0 
L 1210 166 
C 909 179 864 382 864 459 
C 864 516 877 548 890 586 
L 1229 1536 
L 2906 1536 
L 3290 453 
C 3322 376 3322 363 3322 338 
C 3322 166 3046 166 2925 166 
L 2925 0 
C 3110 12 3443 12 3642 12 
C 3808 12 4128 12 4282 0 
L 4282 166 
C 3942 166 3827 166 3744 402 
L 2323 4441 
z
M 2067 3924 
L 2848 1702 
L 1286 1702 
L 2067 3924 
z
" transform="scale(0.015625)"/>
      <path id="CMR17-72" d="M 960 1517 
C 960 2134 1222 2713 1702 2713 
C 1747 2713 1792 2707 1837 2687 
C 1837 2687 1696 2642 1696 2475 
C 1696 2321 1818 2257 1914 2257 
C 1990 2257 2131 2302 2131 2482 
C 2131 2687 1926 2816 1709 2816 
C 1222 2816 1011 2340 947 2115 
L 941 2115 
L 941 2816 
L 198 2745 
L 198 2578 
C 576 2578 634 2540 634 2231 
L 634 443 
C 634 198 608 166 198 166 
L 198 0 
C 352 12 646 12 813 12 
C 998 12 1325 12 1498 0 
L 1498 166 
C 1037 166 960 166 960 455 
L 960 1517 
z
" transform="scale(0.015625)"/>
      <path id="CMR17-61" d="M 2304 1656 
C 2304 2048 2304 2275 2035 2534 
C 1798 2751 1523 2816 1306 2816 
C 800 2816 435 2408 435 1977 
C 435 1740 627 1728 666 1728 
C 749 1728 896 1779 896 1958 
C 896 2118 774 2188 666 2188 
C 640 2188 608 2182 589 2176 
C 723 2594 1069 2713 1293 2713 
C 1613 2713 1965 2421 1965 1875 
L 1965 1632 
C 1587 1619 1133 1568 774 1373 
C 371 1147 256 822 256 576 
C 256 77 832 -64 1171 -64 
C 1523 -64 1850 135 1990 505 
C 2003 219 2182 -39 2464 -39 
C 2598 -39 2938 51 2938 563 
L 2938 926 
L 2822 926 
L 2822 557 
C 2822 161 2650 109 2566 109 
C 2304 109 2304 446 2304 732 
L 2304 1656 
z
M 1965 887 
C 1965 323 1568 38 1216 38 
C 896 38 646 278 646 576 
C 646 771 730 1114 1101 1322 
C 1408 1497 1760 1523 1965 1536 
L 1965 887 
z
" transform="scale(0.015625)"/>
      <path id="CMR17-63" d="M 2234 2240 
C 2112 2240 1933 2240 1933 2015 
C 1933 1836 2080 1785 2163 1785 
C 2208 1785 2394 1804 2394 2028 
C 2394 2476 1958 2816 1466 2816 
C 787 2816 211 2201 211 1379 
C 211 521 813 -64 1466 -64 
C 2259 -64 2458 676 2458 747 
C 2458 773 2451 792 2406 792 
C 2362 792 2355 786 2330 702 
C 2163 180 1798 51 1523 51 
C 1114 51 621 431 621 1385 
C 621 2358 1094 2700 1472 2700 
C 1722 2700 2093 2582 2234 2240 
z
" transform="scale(0.015625)"/>
      <path id="CMR17-69" d="M 992 3961 
C 992 4102 877 4224 730 4224 
C 589 4224 467 4108 467 3961 
C 467 3820 582 3699 730 3699 
C 870 3699 992 3814 992 3961 
z
M 243 2745 
L 243 2579 
C 602 2579 653 2540 653 2231 
L 653 443 
C 653 198 627 166 218 166 
L 218 0 
C 371 12 646 12 806 12 
C 960 12 1222 12 1370 0 
L 1370 166 
C 992 166 979 205 979 436 
L 979 2816 
L 243 2745 
z
" transform="scale(0.015625)"/>
      <path id="CMR17-76" d="M 2502 2173 
C 2560 2315 2662 2572 3034 2585 
L 3034 2752 
C 2912 2745 2752 2739 2630 2739 
C 2496 2739 2285 2739 2157 2752 
L 2157 2585 
C 2317 2572 2406 2495 2406 2328 
C 2406 2270 2406 2257 2368 2167 
L 1664 379 
L 902 2308 
C 864 2392 864 2405 864 2431 
C 864 2585 1075 2585 1171 2585 
L 1171 2752 
C 1018 2739 736 2739 576 2739 
C 403 2739 205 2739 64 2752 
L 64 2585 
C 307 2585 442 2585 518 2386 
L 1446 44 
C 1485 -52 1491 -64 1549 -64 
C 1606 -64 1613 -52 1651 44 
L 2502 2173 
z
" transform="scale(0.015625)"/>
      <path id="CMR17-49" d="M 1261 3898 
C 1261 4185 1338 4185 1798 4185 
L 1798 4352 
C 1594 4339 1267 4339 1050 4339 
C 832 4339 506 4339 301 4352 
L 301 4185 
C 762 4185 838 4185 838 3898 
L 838 453 
C 838 166 762 166 301 166 
L 301 0 
C 506 12 832 12 1050 12 
C 1267 12 1594 12 1798 0 
L 1798 166 
C 1338 166 1261 166 1261 453 
L 1261 3898 
z
" transform="scale(0.015625)"/>
      <path id="CMR17-73" d="M 1978 2688 
C 1978 2803 1971 2809 1933 2809 
C 1907 2809 1901 2803 1824 2707 
C 1805 2681 1747 2617 1728 2592 
C 1523 2809 1235 2816 1126 2816 
C 416 2816 160 2444 160 2073 
C 160 1497 813 1363 998 1324 
C 1402 1241 1542 1216 1677 1100 
C 1760 1024 1901 883 1901 652 
C 1901 384 1747 38 1158 38 
C 602 38 403 460 288 1024 
C 269 1113 269 1120 218 1120 
C 166 1120 160 1113 160 985 
L 160 64 
C 160 -52 166 -58 205 -58 
C 237 -58 243 -52 275 0 
C 314 57 410 211 448 275 
C 576 102 800 -64 1158 -64 
C 1792 -64 2131 281 2131 780 
C 2131 1107 1958 1280 1875 1356 
C 1683 1555 1459 1600 1190 1651 
C 838 1728 390 1817 390 2208 
C 390 2374 480 2726 1126 2726 
C 1811 2726 1850 2086 1862 1881 
C 1869 1849 1901 1843 1920 1843 
C 1978 1843 1978 1862 1978 1971 
L 1978 2688 
z
" transform="scale(0.015625)"/>
     </defs>
     <use xlink:href="#CMR17-41" transform="scale(0.996264)"/>
     <use xlink:href="#CMR17-74" transform="translate(66.469976 0) scale(0.996264)"/>
     <use xlink:href="#CMR17-74" transform="translate(101.750744 0) scale(0.996264)"/>
     <use xlink:href="#CMR17-72" transform="translate(137.031511 0) scale(0.996264)"/>
     <use xlink:href="#CMR17-61" transform="translate(172.312279 0) scale(0.996264)"/>
     <use xlink:href="#CMR17-63" transform="translate(218.002756 0) scale(0.996264)"/>
     <use xlink:href="#CMR17-74" transform="translate(258.488417 0) scale(0.996264)"/>
     <use xlink:href="#CMR17-69" transform="translate(293.769185 0) scale(0.996264)"/>
     <use xlink:href="#CMR17-76" transform="translate(318.640243 0) scale(0.996264)"/>
     <use xlink:href="#CMR17-65" transform="translate(364.330705 0) scale(0.996264)"/>
     <use xlink:href="#CMR17-49" transform="translate(434.892332 0) scale(0.996264)"/>
     <use xlink:href="#CMR17-6e" transform="translate(467.530741 0) scale(0.996264)"/>
     <use xlink:href="#CMR17-74" transform="translate(515.823657 0) scale(0.996264)"/>
     <use xlink:href="#CMR17-65" transform="translate(551.104425 0) scale(0.996264)"/>
     <use xlink:href="#CMR17-72" transform="translate(591.590085 0) scale(0.996264)"/>
     <use xlink:href="#CMR17-61" transform="translate(626.870853 0) scale(0.996264)"/>
     <use xlink:href="#CMR17-63" transform="translate(672.56133 0) scale(0.996264)"/>
     <use xlink:href="#CMR17-74" transform="translate(713.046991 0) scale(0.996264)"/>
     <use xlink:href="#CMR17-69" transform="translate(748.327758 0) scale(0.996264)"/>
     <use xlink:href="#CMR17-6f" transform="translate(773.198817 0) scale(0.996264)"/>
     <use xlink:href="#CMR17-6e" transform="translate(818.889294 0) scale(0.996264)"/>
     <use xlink:href="#CMR17-73" transform="translate(869.784664 0) scale(0.996264)"/>
    </g>
   </g>
   <g id="text_17">
    <!-- Repulsive Interactions -->
    <g transform="translate(42.320655 6.254802) scale(0.08 -0.08)">
     <defs>
      <path id="CMR17-52" d="M 2509 2156 
C 3117 2278 3629 2689 3629 3203 
C 3629 3806 2950 4352 2054 4352 
L 333 4352 
L 333 4185 
C 774 4185 845 4185 845 3896 
L 845 428 
C 845 140 774 140 333 140 
L 333 -26 
C 518 -13 851 -13 1050 -13 
C 1248 -13 1581 -13 1766 -26 
L 1766 140 
C 1325 140 1254 140 1254 428 
L 1254 2112 
L 2003 2112 
C 2368 2112 2573 1964 2662 1881 
C 2918 1632 2918 1459 2918 1024 
C 2918 595 2918 377 3110 160 
C 3354 -103 3680 -128 3821 -128 
C 4294 -128 4365 403 4365 512 
C 4365 550 4365 595 4307 595 
C 4256 595 4250 556 4250 531 
C 4218 115 4032 -26 3834 -26 
C 3482 -26 3443 377 3405 768 
C 3386 902 3373 998 3360 1139 
C 3322 1459 3270 1926 2509 2156 
z
M 1984 2214 
L 1254 2214 
L 1254 3935 
C 1254 4153 1267 4185 1523 4185 
L 1990 4185 
C 2522 4185 3142 3999 3142 3203 
C 3142 2374 2464 2214 1984 2214 
z
" transform="scale(0.015625)"/>
      <path id="CMR17-75" d="M 1882 2745 
L 1882 2579 
C 2259 2579 2317 2540 2317 2229 
L 2317 1053 
C 2317 510 2029 38 1555 38 
C 1030 38 986 355 986 691 
L 986 2816 
L 211 2745 
L 211 2579 
C 467 2579 640 2579 646 2320 
L 646 1079 
C 646 646 646 368 813 187 
C 896 103 1056 -64 1517 -64 
C 2061 -64 2272 400 2323 536 
L 2330 536 
L 2330 -64 
L 3091 -13 
L 3091 154 
C 2714 154 2656 193 2656 503 
L 2656 2816 
L 1882 2745 
z
" transform="scale(0.015625)"/>
      <path id="CMR17-6c" d="M 979 4416 
L 218 4345 
L 218 4179 
C 595 4179 653 4141 653 3835 
L 653 439 
C 653 198 627 166 218 166 
L 218 0 
C 371 12 653 12 813 12 
C 979 12 1261 12 1414 0 
L 1414 166 
C 1005 166 979 191 979 439 
L 979 4416 
z
" transform="scale(0.015625)"/>
     </defs>
     <use xlink:href="#CMR17-52" transform="scale(0.996264)"/>
     <use xlink:href="#CMR17-65" transform="translate(67.791102 0) scale(0.996264)"/>
     <use xlink:href="#CMR17-70" transform="translate(108.276762 0) scale(0.996264)"/>
     <use xlink:href="#CMR17-75" transform="translate(159.172132 0) scale(0.996264)"/>
     <use xlink:href="#CMR17-6c" transform="translate(210.067502 0) scale(0.996264)"/>
     <use xlink:href="#CMR17-73" transform="translate(234.93856 0) scale(0.996264)"/>
     <use xlink:href="#CMR17-69" transform="translate(270.739898 0) scale(0.996264)"/>
     <use xlink:href="#CMR17-76" transform="translate(295.610957 0) scale(0.996264)"/>
     <use xlink:href="#CMR17-65" transform="translate(341.301419 0) scale(0.996264)"/>
     <use xlink:href="#CMR17-49" transform="translate(411.863045 0) scale(0.996264)"/>
     <use xlink:href="#CMR17-6e" transform="translate(444.501455 0) scale(0.996264)"/>
     <use xlink:href="#CMR17-74" transform="translate(492.79437 0) scale(0.996264)"/>
     <use xlink:href="#CMR17-65" transform="translate(528.075138 0) scale(0.996264)"/>
     <use xlink:href="#CMR17-72" transform="translate(568.560799 0) scale(0.996264)"/>
     <use xlink:href="#CMR17-61" transform="translate(603.841566 0) scale(0.996264)"/>
     <use xlink:href="#CMR17-63" transform="translate(649.532044 0) scale(0.996264)"/>
     <use xlink:href="#CMR17-74" transform="translate(690.017704 0) scale(0.996264)"/>
     <use xlink:href="#CMR17-69" transform="translate(725.298472 0) scale(0.996264)"/>
     <use xlink:href="#CMR17-6f" transform="translate(750.16953 0) scale(0.996264)"/>
     <use xlink:href="#CMR17-6e" transform="translate(795.860007 0) scale(0.996264)"/>
     <use xlink:href="#CMR17-73" transform="translate(846.755377 0) scale(0.996264)"/>
    </g>
   </g>
  </g>
  <g id="axes_2">
   <g id="matplotlib.axis_3">
    <g id="xtick_5">
     <g id="line2d_14">
      <defs>
       <path id="m62b2d37417" d="M 0 0 
L 0 -2 
" style="stroke: #000000; stroke-width: 0.35"/>
      </defs>
      <g>
       <use xlink:href="#m62b2d37417" x="234.389975" y="23.09466" style="stroke: #000000; stroke-width: 0.35"/>
      </g>
     </g>
     <g id="text_18">
      <!-- $\mathdefault{−2}$ -->
      <g transform="translate(228.97963 16.544914) scale(0.08 -0.08)">
       <use xlink:href="#CMSY10-0" transform="scale(0.996264)"/>
       <use xlink:href="#CMR17-32" transform="translate(77.487468 0) scale(0.996264)"/>
      </g>
     </g>
    </g>
    <g id="xtick_6">
     <g id="line2d_15">
      <g>
       <use xlink:href="#m62b2d37417" x="183.845417" y="23.09466" style="stroke: #000000; stroke-width: 0.35"/>
      </g>
     </g>
     <g id="text_19">
      <!-- $\mathdefault{−1}$ -->
      <g transform="translate(178.435073 16.544914) scale(0.08 -0.08)">
       <use xlink:href="#CMSY10-0" transform="scale(0.996264)"/>
       <use xlink:href="#CMR17-31" transform="translate(77.487468 0) scale(0.996264)"/>
      </g>
     </g>
    </g>
    <g id="xtick_7">
     <g id="line2d_16">
      <g>
       <use xlink:href="#m62b2d37417" x="133.300859" y="23.09466" style="stroke: #000000; stroke-width: 0.35"/>
      </g>
     </g>
     <g id="text_20">
      <!-- $\mathdefault{0}$ -->
      <g transform="translate(131.183768 16.544914) scale(0.08 -0.08)">
       <use xlink:href="#CMR17-30" transform="scale(0.996264)"/>
      </g>
     </g>
    </g>
    <g id="xtick_8">
     <g id="line2d_17">
      <g>
       <use xlink:href="#m62b2d37417" x="82.756302" y="23.09466" style="stroke: #000000; stroke-width: 0.35"/>
      </g>
     </g>
     <g id="text_21">
      <!-- $\mathdefault{1}$ -->
      <g transform="translate(80.63921 16.544914) scale(0.08 -0.08)">
       <use xlink:href="#CMR17-31" transform="scale(0.996264)"/>
      </g>
     </g>
    </g>
    <g id="xtick_9">
     <g id="line2d_18">
      <g>
       <use xlink:href="#m62b2d37417" x="32.211744" y="23.09466" style="stroke: #000000; stroke-width: 0.35"/>
      </g>
     </g>
     <g id="text_22">
      <!-- $\mathdefault{2}$ -->
      <g transform="translate(30.094652 16.544914) scale(0.08 -0.08)">
       <use xlink:href="#CMR17-32" transform="scale(0.996264)"/>
      </g>
     </g>
    </g>
   </g>
   <g id="patch_7">
    <path d="M 32.211744 124.13381 
L 32.211744 23.09466 
" style="fill: none; stroke: #000000; stroke-width: 0.35; stroke-linejoin: miter; stroke-linecap: square"/>
   </g>
   <g id="patch_8">
    <path d="M 239.444431 124.13381 
L 239.444431 23.09466 
" style="fill: none; stroke: #000000; stroke-width: 0.35; stroke-linejoin: miter; stroke-linecap: square"/>
   </g>
   <g id="patch_9">
    <path d="M 32.211744 124.13381 
L 239.444431 124.13381 
" style="fill: none; stroke: #000000; stroke-width: 0.35; stroke-linejoin: miter; stroke-linecap: square"/>
   </g>
  </g>
 </g>
 <defs>
  <clipPath id="p116ce9885a">
   <rect x="32.211744" y="23.09466" width="207.232687" height="101.03915"/>
  </clipPath>
 </defs>
</svg>
