<?xml version="1.0" encoding="utf-8" standalone="no"?>
<!DOCTYPE svg PUBLIC "-//W3C//DTD SVG 1.1//EN"
  "http://www.w3.org/Graphics/SVG/1.1/DTD/svg11.dtd">
<svg xmlns:xlink="http://www.w3.org/1999/xlink" width="240.52032pt" height="146.90808pt" viewBox="0 0 240.52032 146.90808" xmlns="http://www.w3.org/2000/svg" version="1.1">
 <metadata>
  <rdf:RDF xmlns:dc="http://purl.org/dc/elements/1.1/" xmlns:cc="http://creativecommons.org/ns#" xmlns:rdf="http://www.w3.org/1999/02/22-rdf-syntax-ns#">
   <cc:Work>
    <dc:type rdf:resource="http://purl.org/dc/dcmitype/StillImage"/>
    <dc:date>2026-07-12T11:57:11.171723</dc:date>
    <dc:format>image/svg+xml</dc:format>
    <dc:creator>
     <cc:Agent>
      <dc:title>Matplotlib v3.9.4, https://matplotlib.org/</dc:title>
     </cc:Agent>
    </dc:creator>
   </cc:Work>
  </rdf:RDF>
 </metadata>
 <defs>
  <style type="text/css">*{stroke-linejoin: round; stroke-linecap: butt}</style>
 </defs>
 <g id="figure_1">
  <g id="patch_1">
   <path d="M 0 146.90808 
L 240.52032 146.90808 
L 240.52032 0 
L 0 0 
L 0 146.90808 
z
" style="fill: none"/>
  </g>
  <g id="axes_1">
   <g id="patch_2">
    <path d="M 26.510802 125.018985 
L 239.80032 125.018985 
L 239.80032 0.72 
L 26.510802 0.72 
L 26.510802 125.018985 
z
" style="fill: none"/>
   </g>
   <g id="line2d_1">
    <path d="M 26.510802 125.018985 
L 60.438335 108.07494 
L 94.365868 92.32934 
L 128.293402 77.759945 
L 162.220935 64.343638 
L 196.148468 52.057823 
L 230.076002 40.882863 
L 241.52032 37.483901 
" clip-path="url(#p210401283f)" style="fill: none; stroke: #524582; stroke-linecap: round"/>
   </g>
   <g id="line2d_2">
    <path d="M 26.510802 125.018985 
L 60.438335 117.362419 
L 94.365868 110.082536 
L 128.293402 103.163248 
L 162.220935 96.589214 
L 196.148468 90.345828 
L 230.076002 84.419239 
L 241.52032 82.522558 
" clip-path="url(#p210401283f)" style="fill: none; stroke: #38bfa7; stroke-linecap: round"/>
   </g>
   <g id="matplotlib.axis_1">
    <g id="xtick_1">
     <g id="line2d_3">
      <defs>
       <path id="m32467aaf4b" d="M 0 0 
L 0 2 
" style="stroke: #000000; stroke-width: 0.35"/>
      </defs>
      <g>
       <use xlink:href="#m32467aaf4b" x="26.510802" y="125.018985" style="stroke: #000000; stroke-width: 0.35"/>
      </g>
     </g>
     <g id="text_1">
      <!-- $\mathdefault{0.0}$ -->
      <g transform="translate(21.100457 135.553787) scale(0.08 -0.08)">
       <defs>
        <path id="CMR17-30" d="M 2688 2025 
C 2688 2416 2682 3080 2413 3591 
C 2176 4039 1798 4198 1466 4198 
C 1158 4198 768 4058 525 3597 
C 269 3118 243 2524 243 2025 
C 243 1661 250 1106 448 619 
C 723 -39 1216 -128 1466 -128 
C 1760 -128 2208 -7 2470 600 
C 2662 1042 2688 1559 2688 2025 
z
M 1466 -26 
C 1056 -26 813 325 723 812 
C 653 1188 653 1738 653 2096 
C 653 2588 653 2997 736 3387 
C 858 3929 1216 4096 1466 4096 
C 1728 4096 2067 3923 2189 3400 
C 2272 3036 2278 2607 2278 2096 
C 2278 1680 2278 1169 2202 792 
C 2067 95 1690 -26 1466 -26 
z
" transform="scale(0.015625)"/>
        <path id="CMMI12-3a" d="M 1178 307 
C 1178 492 1024 619 870 619 
C 685 619 557 466 557 313 
C 557 128 710 0 864 0 
C 1050 0 1178 153 1178 307 
z
" transform="scale(0.015625)"/>
       </defs>
       <use xlink:href="#CMR17-30" transform="scale(0.996264)"/>
       <use xlink:href="#CMMI12-3a" transform="translate(45.690477 0) scale(0.996264)"/>
       <use xlink:href="#CMR17-30" transform="translate(72.787654 0) scale(0.996264)"/>
      </g>
     </g>
    </g>
    <g id="xtick_2">
     <g id="line2d_4">
      <g>
       <use xlink:href="#m32467aaf4b" x="53.509475" y="125.018985" style="stroke: #000000; stroke-width: 0.35"/>
      </g>
     </g>
     <g id="text_2">
      <!-- $\mathdefault{0.1}$ -->
      <g transform="translate(48.09913 135.553787) scale(0.08 -0.08)">
       <defs>
        <path id="CMR17-31" d="M 1702 4058 
C 1702 4192 1696 4192 1606 4192 
C 1357 3916 979 3827 621 3827 
C 602 3827 570 3827 563 3808 
C 557 3795 557 3782 557 3648 
C 755 3648 1088 3686 1344 3839 
L 1344 461 
C 1344 236 1331 160 781 160 
L 589 160 
L 589 0 
C 896 0 1216 0 1523 0 
C 1830 0 2150 0 2458 0 
L 2458 160 
L 2266 160 
C 1715 160 1702 230 1702 458 
L 1702 4058 
z
" transform="scale(0.015625)"/>
       </defs>
       <use xlink:href="#CMR17-30" transform="scale(0.996264)"/>
       <use xlink:href="#CMMI12-3a" transform="translate(45.690477 0) scale(0.996264)"/>
       <use xlink:href="#CMR17-31" transform="translate(72.787654 0) scale(0.996264)"/>
      </g>
     </g>
    </g>
    <g id="xtick_3">
     <g id="line2d_5">
      <g>
       <use xlink:href="#m32467aaf4b" x="80.508148" y="125.018985" style="stroke: #000000; stroke-width: 0.35"/>
      </g>
     </g>
     <g id="text_3">
      <!-- $\mathdefault{0.2}$ -->
      <g transform="translate(75.097803 135.553787) scale(0.08 -0.08)">
       <defs>
        <path id="CMR17-32" d="M 2669 989 
L 2554 989 
C 2490 536 2438 459 2413 420 
C 2381 369 1920 369 1830 369 
L 602 369 
C 832 619 1280 1072 1824 1597 
C 2214 1967 2669 2402 2669 3035 
C 2669 3790 2067 4224 1395 4224 
C 691 4224 262 3604 262 3030 
C 262 2780 448 2748 525 2748 
C 589 2748 781 2787 781 3010 
C 781 3207 614 3264 525 3264 
C 486 3264 448 3258 422 3245 
C 544 3790 915 4058 1306 4058 
C 1862 4058 2227 3617 2227 3035 
C 2227 2479 1901 2000 1536 1584 
L 262 146 
L 262 0 
L 2515 0 
L 2669 989 
z
" transform="scale(0.015625)"/>
       </defs>
       <use xlink:href="#CMR17-30" transform="scale(0.996264)"/>
       <use xlink:href="#CMMI12-3a" transform="translate(45.690477 0) scale(0.996264)"/>
       <use xlink:href="#CMR17-32" transform="translate(72.787654 0) scale(0.996264)"/>
      </g>
     </g>
    </g>
    <g id="xtick_4">
     <g id="line2d_6">
      <g>
       <use xlink:href="#m32467aaf4b" x="107.506821" y="125.018985" style="stroke: #000000; stroke-width: 0.35"/>
      </g>
     </g>
     <g id="text_4">
      <!-- $\mathdefault{0.3}$ -->
      <g transform="translate(102.096476 135.553787) scale(0.08 -0.08)">
       <defs>
        <path id="CMR17-33" d="M 1414 2157 
C 1984 2157 2234 1662 2234 1090 
C 2234 320 1824 25 1453 25 
C 1114 25 563 194 390 693 
C 422 680 454 680 486 680 
C 640 680 755 782 755 948 
C 755 1133 614 1216 486 1216 
C 378 1216 211 1165 211 926 
C 211 335 787 -128 1466 -128 
C 2176 -128 2720 430 2720 1085 
C 2720 1707 2208 2157 1600 2227 
C 2086 2328 2554 2756 2554 3329 
C 2554 3820 2048 4179 1472 4179 
C 890 4179 378 3829 378 3329 
C 378 3110 544 3072 627 3072 
C 762 3072 877 3155 877 3321 
C 877 3486 762 3569 627 3569 
C 602 3569 570 3569 544 3557 
C 730 3959 1235 4032 1459 4032 
C 1683 4032 2106 3925 2106 3320 
C 2106 3143 2080 2828 1862 2550 
C 1670 2304 1453 2304 1242 2284 
C 1210 2284 1062 2269 1037 2269 
C 992 2263 966 2257 966 2208 
C 966 2163 973 2157 1101 2157 
L 1414 2157 
z
" transform="scale(0.015625)"/>
       </defs>
       <use xlink:href="#CMR17-30" transform="scale(0.996264)"/>
       <use xlink:href="#CMMI12-3a" transform="translate(45.690477 0) scale(0.996264)"/>
       <use xlink:href="#CMR17-33" transform="translate(72.787654 0) scale(0.996264)"/>
      </g>
     </g>
    </g>
    <g id="xtick_5">
     <g id="line2d_7">
      <g>
       <use xlink:href="#m32467aaf4b" x="134.505494" y="125.018985" style="stroke: #000000; stroke-width: 0.35"/>
      </g>
     </g>
     <g id="text_5">
      <!-- $\mathdefault{0.4}$ -->
      <g transform="translate(129.09515 135.553787) scale(0.08 -0.08)">
       <defs>
        <path id="CMR17-34" d="M 2150 4122 
C 2150 4256 2144 4256 2029 4256 
L 128 1254 
L 128 1088 
L 1779 1088 
L 1779 457 
C 1779 224 1766 160 1318 160 
L 1197 160 
L 1197 0 
C 1402 0 1747 0 1965 0 
C 2182 0 2528 0 2733 0 
L 2733 160 
L 2611 160 
C 2163 160 2150 224 2150 457 
L 2150 1088 
L 2803 1088 
L 2803 1254 
L 2150 1254 
L 2150 4122 
z
M 1798 3703 
L 1798 1254 
L 256 1254 
L 1798 3703 
z
" transform="scale(0.015625)"/>
       </defs>
       <use xlink:href="#CMR17-30" transform="scale(0.996264)"/>
       <use xlink:href="#CMMI12-3a" transform="translate(45.690477 0) scale(0.996264)"/>
       <use xlink:href="#CMR17-34" transform="translate(72.787654 0) scale(0.996264)"/>
      </g>
     </g>
    </g>
    <g id="xtick_6">
     <g id="line2d_8">
      <g>
       <use xlink:href="#m32467aaf4b" x="161.504168" y="125.018985" style="stroke: #000000; stroke-width: 0.35"/>
      </g>
     </g>
     <g id="text_6">
      <!-- $\mathdefault{0.5}$ -->
      <g transform="translate(156.093823 135.553787) scale(0.08 -0.08)">
       <defs>
        <path id="CMR17-35" d="M 730 3692 
C 794 3666 1056 3584 1325 3584 
C 1920 3584 2246 3911 2432 4100 
C 2432 4157 2432 4192 2394 4192 
C 2387 4192 2374 4192 2323 4163 
C 2099 4058 1837 3973 1517 3973 
C 1325 3973 1037 3999 723 4139 
C 653 4171 640 4171 634 4171 
C 602 4171 595 4164 595 4037 
L 595 2203 
C 595 2089 595 2057 659 2057 
C 691 2057 704 2070 736 2114 
C 941 2401 1222 2522 1542 2522 
C 1766 2522 2246 2382 2246 1289 
C 2246 1085 2246 715 2054 421 
C 1894 159 1645 25 1370 25 
C 947 25 518 320 403 814 
C 429 807 480 795 506 795 
C 589 795 749 840 749 1038 
C 749 1210 627 1280 506 1280 
C 358 1280 262 1190 262 1011 
C 262 454 704 -128 1382 -128 
C 2042 -128 2669 440 2669 1264 
C 2669 2030 2170 2624 1549 2624 
C 1222 2624 947 2503 730 2274 
L 730 3692 
z
" transform="scale(0.015625)"/>
       </defs>
       <use xlink:href="#CMR17-30" transform="scale(0.996264)"/>
       <use xlink:href="#CMMI12-3a" transform="translate(45.690477 0) scale(0.996264)"/>
       <use xlink:href="#CMR17-35" transform="translate(72.787654 0) scale(0.996264)"/>
      </g>
     </g>
    </g>
    <g id="xtick_7">
     <g id="line2d_9">
      <g>
       <use xlink:href="#m32467aaf4b" x="188.502841" y="125.018985" style="stroke: #000000; stroke-width: 0.35"/>
      </g>
     </g>
     <g id="text_7">
      <!-- $\mathdefault{0.6}$ -->
      <g transform="translate(183.092496 135.553787) scale(0.08 -0.08)">
       <defs>
        <path id="CMR17-36" d="M 678 2176 
C 678 3690 1395 4032 1811 4032 
C 1946 4032 2272 4009 2400 3776 
C 2298 3776 2106 3776 2106 3553 
C 2106 3381 2246 3323 2336 3323 
C 2394 3323 2566 3348 2566 3560 
C 2566 3954 2246 4179 1805 4179 
C 1043 4179 243 3390 243 1984 
C 243 253 966 -128 1478 -128 
C 2099 -128 2688 427 2688 1283 
C 2688 2081 2170 2662 1517 2662 
C 1126 2662 838 2407 678 1960 
L 678 2176 
z
M 1478 25 
C 691 25 691 1200 691 1436 
C 691 1896 909 2560 1504 2560 
C 1613 2560 1926 2560 2138 2120 
C 2253 1870 2253 1609 2253 1289 
C 2253 944 2253 690 2118 434 
C 1978 171 1773 25 1478 25 
z
" transform="scale(0.015625)"/>
       </defs>
       <use xlink:href="#CMR17-30" transform="scale(0.996264)"/>
       <use xlink:href="#CMMI12-3a" transform="translate(45.690477 0) scale(0.996264)"/>
       <use xlink:href="#CMR17-36" transform="translate(72.787654 0) scale(0.996264)"/>
      </g>
     </g>
    </g>
    <g id="xtick_8">
     <g id="line2d_10">
      <g>
       <use xlink:href="#m32467aaf4b" x="215.501514" y="125.018985" style="stroke: #000000; stroke-width: 0.35"/>
      </g>
     </g>
     <g id="text_8">
      <!-- $\mathdefault{0.7}$ -->
      <g transform="translate(210.091169 135.553787) scale(0.08 -0.08)">
       <defs>
        <path id="CMR17-37" d="M 2886 3941 
L 2886 4081 
L 1382 4081 
C 634 4081 621 4165 595 4288 
L 480 4288 
L 294 3094 
L 410 3094 
C 429 3215 474 3540 550 3661 
C 589 3712 1062 3712 1171 3712 
L 2579 3712 
L 1869 2661 
C 1395 1954 1069 999 1069 165 
C 1069 89 1069 -128 1299 -128 
C 1530 -128 1530 89 1530 171 
L 1530 465 
C 1530 1508 1709 2196 2003 2636 
L 2886 3941 
z
" transform="scale(0.015625)"/>
       </defs>
       <use xlink:href="#CMR17-30" transform="scale(0.996264)"/>
       <use xlink:href="#CMMI12-3a" transform="translate(45.690477 0) scale(0.996264)"/>
       <use xlink:href="#CMR17-37" transform="translate(72.787654 0) scale(0.996264)"/>
      </g>
     </g>
    </g>
    <g id="text_9">
     <!-- $q$ -->
     <g transform="translate(131.265166 144.638334) scale(0.08 -0.08)">
      <defs>
       <path id="CMMI12-71" d="M 2822 2759 
C 2822 2790 2797 2816 2765 2816 
C 2714 2816 2464 2585 2342 2362 
C 2227 2646 2029 2816 1754 2816 
C 1030 2816 250 1884 250 939 
C 250 307 621 -64 1056 -64 
C 1395 -64 1677 193 1811 339 
L 1818 333 
L 1574 -615 
L 1517 -842 
C 1459 -1031 1363 -1031 1062 -1031 
C 992 -1031 928 -1031 928 -1152 
C 928 -1197 966 -1216 1011 -1216 
C 1101 -1216 1216 -1216 1306 -1216 
L 1958 -1216 
C 2054 -1216 2163 -1216 2259 -1216 
C 2298 -1216 2374 -1216 2374 -1095 
C 2374 -1031 2323 -1031 2227 -1031 
C 1926 -1031 1907 -986 1907 -935 
C 1907 -904 1914 -898 1933 -815 
L 2822 2759 
z
M 1920 762 
C 1888 652 1888 640 1798 518 
C 1658 339 1376 64 1075 64 
C 813 64 666 301 666 678 
C 666 1030 864 1747 986 2016 
C 1203 2464 1504 2695 1754 2695 
C 2176 2695 2259 2170 2259 2119 
C 2259 2113 2240 2028 2234 2016 
L 1920 762 
z
" transform="scale(0.015625)"/>
      </defs>
      <use xlink:href="#CMMI12-71" transform="scale(0.996264)"/>
     </g>
    </g>
   </g>
   <g id="matplotlib.axis_2">
    <g id="ytick_1">
     <g id="line2d_11">
      <defs>
       <path id="mc511f14008" d="M 0 0 
L -2 0 
" style="stroke: #000000; stroke-width: 0.35"/>
      </defs>
      <g>
       <use xlink:href="#mc511f14008" x="26.510802" y="125.018985" style="stroke: #000000; stroke-width: 0.35"/>
      </g>
     </g>
     <g id="text_10">
      <!-- $\mathdefault{0.0}$ -->
      <g transform="translate(10.690112 127.786386) scale(0.08 -0.08)">
       <use xlink:href="#CMR17-30" transform="scale(0.996264)"/>
       <use xlink:href="#CMMI12-3a" transform="translate(45.690477 0) scale(0.996264)"/>
       <use xlink:href="#CMR17-30" transform="translate(72.787654 0) scale(0.996264)"/>
      </g>
     </g>
    </g>
    <g id="ytick_2">
     <g id="line2d_12">
      <g>
       <use xlink:href="#mc511f14008" x="26.510802" y="98.850778" style="stroke: #000000; stroke-width: 0.35"/>
      </g>
     </g>
     <g id="text_11">
      <!-- $\mathdefault{0.2}$ -->
      <g transform="translate(10.690112 101.618179) scale(0.08 -0.08)">
       <use xlink:href="#CMR17-30" transform="scale(0.996264)"/>
       <use xlink:href="#CMMI12-3a" transform="translate(45.690477 0) scale(0.996264)"/>
       <use xlink:href="#CMR17-32" transform="translate(72.787654 0) scale(0.996264)"/>
      </g>
     </g>
    </g>
    <g id="ytick_3">
     <g id="line2d_13">
      <g>
       <use xlink:href="#mc511f14008" x="26.510802" y="72.68257" style="stroke: #000000; stroke-width: 0.35"/>
      </g>
     </g>
     <g id="text_12">
      <!-- $\mathdefault{0.4}$ -->
      <g transform="translate(10.690112 75.449971) scale(0.08 -0.08)">
       <use xlink:href="#CMR17-30" transform="scale(0.996264)"/>
       <use xlink:href="#CMMI12-3a" transform="translate(45.690477 0) scale(0.996264)"/>
       <use xlink:href="#CMR17-34" transform="translate(72.787654 0) scale(0.996264)"/>
      </g>
     </g>
    </g>
    <g id="ytick_4">
     <g id="line2d_14">
      <g>
       <use xlink:href="#mc511f14008" x="26.510802" y="46.514363" style="stroke: #000000; stroke-width: 0.35"/>
      </g>
     </g>
     <g id="text_13">
      <!-- $\mathdefault{0.6}$ -->
      <g transform="translate(10.690112 49.281764) scale(0.08 -0.08)">
       <use xlink:href="#CMR17-30" transform="scale(0.996264)"/>
       <use xlink:href="#CMMI12-3a" transform="translate(45.690477 0) scale(0.996264)"/>
       <use xlink:href="#CMR17-36" transform="translate(72.787654 0) scale(0.996264)"/>
      </g>
     </g>
    </g>
    <g id="ytick_5">
     <g id="line2d_15">
      <g>
       <use xlink:href="#mc511f14008" x="26.510802" y="20.346156" style="stroke: #000000; stroke-width: 0.35"/>
      </g>
     </g>
     <g id="text_14">
      <!-- $\mathdefault{0.8}$ -->
      <g transform="translate(10.690112 23.113556) scale(0.08 -0.08)">
       <defs>
        <path id="CMR17-38" d="M 1741 2264 
C 2144 2467 2554 2773 2554 3263 
C 2554 3841 1990 4179 1472 4179 
C 890 4179 378 3759 378 3180 
C 378 3021 416 2747 666 2505 
C 730 2442 998 2251 1171 2130 
C 883 1983 211 1634 211 934 
C 211 279 838 -128 1459 -128 
C 2144 -128 2720 362 2720 1010 
C 2720 1590 2330 1857 2074 2029 
L 1741 2264 
z
M 902 2822 
C 851 2854 595 3051 595 3351 
C 595 3739 998 4032 1459 4032 
C 1965 4032 2336 3676 2336 3262 
C 2336 2669 1670 2331 1638 2331 
C 1632 2331 1626 2331 1574 2370 
L 902 2822 
z
M 2080 1519 
C 2176 1449 2483 1240 2483 851 
C 2483 381 2010 25 1472 25 
C 890 25 448 438 448 940 
C 448 1443 838 1862 1280 2060 
L 2080 1519 
z
" transform="scale(0.015625)"/>
       </defs>
       <use xlink:href="#CMR17-30" transform="scale(0.996264)"/>
       <use xlink:href="#CMMI12-3a" transform="translate(45.690477 0) scale(0.996264)"/>
       <use xlink:href="#CMR17-38" transform="translate(72.787654 0) scale(0.996264)"/>
      </g>
     </g>
    </g>
    <g id="text_15">
     <!-- structure factor $s(q)$ -->
     <g transform="translate(6.697584 100.415341) rotate(-90) scale(0.08 -0.08)">
      <defs>
       <path id="CMR17-73" d="M 1978 2697 
C 1978 2813 1971 2819 1933 2819 
C 1907 2819 1901 2813 1824 2717 
C 1805 2691 1747 2626 1728 2601 
C 1523 2819 1235 2819 1126 2819 
C 416 2819 160 2447 160 2076 
C 160 1498 813 1365 998 1325 
C 1402 1243 1542 1217 1677 1101 
C 1760 1025 1901 884 1901 654 
C 1901 384 1747 38 1158 38 
C 602 38 403 460 288 1021 
C 269 1110 269 1117 218 1117 
C 166 1117 160 1110 160 983 
L 160 63 
C 160 -51 166 -58 205 -58 
C 237 -58 243 -51 275 0 
C 314 57 410 211 448 276 
C 576 103 800 -64 1158 -64 
C 1792 -64 2131 283 2131 784 
C 2131 1112 1958 1285 1875 1362 
C 1683 1561 1459 1606 1190 1657 
C 838 1735 390 1825 390 2217 
C 390 2383 480 2737 1126 2737 
C 1811 2737 1850 2094 1862 1888 
C 1869 1856 1901 1849 1920 1849 
C 1978 1849 1978 1869 1978 1978 
L 1978 2697 
z
" transform="scale(0.015625)"/>
       <path id="CMR17-74" d="M 966 2560 
L 1862 2560 
L 1862 2725 
L 966 2725 
L 966 3904 
L 851 3904 
C 838 3245 614 2668 70 2668 
L 70 2560 
L 627 2560 
L 627 771 
C 627 650 627 -64 1370 -64 
C 1747 -64 1965 306 1965 777 
L 1965 1140 
L 1850 1140 
L 1850 783 
C 1850 344 1677 51 1408 51 
C 1222 51 966 178 966 758 
L 966 2560 
z
" transform="scale(0.015625)"/>
       <path id="CMR17-72" d="M 960 1497 
C 960 2112 1222 2688 1702 2688 
C 1747 2688 1792 2682 1837 2662 
C 1837 2662 1696 2617 1696 2452 
C 1696 2298 1818 2234 1914 2234 
C 1990 2234 2131 2279 2131 2458 
C 2131 2663 1926 2790 1709 2790 
C 1222 2790 1011 2317 947 2093 
L 941 2093 
L 941 2790 
L 198 2720 
L 198 2554 
C 576 2554 634 2515 634 2208 
L 634 428 
C 634 184 608 153 198 153 
L 198 -13 
C 352 0 646 0 813 0 
C 998 0 1325 0 1498 -13 
L 1498 153 
C 1037 153 960 153 960 440 
L 960 1497 
z
" transform="scale(0.015625)"/>
       <path id="CMR17-75" d="M 1882 2693 
L 1882 2528 
C 2259 2528 2317 2489 2317 2186 
L 2317 1032 
C 2317 500 2029 38 1555 38 
C 1030 38 986 348 986 678 
L 986 2763 
L 211 2693 
L 211 2528 
C 467 2528 640 2528 646 2274 
L 646 1058 
C 646 633 646 361 813 183 
C 896 101 1056 -64 1517 -64 
C 2061 -64 2272 377 2323 506 
L 2330 506 
L 2330 -63 
L 3091 -63 
L 3091 128 
C 2714 128 2656 166 2656 473 
L 2656 2763 
L 1882 2693 
z
" transform="scale(0.015625)"/>
       <path id="CMR17-63" d="M 2234 2240 
C 2112 2240 1933 2240 1933 2017 
C 1933 1838 2080 1787 2163 1787 
C 2208 1787 2394 1807 2394 2024 
C 2394 2467 1958 2803 1466 2803 
C 787 2803 211 2178 211 1363 
C 211 516 813 -64 1466 -64 
C 2259 -64 2458 677 2458 748 
C 2458 774 2451 793 2406 793 
C 2362 793 2355 787 2330 703 
C 2163 180 1798 51 1523 51 
C 1114 51 621 427 621 1369 
C 621 2338 1094 2688 1472 2688 
C 1722 2688 2093 2573 2234 2240 
z
" transform="scale(0.015625)"/>
       <path id="CMR17-65" d="M 2438 1472 
C 2464 1498 2464 1511 2464 1576 
C 2464 2238 2118 2816 1389 2816 
C 710 2816 173 2169 173 1383 
C 173 551 781 -64 1459 -64 
C 2176 -64 2458 607 2458 740 
C 2458 784 2419 784 2406 784 
C 2362 784 2355 771 2330 696 
C 2189 265 1837 51 1504 51 
C 1229 51 954 203 781 480 
C 582 803 582 1176 582 1472 
L 2438 1472 
z
M 589 1568 
C 634 2505 1126 2714 1382 2714 
C 1818 2714 2112 2297 2118 1568 
L 589 1568 
z
" transform="scale(0.015625)"/>
       <path id="CMR17-66" d="M 979 2560 
L 1709 2560 
L 1709 2725 
L 966 2725 
L 966 3494 
C 966 4022 1235 4352 1510 4352 
C 1594 4352 1690 4327 1754 4282 
C 1702 4269 1568 4225 1568 4067 
C 1568 3901 1696 3850 1786 3850 
C 1875 3850 2003 3901 2003 4067 
C 2003 4308 1773 4454 1517 4454 
C 1152 4454 653 4156 653 3481 
L 653 2725 
L 141 2725 
L 141 2560 
L 653 2560 
L 653 427 
C 653 184 627 153 218 153 
L 218 -13 
C 371 0 666 0 832 0 
C 1018 0 1344 0 1517 -13 
L 1517 153 
C 1056 153 979 153 979 439 
L 979 2560 
z
" transform="scale(0.015625)"/>
       <path id="CMR17-61" d="M 2304 1653 
C 2304 2072 2304 2294 2035 2543 
C 1798 2752 1523 2816 1306 2816 
C 800 2816 435 2407 435 1971 
C 435 1728 627 1728 666 1728 
C 749 1728 896 1778 896 1954 
C 896 2112 774 2181 666 2181 
C 640 2181 608 2174 589 2168 
C 723 2592 1069 2714 1293 2714 
C 1613 2714 1965 2429 1965 1885 
L 1965 1600 
C 1587 1600 1133 1549 774 1357 
C 371 1133 256 813 256 570 
C 256 77 832 -64 1171 -64 
C 1523 -64 1850 139 1990 511 
C 2003 233 2182 -18 2464 -18 
C 2598 -18 2938 70 2938 567 
L 2938 920 
L 2822 920 
L 2822 562 
C 2822 178 2650 128 2566 128 
C 2304 128 2304 458 2304 738 
L 2304 1653 
z
M 1965 870 
C 1965 317 1568 38 1216 38 
C 896 38 646 275 646 570 
C 646 761 730 1100 1101 1305 
C 1408 1478 1760 1504 1965 1504 
L 1965 870 
z
" transform="scale(0.015625)"/>
       <path id="CMR17-6f" d="M 2758 1356 
C 2758 2176 2163 2816 1466 2816 
C 768 2816 173 2176 173 1356 
C 173 551 768 -64 1466 -64 
C 2163 -64 2758 551 2758 1356 
z
M 1466 51 
C 1165 51 909 230 762 480 
C 602 767 582 1126 582 1408 
C 582 1677 595 2010 762 2298 
C 890 2509 1139 2714 1466 2714 
C 1754 2714 1997 2554 2150 2330 
C 2349 2029 2349 1607 2349 1408 
C 2349 1158 2336 775 2163 467 
C 1984 173 1709 51 1466 51 
z
" transform="scale(0.015625)"/>
       <path id="CMMI12-73" d="M 1459 1280 
C 1568 1261 1741 1223 1779 1216 
C 1862 1192 2150 1090 2150 783 
C 2150 586 1971 70 1229 70 
C 1094 70 614 70 486 436 
C 742 404 870 603 870 745 
C 870 880 781 950 653 950 
C 512 950 326 841 326 552 
C 326 173 710 -64 1222 -64 
C 2195 -64 2483 651 2483 984 
C 2483 1079 2483 1258 2278 1462 
C 2118 1616 1965 1648 1619 1718 
C 1446 1756 1171 1814 1171 2101 
C 1171 2229 1286 2689 1894 2689 
C 2163 2689 2426 2589 2490 2368 
C 2208 2368 2195 2125 2195 2119 
C 2195 1984 2317 1946 2374 1946 
C 2464 1946 2643 2015 2643 2281 
C 2643 2545 2400 2816 1901 2816 
C 1062 2816 838 2160 838 1899 
C 838 1414 1312 1312 1459 1280 
z
" transform="scale(0.015625)"/>
       <path id="CMR17-28" d="M 1958 -1561 
C 1958 -1555 1958 -1542 1939 -1523 
C 1645 -1224 858 -407 858 1581 
C 858 3569 1632 4379 1946 4697 
C 1946 4704 1958 4717 1958 4736 
C 1958 4755 1939 4768 1914 4768 
C 1843 4768 1299 4296 986 3594 
C 666 2887 576 2199 576 1588 
C 576 1128 621 351 1005 -471 
C 1312 -1135 1837 -1600 1914 -1600 
C 1946 -1600 1958 -1587 1958 -1561 
z
" transform="scale(0.015625)"/>
       <path id="CMR17-29" d="M 1683 1581 
C 1683 2040 1638 2817 1254 3639 
C 947 4303 422 4768 346 4768 
C 326 4768 301 4761 301 4729 
C 301 4717 307 4710 314 4697 
C 621 4378 1402 3568 1402 1584 
C 1402 -407 627 -1217 314 -1537 
C 307 -1549 301 -1556 301 -1568 
C 301 -1600 326 -1600 346 -1600 
C 416 -1600 960 -1128 1274 -426 
C 1594 281 1683 969 1683 1581 
z
" transform="scale(0.015625)"/>
      </defs>
      <use xlink:href="#CMR17-73" transform="scale(0.996264)"/>
      <use xlink:href="#CMR17-74" transform="translate(35.801338 0) scale(0.996264)"/>
      <use xlink:href="#CMR17-72" transform="translate(71.082105 0) scale(0.996264)"/>
      <use xlink:href="#CMR17-75" transform="translate(106.362873 0) scale(0.996264)"/>
      <use xlink:href="#CMR17-63" transform="translate(157.258243 0) scale(0.996264)"/>
      <use xlink:href="#CMR17-74" transform="translate(197.743903 0) scale(0.996264)"/>
      <use xlink:href="#CMR17-75" transform="translate(233.024671 0) scale(0.996264)"/>
      <use xlink:href="#CMR17-72" transform="translate(283.920041 0) scale(0.996264)"/>
      <use xlink:href="#CMR17-65" transform="translate(319.200809 0) scale(0.996264)"/>
      <use xlink:href="#CMR17-66" transform="translate(389.762436 0) scale(0.996264)"/>
      <use xlink:href="#CMR17-61" transform="translate(417.235948 0) scale(0.996264)"/>
      <use xlink:href="#CMR17-63" transform="translate(462.926425 0) scale(0.996264)"/>
      <use xlink:href="#CMR17-74" transform="translate(503.412086 0) scale(0.996264)"/>
      <use xlink:href="#CMR17-6f" transform="translate(538.692853 0) scale(0.996264)"/>
      <use xlink:href="#CMR17-72" transform="translate(584.383331 0) scale(0.996264)"/>
      <use xlink:href="#CMMI12-73" transform="translate(649.740065 0) scale(0.996264)"/>
      <use xlink:href="#CMR17-28" transform="translate(695.690112 0) scale(0.996264)"/>
      <use xlink:href="#CMMI12-71" transform="translate(730.97088 0) scale(0.996264)"/>
      <use xlink:href="#CMR17-29" transform="translate(777.797204 0) scale(0.996264)"/>
     </g>
    </g>
   </g>
   <g id="line2d_16">
    <path d="M 26.510802 125.018985 
L 107.506821 83.120734 
L 107.506821 83.120734 
" clip-path="url(#p210401283f)" style="fill: none; stroke-dasharray: 1,1.65; stroke-dashoffset: 0; stroke: #524582; stroke-linecap: round"/>
   </g>
   <g id="line2d_17">
    <defs>
     <path id="m0f9e2011f7" d="M -0 2.828427 
L 1.697056 0 
L 0 -2.828427 
L -1.697056 -0 
z
" style="stroke: #524582; stroke-linejoin: miter"/>
    </defs>
    <g clip-path="url(#p210401283f)">
     <use xlink:href="#m0f9e2011f7" x="26.510802" y="125.018988" style="fill-opacity: 0; stroke: #524582; stroke-linejoin: miter"/>
     <use xlink:href="#m0f9e2011f7" x="60.438335" y="107.558462" style="fill-opacity: 0; stroke: #524582; stroke-linejoin: miter"/>
     <use xlink:href="#m0f9e2011f7" x="94.365868" y="90.551711" style="fill-opacity: 0; stroke: #524582; stroke-linejoin: miter"/>
     <use xlink:href="#m0f9e2011f7" x="128.293402" y="74.399159" style="fill-opacity: 0; stroke: #524582; stroke-linejoin: miter"/>
     <use xlink:href="#m0f9e2011f7" x="162.220935" y="59.431904" style="fill-opacity: 0; stroke: #524582; stroke-linejoin: miter"/>
     <use xlink:href="#m0f9e2011f7" x="196.148468" y="45.898374" style="fill-opacity: 0; stroke: #524582; stroke-linejoin: miter"/>
     <use xlink:href="#m0f9e2011f7" x="230.076002" y="33.963313" style="fill-opacity: 0; stroke: #524582; stroke-linejoin: miter"/>
     <use xlink:href="#m0f9e2011f7" x="264.003535" y="23.719492" style="fill-opacity: 0; stroke: #524582; stroke-linejoin: miter"/>
     <use xlink:href="#m0f9e2011f7" x="297.931069" y="15.211065" style="fill-opacity: 0; stroke: #524582; stroke-linejoin: miter"/>
     <use xlink:href="#m0f9e2011f7" x="331.858602" y="8.47347" style="fill-opacity: 0; stroke: #524582; stroke-linejoin: miter"/>
     <use xlink:href="#m0f9e2011f7" x="365.786135" y="3.632984" style="fill-opacity: 0; stroke: #524582; stroke-linejoin: miter"/>
     <use xlink:href="#m0f9e2011f7" x="399.713669" y="1.819788" style="fill-opacity: 0; stroke: #524582; stroke-linejoin: miter"/>
     <use xlink:href="#m0f9e2011f7" x="433.641202" y="0.722908" style="fill-opacity: 0; stroke: #524582; stroke-linejoin: miter"/>
     <use xlink:href="#m0f9e2011f7" x="467.568735" y="-0.020912" style="fill-opacity: 0; stroke: #524582; stroke-linejoin: miter"/>
     <use xlink:href="#m0f9e2011f7" x="501.496269" y="-0.555854" style="fill-opacity: 0; stroke: #524582; stroke-linejoin: miter"/>
     <use xlink:href="#m0f9e2011f7" x="535.423802" y="-0.954927" style="fill-opacity: 0; stroke: #524582; stroke-linejoin: miter"/>
     <use xlink:href="#m0f9e2011f7" x="540.437508" y="-1" style="fill-opacity: 0; stroke: #524582; stroke-linejoin: miter"/>
    </g>
   </g>
   <g id="line2d_18">
    <path d="M 26.510802 125.018985 
L 107.506821 106.277387 
L 107.506821 106.277387 
" clip-path="url(#p210401283f)" style="fill: none; stroke-dasharray: 1,1.65; stroke-dashoffset: 0; stroke: #38bfa7; stroke-linecap: round"/>
   </g>
   <g id="line2d_19">
    <defs>
     <path id="mbad1e07a4c" d="M 0 2 
C 0.530406 2 1.03916 1.789267 1.414214 1.414214 
C 1.789267 1.03916 2 0.530406 2 0 
C 2 -0.530406 1.789267 -1.03916 1.414214 -1.414214 
C 1.03916 -1.789267 0.530406 -2 0 -2 
C -0.530406 -2 -1.03916 -1.789267 -1.414214 -1.414214 
C -1.789267 -1.03916 -2 -0.530406 -2 0 
C -2 0.530406 -1.789267 1.03916 -1.414214 1.414214 
C -1.03916 1.789267 -0.530406 2 0 2 
z
" style="stroke: #38bfa7"/>
    </defs>
    <g clip-path="url(#p210401283f)">
     <use xlink:href="#mbad1e07a4c" x="26.510802" y="125.018985" style="fill-opacity: 0; stroke: #38bfa7"/>
     <use xlink:href="#mbad1e07a4c" x="60.438335" y="117.186846" style="fill-opacity: 0; stroke: #38bfa7"/>
     <use xlink:href="#mbad1e07a4c" x="94.365868" y="109.465638" style="fill-opacity: 0; stroke: #38bfa7"/>
     <use xlink:href="#mbad1e07a4c" x="128.293402" y="101.959514" style="fill-opacity: 0; stroke: #38bfa7"/>
     <use xlink:href="#mbad1e07a4c" x="162.220935" y="94.757709" style="fill-opacity: 0; stroke: #38bfa7"/>
     <use xlink:href="#mbad1e07a4c" x="196.148468" y="87.930042" style="fill-opacity: 0; stroke: #38bfa7"/>
     <use xlink:href="#mbad1e07a4c" x="230.076002" y="81.525098" style="fill-opacity: 0; stroke: #38bfa7"/>
     <use xlink:href="#mbad1e07a4c" x="264.003535" y="75.570844" style="fill-opacity: 0; stroke: #38bfa7"/>
     <use xlink:href="#mbad1e07a4c" x="297.931069" y="70.077058" style="fill-opacity: 0; stroke: #38bfa7"/>
     <use xlink:href="#mbad1e07a4c" x="331.858602" y="65.03877" style="fill-opacity: 0; stroke: #38bfa7"/>
     <use xlink:href="#mbad1e07a4c" x="365.786135" y="60.440049" style="fill-opacity: 0; stroke: #38bfa7"/>
     <use xlink:href="#mbad1e07a4c" x="399.713669" y="56.257586" style="fill-opacity: 0; stroke: #38bfa7"/>
     <use xlink:href="#mbad1e07a4c" x="433.641202" y="52.4638" style="fill-opacity: 0; stroke: #38bfa7"/>
     <use xlink:href="#mbad1e07a4c" x="467.568735" y="49.029319" style="fill-opacity: 0; stroke: #38bfa7"/>
     <use xlink:href="#mbad1e07a4c" x="501.496269" y="45.924883" style="fill-opacity: 0; stroke: #38bfa7"/>
     <use xlink:href="#mbad1e07a4c" x="535.423802" y="43.122719" style="fill-opacity: 0; stroke: #38bfa7"/>
     <use xlink:href="#mbad1e07a4c" x="569.351336" y="40.597523" style="fill-opacity: 0; stroke: #38bfa7"/>
     <use xlink:href="#mbad1e07a4c" x="603.278869" y="38.327171" style="fill-opacity: 0; stroke: #38bfa7"/>
     <use xlink:href="#mbad1e07a4c" x="637.206402" y="36.293291" style="fill-opacity: 0; stroke: #38bfa7"/>
     <use xlink:href="#mbad1e07a4c" x="671.133936" y="34.481827" style="fill-opacity: 0; stroke: #38bfa7"/>
     <use xlink:href="#mbad1e07a4c" x="705.061469" y="32.883759" style="fill-opacity: 0; stroke: #38bfa7"/>
     <use xlink:href="#mbad1e07a4c" x="738.989002" y="31.496208" style="fill-opacity: 0; stroke: #38bfa7"/>
     <use xlink:href="#mbad1e07a4c" x="772.916536" y="30.32435" style="fill-opacity: 0; stroke: #38bfa7"/>
     <use xlink:href="#mbad1e07a4c" x="806.844069" y="29.385096" style="fill-opacity: 0; stroke: #38bfa7"/>
     <use xlink:href="#mbad1e07a4c" x="840.771603" y="28.715247" style="fill-opacity: 0; stroke: #38bfa7"/>
     <use xlink:href="#mbad1e07a4c" x="874.699136" y="28.395655" style="fill-opacity: 0; stroke: #38bfa7"/>
    </g>
   </g>
   <g id="patch_3">
    <path d="M 26.510802 125.018985 
L 26.510802 0.72 
" style="fill: none; stroke: #000000; stroke-width: 0.35; stroke-linejoin: miter; stroke-linecap: square"/>
   </g>
   <g id="patch_4">
    <path d="M 239.80032 125.018985 
L 239.80032 0.72 
" style="fill: none; stroke: #000000; stroke-width: 0.35; stroke-linejoin: miter; stroke-linecap: square"/>
   </g>
   <g id="patch_5">
    <path d="M 26.510802 125.018985 
L 239.80032 125.018985 
" style="fill: none; stroke: #000000; stroke-width: 0.35; stroke-linejoin: miter; stroke-linecap: square"/>
   </g>
   <g id="patch_6">
    <path d="M 26.510802 0.72 
L 239.80032 0.72 
" style="fill: none; stroke: #000000; stroke-width: 0.35; stroke-linejoin: miter; stroke-linecap: square"/>
   </g>
   <g id="text_16">
    <!-- $L=50,\,V/J=-1.0$ -->
    <g transform="translate(162.227388 121.718047) scale(0.08 -0.08)">
     <defs>
      <path id="CMMI12-4c" d="M 2349 3861 
C 2406 4103 2426 4167 2989 4167 
C 3162 4167 3206 4167 3206 4288 
C 3206 4352 3136 4352 3110 4352 
C 2982 4352 2835 4352 2707 4352 
L 1850 4352 
C 1728 4352 1587 4352 1466 4352 
C 1414 4352 1344 4352 1344 4231 
C 1344 4167 1402 4167 1498 4167 
C 1888 4167 1888 4116 1888 4046 
C 1888 4034 1888 3995 1862 3899 
L 998 472 
C 941 249 928 185 480 185 
C 358 185 294 185 294 70 
C 294 0 333 0 461 0 
L 3328 0 
C 3469 0 3475 6 3520 121 
L 4013 1478 
C 4026 1510 4038 1548 4038 1567 
C 4038 1605 4006 1631 3974 1631 
C 3968 1631 3936 1631 3923 1605 
C 3910 1599 3910 1586 3859 1465 
C 3654 905 3366 185 2285 185 
L 1670 185 
C 1581 185 1568 185 1530 192 
C 1459 198 1453 211 1453 262 
C 1453 307 1466 345 1478 401 
L 2349 3861 
z
" transform="scale(0.015625)"/>
      <path id="CMR17-3d" d="M 4115 2017 
C 4211 2017 4307 2017 4307 2125 
C 4307 2240 4198 2240 4090 2240 
L 512 2240 
C 403 2240 294 2240 294 2125 
C 294 2017 390 2017 486 2017 
L 4115 2017 
z
M 4090 896 
C 4198 896 4307 896 4307 1011 
C 4307 1119 4211 1119 4115 1119 
L 486 1119 
C 390 1119 294 1119 294 1011 
C 294 896 403 896 512 896 
L 4090 896 
z
" transform="scale(0.015625)"/>
      <path id="CMMI12-3b" d="M 1248 -31 
C 1248 343 1126 619 864 619 
C 659 619 557 453 557 313 
C 557 172 653 0 870 0 
C 954 0 1024 26 1082 83 
C 1094 96 1101 96 1107 96 
C 1120 96 1120 5 1120 -27 
C 1120 -240 1082 -659 710 -1080 
C 640 -1157 640 -1170 640 -1183 
C 640 -1216 672 -1248 704 -1248 
C 755 -1248 1248 -771 1248 -31 
z
" transform="scale(0.015625)"/>
      <path id="CMMI12-56" d="M 3962 3640 
C 4179 3984 4378 4136 4704 4162 
C 4768 4168 4819 4168 4819 4282 
C 4819 4308 4806 4346 4749 4346 
C 4634 4346 4358 4346 4243 4346 
C 4058 4346 3866 4346 3686 4346 
C 3635 4346 3571 4346 3571 4226 
C 3571 4168 3629 4162 3654 4162 
C 3891 4143 3917 4029 3917 3952 
C 3917 3857 3827 3710 3821 3704 
L 1811 540 
L 1363 3969 
C 1363 4160 1696 4160 1766 4160 
C 1862 4160 1920 4160 1920 4282 
C 1920 4346 1850 4346 1830 4346 
C 1722 4346 1594 4346 1485 4346 
L 1126 4346 
C 659 4346 467 4346 461 4346 
C 422 4346 346 4346 346 4230 
C 346 4160 390 4160 493 4160 
C 819 4160 838 4102 858 3944 
L 1370 24 
C 1389 -109 1389 -128 1478 -128 
C 1555 -128 1587 -109 1651 -8 
L 3962 3640 
z
" transform="scale(0.015625)"/>
      <path id="CMMI12-3d" d="M 2746 4562 
C 2746 4569 2784 4666 2784 4678 
C 2784 4755 2720 4800 2669 4800 
C 2637 4800 2579 4800 2528 4659 
L 384 -1363 
C 384 -1370 346 -1465 346 -1478 
C 346 -1555 410 -1600 461 -1600 
C 499 -1600 557 -1593 602 -1459 
L 2746 4562 
z
" transform="scale(0.015625)"/>
      <path id="CMMI12-4a" d="M 3418 3912 
C 3469 4103 3482 4167 3795 4167 
C 3898 4167 3962 4167 3962 4282 
C 3962 4352 3904 4352 3878 4352 
C 3770 4352 3648 4352 3533 4352 
L 3181 4352 
C 2912 4352 2630 4352 2362 4352 
C 2304 4352 2227 4352 2227 4237 
C 2227 4173 2278 4173 2278 4167 
L 2438 4167 
C 2950 4167 2950 4116 2950 4020 
C 2950 4013 2950 3969 2925 3868 
L 2189 960 
C 2022 312 1594 0 1286 0 
C 1069 0 762 100 685 431 
C 710 424 742 418 768 418 
C 979 418 1146 603 1146 788 
C 1146 890 1082 1024 890 1024 
C 774 1024 506 961 506 549 
C 506 151 838 -128 1299 -128 
C 1882 -128 2509 311 2662 915 
L 3418 3912 
z
" transform="scale(0.015625)"/>
      <path id="CMSY10-0" d="M 4218 1472 
C 4326 1472 4442 1472 4442 1600 
C 4442 1728 4326 1728 4218 1728 
L 755 1728 
C 646 1728 531 1728 531 1600 
C 531 1472 646 1472 755 1472 
L 4218 1472 
z
" transform="scale(0.015625)"/>
     </defs>
     <use xlink:href="#CMMI12-4c" transform="scale(0.996264)"/>
     <use xlink:href="#CMR17-3d" transform="translate(94.044884 0) scale(0.996264)"/>
     <use xlink:href="#CMR17-35" transform="translate(193.433681 0) scale(0.996264)"/>
     <use xlink:href="#CMR17-30" transform="translate(239.124158 0) scale(0.996264)"/>
     <use xlink:href="#CMMI12-3b" transform="translate(284.814636 0) scale(0.996264)"/>
     <use xlink:href="#CMMI12-56" transform="translate(345.120623 0) scale(0.996264)"/>
     <use xlink:href="#CMMI12-3d" transform="translate(412.829073 0) scale(0.996264)"/>
     <use xlink:href="#CMMI12-4a" transform="translate(461.603992 0) scale(0.996264)"/>
     <use xlink:href="#CMR17-3d" transform="translate(552.420671 0) scale(0.996264)"/>
     <use xlink:href="#CMSY10-0" transform="translate(651.809468 0) scale(0.996264)"/>
     <use xlink:href="#CMR17-31" transform="translate(729.296936 0) scale(0.996264)"/>
     <use xlink:href="#CMMI12-3a" transform="translate(774.987413 0) scale(0.996264)"/>
     <use xlink:href="#CMR17-30" transform="translate(802.08459 0) scale(0.996264)"/>
    </g>
   </g>
   <g id="legend_1">
    <g id="line2d_20">
     <g>
      <use xlink:href="#m0f9e2011f7" x="191.270495" y="10.72" style="fill-opacity: 0; stroke: #524582; stroke-linejoin: miter"/>
     </g>
    </g>
    <g id="text_17">
     <!-- $N=10$ -->
     <g transform="translate(205.270495 13.52) scale(0.08 -0.08)">
      <defs>
       <path id="CMMI12-4e" d="M 4736 3698 
C 4806 3974 4909 4166 5395 4166 
C 5414 4166 5491 4166 5491 4279 
C 5491 4352 5434 4352 5408 4352 
C 5280 4352 4954 4352 4826 4352 
L 4518 4352 
C 4429 4352 4314 4352 4224 4352 
C 4186 4352 4109 4352 4109 4230 
C 4109 4166 4160 4166 4205 4166 
C 4589 4166 4614 4019 4614 3903 
C 4614 3846 4608 3826 4589 3737 
L 3866 850 
L 2496 4249 
C 2451 4352 2445 4352 2304 4352 
L 1523 4352 
C 1395 4352 1338 4352 1338 4230 
C 1338 4166 1382 4166 1504 4166 
C 1536 4166 1914 4166 1914 4115 
C 1914 4102 1901 4051 1894 4032 
L 1043 635 
C 966 320 813 186 390 186 
C 358 186 294 186 294 67 
C 294 0 358 0 378 0 
C 506 0 832 0 960 0 
L 1267 0 
C 1357 0 1466 0 1555 0 
C 1600 0 1670 0 1670 122 
C 1670 180 1606 186 1581 186 
C 1370 186 1165 224 1165 454 
C 1165 505 1178 562 1190 613 
L 2054 4032 
C 2093 3968 2093 3956 2118 3898 
L 3642 115 
C 3674 38 3686 0 3744 0 
C 3808 0 3814 19 3840 128 
L 4736 3698 
z
" transform="scale(0.015625)"/>
      </defs>
      <use xlink:href="#CMMI12-4e" transform="scale(0.996264)"/>
      <use xlink:href="#CMR17-3d" transform="translate(116.195781 0) scale(0.996264)"/>
      <use xlink:href="#CMR17-31" transform="translate(215.584578 0) scale(0.996264)"/>
      <use xlink:href="#CMR17-30" transform="translate(261.275056 0) scale(0.996264)"/>
     </g>
    </g>
    <g id="line2d_21">
     <g>
      <use xlink:href="#mbad1e07a4c" x="191.270495" y="19.869746" style="fill-opacity: 0; stroke: #38bfa7"/>
     </g>
    </g>
    <g id="text_18">
     <!-- $N=25$ -->
     <g transform="translate(205.270495 22.669746) scale(0.08 -0.08)">
      <use xlink:href="#CMMI12-4e" transform="scale(0.996264)"/>
      <use xlink:href="#CMR17-3d" transform="translate(116.195781 0) scale(0.996264)"/>
      <use xlink:href="#CMR17-32" transform="translate(215.584578 0) scale(0.996264)"/>
      <use xlink:href="#CMR17-35" transform="translate(261.275056 0) scale(0.996264)"/>
     </g>
    </g>
   </g>
  </g>
  <g id="axes_2">
   <g id="patch_7">
    <path d="M 26.510802 56.654543 
L 133.155561 56.654543 
L 133.155561 0.72 
L 26.510802 0.72 
L 26.510802 56.654543 
z
" style="fill: none"/>
   </g>
   <g id="matplotlib.axis_3">
    <g id="xtick_9">
     <g id="line2d_22">
      <g>
       <use xlink:href="#m32467aaf4b" x="69.168279" y="56.654543" style="stroke: #000000; stroke-width: 0.35"/>
      </g>
     </g>
     <g id="text_19">
      <!-- $\mathdefault{20}$ -->
      <g transform="translate(64.934096 67.189345) scale(0.08 -0.08)">
       <use xlink:href="#CMR17-32" transform="scale(0.996264)"/>
       <use xlink:href="#CMR17-30" transform="translate(45.690477 0) scale(0.996264)"/>
      </g>
     </g>
    </g>
    <g id="xtick_10">
     <g id="line2d_23">
      <g>
       <use xlink:href="#m32467aaf4b" x="111.827889" y="56.654543" style="stroke: #000000; stroke-width: 0.35"/>
      </g>
     </g>
     <g id="text_20">
      <!-- $\mathdefault{40}$ -->
      <g transform="translate(107.593706 67.189345) scale(0.08 -0.08)">
       <use xlink:href="#CMR17-34" transform="scale(0.996264)"/>
       <use xlink:href="#CMR17-30" transform="translate(45.690477 0) scale(0.996264)"/>
      </g>
     </g>
    </g>
    <g id="text_21">
     <!-- $r$ -->
     <g transform="translate(77.9225 76.273892) scale(0.08 -0.08)">
      <defs>
       <path id="CMMI12-72" d="M 2490 2612 
C 2291 2574 2189 2433 2189 2293 
C 2189 2139 2310 2088 2400 2088 
C 2579 2088 2726 2242 2726 2433 
C 2726 2638 2528 2816 2208 2816 
C 1952 2816 1658 2701 1389 2312 
C 1344 2650 1088 2816 832 2816 
C 582 2816 454 2625 378 2484 
C 269 2254 173 1871 173 1839 
C 173 1814 198 1782 243 1782 
C 294 1782 301 1788 339 1935 
C 435 2318 557 2689 813 2689 
C 966 2689 1011 2580 1011 2395 
C 1011 2254 947 2005 902 1807 
L 723 1118 
C 698 996 627 709 595 594 
C 550 428 480 128 480 96 
C 480 6 550 -64 646 -64 
C 717 -64 838 -19 877 109 
C 896 160 1133 1124 1171 1271 
C 1203 1411 1242 1546 1274 1686 
C 1299 1775 1325 1878 1344 1961 
C 1363 2018 1536 2331 1696 2472 
C 1773 2542 1939 2689 2202 2689 
C 2304 2689 2406 2670 2490 2612 
z
" transform="scale(0.015625)"/>
      </defs>
      <use xlink:href="#CMMI12-72" transform="scale(0.996264)"/>
     </g>
    </g>
   </g>
   <g id="matplotlib.axis_4">
    <g id="ytick_6">
     <g id="line2d_24">
      <defs>
       <path id="m68b415a14e" d="M 0 0 
L 2 0 
" style="stroke: #000000; stroke-width: 0.35"/>
      </defs>
      <g>
       <use xlink:href="#m68b415a14e" x="133.155561" y="38.009696" style="stroke: #000000; stroke-width: 0.35"/>
      </g>
     </g>
     <g id="text_22">
      <!-- $\mathdefault{0.95}$ -->
      <g transform="translate(138.155561 40.777096) scale(0.08 -0.08)">
       <defs>
        <path id="CMR17-39" d="M 2253 1864 
C 2253 464 1670 31 1190 31 
C 1043 31 685 31 538 294 
C 704 268 826 357 826 518 
C 826 692 685 749 595 749 
C 538 749 365 723 365 506 
C 365 71 742 -128 1203 -128 
C 1939 -128 2688 674 2688 2073 
C 2688 3817 1971 4179 1485 4179 
C 851 4179 243 3628 243 2778 
C 243 1991 762 1408 1414 1408 
C 1952 1408 2189 1903 2253 2112 
L 2253 1864 
z
M 1427 1510 
C 1254 1510 1011 1542 813 1922 
C 678 2169 678 2461 678 2771 
C 678 3146 678 3405 858 3684 
C 947 3817 1114 4032 1485 4032 
C 2240 4032 2240 2885 2240 2632 
C 2240 2182 2035 1510 1427 1510 
z
" transform="scale(0.015625)"/>
       </defs>
       <use xlink:href="#CMR17-30" transform="scale(0.996264)"/>
       <use xlink:href="#CMMI12-3a" transform="translate(45.690477 0) scale(0.996264)"/>
       <use xlink:href="#CMR17-39" transform="translate(72.787654 0) scale(0.996264)"/>
       <use xlink:href="#CMR17-35" transform="translate(118.478131 0) scale(0.996264)"/>
      </g>
     </g>
    </g>
    <g id="ytick_7">
     <g id="line2d_25">
      <g>
       <use xlink:href="#m68b415a14e" x="133.155561" y="6.934949" style="stroke: #000000; stroke-width: 0.35"/>
      </g>
     </g>
     <g id="text_23">
      <!-- $\mathdefault{1.00}$ -->
      <g transform="translate(138.155561 9.70235) scale(0.08 -0.08)">
       <use xlink:href="#CMR17-31" transform="scale(0.996264)"/>
       <use xlink:href="#CMMI12-3a" transform="translate(45.690477 0) scale(0.996264)"/>
       <use xlink:href="#CMR17-30" transform="translate(72.787654 0) scale(0.996264)"/>
       <use xlink:href="#CMR17-30" transform="translate(118.478131 0) scale(0.996264)"/>
      </g>
     </g>
    </g>
    <g id="text_24">
     <!-- $g_2(r)$ -->
     <g transform="translate(163.661439 30.268437) rotate(-90) scale(0.08 -0.08)">
      <defs>
       <path id="CMMI12-67" d="M 2163 811 
C 2138 709 2125 683 2042 588 
C 1779 249 1510 128 1312 128 
C 1101 128 902 294 902 734 
C 902 1073 1094 1788 1235 2076 
C 1421 2433 1709 2689 1978 2689 
C 2400 2689 2483 2165 2483 2127 
L 2464 2037 
L 2163 811 
z
M 2560 2395 
C 2477 2580 2298 2816 1978 2816 
C 1280 2816 486 1941 486 990 
C 486 326 890 0 1299 0 
C 1638 0 1939 268 2054 396 
L 1914 -171 
C 1824 -516 1786 -674 1555 -894 
C 1293 -1152 1050 -1152 909 -1152 
C 717 -1152 557 -1139 397 -1089 
C 602 -1033 653 -858 653 -789 
C 653 -689 576 -588 435 -588 
C 282 -588 115 -714 115 -922 
C 115 -1180 378 -1280 922 -1280 
C 1747 -1280 2176 -753 2259 -410 
L 2970 2435 
C 2989 2511 2989 2524 2989 2536 
C 2989 2625 2918 2695 2822 2695 
C 2669 2695 2579 2567 2560 2395 
z
" transform="scale(0.015625)"/>
      </defs>
      <use xlink:href="#CMMI12-67" transform="scale(0.996264)"/>
      <use xlink:href="#CMR17-32" transform="translate(46.710897 -14.943915) scale(0.697382)"/>
      <use xlink:href="#CMR17-28" transform="translate(79.192211 0) scale(0.996264)"/>
      <use xlink:href="#CMMI12-72" transform="translate(114.472979 0) scale(0.996264)"/>
      <use xlink:href="#CMR17-29" transform="translate(161.143591 0) scale(0.996264)"/>
     </g>
    </g>
   </g>
   <g id="line2d_26">
    <g clip-path="url(#p81da15fecf)">
     <use xlink:href="#m0f9e2011f7" x="26.508669" y="628.429881" style="fill-opacity: 0; stroke: #524582; stroke-linejoin: miter"/>
     <use xlink:href="#m0f9e2011f7" x="28.641649" y="465.966051" style="fill-opacity: 0; stroke: #524582; stroke-linejoin: miter"/>
     <use xlink:href="#m0f9e2011f7" x="30.77463" y="312.318639" style="fill-opacity: 0; stroke: #524582; stroke-linejoin: miter"/>
     <use xlink:href="#m0f9e2011f7" x="32.90761" y="176.62156" style="fill-opacity: 0; stroke: #524582; stroke-linejoin: miter"/>
     <use xlink:href="#m0f9e2011f7" x="35.040591" y="88.312318" style="fill-opacity: 0; stroke: #524582; stroke-linejoin: miter"/>
     <use xlink:href="#m0f9e2011f7" x="37.173571" y="47.571846" style="fill-opacity: 0; stroke: #524582; stroke-linejoin: miter"/>
     <use xlink:href="#m0f9e2011f7" x="39.306552" y="35.65427" style="fill-opacity: 0; stroke: #524582; stroke-linejoin: miter"/>
     <use xlink:href="#m0f9e2011f7" x="41.439532" y="32.420079" style="fill-opacity: 0; stroke: #524582; stroke-linejoin: miter"/>
     <use xlink:href="#m0f9e2011f7" x="43.572513" y="27.787997" style="fill-opacity: 0; stroke: #524582; stroke-linejoin: miter"/>
     <use xlink:href="#m0f9e2011f7" x="45.705493" y="21.79352" style="fill-opacity: 0; stroke: #524582; stroke-linejoin: miter"/>
     <use xlink:href="#m0f9e2011f7" x="47.838474" y="17.763924" style="fill-opacity: 0; stroke: #524582; stroke-linejoin: miter"/>
     <use xlink:href="#m0f9e2011f7" x="49.971454" y="16.643295" style="fill-opacity: 0; stroke: #524582; stroke-linejoin: miter"/>
     <use xlink:href="#m0f9e2011f7" x="52.104435" y="16.548507" style="fill-opacity: 0; stroke: #524582; stroke-linejoin: miter"/>
     <use xlink:href="#m0f9e2011f7" x="54.237415" y="15.613713" style="fill-opacity: 0; stroke: #524582; stroke-linejoin: miter"/>
     <use xlink:href="#m0f9e2011f7" x="56.370396" y="13.917692" style="fill-opacity: 0; stroke: #524582; stroke-linejoin: miter"/>
     <use xlink:href="#m0f9e2011f7" x="58.503376" y="12.70745" style="fill-opacity: 0; stroke: #524582; stroke-linejoin: miter"/>
     <use xlink:href="#m0f9e2011f7" x="60.636357" y="12.548088" style="fill-opacity: 0; stroke: #524582; stroke-linejoin: miter"/>
     <use xlink:href="#m0f9e2011f7" x="62.769337" y="12.756098" style="fill-opacity: 0; stroke: #524582; stroke-linejoin: miter"/>
     <use xlink:href="#m0f9e2011f7" x="64.902318" y="12.457345" style="fill-opacity: 0; stroke: #524582; stroke-linejoin: miter"/>
     <use xlink:href="#m0f9e2011f7" x="67.035298" y="11.676026" style="fill-opacity: 0; stroke: #524582; stroke-linejoin: miter"/>
     <use xlink:href="#m0f9e2011f7" x="69.168279" y="11.139065" style="fill-opacity: 0; stroke: #524582; stroke-linejoin: miter"/>
     <use xlink:href="#m0f9e2011f7" x="71.301259" y="11.240121" style="fill-opacity: 0; stroke: #524582; stroke-linejoin: miter"/>
     <use xlink:href="#m0f9e2011f7" x="73.43424" y="11.561069" style="fill-opacity: 0; stroke: #524582; stroke-linejoin: miter"/>
     <use xlink:href="#m0f9e2011f7" x="75.56722" y="11.485499" style="fill-opacity: 0; stroke: #524582; stroke-linejoin: miter"/>
     <use xlink:href="#m0f9e2011f7" x="77.700201" y="11.019208" style="fill-opacity: 0; stroke: #524582; stroke-linejoin: miter"/>
     <use xlink:href="#m0f9e2011f7" x="79.833181" y="10.745506" style="fill-opacity: 0; stroke: #524582; stroke-linejoin: miter"/>
     <use xlink:href="#m0f9e2011f7" x="81.966162" y="11.019209" style="fill-opacity: 0; stroke: #524582; stroke-linejoin: miter"/>
     <use xlink:href="#m0f9e2011f7" x="84.099142" y="11.485501" style="fill-opacity: 0; stroke: #524582; stroke-linejoin: miter"/>
     <use xlink:href="#m0f9e2011f7" x="86.232123" y="11.561072" style="fill-opacity: 0; stroke: #524582; stroke-linejoin: miter"/>
     <use xlink:href="#m0f9e2011f7" x="88.365103" y="11.240124" style="fill-opacity: 0; stroke: #524582; stroke-linejoin: miter"/>
     <use xlink:href="#m0f9e2011f7" x="90.498084" y="11.139068" style="fill-opacity: 0; stroke: #524582; stroke-linejoin: miter"/>
     <use xlink:href="#m0f9e2011f7" x="92.631064" y="11.676028" style="fill-opacity: 0; stroke: #524582; stroke-linejoin: miter"/>
     <use xlink:href="#m0f9e2011f7" x="94.764045" y="12.457348" style="fill-opacity: 0; stroke: #524582; stroke-linejoin: miter"/>
     <use xlink:href="#m0f9e2011f7" x="96.897025" y="12.756101" style="fill-opacity: 0; stroke: #524582; stroke-linejoin: miter"/>
     <use xlink:href="#m0f9e2011f7" x="99.030006" y="12.548092" style="fill-opacity: 0; stroke: #524582; stroke-linejoin: miter"/>
     <use xlink:href="#m0f9e2011f7" x="101.162986" y="12.707454" style="fill-opacity: 0; stroke: #524582; stroke-linejoin: miter"/>
     <use xlink:href="#m0f9e2011f7" x="103.295967" y="13.917694" style="fill-opacity: 0; stroke: #524582; stroke-linejoin: miter"/>
     <use xlink:href="#m0f9e2011f7" x="105.428947" y="15.613713" style="fill-opacity: 0; stroke: #524582; stroke-linejoin: miter"/>
     <use xlink:href="#m0f9e2011f7" x="107.561928" y="16.548504" style="fill-opacity: 0; stroke: #524582; stroke-linejoin: miter"/>
     <use xlink:href="#m0f9e2011f7" x="109.694908" y="16.643291" style="fill-opacity: 0; stroke: #524582; stroke-linejoin: miter"/>
     <use xlink:href="#m0f9e2011f7" x="111.827889" y="17.763919" style="fill-opacity: 0; stroke: #524582; stroke-linejoin: miter"/>
     <use xlink:href="#m0f9e2011f7" x="113.960869" y="21.793516" style="fill-opacity: 0; stroke: #524582; stroke-linejoin: miter"/>
     <use xlink:href="#m0f9e2011f7" x="116.09385" y="27.787994" style="fill-opacity: 0; stroke: #524582; stroke-linejoin: miter"/>
     <use xlink:href="#m0f9e2011f7" x="118.22683" y="32.420078" style="fill-opacity: 0; stroke: #524582; stroke-linejoin: miter"/>
     <use xlink:href="#m0f9e2011f7" x="120.359811" y="35.654269" style="fill-opacity: 0; stroke: #524582; stroke-linejoin: miter"/>
     <use xlink:href="#m0f9e2011f7" x="122.492791" y="47.571848" style="fill-opacity: 0; stroke: #524582; stroke-linejoin: miter"/>
     <use xlink:href="#m0f9e2011f7" x="124.625772" y="88.312319" style="fill-opacity: 0; stroke: #524582; stroke-linejoin: miter"/>
     <use xlink:href="#m0f9e2011f7" x="126.758752" y="176.621562" style="fill-opacity: 0; stroke: #524582; stroke-linejoin: miter"/>
     <use xlink:href="#m0f9e2011f7" x="128.891733" y="312.31865" style="fill-opacity: 0; stroke: #524582; stroke-linejoin: miter"/>
     <use xlink:href="#m0f9e2011f7" x="131.024713" y="465.966039" style="fill-opacity: 0; stroke: #524582; stroke-linejoin: miter"/>
    </g>
   </g>
   <g id="line2d_27">
    <path d="M 32.746701 147.90808 
L 33.505544 113.995733 
L 34.262828 89.41319 
L 35.009446 71.952645 
L 35.734732 59.861536 
L 36.438686 51.578703 
L 37.131974 45.872354 
L 37.825262 41.893354 
L 38.561214 38.922612 
L 39.414491 36.409318 
L 40.939725 32.763072 
L 42.859599 27.947332 
L 45.152783 22.232239 
L 46.230045 20.153789 
L 47.147319 18.839963 
L 48.011262 17.976358 
L 48.907204 17.394747 
L 50.005799 16.961471 
L 52.896276 15.939404 
L 54.410844 15.060577 
L 57.247992 13.373639 
L 58.485244 12.937377 
L 59.76516 12.72634 
L 61.887688 12.651239 
L 63.764899 12.481043 
L 65.567447 12.074284 
L 68.617915 11.362773 
L 70.185812 11.265627 
L 72.478995 11.387125 
L 74.665519 11.415448 
L 76.702719 11.195494 
L 79.571865 10.896435 
L 81.27842 10.972258 
L 86.664734 11.416273 
L 90.813796 11.334033 
L 92.413692 11.623722 
L 96.968061 12.608618 
L 101.682419 13.084544 
L 102.898339 13.606968 
L 104.466237 14.547593 
L 106.930076 16.017499 
L 108.34865 16.571558 
L 110.99381 17.521655 
L 111.847087 18.139597 
L 112.657701 19.011252 
L 113.500313 20.26147 
L 114.449584 22.093868 
L 115.665504 24.971872 
L 121.275804 39.525997 
L 121.94776 42.417419 
L 122.577052 46.167133 
L 123.195679 51.267773 
L 123.824971 58.412431 
L 124.464929 68.339479 
L 125.126219 82.240975 
L 125.808841 101.580403 
L 126.502129 127.925584 
L 126.919661 147.90808 
L 126.919661 147.90808 
" clip-path="url(#p81da15fecf)" style="fill: none; stroke: #ffffff; stroke-width: 0.95; stroke-linecap: round"/>
    <path d="M 32.746701 147.90808 
L 33.505544 113.995733 
L 34.262828 89.41319 
L 35.009446 71.952645 
L 35.734732 59.861536 
L 36.438686 51.578703 
L 37.131974 45.872354 
L 37.825262 41.893354 
L 38.561214 38.922612 
L 39.414491 36.409318 
L 40.939725 32.763072 
L 42.859599 27.947332 
L 45.152783 22.232239 
L 46.230045 20.153789 
L 47.147319 18.839963 
L 48.011262 17.976358 
L 48.907204 17.394747 
L 50.005799 16.961471 
L 52.896276 15.939404 
L 54.410844 15.060577 
L 57.247992 13.373639 
L 58.485244 12.937377 
L 59.76516 12.72634 
L 61.887688 12.651239 
L 63.764899 12.481043 
L 65.567447 12.074284 
L 68.617915 11.362773 
L 70.185812 11.265627 
L 72.478995 11.387125 
L 74.665519 11.415448 
L 76.702719 11.195494 
L 79.571865 10.896435 
L 81.27842 10.972258 
L 86.664734 11.416273 
L 90.813796 11.334033 
L 92.413692 11.623722 
L 96.968061 12.608618 
L 101.682419 13.084544 
L 102.898339 13.606968 
L 104.466237 14.547593 
L 106.930076 16.017499 
L 108.34865 16.571558 
L 110.99381 17.521655 
L 111.847087 18.139597 
L 112.657701 19.011252 
L 113.500313 20.26147 
L 114.449584 22.093868 
L 115.665504 24.971872 
L 121.275804 39.525997 
L 121.94776 42.417419 
L 122.577052 46.167133 
L 123.195679 51.267773 
L 123.824971 58.412431 
L 124.464929 68.339479 
L 125.126219 82.240975 
L 125.808841 101.580403 
L 126.502129 127.925584 
L 126.919661 147.90808 
L 126.919661 147.90808 
" clip-path="url(#p81da15fecf)" style="fill: none; stroke: #524582; stroke-width: 0.75; stroke-linecap: round"/>
   </g>
   <g id="line2d_28">
    <g clip-path="url(#p81da15fecf)">
     <use xlink:href="#mbad1e07a4c" x="26.508669" y="628.429875" style="fill-opacity: 0; stroke: #38bfa7"/>
     <use xlink:href="#mbad1e07a4c" x="28.641649" y="187.236045" style="fill-opacity: 0; stroke: #38bfa7"/>
     <use xlink:href="#mbad1e07a4c" x="30.77463" y="58.031167" style="fill-opacity: 0; stroke: #38bfa7"/>
     <use xlink:href="#mbad1e07a4c" x="32.90761" y="32.258448" style="fill-opacity: 0; stroke: #38bfa7"/>
     <use xlink:href="#mbad1e07a4c" x="35.040591" y="19.312357" style="fill-opacity: 0; stroke: #38bfa7"/>
     <use xlink:href="#mbad1e07a4c" x="37.173571" y="15.445777" style="fill-opacity: 0; stroke: #38bfa7"/>
     <use xlink:href="#mbad1e07a4c" x="39.306552" y="12.393392" style="fill-opacity: 0; stroke: #38bfa7"/>
     <use xlink:href="#mbad1e07a4c" x="41.439532" y="11.267238" style="fill-opacity: 0; stroke: #38bfa7"/>
     <use xlink:href="#mbad1e07a4c" x="43.572513" y="10.100033" style="fill-opacity: 0; stroke: #38bfa7"/>
     <use xlink:href="#mbad1e07a4c" x="45.705493" y="9.630767" style="fill-opacity: 0; stroke: #38bfa7"/>
     <use xlink:href="#mbad1e07a4c" x="47.838474" y="9.058904" style="fill-opacity: 0; stroke: #38bfa7"/>
     <use xlink:href="#mbad1e07a4c" x="49.971454" y="8.824906" style="fill-opacity: 0; stroke: #38bfa7"/>
     <use xlink:href="#mbad1e07a4c" x="52.104435" y="8.501313" style="fill-opacity: 0; stroke: #38bfa7"/>
     <use xlink:href="#mbad1e07a4c" x="54.237415" y="8.373028" style="fill-opacity: 0; stroke: #38bfa7"/>
     <use xlink:href="#mbad1e07a4c" x="56.370396" y="8.171967" style="fill-opacity: 0; stroke: #38bfa7"/>
     <use xlink:href="#mbad1e07a4c" x="58.503376" y="8.098811" style="fill-opacity: 0; stroke: #38bfa7"/>
     <use xlink:href="#mbad1e07a4c" x="60.636357" y="7.965688" style="fill-opacity: 0; stroke: #38bfa7"/>
     <use xlink:href="#mbad1e07a4c" x="62.769337" y="7.924798" style="fill-opacity: 0; stroke: #38bfa7"/>
     <use xlink:href="#mbad1e07a4c" x="64.902318" y="7.832866" style="fill-opacity: 0; stroke: #38bfa7"/>
     <use xlink:href="#mbad1e07a4c" x="67.035298" y="7.812944" style="fill-opacity: 0; stroke: #38bfa7"/>
     <use xlink:href="#mbad1e07a4c" x="69.168279" y="7.747971" style="fill-opacity: 0; stroke: #38bfa7"/>
     <use xlink:href="#mbad1e07a4c" x="71.301259" y="7.743238" style="fill-opacity: 0; stroke: #38bfa7"/>
     <use xlink:href="#mbad1e07a4c" x="73.43424" y="7.697267" style="fill-opacity: 0; stroke: #38bfa7"/>
     <use xlink:href="#mbad1e07a4c" x="75.56722" y="7.704942" style="fill-opacity: 0; stroke: #38bfa7"/>
     <use xlink:href="#mbad1e07a4c" x="77.700201" y="7.673495" style="fill-opacity: 0; stroke: #38bfa7"/>
     <use xlink:href="#mbad1e07a4c" x="79.833181" y="7.692718" style="fill-opacity: 0; stroke: #38bfa7"/>
     <use xlink:href="#mbad1e07a4c" x="81.966162" y="7.673495" style="fill-opacity: 0; stroke: #38bfa7"/>
     <use xlink:href="#mbad1e07a4c" x="84.099142" y="7.704942" style="fill-opacity: 0; stroke: #38bfa7"/>
     <use xlink:href="#mbad1e07a4c" x="86.232123" y="7.697267" style="fill-opacity: 0; stroke: #38bfa7"/>
     <use xlink:href="#mbad1e07a4c" x="88.365103" y="7.743238" style="fill-opacity: 0; stroke: #38bfa7"/>
     <use xlink:href="#mbad1e07a4c" x="90.498084" y="7.747972" style="fill-opacity: 0; stroke: #38bfa7"/>
     <use xlink:href="#mbad1e07a4c" x="92.631064" y="7.812943" style="fill-opacity: 0; stroke: #38bfa7"/>
     <use xlink:href="#mbad1e07a4c" x="94.764045" y="7.832866" style="fill-opacity: 0; stroke: #38bfa7"/>
     <use xlink:href="#mbad1e07a4c" x="96.897025" y="7.924798" style="fill-opacity: 0; stroke: #38bfa7"/>
     <use xlink:href="#mbad1e07a4c" x="99.030006" y="7.965688" style="fill-opacity: 0; stroke: #38bfa7"/>
     <use xlink:href="#mbad1e07a4c" x="101.162986" y="8.098812" style="fill-opacity: 0; stroke: #38bfa7"/>
     <use xlink:href="#mbad1e07a4c" x="103.295967" y="8.171966" style="fill-opacity: 0; stroke: #38bfa7"/>
     <use xlink:href="#mbad1e07a4c" x="105.428947" y="8.373026" style="fill-opacity: 0; stroke: #38bfa7"/>
     <use xlink:href="#mbad1e07a4c" x="107.561928" y="8.501314" style="fill-opacity: 0; stroke: #38bfa7"/>
     <use xlink:href="#mbad1e07a4c" x="109.694908" y="8.824906" style="fill-opacity: 0; stroke: #38bfa7"/>
     <use xlink:href="#mbad1e07a4c" x="111.827889" y="9.058906" style="fill-opacity: 0; stroke: #38bfa7"/>
     <use xlink:href="#mbad1e07a4c" x="113.960869" y="9.630767" style="fill-opacity: 0; stroke: #38bfa7"/>
     <use xlink:href="#mbad1e07a4c" x="116.09385" y="10.100028" style="fill-opacity: 0; stroke: #38bfa7"/>
     <use xlink:href="#mbad1e07a4c" x="118.22683" y="11.267245" style="fill-opacity: 0; stroke: #38bfa7"/>
     <use xlink:href="#mbad1e07a4c" x="120.359811" y="12.393387" style="fill-opacity: 0; stroke: #38bfa7"/>
     <use xlink:href="#mbad1e07a4c" x="122.492791" y="15.445782" style="fill-opacity: 0; stroke: #38bfa7"/>
     <use xlink:href="#mbad1e07a4c" x="124.625772" y="19.312374" style="fill-opacity: 0; stroke: #38bfa7"/>
     <use xlink:href="#mbad1e07a4c" x="126.758752" y="32.258399" style="fill-opacity: 0; stroke: #38bfa7"/>
     <use xlink:href="#mbad1e07a4c" x="128.891733" y="58.031208" style="fill-opacity: 0; stroke: #38bfa7"/>
     <use xlink:href="#mbad1e07a4c" x="131.024713" y="187.236029" style="fill-opacity: 0; stroke: #38bfa7"/>
    </g>
   </g>
   <g id="line2d_29">
    <path d="M 29.07313 147.90808 
L 29.569802 96.468464 
L 30.04977 67.677426 
L 30.508407 52.409787 
L 30.956378 44.348528 
L 31.436346 39.560511 
L 32.24696 34.164923 
L 34.625471 19.393376 
L 35.169436 17.840444 
L 35.724066 16.911162 
L 38.081245 13.649036 
L 38.945189 12.506598 
L 39.617145 11.979214 
L 40.50242 11.601363 
L 41.686343 11.049189 
L 43.670213 10.007291 
L 44.822138 9.779436 
L 46.326039 9.428865 
L 48.14992 8.988243 
L 53.792218 8.397632 
L 66.111412 7.820084 
L 72.894968 7.703925 
L 78.835913 7.682438 
L 89.661872 7.742334 
L 94.824201 7.831421 
L 103.45297 8.175046 
L 108.689961 8.649449 
L 110.961812 8.933592 
L 112.433716 9.162651 
L 116.998751 10.450338 
L 119.345264 11.667741 
L 120.283869 12.129105 
L 120.902495 12.704733 
L 121.627781 13.715966 
L 123.32367 16.187031 
L 124.315605 17.48221 
L 124.784908 18.561948 
L 125.264877 20.286624 
L 125.830173 23.245949 
L 126.715448 29.30614 
L 128.720651 44.489032 
L 129.09396 50.933391 
L 129.467268 61.666026 
L 129.851243 79.717501 
L 130.25655 110.175799 
L 130.593233 147.90808 
L 130.593233 147.90808 
" clip-path="url(#p81da15fecf)" style="fill: none; stroke: #ffffff; stroke-width: 0.95; stroke-linecap: round"/>
    <path d="M 29.07313 147.90808 
L 29.569802 96.468464 
L 30.04977 67.677426 
L 30.508407 52.409787 
L 30.956378 44.348528 
L 31.436346 39.560511 
L 32.24696 34.164923 
L 34.625471 19.393376 
L 35.169436 17.840444 
L 35.724066 16.911162 
L 38.081245 13.649036 
L 38.945189 12.506598 
L 39.617145 11.979214 
L 40.50242 11.601363 
L 41.686343 11.049189 
L 43.670213 10.007291 
L 44.822138 9.779436 
L 46.326039 9.428865 
L 48.14992 8.988243 
L 53.792218 8.397632 
L 66.111412 7.820084 
L 72.894968 7.703925 
L 78.835913 7.682438 
L 89.661872 7.742334 
L 94.824201 7.831421 
L 103.45297 8.175046 
L 108.689961 8.649449 
L 110.961812 8.933592 
L 112.433716 9.162651 
L 116.998751 10.450338 
L 119.345264 11.667741 
L 120.283869 12.129105 
L 120.902495 12.704733 
L 121.627781 13.715966 
L 123.32367 16.187031 
L 124.315605 17.48221 
L 124.784908 18.561948 
L 125.264877 20.286624 
L 125.830173 23.245949 
L 126.715448 29.30614 
L 128.720651 44.489032 
L 129.09396 50.933391 
L 129.467268 61.666026 
L 129.851243 79.717501 
L 130.25655 110.175799 
L 130.593233 147.90808 
L 130.593233 147.90808 
" clip-path="url(#p81da15fecf)" style="fill: none; stroke: #38bfa7; stroke-width: 0.75; stroke-linecap: round"/>
   </g>
   <g id="patch_8">
    <path d="M 26.510802 56.654543 
L 26.510802 0.72 
" style="fill: none; stroke: #000000; stroke-width: 0.35; stroke-linejoin: miter; stroke-linecap: square"/>
   </g>
   <g id="patch_9">
    <path d="M 133.155561 56.654543 
L 133.155561 0.72 
" style="fill: none; stroke: #000000; stroke-width: 0.35; stroke-linejoin: miter; stroke-linecap: square"/>
   </g>
   <g id="patch_10">
    <path d="M 26.510802 56.654543 
L 133.155561 56.654543 
" style="fill: none; stroke: #000000; stroke-width: 0.35; stroke-linejoin: miter; stroke-linecap: square"/>
   </g>
   <g id="patch_11">
    <path d="M 26.510802 0.72 
L 133.155561 0.72 
" style="fill: none; stroke: #000000; stroke-width: 0.35; stroke-linejoin: miter; stroke-linecap: square"/>
   </g>
  </g>
 </g>
 <defs>
  <clipPath id="p210401283f">
   <rect x="26.510802" y="0.72" width="213.289518" height="124.298985"/>
  </clipPath>
  <clipPath id="p81da15fecf">
   <rect x="26.510802" y="0.72" width="106.644759" height="55.934543"/>
  </clipPath>
 </defs>
</svg>
