<?xml version="1.0" encoding="utf-8" standalone="no"?>
<!DOCTYPE svg PUBLIC "-//W3C//DTD SVG 1.1//EN"
  "http://www.w3.org/Graphics/SVG/1.1/DTD/svg11.dtd">
<svg xmlns:xlink="http://www.w3.org/1999/xlink" width="240.52032pt" height="146.90808pt" viewBox="0 0 240.52032 146.90808" xmlns="http://www.w3.org/2000/svg" version="1.1">
 <metadata>
  <rdf:RDF xmlns:dc="http://purl.org/dc/elements/1.1/" xmlns:cc="http://creativecommons.org/ns#" xmlns:rdf="http://www.w3.org/1999/02/22-rdf-syntax-ns#">
   <cc:Work>
    <dc:type rdf:resource="http://purl.org/dc/dcmitype/StillImage"/>
    <dc:date>2026-06-25T11:23:01.203415</dc:date>
    <dc:format>image/svg+xml</dc:format>
    <dc:creator>
     <cc:Agent>
      <dc:title>Matplotlib v3.6.2, https://matplotlib.org/</dc:title>
     </cc:Agent>
    </dc:creator>
   </cc:Work>
  </rdf:RDF>
 </metadata>
 <defs>
  <style type="text/css">*{stroke-linejoin: round; stroke-linecap: butt}</style>
 </defs>
 <g id="figure_1">
  <g id="patch_1">
   <path d="M 0 146.90808 
L 240.52032 146.90808 
L 240.52032 0 
L 0 0 
L 0 146.90808 
z
" style="fill: none"/>
  </g>
  <g id="axes_1">
   <g id="patch_2">
    <path d="M 26.510802 125.018985 
L 239.80032 125.018985 
L 239.80032 0.72 
L 26.510802 0.72 
L 26.510802 125.018985 
z
" style="fill: none"/>
   </g>
   <g id="line2d_1">
    <path d="M 26.510802 125.018985 
L 60.438335 108.07494 
L 94.365868 92.32934 
L 128.293402 77.759945 
L 162.220935 64.343638 
L 196.148468 52.057823 
L 230.076002 40.882863 
L 241.52032 37.483901 
" clip-path="url(#p36e1d06306)" style="fill: none; stroke: #524582; stroke-linecap: round"/>
   </g>
   <g id="line2d_2">
    <path d="M 26.510802 125.018985 
L 60.438335 117.362419 
L 94.365868 110.082536 
L 128.293402 103.163248 
L 162.220935 96.589214 
L 196.148468 90.345828 
L 230.076002 84.419239 
L 241.52032 82.522558 
" clip-path="url(#p36e1d06306)" style="fill: none; stroke: #38bfa7; stroke-linecap: round"/>
   </g>
   <g id="matplotlib.axis_1">
    <g id="xtick_1">
     <g id="line2d_3">
      <defs>
       <path id="m171b73650d" d="M 0 0 
L 0 2 
" style="stroke: #000000; stroke-width: 0.35"/>
      </defs>
      <g>
       <use xlink:href="#m171b73650d" x="26.510802" y="125.018985" style="stroke: #000000; stroke-width: 0.35"/>
      </g>
     </g>
     <g id="text_1">
      <!-- $\mathdefault{0.0}$ -->
      <g transform="translate(21.100457 135.553787) scale(0.08 -0.08)">
       <defs>
        <path id="CMR17-30" d="M 2688 2038 
C 2688 2430 2682 3099 2413 3613 
C 2176 4063 1798 4224 1466 4224 
C 1158 4224 768 4082 525 3620 
C 269 3137 243 2539 243 2038 
C 243 1671 250 1112 448 623 
C 723 -39 1216 -128 1466 -128 
C 1760 -128 2208 -7 2470 604 
C 2662 1048 2688 1568 2688 2038 
z
M 1466 -26 
C 1056 -26 813 328 723 816 
C 653 1196 653 1749 653 2109 
C 653 2604 653 3015 736 3407 
C 858 3954 1216 4121 1466 4121 
C 1728 4121 2067 3947 2189 3420 
C 2272 3054 2278 2623 2278 2109 
C 2278 1691 2278 1176 2202 797 
C 2067 96 1690 -26 1466 -26 
z
" transform="scale(0.015625)"/>
        <path id="CMMI12-3a" d="M 1178 307 
C 1178 492 1024 620 870 620 
C 685 620 557 467 557 313 
C 557 128 710 0 864 0 
C 1050 0 1178 153 1178 307 
z
" transform="scale(0.015625)"/>
       </defs>
       <use xlink:href="#CMR17-30" transform="scale(0.996264)"/>
       <use xlink:href="#CMMI12-3a" transform="translate(45.690477 0) scale(0.996264)"/>
       <use xlink:href="#CMR17-30" transform="translate(72.787654 0) scale(0.996264)"/>
      </g>
     </g>
    </g>
    <g id="xtick_2">
     <g id="line2d_4">
      <g>
       <use xlink:href="#m171b73650d" x="53.509475" y="125.018985" style="stroke: #000000; stroke-width: 0.35"/>
      </g>
     </g>
     <g id="text_2">
      <!-- $\mathdefault{0.1}$ -->
      <g transform="translate(48.09913 135.553787) scale(0.08 -0.08)">
       <defs>
        <path id="CMR17-31" d="M 1702 4083 
C 1702 4217 1696 4224 1606 4224 
C 1357 3927 979 3833 621 3820 
C 602 3820 570 3820 563 3808 
C 557 3795 557 3782 557 3648 
C 755 3648 1088 3686 1344 3839 
L 1344 467 
C 1344 243 1331 166 781 166 
L 589 166 
L 589 0 
C 896 6 1216 12 1523 12 
C 1830 12 2150 6 2458 0 
L 2458 166 
L 2266 166 
C 1715 166 1702 236 1702 467 
L 1702 4083 
z
" transform="scale(0.015625)"/>
       </defs>
       <use xlink:href="#CMR17-30" transform="scale(0.996264)"/>
       <use xlink:href="#CMMI12-3a" transform="translate(45.690477 0) scale(0.996264)"/>
       <use xlink:href="#CMR17-31" transform="translate(72.787654 0) scale(0.996264)"/>
      </g>
     </g>
    </g>
    <g id="xtick_3">
     <g id="line2d_5">
      <g>
       <use xlink:href="#m171b73650d" x="80.508148" y="125.018985" style="stroke: #000000; stroke-width: 0.35"/>
      </g>
     </g>
     <g id="text_3">
      <!-- $\mathdefault{0.2}$ -->
      <g transform="translate(75.097803 135.553787) scale(0.08 -0.08)">
       <defs>
        <path id="CMR17-32" d="M 2669 990 
L 2554 990 
C 2490 537 2438 460 2413 422 
C 2381 371 1920 371 1830 371 
L 602 371 
C 832 620 1280 1073 1824 1596 
C 2214 1966 2669 2400 2669 3033 
C 2669 3788 2067 4224 1395 4224 
C 691 4224 262 3603 262 3027 
C 262 2777 448 2745 525 2745 
C 589 2745 781 2783 781 3007 
C 781 3206 614 3264 525 3264 
C 486 3264 448 3257 422 3244 
C 544 3788 915 4057 1306 4057 
C 1862 4057 2227 3616 2227 3033 
C 2227 2477 1901 1998 1536 1583 
L 262 147 
L 262 0 
L 2515 0 
L 2669 990 
z
" transform="scale(0.015625)"/>
       </defs>
       <use xlink:href="#CMR17-30" transform="scale(0.996264)"/>
       <use xlink:href="#CMMI12-3a" transform="translate(45.690477 0) scale(0.996264)"/>
       <use xlink:href="#CMR17-32" transform="translate(72.787654 0) scale(0.996264)"/>
      </g>
     </g>
    </g>
    <g id="xtick_4">
     <g id="line2d_6">
      <g>
       <use xlink:href="#m171b73650d" x="107.506821" y="125.018985" style="stroke: #000000; stroke-width: 0.35"/>
      </g>
     </g>
     <g id="text_4">
      <!-- $\mathdefault{0.3}$ -->
      <g transform="translate(102.096476 135.553787) scale(0.08 -0.08)">
       <defs>
        <path id="CMR17-33" d="M 1414 2176 
C 1984 2176 2234 1673 2234 1094 
C 2234 322 1824 25 1453 25 
C 1114 25 563 193 390 691 
C 422 678 454 678 486 678 
C 640 678 755 780 755 947 
C 755 1132 614 1216 486 1216 
C 378 1216 211 1164 211 927 
C 211 335 787 -128 1466 -128 
C 2176 -128 2720 432 2720 1087 
C 2720 1718 2208 2176 1600 2246 
C 2086 2347 2554 2776 2554 3353 
C 2554 3856 2048 4224 1472 4224 
C 890 4224 378 3862 378 3347 
C 378 3123 544 3084 627 3084 
C 762 3084 877 3167 877 3334 
C 877 3500 762 3584 627 3584 
C 602 3584 570 3584 544 3571 
C 730 3999 1235 4076 1459 4076 
C 1683 4076 2106 3966 2106 3347 
C 2106 3167 2080 2851 1862 2574 
C 1670 2329 1453 2316 1242 2297 
C 1210 2297 1062 2284 1037 2284 
C 992 2278 966 2272 966 2227 
C 966 2182 973 2176 1101 2176 
L 1414 2176 
z
" transform="scale(0.015625)"/>
       </defs>
       <use xlink:href="#CMR17-30" transform="scale(0.996264)"/>
       <use xlink:href="#CMMI12-3a" transform="translate(45.690477 0) scale(0.996264)"/>
       <use xlink:href="#CMR17-33" transform="translate(72.787654 0) scale(0.996264)"/>
      </g>
     </g>
    </g>
    <g id="xtick_5">
     <g id="line2d_7">
      <g>
       <use xlink:href="#m171b73650d" x="134.505494" y="125.018985" style="stroke: #000000; stroke-width: 0.35"/>
      </g>
     </g>
     <g id="text_5">
      <!-- $\mathdefault{0.4}$ -->
      <g transform="translate(129.09515 135.553787) scale(0.08 -0.08)">
       <defs>
        <path id="CMR17-34" d="M 2150 4147 
C 2150 4281 2144 4288 2029 4288 
L 128 1254 
L 128 1088 
L 1779 1088 
L 1779 460 
C 1779 230 1766 166 1318 166 
L 1197 166 
L 1197 0 
C 1402 12 1747 12 1965 12 
C 2182 12 2528 12 2733 0 
L 2733 166 
L 2611 166 
C 2163 166 2150 230 2150 460 
L 2150 1088 
L 2803 1088 
L 2803 1254 
L 2150 1254 
L 2150 4147 
z
M 1798 3723 
L 1798 1254 
L 256 1254 
L 1798 3723 
z
" transform="scale(0.015625)"/>
       </defs>
       <use xlink:href="#CMR17-30" transform="scale(0.996264)"/>
       <use xlink:href="#CMMI12-3a" transform="translate(45.690477 0) scale(0.996264)"/>
       <use xlink:href="#CMR17-34" transform="translate(72.787654 0) scale(0.996264)"/>
      </g>
     </g>
    </g>
    <g id="xtick_6">
     <g id="line2d_8">
      <g>
       <use xlink:href="#m171b73650d" x="161.504168" y="125.018985" style="stroke: #000000; stroke-width: 0.35"/>
      </g>
     </g>
     <g id="text_6">
      <!-- $\mathdefault{0.5}$ -->
      <g transform="translate(156.093823 135.553787) scale(0.08 -0.08)">
       <defs>
        <path id="CMR17-35" d="M 730 3750 
C 794 3724 1056 3641 1325 3641 
C 1920 3641 2246 3961 2432 4140 
C 2432 4191 2432 4224 2394 4224 
C 2387 4224 2374 4224 2323 4198 
C 2099 4102 1837 4032 1517 4032 
C 1325 4032 1037 4055 723 4191 
C 653 4224 640 4224 634 4224 
C 602 4224 595 4217 595 4090 
L 595 2231 
C 595 2113 595 2080 659 2080 
C 691 2080 704 2093 736 2139 
C 941 2435 1222 2560 1542 2560 
C 1766 2560 2246 2415 2246 1293 
C 2246 1087 2246 716 2054 422 
C 1894 159 1645 25 1370 25 
C 947 25 518 319 403 812 
C 429 806 480 793 506 793 
C 589 793 749 838 749 1036 
C 749 1209 627 1280 506 1280 
C 358 1280 262 1190 262 1011 
C 262 454 704 -128 1382 -128 
C 2042 -128 2669 441 2669 1267 
C 2669 2054 2170 2662 1549 2662 
C 1222 2662 947 2540 730 2304 
L 730 3750 
z
" transform="scale(0.015625)"/>
       </defs>
       <use xlink:href="#CMR17-30" transform="scale(0.996264)"/>
       <use xlink:href="#CMMI12-3a" transform="translate(45.690477 0) scale(0.996264)"/>
       <use xlink:href="#CMR17-35" transform="translate(72.787654 0) scale(0.996264)"/>
      </g>
     </g>
    </g>
    <g id="xtick_7">
     <g id="line2d_9">
      <g>
       <use xlink:href="#m171b73650d" x="188.502841" y="125.018985" style="stroke: #000000; stroke-width: 0.35"/>
      </g>
     </g>
     <g id="text_7">
      <!-- $\mathdefault{0.6}$ -->
      <g transform="translate(183.092496 135.553787) scale(0.08 -0.08)">
       <defs>
        <path id="CMR17-36" d="M 678 2198 
C 678 3712 1395 4076 1811 4076 
C 1946 4076 2272 4049 2400 3782 
C 2298 3782 2106 3782 2106 3558 
C 2106 3385 2246 3328 2336 3328 
C 2394 3328 2566 3353 2566 3571 
C 2566 3987 2246 4224 1805 4224 
C 1043 4224 243 3411 243 2011 
C 243 257 966 -128 1478 -128 
C 2099 -128 2688 431 2688 1295 
C 2688 2101 2170 2688 1517 2688 
C 1126 2688 838 2430 678 1979 
L 678 2198 
z
M 1478 25 
C 691 25 691 1212 691 1450 
C 691 1914 909 2585 1504 2585 
C 1613 2585 1926 2585 2138 2140 
C 2253 1889 2253 1624 2253 1302 
C 2253 954 2253 696 2118 438 
C 1978 173 1773 25 1478 25 
z
" transform="scale(0.015625)"/>
       </defs>
       <use xlink:href="#CMR17-30" transform="scale(0.996264)"/>
       <use xlink:href="#CMMI12-3a" transform="translate(45.690477 0) scale(0.996264)"/>
       <use xlink:href="#CMR17-36" transform="translate(72.787654 0) scale(0.996264)"/>
      </g>
     </g>
    </g>
    <g id="xtick_8">
     <g id="line2d_10">
      <g>
       <use xlink:href="#m171b73650d" x="215.501514" y="125.018985" style="stroke: #000000; stroke-width: 0.35"/>
      </g>
     </g>
     <g id="text_8">
      <!-- $\mathdefault{0.7}$ -->
      <g transform="translate(210.091169 135.553787) scale(0.08 -0.08)">
       <defs>
        <path id="CMR17-37" d="M 2886 3955 
L 2886 4096 
L 1382 4096 
C 634 4096 621 4166 595 4288 
L 480 4288 
L 294 3104 
L 410 3104 
C 429 3226 474 3552 550 3673 
C 589 3724 1062 3724 1171 3724 
L 2579 3724 
L 1869 2670 
C 1395 1961 1069 1003 1069 166 
C 1069 89 1069 -128 1299 -128 
C 1530 -128 1530 89 1530 172 
L 1530 466 
C 1530 1514 1709 2204 2003 2644 
L 2886 3955 
z
" transform="scale(0.015625)"/>
       </defs>
       <use xlink:href="#CMR17-30" transform="scale(0.996264)"/>
       <use xlink:href="#CMMI12-3a" transform="translate(45.690477 0) scale(0.996264)"/>
       <use xlink:href="#CMR17-37" transform="translate(72.787654 0) scale(0.996264)"/>
      </g>
     </g>
    </g>
    <g id="text_9">
     <!-- $q$ -->
     <g transform="translate(131.265166 144.638334) scale(0.08 -0.08)">
      <defs>
       <path id="CMMI12-71" d="M 2822 2751 
C 2822 2783 2797 2809 2765 2809 
C 2714 2809 2464 2579 2342 2356 
C 2227 2643 2029 2816 1754 2816 
C 1030 2816 250 1883 250 938 
C 250 306 621 -64 1056 -64 
C 1395 -64 1677 191 1811 338 
L 1818 332 
L 1574 -613 
L 1517 -838 
C 1459 -1025 1363 -1025 1062 -1031 
C 992 -1031 928 -1031 928 -1152 
C 928 -1197 966 -1216 1011 -1216 
C 1101 -1216 1216 -1204 1306 -1204 
L 1958 -1204 
C 2054 -1204 2163 -1216 2259 -1216 
C 2298 -1216 2374 -1216 2374 -1095 
C 2374 -1031 2323 -1031 2227 -1031 
C 1926 -1031 1907 -987 1907 -937 
C 1907 -906 1914 -900 1933 -819 
L 2822 2751 
z
M 1920 759 
C 1888 651 1888 638 1798 517 
C 1658 338 1376 64 1075 64 
C 813 64 666 300 666 676 
C 666 1028 864 1743 986 2011 
C 1203 2458 1504 2687 1754 2687 
C 2176 2687 2259 2164 2259 2113 
C 2259 2107 2240 2024 2234 2011 
L 1920 759 
z
" transform="scale(0.015625)"/>
      </defs>
      <use xlink:href="#CMMI12-71" transform="scale(0.996264)"/>
     </g>
    </g>
   </g>
   <g id="matplotlib.axis_2">
    <g id="ytick_1">
     <g id="line2d_11">
      <defs>
       <path id="m5f262a62c2" d="M 0 0 
L -2 0 
" style="stroke: #000000; stroke-width: 0.35"/>
      </defs>
      <g>
       <use xlink:href="#m5f262a62c2" x="26.510802" y="125.018985" style="stroke: #000000; stroke-width: 0.35"/>
      </g>
     </g>
     <g id="text_10">
      <!-- $\mathdefault{0.0}$ -->
      <g transform="translate(10.690112 127.786386) scale(0.08 -0.08)">
       <use xlink:href="#CMR17-30" transform="scale(0.996264)"/>
       <use xlink:href="#CMMI12-3a" transform="translate(45.690477 0) scale(0.996264)"/>
       <use xlink:href="#CMR17-30" transform="translate(72.787654 0) scale(0.996264)"/>
      </g>
     </g>
    </g>
    <g id="ytick_2">
     <g id="line2d_12">
      <g>
       <use xlink:href="#m5f262a62c2" x="26.510802" y="98.850778" style="stroke: #000000; stroke-width: 0.35"/>
      </g>
     </g>
     <g id="text_11">
      <!-- $\mathdefault{0.2}$ -->
      <g transform="translate(10.690112 101.618179) scale(0.08 -0.08)">
       <use xlink:href="#CMR17-30" transform="scale(0.996264)"/>
       <use xlink:href="#CMMI12-3a" transform="translate(45.690477 0) scale(0.996264)"/>
       <use xlink:href="#CMR17-32" transform="translate(72.787654 0) scale(0.996264)"/>
      </g>
     </g>
    </g>
    <g id="ytick_3">
     <g id="line2d_13">
      <g>
       <use xlink:href="#m5f262a62c2" x="26.510802" y="72.68257" style="stroke: #000000; stroke-width: 0.35"/>
      </g>
     </g>
     <g id="text_12">
      <!-- $\mathdefault{0.4}$ -->
      <g transform="translate(10.690112 75.449971) scale(0.08 -0.08)">
       <use xlink:href="#CMR17-30" transform="scale(0.996264)"/>
       <use xlink:href="#CMMI12-3a" transform="translate(45.690477 0) scale(0.996264)"/>
       <use xlink:href="#CMR17-34" transform="translate(72.787654 0) scale(0.996264)"/>
      </g>
     </g>
    </g>
    <g id="ytick_4">
     <g id="line2d_14">
      <g>
       <use xlink:href="#m5f262a62c2" x="26.510802" y="46.514363" style="stroke: #000000; stroke-width: 0.35"/>
      </g>
     </g>
     <g id="text_13">
      <!-- $\mathdefault{0.6}$ -->
      <g transform="translate(10.690112 49.281764) scale(0.08 -0.08)">
       <use xlink:href="#CMR17-30" transform="scale(0.996264)"/>
       <use xlink:href="#CMMI12-3a" transform="translate(45.690477 0) scale(0.996264)"/>
       <use xlink:href="#CMR17-36" transform="translate(72.787654 0) scale(0.996264)"/>
      </g>
     </g>
    </g>
    <g id="ytick_5">
     <g id="line2d_15">
      <g>
       <use xlink:href="#m5f262a62c2" x="26.510802" y="20.346156" style="stroke: #000000; stroke-width: 0.35"/>
      </g>
     </g>
     <g id="text_14">
      <!-- $\mathdefault{0.8}$ -->
      <g transform="translate(10.690112 23.113556) scale(0.08 -0.08)">
       <defs>
        <path id="CMR17-38" d="M 1741 2289 
C 2144 2494 2554 2803 2554 3298 
C 2554 3884 1990 4224 1472 4224 
C 890 4224 378 3800 378 3215 
C 378 3054 416 2777 666 2533 
C 730 2469 998 2276 1171 2154 
C 883 2006 211 1652 211 945 
C 211 282 838 -128 1459 -128 
C 2144 -128 2720 366 2720 1022 
C 2720 1607 2330 1877 2074 2051 
L 1741 2289 
z
M 902 2855 
C 851 2887 595 3086 595 3388 
C 595 3781 998 4076 1459 4076 
C 1965 4076 2336 3716 2336 3298 
C 2336 2700 1670 2359 1638 2359 
C 1632 2359 1626 2359 1574 2398 
L 902 2855 
z
M 2080 1536 
C 2176 1466 2483 1253 2483 861 
C 2483 385 2010 25 1472 25 
C 890 25 448 443 448 951 
C 448 1459 838 1884 1280 2083 
L 2080 1536 
z
" transform="scale(0.015625)"/>
       </defs>
       <use xlink:href="#CMR17-30" transform="scale(0.996264)"/>
       <use xlink:href="#CMMI12-3a" transform="translate(45.690477 0) scale(0.996264)"/>
       <use xlink:href="#CMR17-38" transform="translate(72.787654 0) scale(0.996264)"/>
      </g>
     </g>
    </g>
    <g id="text_15">
     <!-- structure factor $s(q)$ -->
     <g transform="translate(6.697584 100.415341) rotate(-90) scale(0.08 -0.08)">
      <defs>
       <path id="CMR17-73" d="M 1978 2688 
C 1978 2803 1971 2809 1933 2809 
C 1907 2809 1901 2803 1824 2707 
C 1805 2681 1747 2617 1728 2592 
C 1523 2809 1235 2816 1126 2816 
C 416 2816 160 2444 160 2073 
C 160 1497 813 1363 998 1324 
C 1402 1241 1542 1216 1677 1100 
C 1760 1024 1901 883 1901 652 
C 1901 384 1747 38 1158 38 
C 602 38 403 460 288 1024 
C 269 1113 269 1120 218 1120 
C 166 1120 160 1113 160 985 
L 160 64 
C 160 -52 166 -58 205 -58 
C 237 -58 243 -52 275 0 
C 314 57 410 211 448 275 
C 576 102 800 -64 1158 -64 
C 1792 -64 2131 281 2131 780 
C 2131 1107 1958 1280 1875 1356 
C 1683 1555 1459 1600 1190 1651 
C 838 1728 390 1817 390 2208 
C 390 2374 480 2726 1126 2726 
C 1811 2726 1850 2086 1862 1881 
C 1869 1849 1901 1843 1920 1843 
C 1978 1843 1978 1862 1978 1971 
L 1978 2688 
z
" transform="scale(0.015625)"/>
       <path id="CMR17-74" d="M 966 2585 
L 1862 2585 
L 1862 2752 
L 966 2752 
L 966 3968 
L 851 3968 
C 838 3292 614 2700 70 2687 
L 70 2585 
L 627 2585 
L 627 778 
C 627 655 627 -64 1370 -64 
C 1747 -64 1965 308 1965 784 
L 1965 1151 
L 1850 1151 
L 1850 790 
C 1850 347 1677 51 1408 51 
C 1222 51 966 179 966 765 
L 966 2585 
z
" transform="scale(0.015625)"/>
       <path id="CMR17-72" d="M 960 1517 
C 960 2134 1222 2713 1702 2713 
C 1747 2713 1792 2707 1837 2687 
C 1837 2687 1696 2642 1696 2475 
C 1696 2321 1818 2257 1914 2257 
C 1990 2257 2131 2302 2131 2482 
C 2131 2687 1926 2816 1709 2816 
C 1222 2816 1011 2340 947 2115 
L 941 2115 
L 941 2816 
L 198 2745 
L 198 2578 
C 576 2578 634 2540 634 2231 
L 634 443 
C 634 198 608 166 198 166 
L 198 0 
C 352 12 646 12 813 12 
C 998 12 1325 12 1498 0 
L 1498 166 
C 1037 166 960 166 960 455 
L 960 1517 
z
" transform="scale(0.015625)"/>
       <path id="CMR17-75" d="M 1882 2745 
L 1882 2579 
C 2259 2579 2317 2540 2317 2229 
L 2317 1053 
C 2317 510 2029 38 1555 38 
C 1030 38 986 355 986 691 
L 986 2816 
L 211 2745 
L 211 2579 
C 467 2579 640 2579 646 2320 
L 646 1079 
C 646 646 646 368 813 187 
C 896 103 1056 -64 1517 -64 
C 2061 -64 2272 400 2323 536 
L 2330 536 
L 2330 -64 
L 3091 -13 
L 3091 154 
C 2714 154 2656 193 2656 503 
L 2656 2816 
L 1882 2745 
z
" transform="scale(0.015625)"/>
       <path id="CMR17-63" d="M 2234 2240 
C 2112 2240 1933 2240 1933 2015 
C 1933 1836 2080 1785 2163 1785 
C 2208 1785 2394 1804 2394 2028 
C 2394 2476 1958 2816 1466 2816 
C 787 2816 211 2201 211 1379 
C 211 521 813 -64 1466 -64 
C 2259 -64 2458 676 2458 747 
C 2458 773 2451 792 2406 792 
C 2362 792 2355 786 2330 702 
C 2163 180 1798 51 1523 51 
C 1114 51 621 431 621 1385 
C 621 2358 1094 2700 1472 2700 
C 1722 2700 2093 2582 2234 2240 
z
" transform="scale(0.015625)"/>
       <path id="CMR17-65" d="M 2438 1503 
C 2464 1529 2464 1542 2464 1606 
C 2464 2251 2118 2816 1389 2816 
C 710 2816 173 2175 173 1394 
C 173 554 781 -64 1459 -64 
C 2176 -64 2458 619 2458 755 
C 2458 800 2419 800 2406 800 
C 2362 800 2355 787 2330 709 
C 2189 270 1837 51 1504 51 
C 1229 51 954 206 781 490 
C 582 819 582 1200 582 1503 
L 2438 1503 
z
M 589 1600 
C 634 2511 1126 2713 1382 2713 
C 1818 2713 2112 2308 2118 1600 
L 589 1600 
z
" transform="scale(0.015625)"/>
       <path id="CMR17-66" d="M 979 2585 
L 1709 2585 
L 1709 2752 
L 966 2752 
L 966 3539 
C 966 4076 1235 4377 1510 4377 
C 1594 4377 1690 4363 1754 4339 
C 1702 4326 1568 4281 1568 4121 
C 1568 3955 1696 3904 1786 3904 
C 1875 3904 2003 3955 2003 4121 
C 2003 4353 1773 4480 1517 4480 
C 1152 4480 653 4211 653 3526 
L 653 2752 
L 141 2752 
L 141 2585 
L 653 2585 
L 653 441 
C 653 198 627 166 218 166 
L 218 0 
C 371 12 666 12 832 12 
C 1018 12 1344 12 1517 0 
L 1517 166 
C 1056 166 979 166 979 454 
L 979 2585 
z
" transform="scale(0.015625)"/>
       <path id="CMR17-61" d="M 2304 1656 
C 2304 2048 2304 2275 2035 2534 
C 1798 2751 1523 2816 1306 2816 
C 800 2816 435 2408 435 1977 
C 435 1740 627 1728 666 1728 
C 749 1728 896 1779 896 1958 
C 896 2118 774 2188 666 2188 
C 640 2188 608 2182 589 2176 
C 723 2594 1069 2713 1293 2713 
C 1613 2713 1965 2421 1965 1875 
L 1965 1632 
C 1587 1619 1133 1568 774 1373 
C 371 1147 256 822 256 576 
C 256 77 832 -64 1171 -64 
C 1523 -64 1850 135 1990 505 
C 2003 219 2182 -39 2464 -39 
C 2598 -39 2938 51 2938 563 
L 2938 926 
L 2822 926 
L 2822 557 
C 2822 161 2650 109 2566 109 
C 2304 109 2304 446 2304 732 
L 2304 1656 
z
M 1965 887 
C 1965 323 1568 38 1216 38 
C 896 38 646 278 646 576 
C 646 771 730 1114 1101 1322 
C 1408 1497 1760 1523 1965 1536 
L 1965 887 
z
" transform="scale(0.015625)"/>
       <path id="CMR17-6f" d="M 2758 1356 
C 2758 2176 2163 2816 1466 2816 
C 768 2816 173 2176 173 1356 
C 173 550 768 -64 1466 -64 
C 2163 -64 2758 550 2758 1356 
z
M 1466 51 
C 1165 51 909 230 762 480 
C 602 768 582 1126 582 1408 
C 582 1676 595 2009 762 2297 
C 890 2508 1139 2713 1466 2713 
C 1754 2713 1997 2553 2150 2329 
C 2349 2028 2349 1606 2349 1408 
C 2349 1158 2336 774 2163 467 
C 1984 172 1709 51 1466 51 
z
" transform="scale(0.015625)"/>
       <path id="CMMI12-73" d="M 1459 1290 
C 1568 1271 1741 1233 1779 1227 
C 1862 1201 2150 1099 2150 793 
C 2150 595 1971 64 1229 64 
C 1094 64 614 83 486 447 
C 742 414 870 614 870 755 
C 870 889 781 960 653 960 
C 512 960 326 851 326 563 
C 326 176 710 -64 1222 -64 
C 2195 -64 2483 665 2483 998 
C 2483 1093 2483 1271 2278 1475 
C 2118 1627 1965 1659 1619 1729 
C 1446 1767 1171 1824 1171 2111 
C 1171 2239 1286 2687 1894 2687 
C 2163 2687 2426 2589 2490 2368 
C 2208 2368 2195 2124 2195 2118 
C 2195 1983 2317 1945 2374 1945 
C 2464 1945 2643 2015 2643 2284 
C 2643 2546 2400 2816 1901 2816 
C 1062 2816 838 2169 838 1907 
C 838 1424 1312 1322 1459 1290 
z
" transform="scale(0.015625)"/>
       <path id="CMR17-28" d="M 1958 -1562 
C 1958 -1556 1958 -1543 1939 -1524 
C 1645 -1223 858 -403 858 1596 
C 858 3595 1632 4408 1946 4729 
C 1946 4735 1958 4748 1958 4767 
C 1958 4787 1939 4800 1914 4800 
C 1843 4800 1299 4325 986 3620 
C 666 2909 576 2218 576 1603 
C 576 1141 621 360 1005 -467 
C 1312 -1133 1837 -1600 1914 -1600 
C 1946 -1600 1958 -1588 1958 -1562 
z
" transform="scale(0.015625)"/>
       <path id="CMR17-29" d="M 1683 1596 
C 1683 2057 1638 2839 1254 3665 
C 947 4332 422 4800 346 4800 
C 326 4800 301 4793 301 4761 
C 301 4748 307 4742 314 4729 
C 621 4408 1402 3595 1402 1603 
C 1402 -396 627 -1210 314 -1530 
C 307 -1543 301 -1549 301 -1562 
C 301 -1594 326 -1600 346 -1600 
C 416 -1600 960 -1127 1274 -422 
C 1594 289 1683 981 1683 1596 
z
" transform="scale(0.015625)"/>
      </defs>
      <use xlink:href="#CMR17-73" transform="scale(0.996264)"/>
      <use xlink:href="#CMR17-74" transform="translate(35.801338 0) scale(0.996264)"/>
      <use xlink:href="#CMR17-72" transform="translate(71.082105 0) scale(0.996264)"/>
      <use xlink:href="#CMR17-75" transform="translate(106.362873 0) scale(0.996264)"/>
      <use xlink:href="#CMR17-63" transform="translate(157.258243 0) scale(0.996264)"/>
      <use xlink:href="#CMR17-74" transform="translate(197.743903 0) scale(0.996264)"/>
      <use xlink:href="#CMR17-75" transform="translate(233.024671 0) scale(0.996264)"/>
      <use xlink:href="#CMR17-72" transform="translate(283.920041 0) scale(0.996264)"/>
      <use xlink:href="#CMR17-65" transform="translate(319.200809 0) scale(0.996264)"/>
      <use xlink:href="#CMR17-66" transform="translate(389.762436 0) scale(0.996264)"/>
      <use xlink:href="#CMR17-61" transform="translate(417.235948 0) scale(0.996264)"/>
      <use xlink:href="#CMR17-63" transform="translate(462.926425 0) scale(0.996264)"/>
      <use xlink:href="#CMR17-74" transform="translate(503.412086 0) scale(0.996264)"/>
      <use xlink:href="#CMR17-6f" transform="translate(538.692853 0) scale(0.996264)"/>
      <use xlink:href="#CMR17-72" transform="translate(584.383331 0) scale(0.996264)"/>
      <use xlink:href="#CMMI12-73" transform="translate(649.740065 0) scale(0.996264)"/>
      <use xlink:href="#CMR17-28" transform="translate(695.690112 0) scale(0.996264)"/>
      <use xlink:href="#CMMI12-71" transform="translate(730.97088 0) scale(0.996264)"/>
      <use xlink:href="#CMR17-29" transform="translate(777.797204 0) scale(0.996264)"/>
     </g>
    </g>
   </g>
   <g id="line2d_16">
    <path d="M 26.510802 125.018985 
L 107.506821 83.120734 
L 107.506821 83.120734 
" clip-path="url(#p36e1d06306)" style="fill: none; stroke-dasharray: 1,1.65; stroke-dashoffset: 0; stroke: #524582; stroke-linecap: round"/>
   </g>
   <g id="line2d_17">
    <defs>
     <path id="mac2a4bddab" d="M 0 2.828427 
L 1.697056 0 
L 0 -2.828427 
L -1.697056 0 
z
" style="stroke: #524582; stroke-linejoin: miter"/>
    </defs>
    <g clip-path="url(#p36e1d06306)">
     <use xlink:href="#mac2a4bddab" x="26.510802" y="125.018988" style="fill-opacity: 0; stroke: #524582; stroke-linejoin: miter"/>
     <use xlink:href="#mac2a4bddab" x="60.438335" y="107.558462" style="fill-opacity: 0; stroke: #524582; stroke-linejoin: miter"/>
     <use xlink:href="#mac2a4bddab" x="94.365868" y="90.551711" style="fill-opacity: 0; stroke: #524582; stroke-linejoin: miter"/>
     <use xlink:href="#mac2a4bddab" x="128.293402" y="74.399159" style="fill-opacity: 0; stroke: #524582; stroke-linejoin: miter"/>
     <use xlink:href="#mac2a4bddab" x="162.220935" y="59.431904" style="fill-opacity: 0; stroke: #524582; stroke-linejoin: miter"/>
     <use xlink:href="#mac2a4bddab" x="196.148468" y="45.898374" style="fill-opacity: 0; stroke: #524582; stroke-linejoin: miter"/>
     <use xlink:href="#mac2a4bddab" x="230.076002" y="33.963313" style="fill-opacity: 0; stroke: #524582; stroke-linejoin: miter"/>
     <use xlink:href="#mac2a4bddab" x="264.003535" y="23.719492" style="fill-opacity: 0; stroke: #524582; stroke-linejoin: miter"/>
     <use xlink:href="#mac2a4bddab" x="297.931069" y="15.211065" style="fill-opacity: 0; stroke: #524582; stroke-linejoin: miter"/>
     <use xlink:href="#mac2a4bddab" x="331.858602" y="8.47347" style="fill-opacity: 0; stroke: #524582; stroke-linejoin: miter"/>
     <use xlink:href="#mac2a4bddab" x="365.786135" y="3.632984" style="fill-opacity: 0; stroke: #524582; stroke-linejoin: miter"/>
     <use xlink:href="#mac2a4bddab" x="399.713669" y="1.819788" style="fill-opacity: 0; stroke: #524582; stroke-linejoin: miter"/>
     <use xlink:href="#mac2a4bddab" x="433.641202" y="0.722908" style="fill-opacity: 0; stroke: #524582; stroke-linejoin: miter"/>
     <use xlink:href="#mac2a4bddab" x="467.568735" y="-0.020912" style="fill-opacity: 0; stroke: #524582; stroke-linejoin: miter"/>
     <use xlink:href="#mac2a4bddab" x="501.496269" y="-0.555854" style="fill-opacity: 0; stroke: #524582; stroke-linejoin: miter"/>
     <use xlink:href="#mac2a4bddab" x="535.423802" y="-0.954927" style="fill-opacity: 0; stroke: #524582; stroke-linejoin: miter"/>
     <use xlink:href="#mac2a4bddab" x="540.437508" y="-1" style="fill-opacity: 0; stroke: #524582; stroke-linejoin: miter"/>
    </g>
   </g>
   <g id="line2d_18">
    <path d="M 26.510802 125.018985 
L 107.506821 106.277387 
L 107.506821 106.277387 
" clip-path="url(#p36e1d06306)" style="fill: none; stroke-dasharray: 1,1.65; stroke-dashoffset: 0; stroke: #38bfa7; stroke-linecap: round"/>
   </g>
   <g id="line2d_19">
    <defs>
     <path id="m90703091bf" d="M 0 2 
C 0.530406 2 1.03916 1.789267 1.414214 1.414214 
C 1.789267 1.03916 2 0.530406 2 0 
C 2 -0.530406 1.789267 -1.03916 1.414214 -1.414214 
C 1.03916 -1.789267 0.530406 -2 0 -2 
C -0.530406 -2 -1.03916 -1.789267 -1.414214 -1.414214 
C -1.789267 -1.03916 -2 -0.530406 -2 0 
C -2 0.530406 -1.789267 1.03916 -1.414214 1.414214 
C -1.03916 1.789267 -0.530406 2 0 2 
z
" style="stroke: #38bfa7"/>
    </defs>
    <g clip-path="url(#p36e1d06306)">
     <use xlink:href="#m90703091bf" x="26.510802" y="125.018985" style="fill-opacity: 0; stroke: #38bfa7"/>
     <use xlink:href="#m90703091bf" x="60.438335" y="117.186846" style="fill-opacity: 0; stroke: #38bfa7"/>
     <use xlink:href="#m90703091bf" x="94.365868" y="109.465638" style="fill-opacity: 0; stroke: #38bfa7"/>
     <use xlink:href="#m90703091bf" x="128.293402" y="101.959514" style="fill-opacity: 0; stroke: #38bfa7"/>
     <use xlink:href="#m90703091bf" x="162.220935" y="94.757709" style="fill-opacity: 0; stroke: #38bfa7"/>
     <use xlink:href="#m90703091bf" x="196.148468" y="87.930042" style="fill-opacity: 0; stroke: #38bfa7"/>
     <use xlink:href="#m90703091bf" x="230.076002" y="81.525098" style="fill-opacity: 0; stroke: #38bfa7"/>
     <use xlink:href="#m90703091bf" x="264.003535" y="75.570844" style="fill-opacity: 0; stroke: #38bfa7"/>
     <use xlink:href="#m90703091bf" x="297.931069" y="70.077058" style="fill-opacity: 0; stroke: #38bfa7"/>
     <use xlink:href="#m90703091bf" x="331.858602" y="65.03877" style="fill-opacity: 0; stroke: #38bfa7"/>
     <use xlink:href="#m90703091bf" x="365.786135" y="60.440049" style="fill-opacity: 0; stroke: #38bfa7"/>
     <use xlink:href="#m90703091bf" x="399.713669" y="56.257586" style="fill-opacity: 0; stroke: #38bfa7"/>
     <use xlink:href="#m90703091bf" x="433.641202" y="52.4638" style="fill-opacity: 0; stroke: #38bfa7"/>
     <use xlink:href="#m90703091bf" x="467.568735" y="49.029319" style="fill-opacity: 0; stroke: #38bfa7"/>
     <use xlink:href="#m90703091bf" x="501.496269" y="45.924883" style="fill-opacity: 0; stroke: #38bfa7"/>
     <use xlink:href="#m90703091bf" x="535.423802" y="43.122719" style="fill-opacity: 0; stroke: #38bfa7"/>
     <use xlink:href="#m90703091bf" x="569.351336" y="40.597523" style="fill-opacity: 0; stroke: #38bfa7"/>
     <use xlink:href="#m90703091bf" x="603.278869" y="38.327171" style="fill-opacity: 0; stroke: #38bfa7"/>
     <use xlink:href="#m90703091bf" x="637.206402" y="36.293291" style="fill-opacity: 0; stroke: #38bfa7"/>
     <use xlink:href="#m90703091bf" x="671.133936" y="34.481827" style="fill-opacity: 0; stroke: #38bfa7"/>
     <use xlink:href="#m90703091bf" x="705.061469" y="32.883759" style="fill-opacity: 0; stroke: #38bfa7"/>
     <use xlink:href="#m90703091bf" x="738.989002" y="31.496208" style="fill-opacity: 0; stroke: #38bfa7"/>
     <use xlink:href="#m90703091bf" x="772.916536" y="30.32435" style="fill-opacity: 0; stroke: #38bfa7"/>
     <use xlink:href="#m90703091bf" x="806.844069" y="29.385096" style="fill-opacity: 0; stroke: #38bfa7"/>
     <use xlink:href="#m90703091bf" x="840.771603" y="28.715247" style="fill-opacity: 0; stroke: #38bfa7"/>
     <use xlink:href="#m90703091bf" x="874.699136" y="28.395655" style="fill-opacity: 0; stroke: #38bfa7"/>
    </g>
   </g>
   <g id="patch_3">
    <path d="M 26.510802 125.018985 
L 26.510802 0.72 
" style="fill: none; stroke: #000000; stroke-width: 0.35; stroke-linejoin: miter; stroke-linecap: square"/>
   </g>
   <g id="patch_4">
    <path d="M 239.80032 125.018985 
L 239.80032 0.72 
" style="fill: none; stroke: #000000; stroke-width: 0.35; stroke-linejoin: miter; stroke-linecap: square"/>
   </g>
   <g id="patch_5">
    <path d="M 26.510802 125.018985 
L 239.80032 125.018985 
" style="fill: none; stroke: #000000; stroke-width: 0.35; stroke-linejoin: miter; stroke-linecap: square"/>
   </g>
   <g id="patch_6">
    <path d="M 26.510802 0.72 
L 239.80032 0.72 
" style="fill: none; stroke: #000000; stroke-width: 0.35; stroke-linejoin: miter; stroke-linecap: square"/>
   </g>
   <g id="text_16">
    <!-- $L=50,\,V/J=-1.0$ -->
    <g transform="translate(162.227388 121.718047) scale(0.08 -0.08)">
     <defs>
      <path id="CMMI12-4c" d="M 2349 3860 
C 2406 4102 2426 4166 2989 4166 
C 3162 4166 3206 4166 3206 4287 
C 3206 4352 3136 4352 3110 4352 
C 2982 4352 2835 4339 2707 4339 
L 1850 4339 
C 1728 4339 1587 4352 1466 4352 
C 1414 4352 1344 4352 1344 4230 
C 1344 4166 1402 4166 1498 4166 
C 1888 4166 1888 4115 1888 4045 
C 1888 4032 1888 3994 1862 3898 
L 998 472 
C 941 249 928 185 480 185 
C 358 185 294 185 294 70 
C 294 0 333 0 461 0 
L 3328 0 
C 3469 0 3475 6 3520 121 
L 4013 1478 
C 4026 1510 4038 1548 4038 1567 
C 4038 1605 4006 1631 3974 1631 
C 3968 1631 3936 1631 3923 1605 
C 3910 1599 3910 1586 3859 1465 
C 3654 905 3366 185 2285 185 
L 1670 185 
C 1581 185 1568 185 1530 191 
C 1459 198 1453 211 1453 262 
C 1453 306 1466 344 1478 402 
L 2349 3860 
z
" transform="scale(0.015625)"/>
      <path id="CMR17-3d" d="M 4115 2048 
C 4211 2048 4307 2048 4307 2156 
C 4307 2272 4198 2272 4090 2272 
L 512 2272 
C 403 2272 294 2272 294 2156 
C 294 2048 390 2048 486 2048 
L 4115 2048 
z
M 4090 927 
C 4198 927 4307 927 4307 1043 
C 4307 1152 4211 1152 4115 1152 
L 486 1152 
C 390 1152 294 1152 294 1043 
C 294 927 403 927 512 927 
L 4090 927 
z
" transform="scale(0.015625)"/>
      <path id="CMMI12-3b" d="M 1248 -26 
C 1248 345 1126 620 864 620 
C 659 620 557 454 557 313 
C 557 172 653 0 870 0 
C 954 0 1024 25 1082 83 
C 1094 96 1101 96 1107 96 
C 1120 96 1120 6 1120 -26 
C 1120 -233 1082 -642 710 -1051 
C 640 -1127 640 -1140 640 -1152 
C 640 -1184 672 -1216 704 -1216 
C 755 -1216 1248 -749 1248 -26 
z
" transform="scale(0.015625)"/>
      <path id="CMMI12-56" d="M 3962 3644 
C 4179 3987 4378 4140 4704 4166 
C 4768 4172 4819 4172 4819 4287 
C 4819 4313 4806 4352 4749 4352 
C 4634 4352 4358 4339 4243 4339 
C 4058 4339 3866 4352 3686 4352 
C 3635 4352 3571 4352 3571 4230 
C 3571 4172 3629 4166 3654 4166 
C 3891 4146 3917 4032 3917 3956 
C 3917 3860 3827 3714 3821 3708 
L 1811 540 
L 1363 3968 
C 1363 4153 1696 4166 1766 4166 
C 1862 4166 1920 4166 1920 4287 
C 1920 4352 1850 4352 1830 4352 
C 1722 4352 1594 4339 1485 4339 
L 1126 4339 
C 659 4339 467 4352 461 4352 
C 422 4352 346 4352 346 4236 
C 346 4166 390 4166 493 4166 
C 819 4166 838 4108 858 3949 
L 1370 25 
C 1389 -109 1389 -128 1478 -128 
C 1555 -128 1587 -109 1651 -7 
L 3962 3644 
z
" transform="scale(0.015625)"/>
      <path id="CMMI12-3d" d="M 2746 4563 
C 2746 4569 2784 4665 2784 4678 
C 2784 4755 2720 4800 2669 4800 
C 2637 4800 2579 4800 2528 4659 
L 384 -1364 
C 384 -1370 346 -1466 346 -1479 
C 346 -1556 410 -1600 461 -1600 
C 499 -1600 557 -1594 602 -1460 
L 2746 4563 
z
" transform="scale(0.015625)"/>
      <path id="CMMI12-4a" d="M 3418 3911 
C 3469 4102 3482 4166 3795 4166 
C 3898 4166 3962 4166 3962 4281 
C 3962 4352 3904 4352 3878 4352 
C 3770 4352 3648 4339 3533 4339 
L 3181 4339 
C 2912 4339 2630 4352 2362 4352 
C 2304 4352 2227 4352 2227 4236 
C 2227 4172 2278 4172 2278 4166 
L 2438 4166 
C 2950 4166 2950 4115 2950 4019 
C 2950 4013 2950 3968 2925 3866 
L 2189 953 
C 2022 304 1594 0 1286 0 
C 1069 0 762 99 685 428 
C 710 422 742 415 768 415 
C 979 415 1146 601 1146 787 
C 1146 889 1082 1024 890 1024 
C 774 1024 506 959 506 543 
C 506 149 838 -128 1299 -128 
C 1882 -128 2509 304 2662 908 
L 3418 3911 
z
" transform="scale(0.015625)"/>
      <path id="CMSY10-0" d="M 4218 1472 
C 4326 1472 4442 1472 4442 1600 
C 4442 1728 4326 1728 4218 1728 
L 755 1728 
C 646 1728 531 1728 531 1600 
C 531 1472 646 1472 755 1472 
L 4218 1472 
z
" transform="scale(0.015625)"/>
     </defs>
     <use xlink:href="#CMMI12-4c" transform="scale(0.996264)"/>
     <use xlink:href="#CMR17-3d" transform="translate(94.044884 0) scale(0.996264)"/>
     <use xlink:href="#CMR17-35" transform="translate(193.433681 0) scale(0.996264)"/>
     <use xlink:href="#CMR17-30" transform="translate(239.124158 0) scale(0.996264)"/>
     <use xlink:href="#CMMI12-3b" transform="translate(284.814636 0) scale(0.996264)"/>
     <use xlink:href="#CMMI12-56" transform="translate(345.120623 0) scale(0.996264)"/>
     <use xlink:href="#CMMI12-3d" transform="translate(412.829073 0) scale(0.996264)"/>
     <use xlink:href="#CMMI12-4a" transform="translate(461.603992 0) scale(0.996264)"/>
     <use xlink:href="#CMR17-3d" transform="translate(552.420671 0) scale(0.996264)"/>
     <use xlink:href="#CMSY10-0" transform="translate(651.809468 0) scale(0.996264)"/>
     <use xlink:href="#CMR17-31" transform="translate(729.296936 0) scale(0.996264)"/>
     <use xlink:href="#CMMI12-3a" transform="translate(774.987413 0) scale(0.996264)"/>
     <use xlink:href="#CMR17-30" transform="translate(802.08459 0) scale(0.996264)"/>
    </g>
   </g>
   <g id="legend_1">
    <g id="line2d_20">
     <g>
      <use xlink:href="#mac2a4bddab" x="191.270495" y="10.72" style="fill-opacity: 0; stroke: #524582; stroke-linejoin: miter"/>
     </g>
    </g>
    <g id="text_17">
     <!-- $N=10$ -->
     <g transform="translate(205.270495 13.52) scale(0.08 -0.08)">
      <defs>
       <path id="CMMI12-4e" d="M 4736 3682 
C 4806 3956 4909 4147 5395 4166 
C 5414 4166 5491 4172 5491 4281 
C 5491 4352 5434 4352 5408 4352 
C 5280 4352 4954 4339 4826 4339 
L 4518 4339 
C 4429 4339 4314 4352 4224 4352 
C 4186 4352 4109 4352 4109 4230 
C 4109 4166 4160 4166 4205 4166 
C 4589 4153 4614 4007 4614 3892 
C 4614 3835 4608 3816 4589 3726 
L 3866 854 
L 2496 4243 
C 2451 4345 2445 4352 2304 4352 
L 1523 4352 
C 1395 4352 1338 4352 1338 4230 
C 1338 4166 1382 4166 1504 4166 
C 1536 4166 1914 4166 1914 4109 
C 1914 4096 1901 4045 1894 4026 
L 1043 650 
C 966 338 813 204 390 185 
C 358 185 294 179 294 64 
C 294 0 358 0 378 0 
C 506 0 832 12 960 12 
L 1267 12 
C 1357 12 1466 0 1555 0 
C 1600 0 1670 0 1670 121 
C 1670 179 1606 185 1581 185 
C 1370 191 1165 230 1165 459 
C 1165 510 1178 567 1190 618 
L 2054 4026 
C 2093 3962 2093 3949 2118 3892 
L 3642 115 
C 3674 38 3686 0 3744 0 
C 3808 0 3814 19 3840 128 
L 4736 3682 
z
" transform="scale(0.015625)"/>
      </defs>
      <use xlink:href="#CMMI12-4e" transform="scale(0.996264)"/>
      <use xlink:href="#CMR17-3d" transform="translate(116.195781 0) scale(0.996264)"/>
      <use xlink:href="#CMR17-31" transform="translate(215.584578 0) scale(0.996264)"/>
      <use xlink:href="#CMR17-30" transform="translate(261.275056 0) scale(0.996264)"/>
     </g>
    </g>
    <g id="line2d_21">
     <g>
      <use xlink:href="#m90703091bf" x="191.270495" y="19.869746" style="fill-opacity: 0; stroke: #38bfa7"/>
     </g>
    </g>
    <g id="text_18">
     <!-- $N=25$ -->
     <g transform="translate(205.270495 22.669746) scale(0.08 -0.08)">
      <use xlink:href="#CMMI12-4e" transform="scale(0.996264)"/>
      <use xlink:href="#CMR17-3d" transform="translate(116.195781 0) scale(0.996264)"/>
      <use xlink:href="#CMR17-32" transform="translate(215.584578 0) scale(0.996264)"/>
      <use xlink:href="#CMR17-35" transform="translate(261.275056 0) scale(0.996264)"/>
     </g>
    </g>
   </g>
  </g>
  <g id="axes_2">
   <g id="patch_7">
    <path d="M 26.510802 56.654543 
L 133.155561 56.654543 
L 133.155561 0.72 
L 26.510802 0.72 
L 26.510802 56.654543 
z
" style="fill: none"/>
   </g>
   <g id="matplotlib.axis_3">
    <g id="xtick_9">
     <g id="line2d_22">
      <g>
       <use xlink:href="#m171b73650d" x="69.168279" y="56.654543" style="stroke: #000000; stroke-width: 0.35"/>
      </g>
     </g>
     <g id="text_19">
      <!-- $\mathdefault{20}$ -->
      <g transform="translate(64.934096 67.189345) scale(0.08 -0.08)">
       <use xlink:href="#CMR17-32" transform="scale(0.996264)"/>
       <use xlink:href="#CMR17-30" transform="translate(45.690477 0) scale(0.996264)"/>
      </g>
     </g>
    </g>
    <g id="xtick_10">
     <g id="line2d_23">
      <g>
       <use xlink:href="#m171b73650d" x="111.827889" y="56.654543" style="stroke: #000000; stroke-width: 0.35"/>
      </g>
     </g>
     <g id="text_20">
      <!-- $\mathdefault{40}$ -->
      <g transform="translate(107.593706 67.189345) scale(0.08 -0.08)">
       <use xlink:href="#CMR17-34" transform="scale(0.996264)"/>
       <use xlink:href="#CMR17-30" transform="translate(45.690477 0) scale(0.996264)"/>
      </g>
     </g>
    </g>
    <g id="text_21">
     <!-- $r$ -->
     <g transform="translate(77.9225 76.273892) scale(0.08 -0.08)">
      <defs>
       <path id="CMMI12-72" d="M 2490 2633 
C 2291 2598 2189 2457 2189 2316 
C 2189 2163 2310 2111 2400 2111 
C 2579 2111 2726 2265 2726 2457 
C 2726 2651 2528 2816 2208 2816 
C 1952 2816 1658 2700 1389 2335 
C 1344 2660 1088 2816 832 2816 
C 582 2816 454 2642 378 2508 
C 269 2278 173 1892 173 1860 
C 173 1834 198 1801 243 1801 
C 294 1801 301 1808 339 1957 
C 435 2342 557 2687 813 2687 
C 966 2687 1011 2604 1011 2419 
C 1011 2278 947 2028 902 1827 
L 723 1130 
C 698 1007 627 716 595 600 
C 550 432 480 128 480 96 
C 480 6 550 -64 646 -64 
C 717 -64 838 -20 877 109 
C 896 160 1133 1136 1171 1285 
C 1203 1427 1242 1562 1274 1705 
C 1299 1795 1325 1898 1344 1982 
C 1363 2040 1536 2355 1696 2495 
C 1773 2566 1939 2687 2202 2687 
C 2304 2687 2406 2674 2490 2633 
z
" transform="scale(0.015625)"/>
      </defs>
      <use xlink:href="#CMMI12-72" transform="scale(0.996264)"/>
     </g>
    </g>
   </g>
   <g id="matplotlib.axis_4">
    <g id="ytick_6">
     <g id="line2d_24">
      <defs>
       <path id="me272dfd68f" d="M 0 0 
L 2 0 
" style="stroke: #000000; stroke-width: 0.35"/>
      </defs>
      <g>
       <use xlink:href="#me272dfd68f" x="133.155561" y="38.009696" style="stroke: #000000; stroke-width: 0.35"/>
      </g>
     </g>
     <g id="text_22">
      <!-- $\mathdefault{0.95}$ -->
      <g transform="translate(138.155561 40.777096) scale(0.08 -0.08)">
       <defs>
        <path id="CMR17-39" d="M 2253 1871 
C 2253 448 1670 25 1190 25 
C 1043 25 685 43 538 281 
C 704 256 826 345 826 505 
C 826 678 685 736 595 736 
C 538 736 365 710 365 492 
C 365 68 742 -128 1203 -128 
C 1939 -128 2688 665 2688 2090 
C 2688 3857 1971 4224 1485 4224 
C 851 4224 243 3664 243 2800 
C 243 2000 762 1408 1414 1408 
C 1952 1408 2189 1910 2253 2122 
L 2253 1871 
z
M 1427 1510 
C 1254 1510 1011 1542 813 1929 
C 678 2181 678 2477 678 2793 
C 678 3174 678 3438 858 3722 
C 947 3857 1114 4076 1485 4076 
C 2240 4076 2240 2909 2240 2651 
C 2240 2193 2035 1510 1427 1510 
z
" transform="scale(0.015625)"/>
       </defs>
       <use xlink:href="#CMR17-30" transform="scale(0.996264)"/>
       <use xlink:href="#CMMI12-3a" transform="translate(45.690477 0) scale(0.996264)"/>
       <use xlink:href="#CMR17-39" transform="translate(72.787654 0) scale(0.996264)"/>
       <use xlink:href="#CMR17-35" transform="translate(118.478131 0) scale(0.996264)"/>
      </g>
     </g>
    </g>
    <g id="ytick_7">
     <g id="line2d_25">
      <g>
       <use xlink:href="#me272dfd68f" x="133.155561" y="6.934949" style="stroke: #000000; stroke-width: 0.35"/>
      </g>
     </g>
     <g id="text_23">
      <!-- $\mathdefault{1.00}$ -->
      <g transform="translate(138.155561 9.70235) scale(0.08 -0.08)">
       <use xlink:href="#CMR17-31" transform="scale(0.996264)"/>
       <use xlink:href="#CMMI12-3a" transform="translate(45.690477 0) scale(0.996264)"/>
       <use xlink:href="#CMR17-30" transform="translate(72.787654 0) scale(0.996264)"/>
       <use xlink:href="#CMR17-30" transform="translate(118.478131 0) scale(0.996264)"/>
      </g>
     </g>
    </g>
    <g id="text_24">
     <!-- $g_2(r)$ -->
     <g transform="translate(163.661439 30.268437) rotate(-90) scale(0.08 -0.08)">
      <defs>
       <path id="CMMI12-67" d="M 2163 811 
C 2138 708 2125 683 2042 587 
C 1779 249 1510 128 1312 128 
C 1101 128 902 293 902 734 
C 902 1072 1094 1787 1235 2075 
C 1421 2432 1709 2687 1978 2687 
C 2400 2687 2483 2164 2483 2126 
L 2464 2036 
L 2163 811 
z
M 2560 2394 
C 2477 2579 2298 2816 1978 2816 
C 1280 2816 486 1941 486 989 
C 486 325 890 0 1299 0 
C 1638 0 1939 268 2054 396 
L 1914 -176 
C 1824 -520 1786 -677 1555 -896 
C 1293 -1152 1050 -1152 909 -1152 
C 717 -1152 557 -1140 397 -1090 
C 602 -1034 653 -858 653 -789 
C 653 -689 576 -589 435 -589 
C 282 -589 115 -714 115 -921 
C 115 -1178 378 -1280 922 -1280 
C 1747 -1280 2176 -758 2259 -420 
L 2970 2426 
C 2989 2502 2989 2515 2989 2528 
C 2989 2617 2918 2688 2822 2688 
C 2669 2688 2579 2560 2560 2388 
L 2560 2394 
z
" transform="scale(0.015625)"/>
      </defs>
      <use xlink:href="#CMMI12-67" transform="scale(0.996264)"/>
      <use xlink:href="#CMR17-32" transform="translate(46.710897 -14.943915) scale(0.697382)"/>
      <use xlink:href="#CMR17-28" transform="translate(79.192211 0) scale(0.996264)"/>
      <use xlink:href="#CMMI12-72" transform="translate(114.472979 0) scale(0.996264)"/>
      <use xlink:href="#CMR17-29" transform="translate(161.143591 0) scale(0.996264)"/>
     </g>
    </g>
   </g>
   <g id="line2d_26">
    <g clip-path="url(#pd90154cc81)">
     <use xlink:href="#mac2a4bddab" x="26.508669" y="628.429881" style="fill-opacity: 0; stroke: #524582; stroke-linejoin: miter"/>
     <use xlink:href="#mac2a4bddab" x="28.641649" y="465.966051" style="fill-opacity: 0; stroke: #524582; stroke-linejoin: miter"/>
     <use xlink:href="#mac2a4bddab" x="30.77463" y="312.318639" style="fill-opacity: 0; stroke: #524582; stroke-linejoin: miter"/>
     <use xlink:href="#mac2a4bddab" x="32.90761" y="176.62156" style="fill-opacity: 0; stroke: #524582; stroke-linejoin: miter"/>
     <use xlink:href="#mac2a4bddab" x="35.040591" y="88.312318" style="fill-opacity: 0; stroke: #524582; stroke-linejoin: miter"/>
     <use xlink:href="#mac2a4bddab" x="37.173571" y="47.571846" style="fill-opacity: 0; stroke: #524582; stroke-linejoin: miter"/>
     <use xlink:href="#mac2a4bddab" x="39.306552" y="35.65427" style="fill-opacity: 0; stroke: #524582; stroke-linejoin: miter"/>
     <use xlink:href="#mac2a4bddab" x="41.439532" y="32.420079" style="fill-opacity: 0; stroke: #524582; stroke-linejoin: miter"/>
     <use xlink:href="#mac2a4bddab" x="43.572513" y="27.787997" style="fill-opacity: 0; stroke: #524582; stroke-linejoin: miter"/>
     <use xlink:href="#mac2a4bddab" x="45.705493" y="21.79352" style="fill-opacity: 0; stroke: #524582; stroke-linejoin: miter"/>
     <use xlink:href="#mac2a4bddab" x="47.838474" y="17.763924" style="fill-opacity: 0; stroke: #524582; stroke-linejoin: miter"/>
     <use xlink:href="#mac2a4bddab" x="49.971454" y="16.643295" style="fill-opacity: 0; stroke: #524582; stroke-linejoin: miter"/>
     <use xlink:href="#mac2a4bddab" x="52.104435" y="16.548507" style="fill-opacity: 0; stroke: #524582; stroke-linejoin: miter"/>
     <use xlink:href="#mac2a4bddab" x="54.237415" y="15.613713" style="fill-opacity: 0; stroke: #524582; stroke-linejoin: miter"/>
     <use xlink:href="#mac2a4bddab" x="56.370396" y="13.917692" style="fill-opacity: 0; stroke: #524582; stroke-linejoin: miter"/>
     <use xlink:href="#mac2a4bddab" x="58.503376" y="12.70745" style="fill-opacity: 0; stroke: #524582; stroke-linejoin: miter"/>
     <use xlink:href="#mac2a4bddab" x="60.636357" y="12.548088" style="fill-opacity: 0; stroke: #524582; stroke-linejoin: miter"/>
     <use xlink:href="#mac2a4bddab" x="62.769337" y="12.756098" style="fill-opacity: 0; stroke: #524582; stroke-linejoin: miter"/>
     <use xlink:href="#mac2a4bddab" x="64.902318" y="12.457345" style="fill-opacity: 0; stroke: #524582; stroke-linejoin: miter"/>
     <use xlink:href="#mac2a4bddab" x="67.035298" y="11.676026" style="fill-opacity: 0; stroke: #524582; stroke-linejoin: miter"/>
     <use xlink:href="#mac2a4bddab" x="69.168279" y="11.139065" style="fill-opacity: 0; stroke: #524582; stroke-linejoin: miter"/>
     <use xlink:href="#mac2a4bddab" x="71.301259" y="11.240121" style="fill-opacity: 0; stroke: #524582; stroke-linejoin: miter"/>
     <use xlink:href="#mac2a4bddab" x="73.43424" y="11.561069" style="fill-opacity: 0; stroke: #524582; stroke-linejoin: miter"/>
     <use xlink:href="#mac2a4bddab" x="75.56722" y="11.485499" style="fill-opacity: 0; stroke: #524582; stroke-linejoin: miter"/>
     <use xlink:href="#mac2a4bddab" x="77.700201" y="11.019208" style="fill-opacity: 0; stroke: #524582; stroke-linejoin: miter"/>
     <use xlink:href="#mac2a4bddab" x="79.833181" y="10.745506" style="fill-opacity: 0; stroke: #524582; stroke-linejoin: miter"/>
     <use xlink:href="#mac2a4bddab" x="81.966162" y="11.019209" style="fill-opacity: 0; stroke: #524582; stroke-linejoin: miter"/>
     <use xlink:href="#mac2a4bddab" x="84.099142" y="11.485501" style="fill-opacity: 0; stroke: #524582; stroke-linejoin: miter"/>
     <use xlink:href="#mac2a4bddab" x="86.232123" y="11.561072" style="fill-opacity: 0; stroke: #524582; stroke-linejoin: miter"/>
     <use xlink:href="#mac2a4bddab" x="88.365103" y="11.240124" style="fill-opacity: 0; stroke: #524582; stroke-linejoin: miter"/>
     <use xlink:href="#mac2a4bddab" x="90.498084" y="11.139068" style="fill-opacity: 0; stroke: #524582; stroke-linejoin: miter"/>
     <use xlink:href="#mac2a4bddab" x="92.631064" y="11.676028" style="fill-opacity: 0; stroke: #524582; stroke-linejoin: miter"/>
     <use xlink:href="#mac2a4bddab" x="94.764045" y="12.457348" style="fill-opacity: 0; stroke: #524582; stroke-linejoin: miter"/>
     <use xlink:href="#mac2a4bddab" x="96.897025" y="12.756101" style="fill-opacity: 0; stroke: #524582; stroke-linejoin: miter"/>
     <use xlink:href="#mac2a4bddab" x="99.030006" y="12.548092" style="fill-opacity: 0; stroke: #524582; stroke-linejoin: miter"/>
     <use xlink:href="#mac2a4bddab" x="101.162986" y="12.707454" style="fill-opacity: 0; stroke: #524582; stroke-linejoin: miter"/>
     <use xlink:href="#mac2a4bddab" x="103.295967" y="13.917694" style="fill-opacity: 0; stroke: #524582; stroke-linejoin: miter"/>
     <use xlink:href="#mac2a4bddab" x="105.428947" y="15.613713" style="fill-opacity: 0; stroke: #524582; stroke-linejoin: miter"/>
     <use xlink:href="#mac2a4bddab" x="107.561928" y="16.548504" style="fill-opacity: 0; stroke: #524582; stroke-linejoin: miter"/>
     <use xlink:href="#mac2a4bddab" x="109.694908" y="16.643291" style="fill-opacity: 0; stroke: #524582; stroke-linejoin: miter"/>
     <use xlink:href="#mac2a4bddab" x="111.827889" y="17.763919" style="fill-opacity: 0; stroke: #524582; stroke-linejoin: miter"/>
     <use xlink:href="#mac2a4bddab" x="113.960869" y="21.793516" style="fill-opacity: 0; stroke: #524582; stroke-linejoin: miter"/>
     <use xlink:href="#mac2a4bddab" x="116.09385" y="27.787994" style="fill-opacity: 0; stroke: #524582; stroke-linejoin: miter"/>
     <use xlink:href="#mac2a4bddab" x="118.22683" y="32.420078" style="fill-opacity: 0; stroke: #524582; stroke-linejoin: miter"/>
     <use xlink:href="#mac2a4bddab" x="120.359811" y="35.654269" style="fill-opacity: 0; stroke: #524582; stroke-linejoin: miter"/>
     <use xlink:href="#mac2a4bddab" x="122.492791" y="47.571848" style="fill-opacity: 0; stroke: #524582; stroke-linejoin: miter"/>
     <use xlink:href="#mac2a4bddab" x="124.625772" y="88.312319" style="fill-opacity: 0; stroke: #524582; stroke-linejoin: miter"/>
     <use xlink:href="#mac2a4bddab" x="126.758752" y="176.621562" style="fill-opacity: 0; stroke: #524582; stroke-linejoin: miter"/>
     <use xlink:href="#mac2a4bddab" x="128.891733" y="312.31865" style="fill-opacity: 0; stroke: #524582; stroke-linejoin: miter"/>
     <use xlink:href="#mac2a4bddab" x="131.024713" y="465.966039" style="fill-opacity: 0; stroke: #524582; stroke-linejoin: miter"/>
    </g>
   </g>
   <path d="M 32.746701 147.90808 
L 33.505544 113.995733 
L 34.262828 89.41319 
L 35.009446 71.952645 
L 35.734732 59.861536 
L 36.438686 51.578703 
L 37.131974 45.872354 
L 37.825262 41.893354 
L 38.561214 38.922612 
L 39.414491 36.409318 
L 40.939725 32.763072 
L 42.859599 27.947332 
L 45.152783 22.232239 
L 46.230045 20.153789 
L 47.147319 18.839963 
L 48.011262 17.976358 
L 48.907204 17.394747 
L 50.005799 16.961471 
L 52.896276 15.939404 
L 54.410844 15.060577 
L 57.247992 13.373639 
L 58.485244 12.937377 
L 59.76516 12.72634 
L 61.887688 12.651239 
L 63.764899 12.481043 
L 65.567447 12.074284 
L 68.617915 11.362773 
L 70.185812 11.265627 
L 72.478995 11.387125 
L 74.665519 11.415448 
L 76.702719 11.195494 
L 79.571865 10.896435 
L 81.27842 10.972258 
L 86.664734 11.416273 
L 90.813796 11.334033 
L 92.413692 11.623722 
L 96.968061 12.608618 
L 101.682419 13.084544 
L 102.898339 13.606968 
L 104.466237 14.547593 
L 106.930076 16.017499 
L 108.34865 16.571558 
L 110.99381 17.521655 
L 111.847087 18.139597 
L 112.657701 19.011252 
L 113.500313 20.26147 
L 114.449584 22.093868 
L 115.665504 24.971872 
L 121.275804 39.525997 
L 121.94776 42.417419 
L 122.577052 46.167133 
L 123.195679 51.267773 
L 123.824971 58.412431 
L 124.464929 68.339479 
L 125.126219 82.240975 
L 125.808841 101.580403 
L 126.502129 127.925584 
L 126.919661 147.90808 
L 126.919661 147.90808 
" clip-path="url(#pd90154cc81)" style="fill: none; stroke: #ffffff; stroke-width: 0.95; stroke-linecap: round"/>
   <path d="M 32.746701 147.90808 
L 33.505544 113.995733 
L 34.262828 89.41319 
L 35.009446 71.952645 
L 35.734732 59.861536 
L 36.438686 51.578703 
L 37.131974 45.872354 
L 37.825262 41.893354 
L 38.561214 38.922612 
L 39.414491 36.409318 
L 40.939725 32.763072 
L 42.859599 27.947332 
L 45.152783 22.232239 
L 46.230045 20.153789 
L 47.147319 18.839963 
L 48.011262 17.976358 
L 48.907204 17.394747 
L 50.005799 16.961471 
L 52.896276 15.939404 
L 54.410844 15.060577 
L 57.247992 13.373639 
L 58.485244 12.937377 
L 59.76516 12.72634 
L 61.887688 12.651239 
L 63.764899 12.481043 
L 65.567447 12.074284 
L 68.617915 11.362773 
L 70.185812 11.265627 
L 72.478995 11.387125 
L 74.665519 11.415448 
L 76.702719 11.195494 
L 79.571865 10.896435 
L 81.27842 10.972258 
L 86.664734 11.416273 
L 90.813796 11.334033 
L 92.413692 11.623722 
L 96.968061 12.608618 
L 101.682419 13.084544 
L 102.898339 13.606968 
L 104.466237 14.547593 
L 106.930076 16.017499 
L 108.34865 16.571558 
L 110.99381 17.521655 
L 111.847087 18.139597 
L 112.657701 19.011252 
L 113.500313 20.26147 
L 114.449584 22.093868 
L 115.665504 24.971872 
L 121.275804 39.525997 
L 121.94776 42.417419 
L 122.577052 46.167133 
L 123.195679 51.267773 
L 123.824971 58.412431 
L 124.464929 68.339479 
L 125.126219 82.240975 
L 125.808841 101.580403 
L 126.502129 127.925584 
L 126.919661 147.90808 
L 126.919661 147.90808 
" clip-path="url(#pd90154cc81)" style="fill: none; stroke: #524582; stroke-width: 0.75; stroke-linecap: round"/>
   <g id="line2d_27">
    <g clip-path="url(#pd90154cc81)">
     <use xlink:href="#m90703091bf" x="26.508669" y="628.429875" style="fill-opacity: 0; stroke: #38bfa7"/>
     <use xlink:href="#m90703091bf" x="28.641649" y="187.236045" style="fill-opacity: 0; stroke: #38bfa7"/>
     <use xlink:href="#m90703091bf" x="30.77463" y="58.031167" style="fill-opacity: 0; stroke: #38bfa7"/>
     <use xlink:href="#m90703091bf" x="32.90761" y="32.258448" style="fill-opacity: 0; stroke: #38bfa7"/>
     <use xlink:href="#m90703091bf" x="35.040591" y="19.312357" style="fill-opacity: 0; stroke: #38bfa7"/>
     <use xlink:href="#m90703091bf" x="37.173571" y="15.445777" style="fill-opacity: 0; stroke: #38bfa7"/>
     <use xlink:href="#m90703091bf" x="39.306552" y="12.393392" style="fill-opacity: 0; stroke: #38bfa7"/>
     <use xlink:href="#m90703091bf" x="41.439532" y="11.267238" style="fill-opacity: 0; stroke: #38bfa7"/>
     <use xlink:href="#m90703091bf" x="43.572513" y="10.100033" style="fill-opacity: 0; stroke: #38bfa7"/>
     <use xlink:href="#m90703091bf" x="45.705493" y="9.630767" style="fill-opacity: 0; stroke: #38bfa7"/>
     <use xlink:href="#m90703091bf" x="47.838474" y="9.058904" style="fill-opacity: 0; stroke: #38bfa7"/>
     <use xlink:href="#m90703091bf" x="49.971454" y="8.824906" style="fill-opacity: 0; stroke: #38bfa7"/>
     <use xlink:href="#m90703091bf" x="52.104435" y="8.501313" style="fill-opacity: 0; stroke: #38bfa7"/>
     <use xlink:href="#m90703091bf" x="54.237415" y="8.373028" style="fill-opacity: 0; stroke: #38bfa7"/>
     <use xlink:href="#m90703091bf" x="56.370396" y="8.171967" style="fill-opacity: 0; stroke: #38bfa7"/>
     <use xlink:href="#m90703091bf" x="58.503376" y="8.098811" style="fill-opacity: 0; stroke: #38bfa7"/>
     <use xlink:href="#m90703091bf" x="60.636357" y="7.965688" style="fill-opacity: 0; stroke: #38bfa7"/>
     <use xlink:href="#m90703091bf" x="62.769337" y="7.924798" style="fill-opacity: 0; stroke: #38bfa7"/>
     <use xlink:href="#m90703091bf" x="64.902318" y="7.832866" style="fill-opacity: 0; stroke: #38bfa7"/>
     <use xlink:href="#m90703091bf" x="67.035298" y="7.812944" style="fill-opacity: 0; stroke: #38bfa7"/>
     <use xlink:href="#m90703091bf" x="69.168279" y="7.747971" style="fill-opacity: 0; stroke: #38bfa7"/>
     <use xlink:href="#m90703091bf" x="71.301259" y="7.743238" style="fill-opacity: 0; stroke: #38bfa7"/>
     <use xlink:href="#m90703091bf" x="73.43424" y="7.697267" style="fill-opacity: 0; stroke: #38bfa7"/>
     <use xlink:href="#m90703091bf" x="75.56722" y="7.704942" style="fill-opacity: 0; stroke: #38bfa7"/>
     <use xlink:href="#m90703091bf" x="77.700201" y="7.673495" style="fill-opacity: 0; stroke: #38bfa7"/>
     <use xlink:href="#m90703091bf" x="79.833181" y="7.692718" style="fill-opacity: 0; stroke: #38bfa7"/>
     <use xlink:href="#m90703091bf" x="81.966162" y="7.673495" style="fill-opacity: 0; stroke: #38bfa7"/>
     <use xlink:href="#m90703091bf" x="84.099142" y="7.704942" style="fill-opacity: 0; stroke: #38bfa7"/>
     <use xlink:href="#m90703091bf" x="86.232123" y="7.697267" style="fill-opacity: 0; stroke: #38bfa7"/>
     <use xlink:href="#m90703091bf" x="88.365103" y="7.743238" style="fill-opacity: 0; stroke: #38bfa7"/>
     <use xlink:href="#m90703091bf" x="90.498084" y="7.747972" style="fill-opacity: 0; stroke: #38bfa7"/>
     <use xlink:href="#m90703091bf" x="92.631064" y="7.812943" style="fill-opacity: 0; stroke: #38bfa7"/>
     <use xlink:href="#m90703091bf" x="94.764045" y="7.832866" style="fill-opacity: 0; stroke: #38bfa7"/>
     <use xlink:href="#m90703091bf" x="96.897025" y="7.924798" style="fill-opacity: 0; stroke: #38bfa7"/>
     <use xlink:href="#m90703091bf" x="99.030006" y="7.965688" style="fill-opacity: 0; stroke: #38bfa7"/>
     <use xlink:href="#m90703091bf" x="101.162986" y="8.098812" style="fill-opacity: 0; stroke: #38bfa7"/>
     <use xlink:href="#m90703091bf" x="103.295967" y="8.171966" style="fill-opacity: 0; stroke: #38bfa7"/>
     <use xlink:href="#m90703091bf" x="105.428947" y="8.373026" style="fill-opacity: 0; stroke: #38bfa7"/>
     <use xlink:href="#m90703091bf" x="107.561928" y="8.501314" style="fill-opacity: 0; stroke: #38bfa7"/>
     <use xlink:href="#m90703091bf" x="109.694908" y="8.824906" style="fill-opacity: 0; stroke: #38bfa7"/>
     <use xlink:href="#m90703091bf" x="111.827889" y="9.058906" style="fill-opacity: 0; stroke: #38bfa7"/>
     <use xlink:href="#m90703091bf" x="113.960869" y="9.630767" style="fill-opacity: 0; stroke: #38bfa7"/>
     <use xlink:href="#m90703091bf" x="116.09385" y="10.100028" style="fill-opacity: 0; stroke: #38bfa7"/>
     <use xlink:href="#m90703091bf" x="118.22683" y="11.267245" style="fill-opacity: 0; stroke: #38bfa7"/>
     <use xlink:href="#m90703091bf" x="120.359811" y="12.393387" style="fill-opacity: 0; stroke: #38bfa7"/>
     <use xlink:href="#m90703091bf" x="122.492791" y="15.445782" style="fill-opacity: 0; stroke: #38bfa7"/>
     <use xlink:href="#m90703091bf" x="124.625772" y="19.312374" style="fill-opacity: 0; stroke: #38bfa7"/>
     <use xlink:href="#m90703091bf" x="126.758752" y="32.258399" style="fill-opacity: 0; stroke: #38bfa7"/>
     <use xlink:href="#m90703091bf" x="128.891733" y="58.031208" style="fill-opacity: 0; stroke: #38bfa7"/>
     <use xlink:href="#m90703091bf" x="131.024713" y="187.236029" style="fill-opacity: 0; stroke: #38bfa7"/>
    </g>
   </g>
   <path d="M 29.07313 147.90808 
L 29.569802 96.468464 
L 30.04977 67.677426 
L 30.508407 52.409787 
L 30.956378 44.348528 
L 31.436346 39.560511 
L 32.24696 34.164923 
L 34.625471 19.393376 
L 35.169436 17.840444 
L 35.724066 16.911162 
L 38.081245 13.649036 
L 38.945189 12.506598 
L 39.617145 11.979214 
L 40.50242 11.601363 
L 41.686343 11.049189 
L 43.670213 10.007291 
L 44.822138 9.779436 
L 46.326039 9.428865 
L 48.14992 8.988243 
L 53.792218 8.397632 
L 66.111412 7.820084 
L 72.894968 7.703925 
L 78.835913 7.682438 
L 89.661872 7.742334 
L 94.824201 7.831421 
L 103.45297 8.175046 
L 108.689961 8.649449 
L 110.961812 8.933592 
L 112.433716 9.162651 
L 116.998751 10.450338 
L 119.345264 11.667741 
L 120.283869 12.129105 
L 120.902495 12.704733 
L 121.627781 13.715966 
L 123.32367 16.187031 
L 124.315605 17.48221 
L 124.784908 18.561948 
L 125.264877 20.286624 
L 125.830173 23.245949 
L 126.715448 29.30614 
L 128.720651 44.489032 
L 129.09396 50.933391 
L 129.467268 61.666026 
L 129.851243 79.717501 
L 130.25655 110.175799 
L 130.593233 147.90808 
L 130.593233 147.90808 
" clip-path="url(#pd90154cc81)" style="fill: none; stroke: #ffffff; stroke-width: 0.95; stroke-linecap: round"/>
   <path d="M 29.07313 147.90808 
L 29.569802 96.468464 
L 30.04977 67.677426 
L 30.508407 52.409787 
L 30.956378 44.348528 
L 31.436346 39.560511 
L 32.24696 34.164923 
L 34.625471 19.393376 
L 35.169436 17.840444 
L 35.724066 16.911162 
L 38.081245 13.649036 
L 38.945189 12.506598 
L 39.617145 11.979214 
L 40.50242 11.601363 
L 41.686343 11.049189 
L 43.670213 10.007291 
L 44.822138 9.779436 
L 46.326039 9.428865 
L 48.14992 8.988243 
L 53.792218 8.397632 
L 66.111412 7.820084 
L 72.894968 7.703925 
L 78.835913 7.682438 
L 89.661872 7.742334 
L 94.824201 7.831421 
L 103.45297 8.175046 
L 108.689961 8.649449 
L 110.961812 8.933592 
L 112.433716 9.162651 
L 116.998751 10.450338 
L 119.345264 11.667741 
L 120.283869 12.129105 
L 120.902495 12.704733 
L 121.627781 13.715966 
L 123.32367 16.187031 
L 124.315605 17.48221 
L 124.784908 18.561948 
L 125.264877 20.286624 
L 125.830173 23.245949 
L 126.715448 29.30614 
L 128.720651 44.489032 
L 129.09396 50.933391 
L 129.467268 61.666026 
L 129.851243 79.717501 
L 130.25655 110.175799 
L 130.593233 147.90808 
L 130.593233 147.90808 
" clip-path="url(#pd90154cc81)" style="fill: none; stroke: #38bfa7; stroke-width: 0.75; stroke-linecap: round"/>
   <g id="patch_8">
    <path d="M 26.510802 56.654543 
L 26.510802 0.72 
" style="fill: none; stroke: #000000; stroke-width: 0.35; stroke-linejoin: miter; stroke-linecap: square"/>
   </g>
   <g id="patch_9">
    <path d="M 133.155561 56.654543 
L 133.155561 0.72 
" style="fill: none; stroke: #000000; stroke-width: 0.35; stroke-linejoin: miter; stroke-linecap: square"/>
   </g>
   <g id="patch_10">
    <path d="M 26.510802 56.654543 
L 133.155561 56.654543 
" style="fill: none; stroke: #000000; stroke-width: 0.35; stroke-linejoin: miter; stroke-linecap: square"/>
   </g>
   <g id="patch_11">
    <path d="M 26.510802 0.72 
L 133.155561 0.72 
" style="fill: none; stroke: #000000; stroke-width: 0.35; stroke-linejoin: miter; stroke-linecap: square"/>
   </g>
  </g>
 </g>
 <defs>
  <clipPath id="p36e1d06306">
   <rect x="26.510802" y="0.72" width="213.289518" height="124.298985"/>
  </clipPath>
  <clipPath id="pd90154cc81">
   <rect x="26.510802" y="0.72" width="106.644759" height="55.934543"/>
  </clipPath>
 </defs>
</svg>
