<?xml version="1.0" encoding="utf-8" standalone="no"?>
<!DOCTYPE svg PUBLIC "-//W3C//DTD SVG 1.1//EN"
  "http://www.w3.org/Graphics/SVG/1.1/DTD/svg11.dtd">
<svg xmlns:xlink="http://www.w3.org/1999/xlink" width="247.72032pt" height="153.11502pt" viewBox="0 0 247.72032 153.11502" xmlns="http://www.w3.org/2000/svg" version="1.1">
 <metadata>
  <rdf:RDF xmlns:dc="http://purl.org/dc/elements/1.1/" xmlns:cc="http://creativecommons.org/ns#" xmlns:rdf="http://www.w3.org/1999/02/22-rdf-syntax-ns#">
   <cc:Work>
    <dc:type rdf:resource="http://purl.org/dc/dcmitype/StillImage"/>
    <dc:date>2026-07-12T12:20:39.849416</dc:date>
    <dc:format>image/svg+xml</dc:format>
    <dc:creator>
     <cc:Agent>
      <dc:title>Matplotlib v3.9.4, https://matplotlib.org/</dc:title>
     </cc:Agent>
    </dc:creator>
   </cc:Work>
  </rdf:RDF>
 </metadata>
 <defs>
  <style type="text/css">*{stroke-linejoin: round; stroke-linecap: butt}</style>
 </defs>
 <g id="figure_1">
  <g id="patch_1">
   <path d="M 0 153.11502 
L 247.72032 153.11502 
L 247.72032 0 
L 0 0 
L 0 153.11502 
z
" style="fill: none"/>
  </g>
  <g id="axes_1">
   <g id="patch_2">
    <path d="M 33.2534 129.862188 
L 120.581788 129.862188 
L 120.581788 0.72 
L 33.2534 0.72 
L 33.2534 129.862188 
z
" style="fill: none"/>
   </g>
   <g id="matplotlib.axis_1">
    <g id="xtick_1">
     <g id="line2d_1">
      <defs>
       <path id="m88e3ef99ca" d="M 0 0 
L 0 2 
" style="stroke: #000000; stroke-width: 0.35"/>
      </defs>
      <g>
       <use xlink:href="#m88e3ef99ca" x="45.161023" y="129.862188" style="stroke: #000000; stroke-width: 0.35"/>
      </g>
     </g>
     <g id="text_1">
      <!-- $\mathdefault{−20}$ -->
      <g transform="translate(37.633587 140.39699) scale(0.08 -0.08)">
       <defs>
        <path id="CMSY10-0" d="M 4218 1472 
C 4326 1472 4442 1472 4442 1600 
C 4442 1728 4326 1728 4218 1728 
L 755 1728 
C 646 1728 531 1728 531 1600 
C 531 1472 646 1472 755 1472 
L 4218 1472 
z
" transform="scale(0.015625)"/>
        <path id="CMR17-32" d="M 2669 989 
L 2554 989 
C 2490 536 2438 459 2413 420 
C 2381 369 1920 369 1830 369 
L 602 369 
C 832 619 1280 1072 1824 1597 
C 2214 1967 2669 2402 2669 3035 
C 2669 3790 2067 4224 1395 4224 
C 691 4224 262 3604 262 3030 
C 262 2780 448 2748 525 2748 
C 589 2748 781 2787 781 3010 
C 781 3207 614 3264 525 3264 
C 486 3264 448 3258 422 3245 
C 544 3790 915 4058 1306 4058 
C 1862 4058 2227 3617 2227 3035 
C 2227 2479 1901 2000 1536 1584 
L 262 146 
L 262 0 
L 2515 0 
L 2669 989 
z
" transform="scale(0.015625)"/>
        <path id="CMR17-30" d="M 2688 2025 
C 2688 2416 2682 3080 2413 3591 
C 2176 4039 1798 4198 1466 4198 
C 1158 4198 768 4058 525 3597 
C 269 3118 243 2524 243 2025 
C 243 1661 250 1106 448 619 
C 723 -39 1216 -128 1466 -128 
C 1760 -128 2208 -7 2470 600 
C 2662 1042 2688 1559 2688 2025 
z
M 1466 -26 
C 1056 -26 813 325 723 812 
C 653 1188 653 1738 653 2096 
C 653 2588 653 2997 736 3387 
C 858 3929 1216 4096 1466 4096 
C 1728 4096 2067 3923 2189 3400 
C 2272 3036 2278 2607 2278 2096 
C 2278 1680 2278 1169 2202 792 
C 2067 95 1690 -26 1466 -26 
z
" transform="scale(0.015625)"/>
       </defs>
       <use xlink:href="#CMSY10-0" transform="scale(0.996264)"/>
       <use xlink:href="#CMR17-32" transform="translate(77.487468 0) scale(0.996264)"/>
       <use xlink:href="#CMR17-30" transform="translate(123.177945 0) scale(0.996264)"/>
      </g>
     </g>
    </g>
    <g id="xtick_2">
     <g id="line2d_2">
      <g>
       <use xlink:href="#m88e3ef99ca" x="76.913625" y="129.862188" style="stroke: #000000; stroke-width: 0.35"/>
      </g>
     </g>
     <g id="text_2">
      <!-- $\mathdefault{0}$ -->
      <g transform="translate(74.796534 140.39699) scale(0.08 -0.08)">
       <use xlink:href="#CMR17-30" transform="scale(0.996264)"/>
      </g>
     </g>
    </g>
    <g id="xtick_3">
     <g id="line2d_3">
      <g>
       <use xlink:href="#m88e3ef99ca" x="108.666228" y="129.862188" style="stroke: #000000; stroke-width: 0.35"/>
      </g>
     </g>
     <g id="text_3">
      <!-- $\mathdefault{20}$ -->
      <g transform="translate(104.432045 140.39699) scale(0.08 -0.08)">
       <use xlink:href="#CMR17-32" transform="scale(0.996264)"/>
       <use xlink:href="#CMR17-30" transform="translate(45.690477 0) scale(0.996264)"/>
      </g>
     </g>
    </g>
    <g id="text_4">
     <!-- $x-x'$ -->
     <g transform="translate(65.882461 149.481538) scale(0.08 -0.08)">
      <defs>
       <path id="CMMI12-78" d="M 3034 2606 
C 2829 2567 2752 2414 2752 2293 
C 2752 2139 2874 2088 2963 2088 
C 3155 2088 3290 2254 3290 2427 
C 3290 2695 2982 2816 2714 2816 
C 2323 2816 2106 2433 2048 2312 
C 1901 2816 1504 2816 1389 2816 
C 736 2816 390 1980 390 1839 
C 390 1814 416 1782 461 1782 
C 512 1782 525 1820 538 1846 
C 755 2555 1184 2689 1370 2689 
C 1658 2689 1715 2420 1715 2267 
C 1715 2127 1677 1980 1600 1673 
L 1382 798 
C 1286 415 1101 64 762 64 
C 730 64 570 64 435 147 
C 666 192 717 383 717 460 
C 717 588 621 664 499 664 
C 346 664 179 530 179 326 
C 179 57 480 -64 755 -64 
C 1062 -64 1280 179 1414 441 
C 1517 64 1837 -64 2074 -64 
C 2726 -64 3072 773 3072 913 
C 3072 945 3046 971 3008 971 
C 2950 971 2944 939 2925 888 
C 2752 326 2381 64 2093 64 
C 1869 64 1747 230 1747 492 
C 1747 632 1773 734 1875 1156 
L 2099 2024 
C 2195 2408 2413 2689 2707 2689 
C 2720 2689 2899 2689 3034 2606 
z
" transform="scale(0.015625)"/>
       <path id="CMSY10-30" d="M 1619 3040 
C 1651 3117 1677 3174 1677 3238 
C 1677 3424 1510 3578 1312 3578 
C 1133 3578 1018 3456 973 3290 
L 211 493 
C 211 480 186 410 186 403 
C 186 333 352 288 403 288 
C 442 288 448 307 486 390 
L 1619 3040 
z
" transform="scale(0.015625)"/>
      </defs>
      <use xlink:href="#CMMI12-78" transform="scale(0.996264)"/>
      <use xlink:href="#CMSY10-0" transform="translate(77.573267 0) scale(0.996264)"/>
      <use xlink:href="#CMMI12-78" transform="translate(177.199941 0) scale(0.996264)"/>
      <use xlink:href="#CMSY10-30" transform="translate(232.634001 36.153639) scale(0.697382)"/>
     </g>
    </g>
   </g>
   <g id="matplotlib.axis_2">
    <g id="ytick_1">
     <g id="line2d_4">
      <defs>
       <path id="m10ac5f19fb" d="M 0 0 
L -2 0 
" style="stroke: #000000; stroke-width: 0.35"/>
      </defs>
      <g>
       <use xlink:href="#m10ac5f19fb" x="33.2534" y="122.635038" style="stroke: #000000; stroke-width: 0.35"/>
      </g>
     </g>
     <g id="text_5">
      <!-- $\mathdefault{−0.1}$ -->
      <g transform="translate(10.846204 125.402439) scale(0.08 -0.08)">
       <defs>
        <path id="CMMI12-3a" d="M 1178 307 
C 1178 492 1024 619 870 619 
C 685 619 557 466 557 313 
C 557 128 710 0 864 0 
C 1050 0 1178 153 1178 307 
z
" transform="scale(0.015625)"/>
        <path id="CMR17-31" d="M 1702 4058 
C 1702 4192 1696 4192 1606 4192 
C 1357 3916 979 3827 621 3827 
C 602 3827 570 3827 563 3808 
C 557 3795 557 3782 557 3648 
C 755 3648 1088 3686 1344 3839 
L 1344 461 
C 1344 236 1331 160 781 160 
L 589 160 
L 589 0 
C 896 0 1216 0 1523 0 
C 1830 0 2150 0 2458 0 
L 2458 160 
L 2266 160 
C 1715 160 1702 230 1702 458 
L 1702 4058 
z
" transform="scale(0.015625)"/>
       </defs>
       <use xlink:href="#CMSY10-0" transform="scale(0.996264)"/>
       <use xlink:href="#CMR17-30" transform="translate(77.487468 0) scale(0.996264)"/>
       <use xlink:href="#CMMI12-3a" transform="translate(123.177945 0) scale(0.996264)"/>
       <use xlink:href="#CMR17-31" transform="translate(150.275122 0) scale(0.996264)"/>
      </g>
     </g>
    </g>
    <g id="ytick_2">
     <g id="line2d_5">
      <g>
       <use xlink:href="#m10ac5f19fb" x="33.2534" y="103.294215" style="stroke: #000000; stroke-width: 0.35"/>
      </g>
     </g>
     <g id="text_6">
      <!-- $\mathdefault{0.0}$ -->
      <g transform="translate(17.432711 106.061616) scale(0.08 -0.08)">
       <use xlink:href="#CMR17-30" transform="scale(0.996264)"/>
       <use xlink:href="#CMMI12-3a" transform="translate(45.690477 0) scale(0.996264)"/>
       <use xlink:href="#CMR17-30" transform="translate(72.787654 0) scale(0.996264)"/>
      </g>
     </g>
    </g>
    <g id="ytick_3">
     <g id="line2d_6">
      <g>
       <use xlink:href="#m10ac5f19fb" x="33.2534" y="83.953392" style="stroke: #000000; stroke-width: 0.35"/>
      </g>
     </g>
     <g id="text_7">
      <!-- $\mathdefault{0.1}$ -->
      <g transform="translate(17.432711 86.720793) scale(0.08 -0.08)">
       <use xlink:href="#CMR17-30" transform="scale(0.996264)"/>
       <use xlink:href="#CMMI12-3a" transform="translate(45.690477 0) scale(0.996264)"/>
       <use xlink:href="#CMR17-31" transform="translate(72.787654 0) scale(0.996264)"/>
      </g>
     </g>
    </g>
    <g id="ytick_4">
     <g id="line2d_7">
      <g>
       <use xlink:href="#m10ac5f19fb" x="33.2534" y="64.612569" style="stroke: #000000; stroke-width: 0.35"/>
      </g>
     </g>
     <g id="text_8">
      <!-- $\mathdefault{0.2}$ -->
      <g transform="translate(17.432711 67.37997) scale(0.08 -0.08)">
       <use xlink:href="#CMR17-30" transform="scale(0.996264)"/>
       <use xlink:href="#CMMI12-3a" transform="translate(45.690477 0) scale(0.996264)"/>
       <use xlink:href="#CMR17-32" transform="translate(72.787654 0) scale(0.996264)"/>
      </g>
     </g>
    </g>
    <g id="ytick_5">
     <g id="line2d_8">
      <g>
       <use xlink:href="#m10ac5f19fb" x="33.2534" y="45.271746" style="stroke: #000000; stroke-width: 0.35"/>
      </g>
     </g>
     <g id="text_9">
      <!-- $\mathdefault{0.3}$ -->
      <g transform="translate(17.432711 48.039147) scale(0.08 -0.08)">
       <defs>
        <path id="CMR17-33" d="M 1414 2157 
C 1984 2157 2234 1662 2234 1090 
C 2234 320 1824 25 1453 25 
C 1114 25 563 194 390 693 
C 422 680 454 680 486 680 
C 640 680 755 782 755 948 
C 755 1133 614 1216 486 1216 
C 378 1216 211 1165 211 926 
C 211 335 787 -128 1466 -128 
C 2176 -128 2720 430 2720 1085 
C 2720 1707 2208 2157 1600 2227 
C 2086 2328 2554 2756 2554 3329 
C 2554 3820 2048 4179 1472 4179 
C 890 4179 378 3829 378 3329 
C 378 3110 544 3072 627 3072 
C 762 3072 877 3155 877 3321 
C 877 3486 762 3569 627 3569 
C 602 3569 570 3569 544 3557 
C 730 3959 1235 4032 1459 4032 
C 1683 4032 2106 3925 2106 3320 
C 2106 3143 2080 2828 1862 2550 
C 1670 2304 1453 2304 1242 2284 
C 1210 2284 1062 2269 1037 2269 
C 992 2263 966 2257 966 2208 
C 966 2163 973 2157 1101 2157 
L 1414 2157 
z
" transform="scale(0.015625)"/>
       </defs>
       <use xlink:href="#CMR17-30" transform="scale(0.996264)"/>
       <use xlink:href="#CMMI12-3a" transform="translate(45.690477 0) scale(0.996264)"/>
       <use xlink:href="#CMR17-33" transform="translate(72.787654 0) scale(0.996264)"/>
      </g>
     </g>
    </g>
    <g id="ytick_6">
     <g id="line2d_9">
      <g>
       <use xlink:href="#m10ac5f19fb" x="33.2534" y="25.930923" style="stroke: #000000; stroke-width: 0.35"/>
      </g>
     </g>
     <g id="text_10">
      <!-- $\mathdefault{0.4}$ -->
      <g transform="translate(17.432711 28.698323) scale(0.08 -0.08)">
       <defs>
        <path id="CMR17-34" d="M 2150 4122 
C 2150 4256 2144 4256 2029 4256 
L 128 1254 
L 128 1088 
L 1779 1088 
L 1779 457 
C 1779 224 1766 160 1318 160 
L 1197 160 
L 1197 0 
C 1402 0 1747 0 1965 0 
C 2182 0 2528 0 2733 0 
L 2733 160 
L 2611 160 
C 2163 160 2150 224 2150 457 
L 2150 1088 
L 2803 1088 
L 2803 1254 
L 2150 1254 
L 2150 4122 
z
M 1798 3703 
L 1798 1254 
L 256 1254 
L 1798 3703 
z
" transform="scale(0.015625)"/>
       </defs>
       <use xlink:href="#CMR17-30" transform="scale(0.996264)"/>
       <use xlink:href="#CMMI12-3a" transform="translate(45.690477 0) scale(0.996264)"/>
       <use xlink:href="#CMR17-34" transform="translate(72.787654 0) scale(0.996264)"/>
      </g>
     </g>
    </g>
    <g id="ytick_7">
     <g id="line2d_10">
      <g>
       <use xlink:href="#m10ac5f19fb" x="33.2534" y="6.590099" style="stroke: #000000; stroke-width: 0.35"/>
      </g>
     </g>
     <g id="text_11">
      <!-- $\mathdefault{0.5}$ -->
      <g transform="translate(17.432711 9.3575) scale(0.08 -0.08)">
       <defs>
        <path id="CMR17-35" d="M 730 3692 
C 794 3666 1056 3584 1325 3584 
C 1920 3584 2246 3911 2432 4100 
C 2432 4157 2432 4192 2394 4192 
C 2387 4192 2374 4192 2323 4163 
C 2099 4058 1837 3973 1517 3973 
C 1325 3973 1037 3999 723 4139 
C 653 4171 640 4171 634 4171 
C 602 4171 595 4164 595 4037 
L 595 2203 
C 595 2089 595 2057 659 2057 
C 691 2057 704 2070 736 2114 
C 941 2401 1222 2522 1542 2522 
C 1766 2522 2246 2382 2246 1289 
C 2246 1085 2246 715 2054 421 
C 1894 159 1645 25 1370 25 
C 947 25 518 320 403 814 
C 429 807 480 795 506 795 
C 589 795 749 840 749 1038 
C 749 1210 627 1280 506 1280 
C 358 1280 262 1190 262 1011 
C 262 454 704 -128 1382 -128 
C 2042 -128 2669 440 2669 1264 
C 2669 2030 2170 2624 1549 2624 
C 1222 2624 947 2503 730 2274 
L 730 3692 
z
" transform="scale(0.015625)"/>
       </defs>
       <use xlink:href="#CMR17-30" transform="scale(0.996264)"/>
       <use xlink:href="#CMMI12-3a" transform="translate(45.690477 0) scale(0.996264)"/>
       <use xlink:href="#CMR17-35" transform="translate(72.787654 0) scale(0.996264)"/>
      </g>
     </g>
    </g>
    <g id="text_12">
     <!-- $\rho_{1}(x'; x)$ -->
     <g transform="translate(6.853676 80.819099) rotate(-90) scale(0.08 -0.08)">
      <defs>
       <path id="CMMI12-1a" d="M 198 -1107 
C 192 -1139 179 -1177 179 -1216 
C 179 -1312 256 -1376 352 -1376 
C 448 -1376 538 -1312 576 -1222 
C 602 -1164 781 -397 986 390 
C 1114 70 1350 -64 1600 -64 
C 2323 -64 3142 830 3142 1795 
C 3142 2478 2726 2816 2285 2816 
C 1722 2816 1037 2235 826 1385 
L 198 -1107 
z
M 1594 64 
C 1158 64 1050 569 1050 645 
C 1050 684 1210 1295 1229 1391 
C 1555 2670 2182 2670 2278 2670 
C 2566 2670 2726 2410 2726 2036 
C 2726 1712 2554 1084 2445 819 
C 2253 381 1920 64 1594 64 
z
" transform="scale(0.015625)"/>
       <path id="CMR17-28" d="M 1958 -1561 
C 1958 -1555 1958 -1542 1939 -1523 
C 1645 -1224 858 -407 858 1581 
C 858 3569 1632 4379 1946 4697 
C 1946 4704 1958 4717 1958 4736 
C 1958 4755 1939 4768 1914 4768 
C 1843 4768 1299 4296 986 3594 
C 666 2887 576 2199 576 1588 
C 576 1128 621 351 1005 -471 
C 1312 -1135 1837 -1600 1914 -1600 
C 1946 -1600 1958 -1587 1958 -1561 
z
" transform="scale(0.015625)"/>
       <path id="CMR17-3b" d="M 1062 2491 
C 1062 2650 934 2752 800 2752 
C 672 2752 538 2650 538 2491 
C 538 2332 666 2230 800 2230 
C 928 2230 1062 2332 1062 2491 
z
M 979 -71 
C 979 -483 851 -817 634 -1126 
C 595 -1170 595 -1183 595 -1190 
C 595 -1222 621 -1248 646 -1248 
C 678 -1248 1082 -805 1082 -61 
C 1082 189 1062 522 800 522 
C 659 522 538 427 538 261 
C 538 96 659 0 800 0 
C 864 0 934 19 979 64 
L 979 -71 
z
" transform="scale(0.015625)"/>
       <path id="CMR17-29" d="M 1683 1581 
C 1683 2040 1638 2817 1254 3639 
C 947 4303 422 4768 346 4768 
C 326 4768 301 4761 301 4729 
C 301 4717 307 4710 314 4697 
C 621 4378 1402 3568 1402 1584 
C 1402 -407 627 -1217 314 -1537 
C 307 -1549 301 -1556 301 -1568 
C 301 -1600 326 -1600 346 -1600 
C 416 -1600 960 -1128 1274 -426 
C 1594 281 1683 969 1683 1581 
z
" transform="scale(0.015625)"/>
      </defs>
      <use xlink:href="#CMMI12-1a" transform="scale(0.996264)"/>
      <use xlink:href="#CMR17-31" transform="translate(50.314373 -14.943915) scale(0.697382)"/>
      <use xlink:href="#CMR17-28" transform="translate(82.795687 0) scale(0.996264)"/>
      <use xlink:href="#CMMI12-78" transform="translate(118.076455 0) scale(0.996264)"/>
      <use xlink:href="#CMSY10-30" transform="translate(173.510514 36.153639) scale(0.697382)"/>
      <use xlink:href="#CMR17-3b" transform="translate(193.186607 0) scale(0.996264)"/>
      <use xlink:href="#CMMI12-78" transform="translate(234.66207 0) scale(0.996264)"/>
      <use xlink:href="#CMR17-29" transform="translate(290.09613 0) scale(0.996264)"/>
     </g>
    </g>
   </g>
   <g id="line2d_11">
    <path d="M 37.222872 99.599579 
L 37.461279 99.701724 
L 37.779155 100.144414 
L 38.176499 101.124097 
L 38.971188 103.88055 
L 39.686409 106.123704 
L 40.083753 106.834575 
L 40.401629 107.018713 
L 40.640036 106.917121 
L 40.957911 106.471718 
L 41.355256 105.482043 
L 42.149945 102.684967 
L 42.865165 100.397091 
L 43.26251 99.668332 
L 43.580385 99.477684 
L 43.818792 99.580223 
L 44.136668 100.035581 
L 44.534012 101.051795 
L 45.249233 103.63348 
L 46.043922 106.311237 
L 46.441266 107.071595 
L 46.759142 107.272798 
L 46.997549 107.167864 
L 47.315424 106.694624 
L 47.712769 105.633205 
L 48.427989 102.92302 
L 49.222678 100.094481 
L 49.620023 99.285647 
L 49.937898 99.068602 
L 50.176305 99.177382 
L 50.494181 99.677825 
L 50.891525 100.807111 
L 51.606746 103.707856 
L 52.401435 106.757642 
L 52.798779 107.637282 
L 53.116655 107.87759 
L 53.355062 107.763498 
L 53.672937 107.22414 
L 54.070282 105.997509 
L 54.785502 102.823289 
L 55.580191 99.455287 
L 55.977536 98.473072 
L 56.295411 98.198297 
L 56.533818 98.319075 
L 56.772225 98.71974 
L 57.169569 99.956618 
L 57.805321 102.990337 
L 58.838417 107.958243 
L 59.235761 108.941889 
L 59.474168 109.135863 
L 59.712575 109.007582 
L 59.950981 108.556525 
L 60.348326 107.142117 
L 60.904608 104.117914 
L 62.017173 97.765075 
L 62.414518 96.572377 
L 62.652924 96.323017 
L 62.811862 96.369263 
L 63.050269 96.763258 
L 63.368145 97.874109 
L 63.844958 100.607044 
L 65.513805 111.534145 
L 65.831681 112.105183 
L 65.990619 112.073177 
L 66.229026 111.611969 
L 66.546901 110.23935 
L 67.023715 106.759093 
L 68.772031 91.659994 
L 69.010437 91.076406 
L 69.169375 91.051465 
L 69.328313 91.33342 
L 69.56672 92.342892 
L 69.884596 94.759041 
L 70.361409 100.378106 
L 72.030256 122.876539 
L 72.268663 123.890155 
L 72.427601 123.96759 
L 72.586539 123.522177 
L 72.824945 121.812201 
L 73.142821 117.5036 
L 73.540166 108.867298 
L 74.096448 91.394651 
L 75.209013 46.737913 
L 76.003702 19.377521 
L 76.480515 9.595315 
L 76.798391 6.805056 
L 76.957329 6.621039 
L 77.116267 7.253716 
L 77.354673 9.705212 
L 77.672549 15.612657 
L 78.149362 29.287826 
L 78.944052 60.072631 
L 80.056616 102.313682 
L 80.612899 116.211422 
L 81.010243 121.889872 
L 81.328119 123.83377 
L 81.487057 123.987514 
L 81.645995 123.63785 
L 81.884401 122.260779 
L 82.281746 118.113075 
L 82.996966 107.431974 
L 83.791655 96.304787 
L 84.268469 92.297981 
L 84.586344 91.139866 
L 84.745282 91.027859 
L 84.90422 91.216613 
L 85.142627 92.026962 
L 85.539971 94.5752 
L 86.175723 100.593188 
L 87.12935 109.304348 
L 87.526694 111.377121 
L 87.84457 112.079978 
L 88.003508 112.101078 
L 88.162445 111.907518 
L 88.400852 111.238557 
L 88.798197 109.258527 
L 89.513417 104.075614 
L 90.308106 98.616357 
L 90.78492 96.743921 
L 91.102795 96.322434 
L 91.261733 96.370771 
L 91.50014 96.755644 
L 91.818015 97.79766 
L 92.294829 100.228105 
L 93.725269 108.110972 
L 94.122614 109.017094 
L 94.361021 109.134538 
L 94.599427 108.930048 
L 94.917303 108.190749 
L 95.394117 106.274477 
L 96.983495 98.892398 
L 97.30137 98.310498 
L 97.539777 98.199152 
L 97.778184 98.369008 
L 98.09606 99.006244 
L 98.572873 100.680624 
L 100.24172 107.414911 
L 100.559596 107.834862 
L 100.798003 107.85568 
L 101.036409 107.625722 
L 101.354285 106.958476 
L 101.831099 105.343791 
L 103.341008 99.660634 
L 103.738352 99.110325 
L 103.976759 99.087451 
L 104.215166 99.296213 
L 104.533042 99.909282 
L 105.009855 101.402684 
L 106.519764 106.710831 
L 106.917109 107.231876 
L 107.155516 107.256003 
L 107.393922 107.061709 
L 107.711798 106.485736 
L 108.188612 105.0752 
L 109.698521 100.020025 
L 110.095865 99.518169 
L 110.334272 99.493075 
L 110.572679 99.677771 
L 110.890555 100.229523 
L 111.367368 101.586859 
L 112.956746 106.627841 
L 113.274622 106.978201 
L 113.513029 107.004281 
L 113.751435 106.825399 
L 114.069311 106.287436 
L 114.546125 104.958669 
L 116.135503 99.989478 
L 116.453378 99.640669 
L 116.612316 99.599693 
L 116.612316 99.599693 
" clip-path="url(#p5527c3af99)" style="fill: none; stroke-dasharray: 3.7,1.6; stroke-dashoffset: 0; stroke: #38bfa7; stroke-linecap: round"/>
   </g>
   <g id="patch_3">
    <path d="M 33.2534 129.862188 
L 33.2534 0.72 
" style="fill: none; stroke: #000000; stroke-width: 0.35; stroke-linejoin: miter; stroke-linecap: square"/>
   </g>
   <g id="patch_4">
    <path d="M 120.581788 129.862188 
L 120.581788 0.72 
" style="fill: none; stroke: #000000; stroke-width: 0.35; stroke-linejoin: miter; stroke-linecap: square"/>
   </g>
   <g id="patch_5">
    <path d="M 33.2534 129.862188 
L 120.581788 129.862188 
" style="fill: none; stroke: #000000; stroke-width: 0.35; stroke-linejoin: miter; stroke-linecap: square"/>
   </g>
   <g id="patch_6">
    <path d="M 33.2534 0.72 
L 120.581788 0.72 
" style="fill: none; stroke: #000000; stroke-width: 0.35; stroke-linejoin: miter; stroke-linecap: square"/>
   </g>
   <g id="text_13">
    <!-- $\epsilon=0.81$ -->
    <g transform="translate(86.264695 16.260511) scale(0.09 -0.09)">
     <defs>
      <path id="CMMI12-f" d="M 1862 1467 
C 1958 1467 2067 1467 2067 1569 
C 2067 1652 2003 1652 1888 1652 
L 851 1652 
C 1011 2226 1389 2573 1958 2573 
L 2144 2573 
C 2253 2573 2349 2573 2349 2675 
C 2349 2758 2278 2758 2163 2758 
L 1946 2758 
C 1158 2758 294 2131 294 1126 
C 294 416 774 -64 1408 -64 
C 1818 -64 2221 194 2221 258 
C 2221 296 2202 336 2163 336 
C 2144 336 2131 329 2099 304 
C 1856 142 1619 64 1427 64 
C 1088 64 730 290 730 918 
C 730 1040 742 1208 800 1467 
L 1862 1467 
z
" transform="scale(0.015625)"/>
      <path id="CMR17-3d" d="M 4115 2017 
C 4211 2017 4307 2017 4307 2125 
C 4307 2240 4198 2240 4090 2240 
L 512 2240 
C 403 2240 294 2240 294 2125 
C 294 2017 390 2017 486 2017 
L 4115 2017 
z
M 4090 896 
C 4198 896 4307 896 4307 1011 
C 4307 1119 4211 1119 4115 1119 
L 486 1119 
C 390 1119 294 1119 294 1011 
C 294 896 403 896 512 896 
L 4090 896 
z
" transform="scale(0.015625)"/>
      <path id="CMR17-38" d="M 1741 2264 
C 2144 2467 2554 2773 2554 3263 
C 2554 3841 1990 4179 1472 4179 
C 890 4179 378 3759 378 3180 
C 378 3021 416 2747 666 2505 
C 730 2442 998 2251 1171 2130 
C 883 1983 211 1634 211 934 
C 211 279 838 -128 1459 -128 
C 2144 -128 2720 362 2720 1010 
C 2720 1590 2330 1857 2074 2029 
L 1741 2264 
z
M 902 2822 
C 851 2854 595 3051 595 3351 
C 595 3739 998 4032 1459 4032 
C 1965 4032 2336 3676 2336 3262 
C 2336 2669 1670 2331 1638 2331 
C 1632 2331 1626 2331 1574 2370 
L 902 2822 
z
M 2080 1519 
C 2176 1449 2483 1240 2483 851 
C 2483 381 2010 25 1472 25 
C 890 25 448 438 448 940 
C 448 1443 838 1862 1280 2060 
L 2080 1519 
z
" transform="scale(0.015625)"/>
     </defs>
     <use xlink:href="#CMMI12-f" transform="scale(0.996264)"/>
     <use xlink:href="#CMR17-3d" transform="translate(67.062967 0) scale(0.996264)"/>
     <use xlink:href="#CMR17-30" transform="translate(166.451764 0) scale(0.996264)"/>
     <use xlink:href="#CMMI12-3a" transform="translate(212.142241 0) scale(0.996264)"/>
     <use xlink:href="#CMR17-38" transform="translate(239.239418 0) scale(0.996264)"/>
     <use xlink:href="#CMR17-31" transform="translate(284.929895 0) scale(0.996264)"/>
    </g>
   </g>
   <g id="line2d_12">
    <defs>
     <path id="m115ee0a44c" d="M 0 1 
C 0.265203 1 0.51958 0.894634 0.707107 0.707107 
C 0.894634 0.51958 1 0.265203 1 0 
C 1 -0.265203 0.894634 -0.51958 0.707107 -0.707107 
C 0.51958 -0.894634 0.265203 -1 0 -1 
C -0.265203 -1 -0.51958 -0.894634 -0.707107 -0.707107 
C -0.894634 -0.51958 -1 -0.265203 -1 0 
C -1 0.265203 -0.894634 0.51958 -0.707107 0.707107 
C -0.51958 0.894634 -0.265203 1 0 1 
z
" style="stroke: #524582"/>
    </defs>
    <g clip-path="url(#p5527c3af99)">
     <use xlink:href="#m115ee0a44c" x="37.222872" y="99.61962" style="fill-opacity: 0; stroke: #524582"/>
     <use xlink:href="#m115ee0a44c" x="38.810502" y="103.294215" style="fill-opacity: 0; stroke: #524582"/>
     <use xlink:href="#m115ee0a44c" x="40.398133" y="106.998468" style="fill-opacity: 0; stroke: #524582"/>
     <use xlink:href="#m115ee0a44c" x="41.985763" y="103.294215" style="fill-opacity: 0; stroke: #524582"/>
     <use xlink:href="#m115ee0a44c" x="43.573393" y="99.498563" style="fill-opacity: 0; stroke: #524582"/>
     <use xlink:href="#m115ee0a44c" x="45.161023" y="103.294215" style="fill-opacity: 0; stroke: #524582"/>
     <use xlink:href="#m115ee0a44c" x="46.748653" y="107.250783" style="fill-opacity: 0; stroke: #524582"/>
     <use xlink:href="#m115ee0a44c" x="48.336283" y="103.294215" style="fill-opacity: 0; stroke: #524582"/>
     <use xlink:href="#m115ee0a44c" x="49.923913" y="99.092383" style="fill-opacity: 0; stroke: #524582"/>
     <use xlink:href="#m115ee0a44c" x="51.511543" y="103.294215" style="fill-opacity: 0; stroke: #524582"/>
     <use xlink:href="#m115ee0a44c" x="53.099173" y="107.85114" style="fill-opacity: 0; stroke: #524582"/>
     <use xlink:href="#m115ee0a44c" x="54.686804" y="103.294215" style="fill-opacity: 0; stroke: #524582"/>
     <use xlink:href="#m115ee0a44c" x="56.274434" y="98.228738" style="fill-opacity: 0; stroke: #524582"/>
     <use xlink:href="#m115ee0a44c" x="57.862064" y="103.294215" style="fill-opacity: 0; stroke: #524582"/>
     <use xlink:href="#m115ee0a44c" x="59.449694" y="109.0992" style="fill-opacity: 0; stroke: #524582"/>
     <use xlink:href="#m115ee0a44c" x="61.037324" y="103.294215" style="fill-opacity: 0; stroke: #524582"/>
     <use xlink:href="#m115ee0a44c" x="62.624954" y="96.369979" style="fill-opacity: 0; stroke: #524582"/>
     <use xlink:href="#m115ee0a44c" x="64.212584" y="103.294215" style="fill-opacity: 0; stroke: #524582"/>
     <use xlink:href="#m115ee0a44c" x="65.800214" y="112.039227" style="fill-opacity: 0; stroke: #524582"/>
     <use xlink:href="#m115ee0a44c" x="67.387845" y="103.294215" style="fill-opacity: 0; stroke: #524582"/>
     <use xlink:href="#m115ee0a44c" x="68.975475" y="91.184482" style="fill-opacity: 0; stroke: #524582"/>
     <use xlink:href="#m115ee0a44c" x="70.563105" y="103.294215" style="fill-opacity: 0; stroke: #524582"/>
     <use xlink:href="#m115ee0a44c" x="72.150735" y="123.424564" style="fill-opacity: 0; stroke: #524582"/>
     <use xlink:href="#m115ee0a44c" x="73.738365" y="103.294215" style="fill-opacity: 0; stroke: #524582"/>
     <use xlink:href="#m115ee0a44c" x="75.325995" y="42.019446" style="fill-opacity: 0; stroke: #524582"/>
     <use xlink:href="#m115ee0a44c" x="76.913625" y="6.590099" style="fill-opacity: 0; stroke: #524582"/>
     <use xlink:href="#m115ee0a44c" x="78.501255" y="42.019446" style="fill-opacity: 0; stroke: #524582"/>
     <use xlink:href="#m115ee0a44c" x="80.088885" y="103.294215" style="fill-opacity: 0; stroke: #524582"/>
     <use xlink:href="#m115ee0a44c" x="81.676516" y="123.424564" style="fill-opacity: 0; stroke: #524582"/>
     <use xlink:href="#m115ee0a44c" x="83.264146" y="103.294215" style="fill-opacity: 0; stroke: #524582"/>
     <use xlink:href="#m115ee0a44c" x="84.851776" y="91.184482" style="fill-opacity: 0; stroke: #524582"/>
     <use xlink:href="#m115ee0a44c" x="86.439406" y="103.294215" style="fill-opacity: 0; stroke: #524582"/>
     <use xlink:href="#m115ee0a44c" x="88.027036" y="112.039227" style="fill-opacity: 0; stroke: #524582"/>
     <use xlink:href="#m115ee0a44c" x="89.614666" y="103.294215" style="fill-opacity: 0; stroke: #524582"/>
     <use xlink:href="#m115ee0a44c" x="91.202296" y="96.369979" style="fill-opacity: 0; stroke: #524582"/>
     <use xlink:href="#m115ee0a44c" x="92.789926" y="103.294215" style="fill-opacity: 0; stroke: #524582"/>
     <use xlink:href="#m115ee0a44c" x="94.377557" y="109.099203" style="fill-opacity: 0; stroke: #524582"/>
     <use xlink:href="#m115ee0a44c" x="95.965187" y="103.294215" style="fill-opacity: 0; stroke: #524582"/>
     <use xlink:href="#m115ee0a44c" x="97.552817" y="98.228746" style="fill-opacity: 0; stroke: #524582"/>
     <use xlink:href="#m115ee0a44c" x="99.140447" y="103.294215" style="fill-opacity: 0; stroke: #524582"/>
     <use xlink:href="#m115ee0a44c" x="100.728077" y="107.85115" style="fill-opacity: 0; stroke: #524582"/>
     <use xlink:href="#m115ee0a44c" x="102.315707" y="103.294215" style="fill-opacity: 0; stroke: #524582"/>
     <use xlink:href="#m115ee0a44c" x="103.903337" y="99.09239" style="fill-opacity: 0; stroke: #524582"/>
     <use xlink:href="#m115ee0a44c" x="105.490967" y="103.294215" style="fill-opacity: 0; stroke: #524582"/>
     <use xlink:href="#m115ee0a44c" x="107.078597" y="107.250785" style="fill-opacity: 0; stroke: #524582"/>
     <use xlink:href="#m115ee0a44c" x="108.666228" y="103.294215" style="fill-opacity: 0; stroke: #524582"/>
     <use xlink:href="#m115ee0a44c" x="110.253858" y="99.498563" style="fill-opacity: 0; stroke: #524582"/>
     <use xlink:href="#m115ee0a44c" x="111.841488" y="103.294215" style="fill-opacity: 0; stroke: #524582"/>
     <use xlink:href="#m115ee0a44c" x="113.429118" y="106.998468" style="fill-opacity: 0; stroke: #524582"/>
     <use xlink:href="#m115ee0a44c" x="115.016748" y="103.294215" style="fill-opacity: 0; stroke: #524582"/>
    </g>
   </g>
  </g>
  <g id="axes_2">
   <g id="patch_7">
    <path d="M 159.671932 129.862188 
L 247.00032 129.862188 
L 247.00032 0.72 
L 159.671932 0.72 
L 159.671932 129.862188 
z
" style="fill: none"/>
   </g>
   <g id="matplotlib.axis_3">
    <g id="xtick_4">
     <g id="line2d_13">
      <g>
       <use xlink:href="#m88e3ef99ca" x="163.641404" y="129.862188" style="stroke: #000000; stroke-width: 0.35"/>
      </g>
     </g>
     <g id="text_14">
      <!-- $\mathdefault{0}$ -->
      <g transform="translate(161.524312 140.39699) scale(0.08 -0.08)">
       <use xlink:href="#CMR17-30" transform="scale(0.996264)"/>
      </g>
     </g>
    </g>
    <g id="xtick_5">
     <g id="line2d_14">
      <g>
       <use xlink:href="#m88e3ef99ca" x="195.397181" y="129.862188" style="stroke: #000000; stroke-width: 0.35"/>
      </g>
     </g>
     <g id="text_15">
      <!-- $\mathdefault{20}$ -->
      <g transform="translate(191.162999 140.39699) scale(0.08 -0.08)">
       <use xlink:href="#CMR17-32" transform="scale(0.996264)"/>
       <use xlink:href="#CMR17-30" transform="translate(45.690477 0) scale(0.996264)"/>
      </g>
     </g>
    </g>
    <g id="xtick_6">
     <g id="line2d_15">
      <g>
       <use xlink:href="#m88e3ef99ca" x="227.152959" y="129.862188" style="stroke: #000000; stroke-width: 0.35"/>
      </g>
     </g>
     <g id="text_16">
      <!-- $\mathdefault{40}$ -->
      <g transform="translate(222.918776 140.39699) scale(0.08 -0.08)">
       <use xlink:href="#CMR17-34" transform="scale(0.996264)"/>
       <use xlink:href="#CMR17-30" transform="translate(45.690477 0) scale(0.996264)"/>
      </g>
     </g>
    </g>
    <g id="text_17">
     <!-- $x_1'$ -->
     <g transform="translate(199.12622 150.080412) scale(0.08 -0.08)">
      <use xlink:href="#CMMI12-78" transform="scale(0.996264)"/>
      <use xlink:href="#CMSY10-30" transform="translate(55.43406 36.153639) scale(0.697382)"/>
      <use xlink:href="#CMR17-31" transform="translate(55.43406 -24.740171) scale(0.697382)"/>
     </g>
    </g>
   </g>
   <g id="matplotlib.axis_4">
    <g id="ytick_8">
     <g id="line2d_16">
      <g>
       <use xlink:href="#m10ac5f19fb" x="159.671932" y="118.255767" style="stroke: #000000; stroke-width: 0.35"/>
      </g>
     </g>
     <g id="text_18">
      <!-- $\mathdefault{−0.02}$ -->
      <g transform="translate(137.030553 121.023168) scale(0.08 -0.08)">
       <use xlink:href="#CMSY10-0" transform="scale(0.996264)"/>
       <use xlink:href="#CMR17-30" transform="translate(77.487468 0) scale(0.996264)"/>
       <use xlink:href="#CMMI12-3a" transform="translate(123.177945 0) scale(0.996264)"/>
       <use xlink:href="#CMR17-30" transform="translate(150.275122 0) scale(0.996264)"/>
       <use xlink:href="#CMR17-32" transform="translate(195.965599 0) scale(0.996264)"/>
      </g>
     </g>
    </g>
    <g id="ytick_9">
     <g id="line2d_17">
      <g>
       <use xlink:href="#m10ac5f19fb" x="159.671932" y="87.743278" style="stroke: #000000; stroke-width: 0.35"/>
      </g>
     </g>
     <g id="text_19">
      <!-- $\mathdefault{0.00}$ -->
      <g transform="translate(143.617059 90.510679) scale(0.08 -0.08)">
       <use xlink:href="#CMR17-30" transform="scale(0.996264)"/>
       <use xlink:href="#CMMI12-3a" transform="translate(45.690477 0) scale(0.996264)"/>
       <use xlink:href="#CMR17-30" transform="translate(72.787654 0) scale(0.996264)"/>
       <use xlink:href="#CMR17-30" transform="translate(118.478131 0) scale(0.996264)"/>
      </g>
     </g>
    </g>
    <g id="ytick_10">
     <g id="line2d_18">
      <g>
       <use xlink:href="#m10ac5f19fb" x="159.671932" y="57.230788" style="stroke: #000000; stroke-width: 0.35"/>
      </g>
     </g>
     <g id="text_20">
      <!-- $\mathdefault{0.02}$ -->
      <g transform="translate(143.617059 59.998189) scale(0.08 -0.08)">
       <use xlink:href="#CMR17-30" transform="scale(0.996264)"/>
       <use xlink:href="#CMMI12-3a" transform="translate(45.690477 0) scale(0.996264)"/>
       <use xlink:href="#CMR17-30" transform="translate(72.787654 0) scale(0.996264)"/>
       <use xlink:href="#CMR17-32" transform="translate(118.478131 0) scale(0.996264)"/>
      </g>
     </g>
    </g>
    <g id="ytick_11">
     <g id="line2d_19">
      <g>
       <use xlink:href="#m10ac5f19fb" x="159.671932" y="26.718298" style="stroke: #000000; stroke-width: 0.35"/>
      </g>
     </g>
     <g id="text_21">
      <!-- $\mathdefault{0.04}$ -->
      <g transform="translate(143.617059 29.485699) scale(0.08 -0.08)">
       <use xlink:href="#CMR17-30" transform="scale(0.996264)"/>
       <use xlink:href="#CMMI12-3a" transform="translate(45.690477 0) scale(0.996264)"/>
       <use xlink:href="#CMR17-30" transform="translate(72.787654 0) scale(0.996264)"/>
       <use xlink:href="#CMR17-34" transform="translate(118.478131 0) scale(0.996264)"/>
      </g>
     </g>
    </g>
    <g id="text_22">
     <!-- $\rho_{2}(25,x_1';18,28)$ -->
     <g transform="translate(132.715944 95.63525) rotate(-90) scale(0.08 -0.08)">
      <defs>
       <path id="CMMI12-3b" d="M 1248 -31 
C 1248 343 1126 619 864 619 
C 659 619 557 453 557 313 
C 557 172 653 0 870 0 
C 954 0 1024 26 1082 83 
C 1094 96 1101 96 1107 96 
C 1120 96 1120 5 1120 -27 
C 1120 -240 1082 -659 710 -1080 
C 640 -1157 640 -1170 640 -1183 
C 640 -1216 672 -1248 704 -1248 
C 755 -1248 1248 -771 1248 -31 
z
" transform="scale(0.015625)"/>
      </defs>
      <use xlink:href="#CMMI12-1a" transform="scale(0.996264)"/>
      <use xlink:href="#CMR17-32" transform="translate(50.314373 -14.943915) scale(0.697382)"/>
      <use xlink:href="#CMR17-28" transform="translate(82.795687 0) scale(0.996264)"/>
      <use xlink:href="#CMR17-32" transform="translate(118.076455 0) scale(0.996264)"/>
      <use xlink:href="#CMR17-35" transform="translate(163.766932 0) scale(0.996264)"/>
      <use xlink:href="#CMMI12-3b" transform="translate(209.457409 0) scale(0.996264)"/>
      <use xlink:href="#CMMI12-78" transform="translate(253.158991 0) scale(0.996264)"/>
      <use xlink:href="#CMSY10-30" transform="translate(308.593051 36.153639) scale(0.697382)"/>
      <use xlink:href="#CMR17-31" transform="translate(308.593051 -24.740171) scale(0.697382)"/>
      <use xlink:href="#CMR17-3b" transform="translate(341.074365 0) scale(0.996264)"/>
      <use xlink:href="#CMR17-31" transform="translate(382.549828 0) scale(0.996264)"/>
      <use xlink:href="#CMR17-38" transform="translate(428.240306 0) scale(0.996264)"/>
      <use xlink:href="#CMMI12-3b" transform="translate(473.930783 0) scale(0.996264)"/>
      <use xlink:href="#CMR17-32" transform="translate(517.632365 0) scale(0.996264)"/>
      <use xlink:href="#CMR17-38" transform="translate(563.322842 0) scale(0.996264)"/>
      <use xlink:href="#CMR17-29" transform="translate(609.013319 0) scale(0.996264)"/>
     </g>
    </g>
   </g>
   <g id="line2d_20">
    <path d="M 163.641404 87.743278 
L 164.515562 84.268261 
L 164.912906 83.37433 
L 165.230782 83.129913 
L 165.469189 83.242995 
L 165.787064 83.78064 
L 166.184409 84.999415 
L 166.899629 88.13077 
L 167.694318 91.419937 
L 168.091663 92.370871 
L 168.409539 92.635749 
L 168.647945 92.520353 
L 168.965821 91.954365 
L 169.363166 90.660625 
L 170.078386 87.311282 
L 170.873075 83.760611 
L 171.270419 82.722712 
L 171.588295 82.426829 
L 171.826702 82.545769 
L 172.065109 82.95586 
L 172.462453 84.2297 
L 173.018736 86.922973 
L 174.1313 92.472303 
L 174.528645 93.488057 
L 174.767052 93.693055 
L 175.005458 93.570086 
L 175.243865 93.119443 
L 175.64121 91.697821 
L 176.197492 88.656231 
L 177.310057 82.279758 
L 177.707401 81.08102 
L 177.945808 80.825744 
L 178.104746 80.866303 
L 178.343153 81.248245 
L 178.661028 82.334847 
L 179.137842 85.01127 
L 180.806689 95.672885 
L 181.124565 96.233693 
L 181.283503 96.208124 
L 181.521909 95.773141 
L 181.839785 94.468813 
L 182.316598 91.162331 
L 184.064914 76.917331 
L 184.303321 76.367878 
L 184.462259 76.340566 
L 184.621197 76.597805 
L 184.859604 77.525211 
L 185.177479 79.744188 
L 185.654293 84.88633 
L 187.32314 105.220714 
L 187.561547 106.122424 
L 187.720484 106.190296 
L 187.879422 105.794967 
L 188.117829 104.284657 
L 188.435705 100.499551 
L 188.833049 92.964467 
L 189.389332 77.868502 
L 191.534992 13.108309 
L 191.932337 8.639699 
L 192.170744 7.937786 
L 192.329681 8.319005 
L 192.568088 10.14515 
L 192.885964 14.787307 
L 193.362777 25.770835 
L 194.157466 50.681666 
L 195.270031 84.735295 
L 195.826314 95.896598 
L 196.223658 100.507875 
L 196.541534 102.182253 
L 196.700472 102.39576 
L 196.859409 102.231049 
L 197.097816 101.3528 
L 197.495161 98.552842 
L 198.28985 90.538193 
L 199.00507 84.231759 
L 199.481884 81.879354 
L 199.799759 81.299523 
L 199.958697 81.294013 
L 200.197104 81.604108 
L 200.514979 82.509194 
L 201.150731 85.261899 
L 201.865951 88.110426 
L 202.263295 88.913861 
L 202.501702 89.043 
L 202.740109 88.912917 
L 203.057985 88.399711 
L 204.170549 86.155716 
L 204.329487 86.162617 
L 204.567894 86.478891 
L 204.88577 87.559154 
L 205.283114 90.069846 
L 205.759928 94.747733 
L 206.554617 105.397709 
L 207.587713 118.783299 
L 208.064526 122.263524 
L 208.382402 123.108143 
L 208.54134 123.051185 
L 208.700277 122.671297 
L 208.938684 121.505273 
L 209.336029 118.065176 
L 209.892311 110.643741 
L 211.958503 79.788519 
L 212.355847 77.370878 
L 212.594254 76.76999 
L 212.753192 76.715757 
L 212.91213 76.925384 
L 213.150537 77.696949 
L 213.547881 80.008117 
L 214.263101 86.059461 
L 215.137259 92.993847 
L 215.534604 94.826563 
L 215.85248 95.461003 
L 216.011417 95.489613 
L 216.170355 95.329962 
L 216.408762 94.75703 
L 216.806107 93.034299 
L 217.441858 89.010367 
L 218.395485 83.199422 
L 218.792829 81.851587 
L 219.110705 81.442545 
L 219.269643 81.471346 
L 219.50805 81.798406 
L 219.825925 82.719811 
L 220.302739 84.912365 
L 221.733179 92.222196 
L 222.130524 93.101565 
L 222.36893 93.233086 
L 222.607337 93.061802 
L 222.925213 92.389534 
L 223.402026 90.599852 
L 225.070873 83.288769 
L 225.388749 82.815403 
L 225.627156 82.779009 
L 225.865563 83.015659 
L 226.183438 83.726054 
L 226.660252 85.470018 
L 228.170161 91.720663 
L 228.567506 92.349283 
L 228.805912 92.389133 
L 229.044319 92.172983 
L 229.362195 91.512397 
L 229.839008 89.876225 
L 231.428387 83.766085 
L 231.746262 83.331268 
L 231.984669 83.288927 
L 232.223076 83.492363 
L 232.540951 84.122853 
L 233.017765 85.695555 
L 234.607143 91.631286 
L 234.925019 92.06033 
L 235.163425 92.10511 
L 235.401832 91.90896 
L 235.719708 91.293756 
L 236.196521 89.749771 
L 237.7859 83.866563 
L 238.103775 83.435235 
L 238.342182 83.387508 
L 238.580589 83.5806 
L 238.898464 84.193003 
L 239.375278 85.738821 
L 240.964656 91.683682 
L 241.282532 92.125693 
L 241.520938 92.177361 
L 241.759345 91.983675 
L 242.077221 91.362308 
L 242.554034 89.784636 
L 243.030848 87.743278 
L 243.030848 87.743278 
" clip-path="url(#pef44731113)" style="fill: none; stroke: #38bfa7; stroke-linecap: round"/>
   </g>
   <g id="patch_8">
    <path d="M 159.671932 129.862188 
L 159.671932 0.72 
" style="fill: none; stroke: #000000; stroke-width: 0.35; stroke-linejoin: miter; stroke-linecap: square"/>
   </g>
   <g id="patch_9">
    <path d="M 247.00032 129.862188 
L 247.00032 0.72 
" style="fill: none; stroke: #000000; stroke-width: 0.35; stroke-linejoin: miter; stroke-linecap: square"/>
   </g>
   <g id="patch_10">
    <path d="M 159.671932 129.862188 
L 247.00032 129.862188 
" style="fill: none; stroke: #000000; stroke-width: 0.35; stroke-linejoin: miter; stroke-linecap: square"/>
   </g>
   <g id="patch_11">
    <path d="M 159.671932 0.72 
L 247.00032 0.72 
" style="fill: none; stroke: #000000; stroke-width: 0.35; stroke-linejoin: miter; stroke-linecap: square"/>
   </g>
   <g id="line2d_21">
    <g clip-path="url(#pef44731113)">
     <use xlink:href="#m115ee0a44c" x="163.641404" y="87.743278" style="fill-opacity: 0; stroke: #524582"/>
     <use xlink:href="#m115ee0a44c" x="165.229193" y="83.185399" style="fill-opacity: 0; stroke: #524582"/>
     <use xlink:href="#m115ee0a44c" x="166.816982" y="87.743278" style="fill-opacity: 0; stroke: #524582"/>
     <use xlink:href="#m115ee0a44c" x="168.40477" y="92.577121" style="fill-opacity: 0; stroke: #524582"/>
     <use xlink:href="#m115ee0a44c" x="169.992559" y="87.743278" style="fill-opacity: 0; stroke: #524582"/>
     <use xlink:href="#m115ee0a44c" x="171.580348" y="82.490506" style="fill-opacity: 0; stroke: #524582"/>
     <use xlink:href="#m115ee0a44c" x="173.168137" y="87.743278" style="fill-opacity: 0; stroke: #524582"/>
     <use xlink:href="#m115ee0a44c" x="174.755926" y="93.621495" style="fill-opacity: 0; stroke: #524582"/>
     <use xlink:href="#m115ee0a44c" x="176.343715" y="87.743278" style="fill-opacity: 0; stroke: #524582"/>
     <use xlink:href="#m115ee0a44c" x="177.931504" y="80.909873" style="fill-opacity: 0; stroke: #524582"/>
     <use xlink:href="#m115ee0a44c" x="179.519293" y="87.743278" style="fill-opacity: 0; stroke: #524582"/>
     <use xlink:href="#m115ee0a44c" x="181.107082" y="96.12795" style="fill-opacity: 0; stroke: #524582"/>
     <use xlink:href="#m115ee0a44c" x="182.69487" y="87.743278" style="fill-opacity: 0; stroke: #524582"/>
     <use xlink:href="#m115ee0a44c" x="184.282659" y="76.516797" style="fill-opacity: 0; stroke: #524582"/>
     <use xlink:href="#m115ee0a44c" x="185.870448" y="87.743278" style="fill-opacity: 0; stroke: #524582"/>
     <use xlink:href="#m115ee0a44c" x="187.458237" y="105.657153" style="fill-opacity: 0; stroke: #524582"/>
     <use xlink:href="#m115ee0a44c" x="189.046026" y="87.743278" style="fill-opacity: 0; stroke: #524582"/>
     <use xlink:href="#m115ee0a44c" x="190.633815" y="35.967985" style="fill-opacity: 0; stroke: #524582"/>
     <use xlink:href="#m115ee0a44c" x="192.221604" y="8.348122" style="fill-opacity: 0; stroke: #524582"/>
     <use xlink:href="#m115ee0a44c" x="193.809393" y="39.206027" style="fill-opacity: 0; stroke: #524582"/>
     <use xlink:href="#m115ee0a44c" x="195.397181" y="87.743278" style="fill-opacity: 0; stroke: #524582"/>
     <use xlink:href="#m115ee0a44c" x="196.98497" y="101.778774" style="fill-opacity: 0; stroke: #524582"/>
     <use xlink:href="#m115ee0a44c" x="198.572759" y="87.743278" style="fill-opacity: 0; stroke: #524582"/>
     <use xlink:href="#m115ee0a44c" x="200.160548" y="81.518738" style="fill-opacity: 0; stroke: #524582"/>
     <use xlink:href="#m115ee0a44c" x="201.748337" y="87.743278" style="fill-opacity: 0; stroke: #524582"/>
     <use xlink:href="#m115ee0a44c" x="203.336126" y="87.743278" style="fill-opacity: 0; stroke: #524582"/>
     <use xlink:href="#m115ee0a44c" x="204.923915" y="87.743278" style="fill-opacity: 0; stroke: #524582"/>
     <use xlink:href="#m115ee0a44c" x="206.511704" y="105.004308" style="fill-opacity: 0; stroke: #524582"/>
     <use xlink:href="#m115ee0a44c" x="208.099492" y="122.234066" style="fill-opacity: 0; stroke: #524582"/>
     <use xlink:href="#m115ee0a44c" x="209.687281" y="113.330407" style="fill-opacity: 0; stroke: #524582"/>
     <use xlink:href="#m115ee0a44c" x="211.27507" y="87.743278" style="fill-opacity: 0; stroke: #524582"/>
     <use xlink:href="#m115ee0a44c" x="212.862859" y="76.992177" style="fill-opacity: 0; stroke: #524582"/>
     <use xlink:href="#m115ee0a44c" x="214.450648" y="87.743278" style="fill-opacity: 0; stroke: #524582"/>
     <use xlink:href="#m115ee0a44c" x="216.038437" y="95.368411" style="fill-opacity: 0; stroke: #524582"/>
     <use xlink:href="#m115ee0a44c" x="217.626226" y="87.743278" style="fill-opacity: 0; stroke: #524582"/>
     <use xlink:href="#m115ee0a44c" x="219.214015" y="81.528027" style="fill-opacity: 0; stroke: #524582"/>
     <use xlink:href="#m115ee0a44c" x="220.801803" y="87.743278" style="fill-opacity: 0; stroke: #524582"/>
     <use xlink:href="#m115ee0a44c" x="222.389592" y="93.158413" style="fill-opacity: 0; stroke: #524582"/>
     <use xlink:href="#m115ee0a44c" x="223.977381" y="87.743278" style="fill-opacity: 0; stroke: #524582"/>
     <use xlink:href="#m115ee0a44c" x="225.56517" y="82.825832" style="fill-opacity: 0; stroke: #524582"/>
     <use xlink:href="#m115ee0a44c" x="227.152959" y="87.743278" style="fill-opacity: 0; stroke: #524582"/>
     <use xlink:href="#m115ee0a44c" x="228.740748" y="92.344965" style="fill-opacity: 0; stroke: #524582"/>
     <use xlink:href="#m115ee0a44c" x="230.328537" y="87.743278" style="fill-opacity: 0; stroke: #524582"/>
     <use xlink:href="#m115ee0a44c" x="231.916326" y="83.33154" style="fill-opacity: 0; stroke: #524582"/>
     <use xlink:href="#m115ee0a44c" x="233.504115" y="87.743278" style="fill-opacity: 0; stroke: #524582"/>
     <use xlink:href="#m115ee0a44c" x="235.091903" y="92.063094" style="fill-opacity: 0; stroke: #524582"/>
     <use xlink:href="#m115ee0a44c" x="236.679692" y="87.743278" style="fill-opacity: 0; stroke: #524582"/>
     <use xlink:href="#m115ee0a44c" x="238.267481" y="83.429851" style="fill-opacity: 0; stroke: #524582"/>
     <use xlink:href="#m115ee0a44c" x="239.85527" y="87.743278" style="fill-opacity: 0; stroke: #524582"/>
     <use xlink:href="#m115ee0a44c" x="241.443059" y="92.133698" style="fill-opacity: 0; stroke: #524582"/>
    </g>
   </g>
  </g>
 </g>
 <defs>
  <clipPath id="p5527c3af99">
   <rect x="33.2534" y="0.72" width="87.328388" height="129.142188"/>
  </clipPath>
  <clipPath id="pef44731113">
   <rect x="159.671932" y="0.72" width="87.328388" height="129.142188"/>
  </clipPath>
 </defs>
</svg>
