<?xml version="1.0" encoding="utf-8" standalone="no"?>
<!DOCTYPE svg PUBLIC "-//W3C//DTD SVG 1.1//EN"
  "http://www.w3.org/Graphics/SVG/1.1/DTD/svg11.dtd">
<svg xmlns:xlink="http://www.w3.org/1999/xlink" width="247.72032pt" height="153.108717pt" viewBox="0 0 247.72032 153.108717" xmlns="http://www.w3.org/2000/svg" version="1.1">
 <metadata>
  <rdf:RDF xmlns:dc="http://purl.org/dc/elements/1.1/" xmlns:cc="http://creativecommons.org/ns#" xmlns:rdf="http://www.w3.org/1999/02/22-rdf-syntax-ns#">
   <cc:Work>
    <dc:type rdf:resource="http://purl.org/dc/dcmitype/StillImage"/>
    <dc:date>2026-07-12T11:53:14.357566</dc:date>
    <dc:format>image/svg+xml</dc:format>
    <dc:creator>
     <cc:Agent>
      <dc:title>Matplotlib v3.9.4, https://matplotlib.org/</dc:title>
     </cc:Agent>
    </dc:creator>
   </cc:Work>
  </rdf:RDF>
 </metadata>
 <defs>
  <style type="text/css">*{stroke-linejoin: round; stroke-linecap: butt}</style>
 </defs>
 <g id="figure_1">
  <g id="patch_1">
   <path d="M 0 153.108717 
L 247.72032 153.108717 
L 247.72032 0 
L 0 0 
L 0 153.108717 
z
" style="fill: none"/>
  </g>
  <g id="axes_1">
   <g id="patch_2">
    <path d="M 41.565674 131.219622 
L 244.883229 131.219622 
L 244.883229 2.534288 
L 41.565674 2.534288 
L 41.565674 131.219622 
z
" style="fill: none"/>
   </g>
   <g id="matplotlib.axis_1">
    <g id="xtick_1">
     <g id="line2d_1">
      <defs>
       <path id="ma343335b02" d="M 0 0 
L 0 2 
" style="stroke: #000000; stroke-width: 0.35"/>
      </defs>
      <g>
       <use xlink:href="#ma343335b02" x="41.565674" y="131.219622" style="stroke: #000000; stroke-width: 0.35"/>
      </g>
     </g>
     <g id="text_1">
      <!-- $\mathdefault{−6}$ -->
      <g transform="translate(36.155329 141.754424) scale(0.08 -0.08)">
       <defs>
        <path id="CMSY10-0" d="M 4218 1472 
C 4326 1472 4442 1472 4442 1600 
C 4442 1728 4326 1728 4218 1728 
L 755 1728 
C 646 1728 531 1728 531 1600 
C 531 1472 646 1472 755 1472 
L 4218 1472 
z
" transform="scale(0.015625)"/>
        <path id="CMR17-36" d="M 678 2176 
C 678 3690 1395 4032 1811 4032 
C 1946 4032 2272 4009 2400 3776 
C 2298 3776 2106 3776 2106 3553 
C 2106 3381 2246 3323 2336 3323 
C 2394 3323 2566 3348 2566 3560 
C 2566 3954 2246 4179 1805 4179 
C 1043 4179 243 3390 243 1984 
C 243 253 966 -128 1478 -128 
C 2099 -128 2688 427 2688 1283 
C 2688 2081 2170 2662 1517 2662 
C 1126 2662 838 2407 678 1960 
L 678 2176 
z
M 1478 25 
C 691 25 691 1200 691 1436 
C 691 1896 909 2560 1504 2560 
C 1613 2560 1926 2560 2138 2120 
C 2253 1870 2253 1609 2253 1289 
C 2253 944 2253 690 2118 434 
C 1978 171 1773 25 1478 25 
z
" transform="scale(0.015625)"/>
       </defs>
       <use xlink:href="#CMSY10-0" transform="scale(0.996264)"/>
       <use xlink:href="#CMR17-36" transform="translate(77.487468 0) scale(0.996264)"/>
      </g>
     </g>
    </g>
    <g id="xtick_2">
     <g id="line2d_2">
      <g>
       <use xlink:href="#ma343335b02" x="75.451933" y="131.219622" style="stroke: #000000; stroke-width: 0.35"/>
      </g>
     </g>
     <g id="text_2">
      <!-- $\mathdefault{−4}$ -->
      <g transform="translate(70.041588 141.754424) scale(0.08 -0.08)">
       <defs>
        <path id="CMR17-34" d="M 2150 4122 
C 2150 4256 2144 4256 2029 4256 
L 128 1254 
L 128 1088 
L 1779 1088 
L 1779 457 
C 1779 224 1766 160 1318 160 
L 1197 160 
L 1197 0 
C 1402 0 1747 0 1965 0 
C 2182 0 2528 0 2733 0 
L 2733 160 
L 2611 160 
C 2163 160 2150 224 2150 457 
L 2150 1088 
L 2803 1088 
L 2803 1254 
L 2150 1254 
L 2150 4122 
z
M 1798 3703 
L 1798 1254 
L 256 1254 
L 1798 3703 
z
" transform="scale(0.015625)"/>
       </defs>
       <use xlink:href="#CMSY10-0" transform="scale(0.996264)"/>
       <use xlink:href="#CMR17-34" transform="translate(77.487468 0) scale(0.996264)"/>
      </g>
     </g>
    </g>
    <g id="xtick_3">
     <g id="line2d_3">
      <g>
       <use xlink:href="#ma343335b02" x="109.338192" y="131.219622" style="stroke: #000000; stroke-width: 0.35"/>
      </g>
     </g>
     <g id="text_3">
      <!-- $\mathdefault{−2}$ -->
      <g transform="translate(103.927847 141.754424) scale(0.08 -0.08)">
       <defs>
        <path id="CMR17-32" d="M 2669 989 
L 2554 989 
C 2490 536 2438 459 2413 420 
C 2381 369 1920 369 1830 369 
L 602 369 
C 832 619 1280 1072 1824 1597 
C 2214 1967 2669 2402 2669 3035 
C 2669 3790 2067 4224 1395 4224 
C 691 4224 262 3604 262 3030 
C 262 2780 448 2748 525 2748 
C 589 2748 781 2787 781 3010 
C 781 3207 614 3264 525 3264 
C 486 3264 448 3258 422 3245 
C 544 3790 915 4058 1306 4058 
C 1862 4058 2227 3617 2227 3035 
C 2227 2479 1901 2000 1536 1584 
L 262 146 
L 262 0 
L 2515 0 
L 2669 989 
z
" transform="scale(0.015625)"/>
       </defs>
       <use xlink:href="#CMSY10-0" transform="scale(0.996264)"/>
       <use xlink:href="#CMR17-32" transform="translate(77.487468 0) scale(0.996264)"/>
      </g>
     </g>
    </g>
    <g id="xtick_4">
     <g id="line2d_4">
      <g>
       <use xlink:href="#ma343335b02" x="143.224451" y="131.219622" style="stroke: #000000; stroke-width: 0.35"/>
      </g>
     </g>
     <g id="text_4">
      <!-- $\mathdefault{0}$ -->
      <g transform="translate(141.10736 141.754424) scale(0.08 -0.08)">
       <defs>
        <path id="CMR17-30" d="M 2688 2025 
C 2688 2416 2682 3080 2413 3591 
C 2176 4039 1798 4198 1466 4198 
C 1158 4198 768 4058 525 3597 
C 269 3118 243 2524 243 2025 
C 243 1661 250 1106 448 619 
C 723 -39 1216 -128 1466 -128 
C 1760 -128 2208 -7 2470 600 
C 2662 1042 2688 1559 2688 2025 
z
M 1466 -26 
C 1056 -26 813 325 723 812 
C 653 1188 653 1738 653 2096 
C 653 2588 653 2997 736 3387 
C 858 3929 1216 4096 1466 4096 
C 1728 4096 2067 3923 2189 3400 
C 2272 3036 2278 2607 2278 2096 
C 2278 1680 2278 1169 2202 792 
C 2067 95 1690 -26 1466 -26 
z
" transform="scale(0.015625)"/>
       </defs>
       <use xlink:href="#CMR17-30" transform="scale(0.996264)"/>
      </g>
     </g>
    </g>
    <g id="xtick_5">
     <g id="line2d_5">
      <g>
       <use xlink:href="#ma343335b02" x="177.11071" y="131.219622" style="stroke: #000000; stroke-width: 0.35"/>
      </g>
     </g>
     <g id="text_5">
      <!-- $\mathdefault{2}$ -->
      <g transform="translate(174.993619 141.754424) scale(0.08 -0.08)">
       <use xlink:href="#CMR17-32" transform="scale(0.996264)"/>
      </g>
     </g>
    </g>
    <g id="xtick_6">
     <g id="line2d_6">
      <g>
       <use xlink:href="#ma343335b02" x="210.996969" y="131.219622" style="stroke: #000000; stroke-width: 0.35"/>
      </g>
     </g>
     <g id="text_6">
      <!-- $\mathdefault{4}$ -->
      <g transform="translate(208.879878 141.754424) scale(0.08 -0.08)">
       <use xlink:href="#CMR17-34" transform="scale(0.996264)"/>
      </g>
     </g>
    </g>
    <g id="xtick_7">
     <g id="line2d_7">
      <g>
       <use xlink:href="#ma343335b02" x="244.883229" y="131.219622" style="stroke: #000000; stroke-width: 0.35"/>
      </g>
     </g>
     <g id="text_7">
      <!-- $\mathdefault{6}$ -->
      <g transform="translate(242.766137 141.754424) scale(0.08 -0.08)">
       <use xlink:href="#CMR17-36" transform="scale(0.996264)"/>
      </g>
     </g>
    </g>
    <g id="text_8">
     <!-- $\xi$ -->
     <g transform="translate(141.363343 150.838971) scale(0.08 -0.08)">
      <defs>
       <path id="CMMI12-18" d="M 1670 -24 
L 998 242 
C 832 304 448 456 448 835 
C 448 1377 1120 1927 1254 1927 
C 1267 1927 1325 1914 1344 1908 
C 1517 1857 1683 1857 1798 1857 
C 1997 1857 2374 1857 2374 2062 
C 2374 2218 2144 2240 1869 2240 
C 1741 2240 1568 2240 1338 2163 
C 1184 2292 1120 2496 1120 2690 
C 1120 3042 1350 3542 1856 3780 
C 1971 3648 2125 3648 2259 3648 
C 2419 3648 2810 3648 2810 3820 
C 2810 3968 2502 3968 2298 3968 
C 2170 3968 2074 3968 1894 3936 
C 1862 4011 1856 4024 1856 4163 
C 1856 4277 1882 4366 1882 4384 
C 1882 4422 1850 4448 1818 4448 
C 1715 4448 1715 4214 1715 4163 
C 1715 4075 1722 3986 1760 3904 
C 992 3679 653 3133 653 2716 
C 653 2330 909 2118 1082 2021 
C 422 1667 141 1021 141 679 
C 141 128 646 -69 877 -164 
L 1453 -392 
C 1613 -449 1875 -556 1920 -582 
C 1984 -626 2035 -703 2035 -804 
C 2035 -937 1933 -1152 1709 -1152 
C 1613 -1152 1402 -1127 1171 -955 
C 1126 -916 1120 -910 1094 -910 
C 1062 -910 1030 -936 1030 -974 
C 1030 -1044 1363 -1280 1709 -1280 
C 2118 -1280 2368 -889 2368 -617 
C 2368 -421 2259 -264 2054 -175 
L 1670 -24 
z
M 1997 3817 
C 2106 3840 2221 3840 2304 3840 
C 2515 3840 2534 3836 2662 3812 
C 2586 3789 2534 3775 2266 3775 
C 2144 3775 2067 3775 1997 3817 
z
M 1491 2057 
C 1645 2112 1786 2112 1862 2112 
C 2074 2112 2086 2103 2227 2057 
C 2157 2011 2099 1984 1824 1984 
C 1670 1984 1606 1984 1491 2057 
z
" transform="scale(0.015625)"/>
      </defs>
      <use xlink:href="#CMMI12-18" transform="scale(0.996264)"/>
     </g>
    </g>
   </g>
   <g id="matplotlib.axis_2">
    <g id="ytick_1">
     <g id="line2d_8">
      <defs>
       <path id="m008fac5cd8" d="M 0 0 
L -2 0 
" style="stroke: #000000; stroke-width: 0.35"/>
      </defs>
      <g>
       <use xlink:href="#m008fac5cd8" x="41.565674" y="109.003145" style="stroke: #000000; stroke-width: 0.35"/>
      </g>
     </g>
     <g id="text_9">
      <!-- $\mathdefault{−0.001}$ -->
      <g transform="translate(10.690112 111.770546) scale(0.08 -0.08)">
       <defs>
        <path id="CMMI12-3a" d="M 1178 307 
C 1178 492 1024 619 870 619 
C 685 619 557 466 557 313 
C 557 128 710 0 864 0 
C 1050 0 1178 153 1178 307 
z
" transform="scale(0.015625)"/>
        <path id="CMR17-31" d="M 1702 4058 
C 1702 4192 1696 4192 1606 4192 
C 1357 3916 979 3827 621 3827 
C 602 3827 570 3827 563 3808 
C 557 3795 557 3782 557 3648 
C 755 3648 1088 3686 1344 3839 
L 1344 461 
C 1344 236 1331 160 781 160 
L 589 160 
L 589 0 
C 896 0 1216 0 1523 0 
C 1830 0 2150 0 2458 0 
L 2458 160 
L 2266 160 
C 1715 160 1702 230 1702 458 
L 1702 4058 
z
" transform="scale(0.015625)"/>
       </defs>
       <use xlink:href="#CMSY10-0" transform="scale(0.996264)"/>
       <use xlink:href="#CMR17-30" transform="translate(77.487468 0) scale(0.996264)"/>
       <use xlink:href="#CMMI12-3a" transform="translate(123.177945 0) scale(0.996264)"/>
       <use xlink:href="#CMR17-30" transform="translate(150.275122 0) scale(0.996264)"/>
       <use xlink:href="#CMR17-30" transform="translate(195.965599 0) scale(0.996264)"/>
       <use xlink:href="#CMR17-31" transform="translate(241.656076 0) scale(0.996264)"/>
      </g>
     </g>
    </g>
    <g id="ytick_2">
     <g id="line2d_9">
      <g>
       <use xlink:href="#m008fac5cd8" x="41.565674" y="80.46886" style="stroke: #000000; stroke-width: 0.35"/>
      </g>
     </g>
     <g id="text_10">
      <!-- $\mathdefault{0.000}$ -->
      <g transform="translate(17.276619 83.236261) scale(0.08 -0.08)">
       <use xlink:href="#CMR17-30" transform="scale(0.996264)"/>
       <use xlink:href="#CMMI12-3a" transform="translate(45.690477 0) scale(0.996264)"/>
       <use xlink:href="#CMR17-30" transform="translate(72.787654 0) scale(0.996264)"/>
       <use xlink:href="#CMR17-30" transform="translate(118.478131 0) scale(0.996264)"/>
       <use xlink:href="#CMR17-30" transform="translate(164.168608 0) scale(0.996264)"/>
      </g>
     </g>
    </g>
    <g id="ytick_3">
     <g id="line2d_10">
      <g>
       <use xlink:href="#m008fac5cd8" x="41.565674" y="51.934575" style="stroke: #000000; stroke-width: 0.35"/>
      </g>
     </g>
     <g id="text_11">
      <!-- $\mathdefault{0.001}$ -->
      <g transform="translate(17.276619 54.701976) scale(0.08 -0.08)">
       <use xlink:href="#CMR17-30" transform="scale(0.996264)"/>
       <use xlink:href="#CMMI12-3a" transform="translate(45.690477 0) scale(0.996264)"/>
       <use xlink:href="#CMR17-30" transform="translate(72.787654 0) scale(0.996264)"/>
       <use xlink:href="#CMR17-30" transform="translate(118.478131 0) scale(0.996264)"/>
       <use xlink:href="#CMR17-31" transform="translate(164.168608 0) scale(0.996264)"/>
      </g>
     </g>
    </g>
    <g id="ytick_4">
     <g id="line2d_11">
      <g>
       <use xlink:href="#m008fac5cd8" x="41.565674" y="23.400291" style="stroke: #000000; stroke-width: 0.35"/>
      </g>
     </g>
     <g id="text_12">
      <!-- $\mathdefault{0.002}$ -->
      <g transform="translate(17.276619 26.167691) scale(0.08 -0.08)">
       <use xlink:href="#CMR17-30" transform="scale(0.996264)"/>
       <use xlink:href="#CMMI12-3a" transform="translate(45.690477 0) scale(0.996264)"/>
       <use xlink:href="#CMR17-30" transform="translate(72.787654 0) scale(0.996264)"/>
       <use xlink:href="#CMR17-30" transform="translate(118.478131 0) scale(0.996264)"/>
       <use xlink:href="#CMR17-32" transform="translate(164.168608 0) scale(0.996264)"/>
      </g>
     </g>
    </g>
    <g id="text_13">
     <!-- $\delta\rho(\xi) =\rho(\xi)+n_0\rho_1(\xi)$ -->
     <g transform="translate(6.697584 108.875695) rotate(-90) scale(0.08 -0.08)">
      <defs>
       <path id="CMMI12-e" d="M 1664 2795 
C 845 2597 256 1748 256 1001 
C 256 319 717 -64 1229 -64 
C 1984 -64 2496 970 2496 1818 
C 2496 2392 2227 2744 2067 2954 
C 1830 3254 1446 3746 1446 4052 
C 1446 4161 1530 4352 1811 4352 
C 2010 4352 2131 4282 2323 4173 
C 2381 4134 2528 4052 2611 4052 
C 2746 4052 2842 4185 2842 4287 
C 2842 4409 2746 4428 2522 4479 
C 2221 4543 2131 4543 2022 4543 
C 1914 4543 1286 4543 1286 3892 
C 1286 3579 1446 3216 1664 2795 
z
M 1734 2669 
C 1978 2165 2074 1974 2074 1560 
C 2074 1063 1805 63 1235 63 
C 986 63 627 229 627 821 
C 627 1235 864 2439 1734 2669 
z
" transform="scale(0.015625)"/>
       <path id="CMMI12-1a" d="M 198 -1107 
C 192 -1139 179 -1177 179 -1216 
C 179 -1312 256 -1376 352 -1376 
C 448 -1376 538 -1312 576 -1222 
C 602 -1164 781 -397 986 390 
C 1114 70 1350 -64 1600 -64 
C 2323 -64 3142 830 3142 1795 
C 3142 2478 2726 2816 2285 2816 
C 1722 2816 1037 2235 826 1385 
L 198 -1107 
z
M 1594 64 
C 1158 64 1050 569 1050 645 
C 1050 684 1210 1295 1229 1391 
C 1555 2670 2182 2670 2278 2670 
C 2566 2670 2726 2410 2726 2036 
C 2726 1712 2554 1084 2445 819 
C 2253 381 1920 64 1594 64 
z
" transform="scale(0.015625)"/>
       <path id="CMR17-28" d="M 1958 -1561 
C 1958 -1555 1958 -1542 1939 -1523 
C 1645 -1224 858 -407 858 1581 
C 858 3569 1632 4379 1946 4697 
C 1946 4704 1958 4717 1958 4736 
C 1958 4755 1939 4768 1914 4768 
C 1843 4768 1299 4296 986 3594 
C 666 2887 576 2199 576 1588 
C 576 1128 621 351 1005 -471 
C 1312 -1135 1837 -1600 1914 -1600 
C 1946 -1600 1958 -1587 1958 -1561 
z
" transform="scale(0.015625)"/>
       <path id="CMR17-29" d="M 1683 1581 
C 1683 2040 1638 2817 1254 3639 
C 947 4303 422 4768 346 4768 
C 326 4768 301 4761 301 4729 
C 301 4717 307 4710 314 4697 
C 621 4378 1402 3568 1402 1584 
C 1402 -407 627 -1217 314 -1537 
C 307 -1549 301 -1556 301 -1568 
C 301 -1600 326 -1600 346 -1600 
C 416 -1600 960 -1128 1274 -426 
C 1594 281 1683 969 1683 1581 
z
" transform="scale(0.015625)"/>
       <path id="CMR17-3d" d="M 4115 2017 
C 4211 2017 4307 2017 4307 2125 
C 4307 2240 4198 2240 4090 2240 
L 512 2240 
C 403 2240 294 2240 294 2125 
C 294 2017 390 2017 486 2017 
L 4115 2017 
z
M 4090 896 
C 4198 896 4307 896 4307 1011 
C 4307 1119 4211 1119 4115 1119 
L 486 1119 
C 390 1119 294 1119 294 1011 
C 294 896 403 896 512 896 
L 4090 896 
z
" transform="scale(0.015625)"/>
       <path id="CMR17-2b" d="M 2413 1472 
L 4109 1472 
C 4198 1472 4307 1472 4307 1580 
C 4307 1695 4205 1695 4109 1695 
L 2413 1695 
L 2413 3386 
C 2413 3475 2413 3584 2304 3584 
C 2189 3584 2189 3482 2189 3386 
L 2189 1695 
L 493 1695 
C 403 1695 294 1695 294 1587 
C 294 1472 397 1472 493 1472 
L 2189 1472 
L 2189 -218 
C 2189 -307 2189 -416 2298 -416 
C 2413 -416 2413 -314 2413 -218 
L 2413 1472 
z
" transform="scale(0.015625)"/>
       <path id="CMMI12-6e" d="M 1318 1871 
C 1331 1910 1491 2229 1728 2433 
C 1894 2586 2112 2689 2362 2689 
C 2618 2689 2707 2497 2707 2242 
C 2707 1878 2445 1150 2317 805 
C 2259 651 2227 568 2227 453 
C 2227 166 2426 -64 2733 -64 
C 3328 -64 3552 875 3552 913 
C 3552 945 3526 971 3488 971 
C 3430 971 3424 952 3392 843 
C 3245 319 3002 64 2752 64 
C 2688 64 2586 64 2586 269 
C 2586 429 2656 621 2694 710 
C 2822 1063 3091 1780 3091 2145 
C 3091 2528 2867 2816 2381 2816 
C 1811 2816 1510 2415 1395 2255 
C 1376 2618 1114 2816 832 2816 
C 627 2816 486 2695 378 2478 
C 262 2248 173 1865 173 1839 
C 173 1814 198 1782 243 1782 
C 294 1782 301 1788 339 1935 
C 442 2325 557 2689 813 2689 
C 960 2689 1011 2586 1011 2395 
C 1011 2254 947 2005 902 1807 
L 723 1118 
C 698 996 627 709 595 594 
C 550 428 480 128 480 96 
C 480 6 550 -64 646 -64 
C 723 -64 813 -26 864 70 
C 877 102 934 326 966 453 
L 1107 1028 
L 1318 1871 
z
" transform="scale(0.015625)"/>
      </defs>
      <use xlink:href="#CMMI12-e" transform="scale(0.996264)"/>
      <use xlink:href="#CMMI12-1a" transform="translate(46.941386 0) scale(0.996264)"/>
      <use xlink:href="#CMR17-28" transform="translate(97.255759 0) scale(0.996264)"/>
      <use xlink:href="#CMMI12-18" transform="translate(132.536527 0) scale(0.996264)"/>
      <use xlink:href="#CMR17-29" transform="translate(179.95686 0) scale(0.996264)"/>
      <use xlink:href="#CMR17-3d" transform="translate(242.911637 0) scale(0.996264)"/>
      <use xlink:href="#CMMI12-1a" transform="translate(342.300434 0) scale(0.996264)"/>
      <use xlink:href="#CMR17-28" transform="translate(392.614807 0) scale(0.996264)"/>
      <use xlink:href="#CMMI12-18" transform="translate(427.895575 0) scale(0.996264)"/>
      <use xlink:href="#CMR17-29" transform="translate(475.315908 0) scale(0.996264)"/>
      <use xlink:href="#CMR17-2b" transform="translate(532.735883 0) scale(0.996264)"/>
      <use xlink:href="#CMMI12-6e" transform="translate(626.589878 0) scale(0.996264)"/>
      <use xlink:href="#CMR17-30" transform="translate(684.819926 -14.943915) scale(0.697382)"/>
      <use xlink:href="#CMMI12-1a" transform="translate(717.30124 0) scale(0.996264)"/>
      <use xlink:href="#CMR17-31" transform="translate(767.615613 -14.943915) scale(0.697382)"/>
      <use xlink:href="#CMR17-28" transform="translate(800.096927 0) scale(0.996264)"/>
      <use xlink:href="#CMMI12-18" transform="translate(835.377694 0) scale(0.996264)"/>
      <use xlink:href="#CMR17-29" transform="translate(882.798028 0) scale(0.996264)"/>
     </g>
    </g>
   </g>
   <g id="line2d_12">
    <path d="M 41.565674 97.433079 
L 42.785579 97.330952 
L 44.005485 97.01397 
L 45.22539 96.48597 
L 46.648613 95.612067 
L 48.071836 94.474596 
L 49.698376 92.876754 
L 51.528234 90.742171 
L 53.56141 88.022785 
L 56.204538 84.092784 
L 64.743875 71.055612 
L 66.777051 68.491414 
L 68.606909 66.532956 
L 70.233449 65.118231 
L 71.656672 64.159531 
L 73.079895 63.479824 
L 74.2998 63.129064 
L 75.519706 62.997885 
L 76.739611 63.088729 
L 77.959516 63.401283 
L 79.179422 63.932467 
L 80.602644 64.820607 
L 82.025867 65.984506 
L 83.652408 67.628358 
L 85.482266 69.835596 
L 87.515441 72.661858 
L 90.158569 76.770316 
L 99.307859 91.470834 
L 101.341035 94.123065 
L 103.170893 96.128295 
L 104.797433 97.555814 
L 106.220656 98.50161 
L 107.440562 99.071777 
L 108.660467 99.410304 
L 109.880372 99.510933 
L 111.100278 99.370241 
L 112.320183 98.987702 
L 113.540088 98.36572 
L 114.759994 97.509618 
L 116.183216 96.226043 
L 117.606439 94.652973 
L 119.23298 92.530267 
L 121.062838 89.77836 
L 123.299331 85.992196 
L 126.349094 80.339735 
L 132.041986 69.702766 
L 134.278479 66.038533 
L 136.108337 63.459113 
L 137.734877 61.56458 
L 139.1581 60.262059 
L 140.378005 59.435204 
L 141.597911 58.892102 
L 142.614499 58.663901 
L 143.631086 58.643099 
L 144.647674 58.829977 
L 145.664262 59.222022 
L 146.884167 59.955766 
L 148.104073 60.963526 
L 149.527295 62.46084 
L 151.153836 64.551888 
L 152.983694 67.314121 
L 155.220187 71.141551 
L 158.473268 77.227015 
L 163.352889 86.352164 
L 165.7927 90.419954 
L 167.825875 93.364594 
L 169.452416 95.361238 
L 171.078956 96.996227 
L 172.502179 98.106019 
L 173.722084 98.806777 
L 174.94199 99.269541 
L 176.161895 99.490935 
L 177.3818 99.470509 
L 178.601706 99.210723 
L 179.821611 98.716903 
L 181.041516 97.99715 
L 182.464739 96.886394 
L 183.887962 95.504299 
L 185.514503 93.625673 
L 187.344361 91.184498 
L 189.580854 87.831427 
L 192.833935 82.513498 
L 197.916873 74.194292 
L 200.356684 70.64595 
L 202.38986 68.08788 
L 204.0164 66.365218 
L 205.642941 64.970378 
L 207.066163 64.041885 
L 208.489386 63.401283 
L 209.709292 63.088729 
L 210.929197 62.997885 
L 212.149102 63.129064 
L 213.369008 63.479824 
L 214.588913 64.045 
L 216.012136 64.964804 
L 217.435359 66.148941 
L 219.061899 67.798541 
L 220.891757 69.986141 
L 223.12825 73.046877 
L 225.974696 77.360321 
L 232.887493 88.022785 
L 235.123986 90.995282 
L 236.953844 93.092785 
L 238.580384 94.652547 
L 240.003607 95.753441 
L 241.42683 96.588381 
L 242.850053 97.143321 
L 244.069958 97.388979 
L 244.883229 97.433079 
L 244.883229 97.433079 
" clip-path="url(#p93cfdd02a6)" style="fill: none; stroke: #524582; stroke-linecap: round"/>
   </g>
   <g id="line2d_13">
    <path d="M 41.565674 102.063952 
L 42.582262 102.01751 
L 43.598849 101.780085 
L 44.818755 101.24487 
L 46.03866 100.441624 
L 47.258565 99.378898 
L 48.681788 97.827055 
L 50.308329 95.672206 
L 52.138187 92.816023 
L 54.171362 89.196448 
L 56.814491 83.984689 
L 65.15051 67.127532 
L 67.183686 63.707493 
L 68.810226 61.356708 
L 70.233449 59.629688 
L 71.656672 58.245189 
L 72.876577 57.352063 
L 74.096483 56.744712 
L 75.11307 56.46455 
L 76.129658 56.394374 
L 77.146246 56.536627 
L 78.162834 56.891964 
L 79.179422 57.459235 
L 80.399327 58.415424 
L 81.619232 59.663925 
L 83.042455 61.473514 
L 84.465678 63.638833 
L 86.092218 66.508209 
L 88.125394 70.603095 
L 90.565205 76.089132 
L 94.428238 85.443844 
L 98.291272 94.620579 
L 100.527765 99.39547 
L 102.357623 102.819324 
L 103.984163 105.404257 
L 105.407386 107.256596 
L 106.627291 108.508441 
L 107.847197 109.427534 
L 108.863785 109.926239 
L 109.880372 110.17299 
L 110.89696 110.161297 
L 111.913548 109.886634 
L 112.930136 109.346512 
L 113.946723 108.540521 
L 114.963311 107.470375 
L 116.183216 105.843104 
L 117.403122 103.851916 
L 118.826345 101.089558 
L 120.452885 97.393149 
L 122.282743 92.620659 
L 124.315919 86.682602 
L 126.959047 78.252014 
L 133.668526 56.489622 
L 135.498384 51.39942 
L 137.124925 47.510281 
L 138.548147 44.716674 
L 139.768053 42.843994 
L 140.784641 41.686398 
L 141.597911 41.039014 
L 142.411181 40.647553 
L 143.224451 40.524751 
L 143.834404 40.590273 
L 144.647674 40.916928 
L 145.460944 41.500917 
L 146.274215 42.335536 
L 147.290802 43.716711 
L 148.510708 45.837922 
L 149.730613 48.417812 
L 151.153836 51.931131 
L 152.983694 57.093064 
L 155.423505 64.754981 
L 163.352889 90.317053 
L 165.386065 95.870082 
L 167.215923 100.217458 
L 168.842463 103.485678 
L 170.265686 105.843104 
L 171.485591 107.470375 
L 172.705497 108.722938 
L 173.722084 109.475823 
L 174.738672 109.962754 
L 175.75526 110.184557 
L 176.771848 110.144136 
L 177.788436 109.846413 
L 178.805023 109.298264 
L 179.821611 108.508441 
L 181.041516 107.256596 
L 182.261422 105.693383 
L 183.684645 103.50906 
L 185.311185 100.591469 
L 187.141043 96.859761 
L 189.580854 91.334354 
L 194.05384 80.46886 
L 197.306921 72.825497 
L 199.543414 68.084284 
L 201.373272 64.668092 
L 202.999812 62.057148 
L 204.423035 60.143049 
L 205.846258 58.603492 
L 207.066163 57.597893 
L 208.286069 56.891964 
L 209.302657 56.536627 
L 210.319244 56.394374 
L 211.335832 56.46455 
L 212.35242 56.744712 
L 213.369008 57.230667 
L 214.588913 58.077036 
L 215.808818 59.197859 
L 217.232041 60.830143 
L 218.858582 63.084863 
L 220.68844 66.051721 
L 222.924933 70.170451 
L 225.771378 75.92553 
L 232.074223 88.813003 
L 234.310716 92.816023 
L 236.140574 95.672206 
L 237.767114 97.827055 
L 239.190337 99.378898 
L 240.61356 100.59379 
L 241.833465 101.352868 
L 243.053371 101.842816 
L 244.273276 102.059016 
L 244.883229 102.063952 
L 244.883229 102.063952 
" clip-path="url(#p93cfdd02a6)" style="fill: none; stroke: #367bc3; stroke-linecap: round"/>
   </g>
   <g id="line2d_14">
    <path d="M 41.565674 103.605789 
L 42.582262 103.573553 
L 43.598849 103.336482 
L 44.615437 102.895378 
L 45.835343 102.100473 
L 47.055248 101.023324 
L 48.478471 99.425233 
L 49.901694 97.482446 
L 51.528234 94.878716 
L 53.358092 91.525409 
L 55.594585 86.943839 
L 58.847666 79.697071 
L 63.930605 68.375779 
L 66.167098 63.941538 
L 67.996956 60.765724 
L 69.623496 58.369365 
L 71.046719 56.651268 
L 72.266625 55.487502 
L 73.48653 54.628055 
L 74.503118 54.154911 
L 75.519706 53.909703 
L 76.536293 53.897014 
L 77.552881 54.119507 
L 78.569469 54.577888 
L 79.586057 55.27088 
L 80.805962 56.407416 
L 82.025867 57.867572 
L 83.44909 59.961938 
L 84.872313 62.450199 
L 86.498854 65.730984 
L 88.532029 70.394401 
L 90.97184 76.622746 
L 95.038191 87.778324 
L 98.697907 97.583853 
L 100.9344 102.967272 
L 102.764258 106.817854 
L 104.390798 109.714112 
L 105.814021 111.777364 
L 107.033927 113.158799 
L 108.050514 114.017418 
L 109.067102 114.596421 
L 110.08369 114.885091 
L 110.89696 114.90111 
L 111.71023 114.722327 
L 112.523501 114.346246 
L 113.540088 113.596433 
L 114.556676 112.535125 
L 115.573264 111.163883 
L 116.793169 109.115155 
L 118.013074 106.637872 
L 119.436297 103.229168 
L 121.062838 98.6951 
L 122.892696 92.865535 
L 124.925871 85.632713 
L 127.772317 74.573164 
L 133.668526 51.308167 
L 135.701702 44.352065 
L 137.328242 39.609238 
L 138.548147 36.657516 
L 139.768053 34.305915 
L 140.784641 32.849284 
L 141.597911 32.033659 
L 142.411181 31.540115 
L 143.021134 31.385235 
L 143.834404 31.467876 
L 144.444357 31.746142 
L 145.257627 32.401758 
L 146.070897 33.374845 
L 147.087485 35.019047 
L 148.104073 37.109634 
L 149.323978 40.154577 
L 150.747201 44.352065 
L 152.373741 49.842133 
L 154.610234 58.246935 
L 163.352889 92.175136 
L 165.386065 98.6951 
L 167.012605 103.229168 
L 168.435828 106.637872 
L 169.859051 109.486754 
L 171.078956 111.462768 
L 172.298862 112.996983 
L 173.315449 113.933743 
L 174.332037 114.559068 
L 175.145307 114.836247 
L 175.958578 114.917259 
L 176.771848 114.805064 
L 177.585118 114.503534 
L 178.601706 113.867685 
L 179.618294 112.954605 
L 180.838199 111.511496 
L 182.058104 109.714112 
L 183.481327 107.208862 
L 185.107868 103.87139 
L 186.937726 99.614265 
L 189.377536 93.330247 
L 194.257157 79.912974 
L 197.306921 71.896018 
L 199.543414 66.617269 
L 201.373272 62.83586 
L 202.999812 59.961938 
L 204.423035 57.867572 
L 205.642941 56.407416 
L 206.862846 55.27088 
L 208.082751 54.467374 
L 209.099339 54.056132 
L 210.115927 53.880795 
L 211.132515 53.940262 
L 212.149102 54.231485 
L 213.16569 54.749501 
L 214.385595 55.660775 
L 215.605501 56.873597 
L 217.028724 58.644681 
L 218.451946 60.765724 
L 220.078487 63.566326 
L 222.111662 67.532104 
L 224.754791 73.233336 
L 232.684175 90.727561 
L 234.717351 94.526929 
L 236.547209 97.482446 
L 238.173749 99.67526 
L 239.596972 101.222011 
L 240.816877 102.252812 
L 242.036783 102.999823 
L 243.256688 103.455879 
L 244.273276 103.611014 
L 244.883229 103.605789 
L 244.883229 103.605789 
" clip-path="url(#p93cfdd02a6)" style="fill: none; stroke: #38bfa7; stroke-linecap: round"/>
   </g>
   <g id="line2d_15">
    <path d="M 41.565674 106.102864 
L 42.582262 106.107175 
L 43.598849 105.884139 
L 44.615437 105.433572 
L 45.632025 104.75724 
L 46.85193 103.653004 
L 48.071836 102.239227 
L 49.495059 100.217542 
L 51.121599 97.452028 
L 52.951457 93.825609 
L 54.984633 89.265321 
L 57.627761 82.738528 
L 65.557145 62.72169 
L 67.590321 58.400161 
L 69.216861 55.416813 
L 70.640084 53.217299 
L 71.85999 51.673391 
L 73.079895 50.470841 
L 74.096483 49.744735 
L 75.11307 49.280352 
L 76.129658 49.08567 
L 77.146246 49.166528 
L 78.162834 49.526552 
L 79.179422 50.167099 
L 80.196009 51.08721 
L 81.212597 52.283592 
L 82.432502 54.075825 
L 83.652408 56.243483 
L 85.075631 59.22142 
L 86.702171 63.169673 
L 88.532029 68.222022 
L 90.768522 75.106213 
L 93.818285 85.312067 
L 99.511177 104.480878 
L 101.74767 111.136788 
L 103.577528 115.875589 
L 105.000751 119.009971 
L 106.220656 121.253929 
L 107.440562 123.046439 
L 108.457149 124.168763 
L 109.473737 124.933056 
L 110.287007 125.275368 
L 111.100278 125.370289 
L 111.913548 125.211373 
L 112.726818 124.793262 
L 113.540088 124.111732 
L 114.353358 123.16374 
L 115.369946 121.601386 
L 116.386534 119.619175 
L 117.606439 116.69 
L 118.826345 113.170543 
L 120.249568 108.342642 
L 121.876108 101.924909 
L 123.705966 93.660936 
L 125.739142 83.374512 
L 128.38227 68.735637 
L 134.685114 33.189219 
L 136.514972 24.422421 
L 137.938195 18.634582 
L 139.1581 14.568324 
L 140.174688 11.901986 
L 140.987958 10.283532 
L 141.801228 9.147823 
L 142.411181 8.623047 
L 143.021134 8.383622 
L 143.631086 8.431551 
L 144.241039 8.766434 
L 144.850992 9.385471 
L 145.664262 10.643682 
L 146.477532 12.379463 
L 147.49412 15.182936 
L 148.510708 18.634582 
L 149.730613 23.533992 
L 151.357153 31.133194 
L 153.390329 41.883741 
L 156.846727 61.699045 
L 160.506443 82.291961 
L 162.742937 93.660936 
L 164.572794 101.924909 
L 166.199335 108.342642 
L 167.622558 113.170543 
L 169.045781 117.219562 
L 170.265686 120.049135 
L 171.282274 121.947467 
L 172.298862 123.42584 
L 173.315449 124.485643 
L 174.12872 125.035008 
L 174.94199 125.322921 
L 175.75526 125.35418 
L 176.56853 125.134692 
L 177.3818 124.671427 
L 178.195071 123.972364 
L 179.211658 122.780644 
L 180.228246 121.253929 
L 181.448152 119.009971 
L 182.871374 115.875589 
L 184.497915 111.698379 
L 186.327773 106.374723 
L 188.767583 98.531222 
L 197.916873 68.222022 
L 199.950049 62.64647 
L 201.576589 58.767651 
L 202.999812 55.85688 
L 204.423035 53.435902 
L 205.642941 51.772195 
L 206.862846 50.501728 
L 207.879434 49.74911 
L 208.896021 49.27691 
L 209.912609 49.084695 
L 210.929197 49.169739 
L 211.945785 49.527081 
L 212.962372 50.149588 
L 213.97896 51.028043 
L 215.198866 52.404136 
L 216.418771 54.109678 
L 217.841994 56.480412 
L 219.468534 59.633605 
L 221.50171 64.124333 
L 223.94152 70.094687 
L 232.684175 92.06131 
L 234.717351 96.299947 
L 236.343891 99.234932 
L 237.970432 101.701497 
L 239.393655 103.438539 
L 240.61356 104.595175 
L 241.833465 105.433572 
L 242.850053 105.884139 
L 243.866641 106.107175 
L 244.883229 106.102864 
L 244.883229 106.102864 
" clip-path="url(#p93cfdd02a6)" style="fill: none; stroke: #8fe182; stroke-linecap: round"/>
   </g>
   <g id="line2d_16">
    <path d="M 41.565674 80.46886 
L 244.883229 80.46886 
" clip-path="url(#p93cfdd02a6)" style="fill: none; stroke-dasharray: 0.8,1.32; stroke-dashoffset: 0; stroke: #808080; stroke-width: 0.8; stroke-linecap: round"/>
   </g>
   <g id="line2d_17">
    <path d="M 143.224451 131.219622 
L 143.224451 2.534288 
" clip-path="url(#p93cfdd02a6)" style="fill: none; stroke-dasharray: 0.8,1.32; stroke-dashoffset: 0; stroke: #808080; stroke-width: 0.8; stroke-linecap: round"/>
   </g>
   <g id="patch_3">
    <path d="M 41.565674 131.219622 
L 41.565674 2.534288 
" style="fill: none; stroke: #000000; stroke-width: 0.35; stroke-linejoin: miter; stroke-linecap: square"/>
   </g>
   <g id="patch_4">
    <path d="M 244.883229 131.219622 
L 244.883229 2.534288 
" style="fill: none; stroke: #000000; stroke-width: 0.35; stroke-linejoin: miter; stroke-linecap: square"/>
   </g>
   <g id="patch_5">
    <path d="M 41.565674 131.219622 
L 244.883229 131.219622 
" style="fill: none; stroke: #000000; stroke-width: 0.35; stroke-linejoin: miter; stroke-linecap: square"/>
   </g>
   <g id="patch_6">
    <path d="M 41.565674 2.534288 
L 244.883229 2.534288 
" style="fill: none; stroke: #000000; stroke-width: 0.35; stroke-linejoin: miter; stroke-linecap: square"/>
   </g>
   <g id="legend_1">
    <g id="line2d_18">
     <path d="M 44.765674 7.097584 
L 54.765674 7.097584 
L 64.765674 7.097584 
" style="fill: none; stroke: #524582; stroke-linecap: round"/>
    </g>
    <g id="text_14">
     <!-- $K=4/5$ -->
     <g transform="translate(68.765674 9.897584) scale(0.08 -0.08)">
      <defs>
       <path id="CMMI12-4b" d="M 3200 2571 
C 3194 2590 3168 2641 3168 2661 
C 3168 2667 3174 2673 3283 2756 
L 3904 3242 
C 4762 3905 5043 4128 5485 4167 
C 5530 4167 5594 4167 5594 4282 
C 5594 4320 5574 4352 5523 4352 
C 5453 4352 5376 4352 5306 4352 
L 5062 4352 
C 4864 4352 4653 4352 4461 4352 
C 4416 4352 4339 4352 4339 4237 
C 4339 4173 4384 4167 4422 4167 
C 4493 4160 4576 4135 4576 4046 
C 4576 3919 4384 3765 4333 3727 
L 1824 1784 
L 2355 3887 
C 2413 4103 2426 4167 2880 4167 
C 3002 4167 3059 4167 3059 4288 
C 3059 4352 2995 4352 2963 4352 
C 2848 4352 2714 4352 2592 4352 
L 1837 4352 
C 1722 4352 1581 4352 1466 4352 
C 1414 4352 1344 4352 1344 4231 
C 1344 4167 1402 4167 1498 4167 
C 1888 4167 1888 4116 1888 4046 
C 1888 4034 1888 3995 1862 3899 
L 998 472 
C 941 249 928 185 480 185 
C 358 185 294 185 294 70 
C 294 0 352 0 390 0 
C 512 0 640 0 762 0 
L 1510 0 
C 1632 0 1766 0 1888 0 
C 1939 0 2010 0 2010 121 
C 2010 185 1952 185 1856 185 
C 1466 185 1466 236 1466 300 
C 1466 345 1504 504 1530 606 
L 1779 1593 
L 2752 2351 
C 2938 1943 3277 1128 3539 505 
C 3558 466 3571 428 3571 383 
C 3571 185 3315 185 3258 185 
C 3200 185 3136 185 3136 64 
C 3136 0 3206 0 3226 0 
C 3450 0 3686 0 3910 0 
L 4218 0 
C 4314 0 4422 0 4518 0 
C 4557 0 4627 0 4627 121 
C 4627 185 4570 185 4506 185 
C 4269 185 4186 236 4090 466 
L 3200 2571 
z
" transform="scale(0.015625)"/>
       <path id="CMMI12-3d" d="M 2746 4562 
C 2746 4569 2784 4666 2784 4678 
C 2784 4755 2720 4800 2669 4800 
C 2637 4800 2579 4800 2528 4659 
L 384 -1363 
C 384 -1370 346 -1465 346 -1478 
C 346 -1555 410 -1600 461 -1600 
C 499 -1600 557 -1593 602 -1459 
L 2746 4562 
z
" transform="scale(0.015625)"/>
       <path id="CMR17-35" d="M 730 3692 
C 794 3666 1056 3584 1325 3584 
C 1920 3584 2246 3911 2432 4100 
C 2432 4157 2432 4192 2394 4192 
C 2387 4192 2374 4192 2323 4163 
C 2099 4058 1837 3973 1517 3973 
C 1325 3973 1037 3999 723 4139 
C 653 4171 640 4171 634 4171 
C 602 4171 595 4164 595 4037 
L 595 2203 
C 595 2089 595 2057 659 2057 
C 691 2057 704 2070 736 2114 
C 941 2401 1222 2522 1542 2522 
C 1766 2522 2246 2382 2246 1289 
C 2246 1085 2246 715 2054 421 
C 1894 159 1645 25 1370 25 
C 947 25 518 320 403 814 
C 429 807 480 795 506 795 
C 589 795 749 840 749 1038 
C 749 1210 627 1280 506 1280 
C 358 1280 262 1190 262 1011 
C 262 454 704 -128 1382 -128 
C 2042 -128 2669 440 2669 1264 
C 2669 2030 2170 2624 1549 2624 
C 1222 2624 947 2503 730 2274 
L 730 3692 
z
" transform="scale(0.015625)"/>
      </defs>
      <use xlink:href="#CMMI12-4b" transform="scale(0.996264)"/>
      <use xlink:href="#CMR17-3d" transform="translate(117.82143 0) scale(0.996264)"/>
      <use xlink:href="#CMR17-34" transform="translate(217.210227 0) scale(0.996264)"/>
      <use xlink:href="#CMMI12-3d" transform="translate(262.900704 0) scale(0.996264)"/>
      <use xlink:href="#CMR17-35" transform="translate(311.675623 0) scale(0.996264)"/>
     </g>
    </g>
    <g id="line2d_19">
     <path d="M 44.765674 17.067696 
L 54.765674 17.067696 
L 64.765674 17.067696 
" style="fill: none; stroke: #367bc3; stroke-linecap: round"/>
    </g>
    <g id="text_15">
     <!-- $K=2/3$ -->
     <g transform="translate(68.765674 19.867696) scale(0.08 -0.08)">
      <defs>
       <path id="CMR17-33" d="M 1414 2157 
C 1984 2157 2234 1662 2234 1090 
C 2234 320 1824 25 1453 25 
C 1114 25 563 194 390 693 
C 422 680 454 680 486 680 
C 640 680 755 782 755 948 
C 755 1133 614 1216 486 1216 
C 378 1216 211 1165 211 926 
C 211 335 787 -128 1466 -128 
C 2176 -128 2720 430 2720 1085 
C 2720 1707 2208 2157 1600 2227 
C 2086 2328 2554 2756 2554 3329 
C 2554 3820 2048 4179 1472 4179 
C 890 4179 378 3829 378 3329 
C 378 3110 544 3072 627 3072 
C 762 3072 877 3155 877 3321 
C 877 3486 762 3569 627 3569 
C 602 3569 570 3569 544 3557 
C 730 3959 1235 4032 1459 4032 
C 1683 4032 2106 3925 2106 3320 
C 2106 3143 2080 2828 1862 2550 
C 1670 2304 1453 2304 1242 2284 
C 1210 2284 1062 2269 1037 2269 
C 992 2263 966 2257 966 2208 
C 966 2163 973 2157 1101 2157 
L 1414 2157 
z
" transform="scale(0.015625)"/>
      </defs>
      <use xlink:href="#CMMI12-4b" transform="scale(0.996264)"/>
      <use xlink:href="#CMR17-3d" transform="translate(117.82143 0) scale(0.996264)"/>
      <use xlink:href="#CMR17-32" transform="translate(217.210227 0) scale(0.996264)"/>
      <use xlink:href="#CMMI12-3d" transform="translate(262.900704 0) scale(0.996264)"/>
      <use xlink:href="#CMR17-33" transform="translate(311.675623 0) scale(0.996264)"/>
     </g>
    </g>
    <g id="line2d_20">
     <path d="M 44.765674 27.037808 
L 54.765674 27.037808 
L 64.765674 27.037808 
" style="fill: none; stroke: #38bfa7; stroke-linecap: round"/>
    </g>
    <g id="text_16">
     <!-- $K=5/8$ -->
     <g transform="translate(68.765674 29.837808) scale(0.08 -0.08)">
      <defs>
       <path id="CMR17-38" d="M 1741 2264 
C 2144 2467 2554 2773 2554 3263 
C 2554 3841 1990 4179 1472 4179 
C 890 4179 378 3759 378 3180 
C 378 3021 416 2747 666 2505 
C 730 2442 998 2251 1171 2130 
C 883 1983 211 1634 211 934 
C 211 279 838 -128 1459 -128 
C 2144 -128 2720 362 2720 1010 
C 2720 1590 2330 1857 2074 2029 
L 1741 2264 
z
M 902 2822 
C 851 2854 595 3051 595 3351 
C 595 3739 998 4032 1459 4032 
C 1965 4032 2336 3676 2336 3262 
C 2336 2669 1670 2331 1638 2331 
C 1632 2331 1626 2331 1574 2370 
L 902 2822 
z
M 2080 1519 
C 2176 1449 2483 1240 2483 851 
C 2483 381 2010 25 1472 25 
C 890 25 448 438 448 940 
C 448 1443 838 1862 1280 2060 
L 2080 1519 
z
" transform="scale(0.015625)"/>
      </defs>
      <use xlink:href="#CMMI12-4b" transform="scale(0.996264)"/>
      <use xlink:href="#CMR17-3d" transform="translate(117.82143 0) scale(0.996264)"/>
      <use xlink:href="#CMR17-35" transform="translate(217.210227 0) scale(0.996264)"/>
      <use xlink:href="#CMMI12-3d" transform="translate(262.900704 0) scale(0.996264)"/>
      <use xlink:href="#CMR17-38" transform="translate(311.675623 0) scale(0.996264)"/>
     </g>
    </g>
    <g id="line2d_21">
     <path d="M 44.765674 37.00792 
L 54.765674 37.00792 
L 64.765674 37.00792 
" style="fill: none; stroke: #8fe182; stroke-linecap: round"/>
    </g>
    <g id="text_17">
     <!-- $K=11/20$ -->
     <g transform="translate(68.765674 39.80792) scale(0.08 -0.08)">
      <use xlink:href="#CMMI12-4b" transform="scale(0.996264)"/>
      <use xlink:href="#CMR17-3d" transform="translate(117.82143 0) scale(0.996264)"/>
      <use xlink:href="#CMR17-31" transform="translate(217.210227 0) scale(0.996264)"/>
      <use xlink:href="#CMR17-31" transform="translate(262.900704 0) scale(0.996264)"/>
      <use xlink:href="#CMMI12-3d" transform="translate(308.591181 0) scale(0.996264)"/>
      <use xlink:href="#CMR17-32" transform="translate(357.3661 0) scale(0.996264)"/>
      <use xlink:href="#CMR17-30" transform="translate(403.056577 0) scale(0.996264)"/>
     </g>
    </g>
   </g>
  </g>
 </g>
 <defs>
  <clipPath id="p93cfdd02a6">
   <rect x="41.565674" y="2.534288" width="203.317555" height="128.685334"/>
  </clipPath>
 </defs>
</svg>
