<?xml version="1.0" encoding="utf-8" standalone="no"?>
<!DOCTYPE svg PUBLIC "-//W3C//DTD SVG 1.1//EN"
  "http://www.w3.org/Graphics/SVG/1.1/DTD/svg11.dtd">
<svg xmlns:xlink="http://www.w3.org/1999/xlink" width="240.52032pt" height="146.90808pt" viewBox="0 0 240.52032 146.90808" xmlns="http://www.w3.org/2000/svg" version="1.1">
 <metadata>
  <rdf:RDF xmlns:dc="http://purl.org/dc/elements/1.1/" xmlns:cc="http://creativecommons.org/ns#" xmlns:rdf="http://www.w3.org/1999/02/22-rdf-syntax-ns#">
   <cc:Work>
    <dc:type rdf:resource="http://purl.org/dc/dcmitype/StillImage"/>
    <dc:date>2026-07-12T11:52:38.821585</dc:date>
    <dc:format>image/svg+xml</dc:format>
    <dc:creator>
     <cc:Agent>
      <dc:title>Matplotlib v3.9.4, https://matplotlib.org/</dc:title>
     </cc:Agent>
    </dc:creator>
   </cc:Work>
  </rdf:RDF>
 </metadata>
 <defs>
  <style type="text/css">*{stroke-linejoin: round; stroke-linecap: butt}</style>
 </defs>
 <g id="figure_1">
  <g id="patch_1">
   <path d="M 0 146.90808 
L 240.52032 146.90808 
L 240.52032 0 
L 0 0 
L 0 146.90808 
z
" style="fill: none"/>
  </g>
  <g id="axes_1">
   <g id="patch_2">
    <path d="M 30.744984 124.13342 
L 239.80032 124.13342 
L 239.80032 0.72 
L 30.744984 0.72 
L 30.744984 124.13342 
z
" style="fill: none"/>
   </g>
   <g id="matplotlib.axis_1">
    <g id="xtick_1">
     <g id="line2d_1">
      <defs>
       <path id="m9aa01f1ca8" d="M 0 0 
L 0 2 
" style="stroke: #000000; stroke-width: 0.35"/>
      </defs>
      <g>
       <use xlink:href="#m9aa01f1ca8" x="30.744984" y="124.13342" style="stroke: #000000; stroke-width: 0.35"/>
      </g>
     </g>
     <g id="text_1">
      <!-- $\mathdefault{0.0}$ -->
      <g transform="translate(25.33464 134.668222) scale(0.08 -0.08)">
       <defs>
        <path id="CMR17-30" d="M 2688 2025 
C 2688 2416 2682 3080 2413 3591 
C 2176 4039 1798 4198 1466 4198 
C 1158 4198 768 4058 525 3597 
C 269 3118 243 2524 243 2025 
C 243 1661 250 1106 448 619 
C 723 -39 1216 -128 1466 -128 
C 1760 -128 2208 -7 2470 600 
C 2662 1042 2688 1559 2688 2025 
z
M 1466 -26 
C 1056 -26 813 325 723 812 
C 653 1188 653 1738 653 2096 
C 653 2588 653 2997 736 3387 
C 858 3929 1216 4096 1466 4096 
C 1728 4096 2067 3923 2189 3400 
C 2272 3036 2278 2607 2278 2096 
C 2278 1680 2278 1169 2202 792 
C 2067 95 1690 -26 1466 -26 
z
" transform="scale(0.015625)"/>
        <path id="CMMI12-3a" d="M 1178 307 
C 1178 492 1024 619 870 619 
C 685 619 557 466 557 313 
C 557 128 710 0 864 0 
C 1050 0 1178 153 1178 307 
z
" transform="scale(0.015625)"/>
       </defs>
       <use xlink:href="#CMR17-30" transform="scale(0.996264)"/>
       <use xlink:href="#CMMI12-3a" transform="translate(45.690477 0) scale(0.996264)"/>
       <use xlink:href="#CMR17-30" transform="translate(72.787654 0) scale(0.996264)"/>
      </g>
     </g>
    </g>
    <g id="xtick_2">
     <g id="line2d_2">
      <g>
       <use xlink:href="#m9aa01f1ca8" x="72.639841" y="124.13342" style="stroke: #000000; stroke-width: 0.35"/>
      </g>
     </g>
     <g id="text_2">
      <!-- $\mathdefault{0.1}$ -->
      <g transform="translate(67.229497 134.668222) scale(0.08 -0.08)">
       <defs>
        <path id="CMR17-31" d="M 1702 4058 
C 1702 4192 1696 4192 1606 4192 
C 1357 3916 979 3827 621 3827 
C 602 3827 570 3827 563 3808 
C 557 3795 557 3782 557 3648 
C 755 3648 1088 3686 1344 3839 
L 1344 461 
C 1344 236 1331 160 781 160 
L 589 160 
L 589 0 
C 896 0 1216 0 1523 0 
C 1830 0 2150 0 2458 0 
L 2458 160 
L 2266 160 
C 1715 160 1702 230 1702 458 
L 1702 4058 
z
" transform="scale(0.015625)"/>
       </defs>
       <use xlink:href="#CMR17-30" transform="scale(0.996264)"/>
       <use xlink:href="#CMMI12-3a" transform="translate(45.690477 0) scale(0.996264)"/>
       <use xlink:href="#CMR17-31" transform="translate(72.787654 0) scale(0.996264)"/>
      </g>
     </g>
    </g>
    <g id="xtick_3">
     <g id="line2d_3">
      <g>
       <use xlink:href="#m9aa01f1ca8" x="114.534698" y="124.13342" style="stroke: #000000; stroke-width: 0.35"/>
      </g>
     </g>
     <g id="text_3">
      <!-- $\mathdefault{0.2}$ -->
      <g transform="translate(109.124353 134.668222) scale(0.08 -0.08)">
       <defs>
        <path id="CMR17-32" d="M 2669 989 
L 2554 989 
C 2490 536 2438 459 2413 420 
C 2381 369 1920 369 1830 369 
L 602 369 
C 832 619 1280 1072 1824 1597 
C 2214 1967 2669 2402 2669 3035 
C 2669 3790 2067 4224 1395 4224 
C 691 4224 262 3604 262 3030 
C 262 2780 448 2748 525 2748 
C 589 2748 781 2787 781 3010 
C 781 3207 614 3264 525 3264 
C 486 3264 448 3258 422 3245 
C 544 3790 915 4058 1306 4058 
C 1862 4058 2227 3617 2227 3035 
C 2227 2479 1901 2000 1536 1584 
L 262 146 
L 262 0 
L 2515 0 
L 2669 989 
z
" transform="scale(0.015625)"/>
       </defs>
       <use xlink:href="#CMR17-30" transform="scale(0.996264)"/>
       <use xlink:href="#CMMI12-3a" transform="translate(45.690477 0) scale(0.996264)"/>
       <use xlink:href="#CMR17-32" transform="translate(72.787654 0) scale(0.996264)"/>
      </g>
     </g>
    </g>
    <g id="xtick_4">
     <g id="line2d_4">
      <g>
       <use xlink:href="#m9aa01f1ca8" x="156.429555" y="124.13342" style="stroke: #000000; stroke-width: 0.35"/>
      </g>
     </g>
     <g id="text_4">
      <!-- $\mathdefault{0.3}$ -->
      <g transform="translate(151.01921 134.668222) scale(0.08 -0.08)">
       <defs>
        <path id="CMR17-33" d="M 1414 2157 
C 1984 2157 2234 1662 2234 1090 
C 2234 320 1824 25 1453 25 
C 1114 25 563 194 390 693 
C 422 680 454 680 486 680 
C 640 680 755 782 755 948 
C 755 1133 614 1216 486 1216 
C 378 1216 211 1165 211 926 
C 211 335 787 -128 1466 -128 
C 2176 -128 2720 430 2720 1085 
C 2720 1707 2208 2157 1600 2227 
C 2086 2328 2554 2756 2554 3329 
C 2554 3820 2048 4179 1472 4179 
C 890 4179 378 3829 378 3329 
C 378 3110 544 3072 627 3072 
C 762 3072 877 3155 877 3321 
C 877 3486 762 3569 627 3569 
C 602 3569 570 3569 544 3557 
C 730 3959 1235 4032 1459 4032 
C 1683 4032 2106 3925 2106 3320 
C 2106 3143 2080 2828 1862 2550 
C 1670 2304 1453 2304 1242 2284 
C 1210 2284 1062 2269 1037 2269 
C 992 2263 966 2257 966 2208 
C 966 2163 973 2157 1101 2157 
L 1414 2157 
z
" transform="scale(0.015625)"/>
       </defs>
       <use xlink:href="#CMR17-30" transform="scale(0.996264)"/>
       <use xlink:href="#CMMI12-3a" transform="translate(45.690477 0) scale(0.996264)"/>
       <use xlink:href="#CMR17-33" transform="translate(72.787654 0) scale(0.996264)"/>
      </g>
     </g>
    </g>
    <g id="xtick_5">
     <g id="line2d_5">
      <g>
       <use xlink:href="#m9aa01f1ca8" x="198.324412" y="124.13342" style="stroke: #000000; stroke-width: 0.35"/>
      </g>
     </g>
     <g id="text_5">
      <!-- $\mathdefault{0.4}$ -->
      <g transform="translate(192.914067 134.668222) scale(0.08 -0.08)">
       <defs>
        <path id="CMR17-34" d="M 2150 4122 
C 2150 4256 2144 4256 2029 4256 
L 128 1254 
L 128 1088 
L 1779 1088 
L 1779 457 
C 1779 224 1766 160 1318 160 
L 1197 160 
L 1197 0 
C 1402 0 1747 0 1965 0 
C 2182 0 2528 0 2733 0 
L 2733 160 
L 2611 160 
C 2163 160 2150 224 2150 457 
L 2150 1088 
L 2803 1088 
L 2803 1254 
L 2150 1254 
L 2150 4122 
z
M 1798 3703 
L 1798 1254 
L 256 1254 
L 1798 3703 
z
" transform="scale(0.015625)"/>
       </defs>
       <use xlink:href="#CMR17-30" transform="scale(0.996264)"/>
       <use xlink:href="#CMMI12-3a" transform="translate(45.690477 0) scale(0.996264)"/>
       <use xlink:href="#CMR17-34" transform="translate(72.787654 0) scale(0.996264)"/>
      </g>
     </g>
    </g>
    <g id="text_6">
     <!-- $r/L$ -->
     <g transform="translate(128.247741 144.195552) scale(0.08 -0.08)">
      <defs>
       <path id="CMMI12-72" d="M 2490 2612 
C 2291 2574 2189 2433 2189 2293 
C 2189 2139 2310 2088 2400 2088 
C 2579 2088 2726 2242 2726 2433 
C 2726 2638 2528 2816 2208 2816 
C 1952 2816 1658 2701 1389 2312 
C 1344 2650 1088 2816 832 2816 
C 582 2816 454 2625 378 2484 
C 269 2254 173 1871 173 1839 
C 173 1814 198 1782 243 1782 
C 294 1782 301 1788 339 1935 
C 435 2318 557 2689 813 2689 
C 966 2689 1011 2580 1011 2395 
C 1011 2254 947 2005 902 1807 
L 723 1118 
C 698 996 627 709 595 594 
C 550 428 480 128 480 96 
C 480 6 550 -64 646 -64 
C 717 -64 838 -19 877 109 
C 896 160 1133 1124 1171 1271 
C 1203 1411 1242 1546 1274 1686 
C 1299 1775 1325 1878 1344 1961 
C 1363 2018 1536 2331 1696 2472 
C 1773 2542 1939 2689 2202 2689 
C 2304 2689 2406 2670 2490 2612 
z
" transform="scale(0.015625)"/>
       <path id="CMMI12-3d" d="M 2746 4562 
C 2746 4569 2784 4666 2784 4678 
C 2784 4755 2720 4800 2669 4800 
C 2637 4800 2579 4800 2528 4659 
L 384 -1363 
C 384 -1370 346 -1465 346 -1478 
C 346 -1555 410 -1600 461 -1600 
C 499 -1600 557 -1593 602 -1459 
L 2746 4562 
z
" transform="scale(0.015625)"/>
       <path id="CMMI12-4c" d="M 2349 3861 
C 2406 4103 2426 4167 2989 4167 
C 3162 4167 3206 4167 3206 4288 
C 3206 4352 3136 4352 3110 4352 
C 2982 4352 2835 4352 2707 4352 
L 1850 4352 
C 1728 4352 1587 4352 1466 4352 
C 1414 4352 1344 4352 1344 4231 
C 1344 4167 1402 4167 1498 4167 
C 1888 4167 1888 4116 1888 4046 
C 1888 4034 1888 3995 1862 3899 
L 998 472 
C 941 249 928 185 480 185 
C 358 185 294 185 294 70 
C 294 0 333 0 461 0 
L 3328 0 
C 3469 0 3475 6 3520 121 
L 4013 1478 
C 4026 1510 4038 1548 4038 1567 
C 4038 1605 4006 1631 3974 1631 
C 3968 1631 3936 1631 3923 1605 
C 3910 1599 3910 1586 3859 1465 
C 3654 905 3366 185 2285 185 
L 1670 185 
C 1581 185 1568 185 1530 192 
C 1459 198 1453 211 1453 262 
C 1453 307 1466 345 1478 401 
L 2349 3861 
z
" transform="scale(0.015625)"/>
      </defs>
      <use xlink:href="#CMMI12-72" transform="scale(0.996264)"/>
      <use xlink:href="#CMMI12-3d" transform="translate(46.670612 0) scale(0.996264)"/>
      <use xlink:href="#CMMI12-4c" transform="translate(95.445531 0) scale(0.996264)"/>
     </g>
    </g>
   </g>
   <g id="matplotlib.axis_2">
    <g id="ytick_1">
     <g id="line2d_6">
      <defs>
       <path id="mcd6e72c736" d="M 0 0 
L -2 0 
" style="stroke: #000000; stroke-width: 0.35"/>
      </defs>
      <g>
       <use xlink:href="#mcd6e72c736" x="30.744984" y="124.13342" style="stroke: #000000; stroke-width: 0.35"/>
      </g>
     </g>
     <g id="text_7">
      <!-- $\mathdefault{0.92}$ -->
      <g transform="translate(10.690112 126.900821) scale(0.08 -0.08)">
       <defs>
        <path id="CMR17-39" d="M 2253 1864 
C 2253 464 1670 31 1190 31 
C 1043 31 685 31 538 294 
C 704 268 826 357 826 518 
C 826 692 685 749 595 749 
C 538 749 365 723 365 506 
C 365 71 742 -128 1203 -128 
C 1939 -128 2688 674 2688 2073 
C 2688 3817 1971 4179 1485 4179 
C 851 4179 243 3628 243 2778 
C 243 1991 762 1408 1414 1408 
C 1952 1408 2189 1903 2253 2112 
L 2253 1864 
z
M 1427 1510 
C 1254 1510 1011 1542 813 1922 
C 678 2169 678 2461 678 2771 
C 678 3146 678 3405 858 3684 
C 947 3817 1114 4032 1485 4032 
C 2240 4032 2240 2885 2240 2632 
C 2240 2182 2035 1510 1427 1510 
z
" transform="scale(0.015625)"/>
       </defs>
       <use xlink:href="#CMR17-30" transform="scale(0.996264)"/>
       <use xlink:href="#CMMI12-3a" transform="translate(45.690477 0) scale(0.996264)"/>
       <use xlink:href="#CMR17-39" transform="translate(72.787654 0) scale(0.996264)"/>
       <use xlink:href="#CMR17-32" transform="translate(118.478131 0) scale(0.996264)"/>
      </g>
     </g>
    </g>
    <g id="ytick_2">
     <g id="line2d_7">
      <g>
       <use xlink:href="#mcd6e72c736" x="30.744984" y="105.849951" style="stroke: #000000; stroke-width: 0.35"/>
      </g>
     </g>
     <g id="text_8">
      <!-- $\mathdefault{0.94}$ -->
      <g transform="translate(10.690112 108.617352) scale(0.08 -0.08)">
       <use xlink:href="#CMR17-30" transform="scale(0.996264)"/>
       <use xlink:href="#CMMI12-3a" transform="translate(45.690477 0) scale(0.996264)"/>
       <use xlink:href="#CMR17-39" transform="translate(72.787654 0) scale(0.996264)"/>
       <use xlink:href="#CMR17-34" transform="translate(118.478131 0) scale(0.996264)"/>
      </g>
     </g>
    </g>
    <g id="ytick_3">
     <g id="line2d_8">
      <g>
       <use xlink:href="#mcd6e72c736" x="30.744984" y="87.566481" style="stroke: #000000; stroke-width: 0.35"/>
      </g>
     </g>
     <g id="text_9">
      <!-- $\mathdefault{0.96}$ -->
      <g transform="translate(10.690112 90.333882) scale(0.08 -0.08)">
       <defs>
        <path id="CMR17-36" d="M 678 2176 
C 678 3690 1395 4032 1811 4032 
C 1946 4032 2272 4009 2400 3776 
C 2298 3776 2106 3776 2106 3553 
C 2106 3381 2246 3323 2336 3323 
C 2394 3323 2566 3348 2566 3560 
C 2566 3954 2246 4179 1805 4179 
C 1043 4179 243 3390 243 1984 
C 243 253 966 -128 1478 -128 
C 2099 -128 2688 427 2688 1283 
C 2688 2081 2170 2662 1517 2662 
C 1126 2662 838 2407 678 1960 
L 678 2176 
z
M 1478 25 
C 691 25 691 1200 691 1436 
C 691 1896 909 2560 1504 2560 
C 1613 2560 1926 2560 2138 2120 
C 2253 1870 2253 1609 2253 1289 
C 2253 944 2253 690 2118 434 
C 1978 171 1773 25 1478 25 
z
" transform="scale(0.015625)"/>
       </defs>
       <use xlink:href="#CMR17-30" transform="scale(0.996264)"/>
       <use xlink:href="#CMMI12-3a" transform="translate(45.690477 0) scale(0.996264)"/>
       <use xlink:href="#CMR17-39" transform="translate(72.787654 0) scale(0.996264)"/>
       <use xlink:href="#CMR17-36" transform="translate(118.478131 0) scale(0.996264)"/>
      </g>
     </g>
    </g>
    <g id="ytick_4">
     <g id="line2d_9">
      <g>
       <use xlink:href="#mcd6e72c736" x="30.744984" y="69.283011" style="stroke: #000000; stroke-width: 0.35"/>
      </g>
     </g>
     <g id="text_10">
      <!-- $\mathdefault{0.98}$ -->
      <g transform="translate(10.690112 72.050412) scale(0.08 -0.08)">
       <defs>
        <path id="CMR17-38" d="M 1741 2264 
C 2144 2467 2554 2773 2554 3263 
C 2554 3841 1990 4179 1472 4179 
C 890 4179 378 3759 378 3180 
C 378 3021 416 2747 666 2505 
C 730 2442 998 2251 1171 2130 
C 883 1983 211 1634 211 934 
C 211 279 838 -128 1459 -128 
C 2144 -128 2720 362 2720 1010 
C 2720 1590 2330 1857 2074 2029 
L 1741 2264 
z
M 902 2822 
C 851 2854 595 3051 595 3351 
C 595 3739 998 4032 1459 4032 
C 1965 4032 2336 3676 2336 3262 
C 2336 2669 1670 2331 1638 2331 
C 1632 2331 1626 2331 1574 2370 
L 902 2822 
z
M 2080 1519 
C 2176 1449 2483 1240 2483 851 
C 2483 381 2010 25 1472 25 
C 890 25 448 438 448 940 
C 448 1443 838 1862 1280 2060 
L 2080 1519 
z
" transform="scale(0.015625)"/>
       </defs>
       <use xlink:href="#CMR17-30" transform="scale(0.996264)"/>
       <use xlink:href="#CMMI12-3a" transform="translate(45.690477 0) scale(0.996264)"/>
       <use xlink:href="#CMR17-39" transform="translate(72.787654 0) scale(0.996264)"/>
       <use xlink:href="#CMR17-38" transform="translate(118.478131 0) scale(0.996264)"/>
      </g>
     </g>
    </g>
    <g id="ytick_5">
     <g id="line2d_10">
      <g>
       <use xlink:href="#mcd6e72c736" x="30.744984" y="50.999542" style="stroke: #000000; stroke-width: 0.35"/>
      </g>
     </g>
     <g id="text_11">
      <!-- $\mathdefault{1.00}$ -->
      <g transform="translate(10.690112 53.766943) scale(0.08 -0.08)">
       <use xlink:href="#CMR17-31" transform="scale(0.996264)"/>
       <use xlink:href="#CMMI12-3a" transform="translate(45.690477 0) scale(0.996264)"/>
       <use xlink:href="#CMR17-30" transform="translate(72.787654 0) scale(0.996264)"/>
       <use xlink:href="#CMR17-30" transform="translate(118.478131 0) scale(0.996264)"/>
      </g>
     </g>
    </g>
    <g id="ytick_6">
     <g id="line2d_11">
      <g>
       <use xlink:href="#mcd6e72c736" x="30.744984" y="32.716072" style="stroke: #000000; stroke-width: 0.35"/>
      </g>
     </g>
     <g id="text_12">
      <!-- $\mathdefault{1.02}$ -->
      <g transform="translate(10.690112 35.483473) scale(0.08 -0.08)">
       <use xlink:href="#CMR17-31" transform="scale(0.996264)"/>
       <use xlink:href="#CMMI12-3a" transform="translate(45.690477 0) scale(0.996264)"/>
       <use xlink:href="#CMR17-30" transform="translate(72.787654 0) scale(0.996264)"/>
       <use xlink:href="#CMR17-32" transform="translate(118.478131 0) scale(0.996264)"/>
      </g>
     </g>
    </g>
    <g id="ytick_7">
     <g id="line2d_12">
      <g>
       <use xlink:href="#mcd6e72c736" x="30.744984" y="14.432602" style="stroke: #000000; stroke-width: 0.35"/>
      </g>
     </g>
     <g id="text_13">
      <!-- $\mathdefault{1.04}$ -->
      <g transform="translate(10.690112 17.200003) scale(0.08 -0.08)">
       <use xlink:href="#CMR17-31" transform="scale(0.996264)"/>
       <use xlink:href="#CMMI12-3a" transform="translate(45.690477 0) scale(0.996264)"/>
       <use xlink:href="#CMR17-30" transform="translate(72.787654 0) scale(0.996264)"/>
       <use xlink:href="#CMR17-34" transform="translate(118.478131 0) scale(0.996264)"/>
      </g>
     </g>
    </g>
    <g id="text_14">
     <!-- $g_2(r)$ -->
     <g transform="translate(6.697584 71.838711) rotate(-90) scale(0.08 -0.08)">
      <defs>
       <path id="CMMI12-67" d="M 2163 811 
C 2138 709 2125 683 2042 588 
C 1779 249 1510 128 1312 128 
C 1101 128 902 294 902 734 
C 902 1073 1094 1788 1235 2076 
C 1421 2433 1709 2689 1978 2689 
C 2400 2689 2483 2165 2483 2127 
L 2464 2037 
L 2163 811 
z
M 2560 2395 
C 2477 2580 2298 2816 1978 2816 
C 1280 2816 486 1941 486 990 
C 486 326 890 0 1299 0 
C 1638 0 1939 268 2054 396 
L 1914 -171 
C 1824 -516 1786 -674 1555 -894 
C 1293 -1152 1050 -1152 909 -1152 
C 717 -1152 557 -1139 397 -1089 
C 602 -1033 653 -858 653 -789 
C 653 -689 576 -588 435 -588 
C 282 -588 115 -714 115 -922 
C 115 -1180 378 -1280 922 -1280 
C 1747 -1280 2176 -753 2259 -410 
L 2970 2435 
C 2989 2511 2989 2524 2989 2536 
C 2989 2625 2918 2695 2822 2695 
C 2669 2695 2579 2567 2560 2395 
z
" transform="scale(0.015625)"/>
       <path id="CMR17-28" d="M 1958 -1561 
C 1958 -1555 1958 -1542 1939 -1523 
C 1645 -1224 858 -407 858 1581 
C 858 3569 1632 4379 1946 4697 
C 1946 4704 1958 4717 1958 4736 
C 1958 4755 1939 4768 1914 4768 
C 1843 4768 1299 4296 986 3594 
C 666 2887 576 2199 576 1588 
C 576 1128 621 351 1005 -471 
C 1312 -1135 1837 -1600 1914 -1600 
C 1946 -1600 1958 -1587 1958 -1561 
z
" transform="scale(0.015625)"/>
       <path id="CMR17-29" d="M 1683 1581 
C 1683 2040 1638 2817 1254 3639 
C 947 4303 422 4768 346 4768 
C 326 4768 301 4761 301 4729 
C 301 4717 307 4710 314 4697 
C 621 4378 1402 3568 1402 1584 
C 1402 -407 627 -1217 314 -1537 
C 307 -1549 301 -1556 301 -1568 
C 301 -1600 326 -1600 346 -1600 
C 416 -1600 960 -1128 1274 -426 
C 1594 281 1683 969 1683 1581 
z
" transform="scale(0.015625)"/>
      </defs>
      <use xlink:href="#CMMI12-67" transform="scale(0.996264)"/>
      <use xlink:href="#CMR17-32" transform="translate(46.710897 -14.943915) scale(0.697382)"/>
      <use xlink:href="#CMR17-28" transform="translate(79.192211 0) scale(0.996264)"/>
      <use xlink:href="#CMMI12-72" transform="translate(114.472979 0) scale(0.996264)"/>
      <use xlink:href="#CMR17-29" transform="translate(161.143591 0) scale(0.996264)"/>
     </g>
    </g>
   </g>
   <g id="line2d_13">
    <path d="M 46.018375 147.90808 
L 46.938982 102.572475 
L 47.98714 61.234459 
L 48.825666 36.365586 
L 49.454561 22.505166 
L 50.083455 12.639252 
L 50.71235 6.580536 
L 51.131613 4.530843 
L 51.341245 4.068992 
L 51.550876 3.965687 
L 51.760508 4.207488 
L 52.179771 5.669561 
L 52.599034 8.336 
L 53.227929 14.314443 
L 54.066455 25.269545 
L 55.324244 45.819531 
L 57.839823 88.424243 
L 58.88798 102.131177 
L 59.726507 110.103141 
L 60.355401 114.09575 
L 60.774664 115.767368 
L 61.193927 116.63946 
L 61.403559 116.777496 
L 61.61319 116.719292 
L 61.822822 116.467556 
L 62.242085 115.397721 
L 62.661348 113.602883 
L 63.290243 109.651183 
L 64.128769 102.331263 
L 65.176927 90.657425 
L 67.273242 63.578248 
L 68.740663 45.997399 
L 69.788821 36.01587 
L 70.627347 30.161946 
L 71.256242 27.173266 
L 71.675505 25.877133 
L 72.094768 25.142239 
L 72.514031 24.962712 
L 72.723662 25.077151 
L 73.142926 25.702046 
L 73.562189 26.833075 
L 74.191083 29.406269 
L 75.029609 34.256648 
L 76.077767 42.041882 
L 80.060767 73.88525 
L 80.899293 78.217299 
L 81.528187 80.490096 
L 82.157082 81.858574 
L 82.576345 82.25462 
L 82.995608 82.237397 
L 83.414871 81.813838 
L 83.834134 80.996988 
L 84.463029 79.077019 
L 85.091924 76.401762 
L 85.93045 71.852104 
L 87.188239 63.57072 
L 89.913449 44.936997 
L 90.961607 39.43598 
L 91.800133 36.252139 
L 92.429028 34.68122 
L 92.848291 34.044836 
L 93.267554 33.742451 
L 93.686817 33.772748 
L 94.10608 34.129317 
L 94.525343 34.80083 
L 95.154238 36.362427 
L 95.783133 38.523673 
L 96.621659 42.178551 
L 97.879448 48.782389 
L 100.395027 62.38252 
L 101.443184 66.769861 
L 102.281711 69.295384 
L 102.910605 70.520866 
L 103.329868 70.999149 
L 103.749131 71.200755 
L 104.168394 71.125682 
L 104.587658 70.778225 
L 105.006921 70.166858 
L 105.635815 68.783272 
L 106.474342 66.161739 
L 107.522499 61.898998 
L 109.199552 53.860246 
L 110.876604 46.082228 
L 111.924762 42.190842 
L 112.763288 39.912906 
L 113.392183 38.77576 
L 114.021077 38.163881 
L 114.44034 38.054348 
L 114.859603 38.182667 
L 115.278866 38.543953 
L 115.907761 39.503271 
L 116.536656 40.924323 
L 117.375182 43.43507 
L 118.42334 47.314535 
L 121.987076 61.293663 
L 122.825602 63.584887 
L 123.454497 64.839295 
L 124.083391 65.651266 
L 124.502655 65.93476 
L 124.921918 66.008354 
L 125.341181 65.872639 
L 125.760444 65.531465 
L 126.389338 64.650664 
L 127.018233 63.360402 
L 127.856759 61.09154 
L 129.114549 56.830658 
L 132.259022 45.536923 
L 133.097548 43.292968 
L 133.936074 41.660308 
L 134.564969 40.893006 
L 134.984232 40.612579 
L 135.403495 40.520693 
L 135.822758 40.617146 
L 136.242021 40.898797 
L 136.870916 41.654621 
L 137.49981 42.78126 
L 138.338337 44.782033 
L 139.386494 47.890171 
L 143.159862 59.740159 
L 143.998388 61.487746 
L 144.627283 62.409587 
L 145.256178 62.964406 
L 145.675441 63.121859 
L 146.094704 63.107318 
L 146.513967 62.922062 
L 147.142862 62.333425 
L 147.771756 61.394244 
L 148.610282 59.660773 
L 149.65844 56.88667 
L 151.754756 50.415774 
L 153.222177 46.254499 
L 154.270334 43.978651 
L 155.10886 42.745459 
L 155.737755 42.212176 
L 156.36665 42.032971 
L 156.785913 42.112202 
L 157.414807 42.523531 
L 158.043702 43.269163 
L 158.882228 44.731131 
L 159.930386 47.167681 
L 161.607438 51.869985 
L 163.494122 57.034226 
L 164.54228 59.269832 
L 165.380806 60.53736 
L 166.009701 61.132253 
L 166.638596 61.400176 
L 167.057859 61.393068 
L 167.686753 61.105738 
L 168.315648 60.498214 
L 168.944543 59.593987 
L 169.783069 57.986502 
L 170.831226 55.482276 
L 174.604594 45.835472 
L 175.443121 44.39008 
L 176.072015 43.619757 
L 176.70091 43.14739 
L 177.329804 42.987655 
L 177.958699 43.144135 
L 178.587594 43.609261 
L 179.216488 44.364644 
L 180.055015 45.772749 
L 181.103172 48.043484 
L 182.989856 52.846675 
L 184.457277 56.396194 
L 185.505435 58.412408 
L 186.343961 59.559603 
L 186.972856 60.100513 
L 187.60175 60.346844 
L 188.230645 60.291239 
L 188.85954 59.937018 
L 189.488434 59.298012 
L 190.32696 58.045468 
L 191.375118 55.954511 
L 193.05217 51.904016 
L 194.938854 47.428648 
L 195.987012 45.478285 
L 196.825538 44.36516 
L 197.454433 43.837601 
L 198.083328 43.593752 
L 198.712222 43.641031 
L 199.341117 43.976567 
L 199.970012 44.587335 
L 200.808538 45.789337 
L 201.856695 47.801255 
L 203.324116 51.199241 
L 205.420432 56.030711 
L 206.468589 57.916118 
L 207.307116 58.991675 
L 207.93601 59.500406 
L 208.564905 59.733699 
L 209.1938 59.684043 
L 209.822694 59.353932 
L 210.451589 58.75575 
L 211.290115 57.580137 
L 212.338273 55.612965 
L 213.805694 52.289001 
L 215.902009 47.556392 
L 216.950167 45.706134 
L 217.788693 44.648649 
L 218.417588 44.147023 
L 219.046482 43.915188 
L 219.675377 43.960785 
L 220.304272 44.281643 
L 220.933166 44.865882 
L 221.771692 46.016754 
L 222.81985 47.945779 
L 224.287271 51.210225 
L 226.383586 55.865317 
L 227.431744 57.68714 
L 228.27027 58.728614 
L 228.899165 59.222407 
L 229.52806 59.449958 
L 230.156954 59.403456 
L 230.785849 59.084781 
L 231.414744 58.505425 
L 232.25327 57.364449 
L 233.301428 55.45148 
L 234.768848 52.211922 
L 236.865164 47.586642 
L 237.913322 45.774146 
L 238.751848 44.737012 
L 239.380742 44.244749 
L 240.009637 44.017423 
L 240.219269 44.002188 
L 240.219269 44.002188 
" clip-path="url(#p96ca516a98)" style="fill: none; stroke: #524582; stroke-linecap: round"/>
   </g>
   <g id="line2d_14">
    <path d="M 46.032348 147.90808 
L 46.938982 109.964071 
L 47.98714 75.485723 
L 48.825666 55.10445 
L 49.454561 43.873145 
L 50.083455 35.927849 
L 50.71235 31.039476 
L 51.131613 29.344498 
L 51.341245 28.932592 
L 51.550876 28.795142 
L 51.760508 28.919741 
L 51.970139 29.293656 
L 52.389402 30.737115 
L 52.808665 33.018666 
L 53.43756 37.772369 
L 54.276086 46.012915 
L 55.743507 63.225038 
L 57.420559 82.577767 
L 58.468717 92.339813 
L 59.307243 98.143381 
L 59.936138 101.148619 
L 60.355401 102.476901 
L 60.774664 103.258284 
L 61.193927 103.496492 
L 61.403559 103.415265 
L 61.822822 102.863013 
L 62.242085 101.81067 
L 62.87098 99.360119 
L 63.499874 95.974372 
L 64.338401 90.26192 
L 65.59619 79.94344 
L 68.531031 55.091371 
L 69.579189 48.27192 
L 70.417715 44.179636 
L 71.04661 42.000433 
L 71.675505 40.613991 
L 72.094768 40.13008 
L 72.514031 39.990969 
L 72.933294 40.184774 
L 73.352557 40.695108 
L 73.981452 42.008174 
L 74.610346 43.901919 
L 75.448873 47.15619 
L 76.706662 53.051633 
L 79.012609 64.132884 
L 80.060767 68.108812 
L 80.899293 70.441493 
L 81.528187 71.614998 
L 82.157082 72.262583 
L 82.576345 72.397233 
L 82.995608 72.296211 
L 83.414871 71.965249 
L 84.043766 71.058512 
L 84.672661 69.699627 
L 85.511187 67.286288 
L 86.559345 63.544495 
L 90.332712 49.17434 
L 91.171239 46.936489 
L 92.009765 45.341306 
L 92.638659 44.606644 
L 93.267554 44.280476 
L 93.686817 44.28859 
L 94.10608 44.472202 
L 94.734975 45.060332 
L 95.36387 45.992408 
L 96.202396 47.691156 
L 97.250553 50.36013 
L 100.81429 60.070782 
L 101.652816 61.669536 
L 102.491342 62.77714 
L 103.120237 63.250338 
L 103.749131 63.404164 
L 104.378026 63.23926 
L 105.006921 62.767313 
L 105.635815 62.010381 
L 106.474342 60.613339 
L 107.522499 58.382724 
L 109.828446 52.684157 
L 111.295867 49.440708 
L 112.344025 47.701844 
L 113.182551 46.773435 
L 113.811446 46.377176 
L 114.44034 46.246864 
L 115.069235 46.380264 
L 115.69813 46.76606 
L 116.536656 47.637702 
L 117.375182 48.854317 
L 118.632971 51.132056 
L 121.567813 56.734947 
L 122.615971 58.210235 
L 123.454497 59.020556 
L 124.083391 59.381574 
L 124.712286 59.519612 
L 125.341181 59.432927 
L 125.970075 59.127647 
L 126.808602 58.40518 
L 127.647128 57.370292 
L 128.904917 55.387521 
L 132.468653 49.385983 
L 133.516811 48.199042 
L 134.355337 47.5954 
L 134.984232 47.365553 
L 135.613127 47.33239 
L 136.242021 47.493488 
L 137.080547 47.993719 
L 137.919074 48.783402 
L 138.967231 50.090928 
L 140.853915 52.910589 
L 142.530968 55.293891 
L 143.579125 56.445503 
L 144.417652 57.086849 
L 145.256178 57.438639 
L 145.885072 57.500946 
L 146.513967 57.389485 
L 147.352493 56.98124 
L 148.191019 56.304205 
L 149.239177 55.150596 
L 150.916229 52.880368 
L 153.012545 50.077663 
L 154.060703 48.998741 
L 154.899229 48.387223 
L 155.737755 48.036998 
L 156.576281 47.965159 
L 157.414807 48.171297 
L 158.253334 48.637777 
L 159.301491 49.534578 
L 160.559281 50.942427 
L 163.913385 54.905328 
L 164.961543 55.746162 
L 165.800069 56.169741 
L 166.638596 56.34469 
L 167.477122 56.262575 
L 168.315648 55.931055 
L 169.154174 55.37321 
L 170.202332 54.414953 
L 171.879384 52.514821 
L 173.9757 50.150693 
L 175.233489 49.085755 
L 176.072015 48.618272 
L 176.910541 48.377667 
L 177.749068 48.376118 
L 178.587594 48.610809 
L 179.42612 49.064257 
L 180.474278 49.890477 
L 181.941698 51.373824 
L 184.666909 54.204615 
L 185.715066 54.999358 
L 186.763224 55.501967 
L 187.60175 55.661414 
L 188.440276 55.595049 
L 189.278803 55.308538 
L 190.32696 54.671499 
L 191.58475 53.586547 
L 195.987012 49.379215 
L 197.03517 48.826574 
L 197.873696 48.610645 
L 198.712222 48.609515 
L 199.550748 48.821591 
L 200.598906 49.362647 
L 201.856695 50.339752 
L 203.743379 52.171107 
L 205.630063 53.922871 
L 206.887853 54.771841 
L 207.93601 55.17874 
L 208.774537 55.277851 
L 209.613063 55.168991 
L 210.451589 54.859784 
L 211.499747 54.223254 
L 212.757536 53.179409 
L 216.740535 49.59111 
L 217.788693 49.019656 
L 218.627219 48.76825 
L 219.465745 48.716795 
L 220.304272 48.867749 
L 221.352429 49.324389 
L 222.400587 50.034614 
L 223.868008 51.317408 
L 226.80285 53.95043 
L 227.851007 54.608413 
L 228.899165 55.002278 
L 229.737691 55.1007 
L 230.576217 54.999289 
L 231.414744 54.704654 
L 232.462901 54.094175 
L 233.720691 53.088643 
L 237.913322 49.477825 
L 238.961479 48.973353 
L 239.800005 48.775924 
L 240.219269 48.750952 
L 240.219269 48.750952 
" clip-path="url(#p96ca516a98)" style="fill: none; stroke: #367bc3; stroke-linecap: round"/>
   </g>
   <g id="line2d_15">
    <path d="M 46.167152 147.90808 
L 47.148614 121.137004 
L 47.98714 103.595075 
L 48.825666 90.490014 
L 49.664192 81.323186 
L 50.293087 76.704966 
L 50.921982 73.754491 
L 51.341245 72.593859 
L 51.760508 71.994555 
L 52.179771 71.885887 
L 52.599034 72.198747 
L 53.018297 72.866117 
L 53.647192 74.391672 
L 54.485718 77.090842 
L 57.420559 87.14879 
L 58.259086 89.031654 
L 58.88798 89.957721 
L 59.516875 90.434523 
L 59.936138 90.497866 
L 60.355401 90.359232 
L 60.774664 90.023598 
L 61.403559 89.168603 
L 62.032454 87.92539 
L 62.87098 85.746772 
L 63.919137 82.376508 
L 65.805821 75.382709 
L 67.692505 68.605433 
L 68.950295 64.874307 
L 69.998452 62.465825 
L 70.836979 61.048863 
L 71.675505 60.090039 
L 72.304399 59.659515 
L 72.933294 59.458081 
L 73.562189 59.463029 
L 74.400715 59.742873 
L 75.239241 60.266683 
L 76.49703 61.334497 
L 79.012609 63.524104 
L 80.060767 64.127919 
L 80.899293 64.393212 
L 81.737819 64.441924 
L 82.576345 64.268924 
L 83.414871 63.883346 
L 84.463029 63.136629 
L 85.720818 61.940437 
L 90.751975 56.746779 
L 91.800133 56.091588 
L 92.848291 55.680078 
L 93.896449 55.511831 
L 94.944606 55.565015 
L 96.202396 55.864188 
L 98.08908 56.596181 
L 100.604658 57.556145 
L 102.072079 57.855269 
L 103.329868 57.879996 
L 104.587658 57.679628 
L 106.055078 57.192886 
L 107.941762 56.295799 
L 111.295867 54.648829 
L 112.763288 54.166648 
L 114.230709 53.917586 
L 115.69813 53.906575 
L 117.375182 54.136031 
L 120.519655 54.879984 
L 122.615971 55.257337 
L 124.293023 55.339827 
L 125.970075 55.191489 
L 127.856759 54.785966 
L 134.145706 53.182791 
L 136.03239 53.077596 
L 137.919074 53.202056 
L 140.853915 53.660045 
L 143.788757 54.052886 
L 145.885072 54.096872 
L 147.981388 53.90264 
L 150.916229 53.363731 
L 154.270334 52.781291 
L 156.36665 52.633184 
L 158.672597 52.711594 
L 162.026701 53.10685 
L 165.171175 53.412838 
L 167.477122 53.415212 
L 169.9927 53.182331 
L 176.910541 52.376802 
L 179.42612 52.425592 
L 182.989856 52.769235 
L 186.553593 53.047948 
L 189.069171 53.018235 
L 192.004013 52.750072 
L 197.244801 52.238516 
L 199.970012 52.247686 
L 203.324116 52.515705 
L 207.726379 52.841129 
L 210.451589 52.799002 
L 214.015325 52.484481 
L 218.207956 52.151293 
L 220.933166 52.167857 
L 224.496903 52.444972 
L 228.689533 52.743717 
L 231.414744 52.71458 
L 234.97848 52.428758 
L 239.171111 52.122011 
L 240.219269 52.106265 
L 240.219269 52.106265 
" clip-path="url(#p96ca516a98)" style="fill: none; stroke: #38bfa7; stroke-linecap: round"/>
   </g>
   <g id="line2d_16">
    <path d="M 46.420472 147.90808 
L 47.148614 133.208008 
L 47.98714 119.849813 
L 48.825666 109.783683 
L 49.664192 102.497206 
L 50.293087 98.556175 
L 50.921982 95.697895 
L 51.550876 93.733268 
L 52.179771 92.486312 
L 52.808665 91.795625 
L 53.43756 91.515435 
L 54.066455 91.516251 
L 55.114612 91.84289 
L 56.582033 92.317278 
L 57.420559 92.332299 
L 58.049454 92.151838 
L 58.678349 91.784501 
L 59.516875 90.990998 
L 60.355401 89.857485 
L 61.403559 88.010106 
L 62.661348 85.294396 
L 64.967295 79.602446 
L 67.063611 74.59703 
L 68.531031 71.638819 
L 69.788821 69.598972 
L 70.836979 68.272609 
L 71.885136 67.273397 
L 72.933294 66.567397 
L 73.981452 66.10503 
L 75.239241 65.788008 
L 77.125925 65.573814 
L 79.641503 65.280114 
L 81.318556 64.853035 
L 82.995608 64.179725 
L 84.882292 63.173948 
L 90.542344 59.959006 
L 92.429028 59.257147 
L 94.315712 58.821155 
L 96.412027 58.585848 
L 103.958763 58.005028 
L 106.893605 57.394464 
L 112.553656 56.169331 
L 115.278866 55.855719 
L 118.632971 55.723054 
L 124.712286 55.520199 
L 128.904917 55.087849 
L 134.564969 54.512846 
L 138.338337 54.376508 
L 147.981388 54.161957 
L 158.253334 53.635564 
L 172.298647 53.383529 
L 178.797225 53.199289 
L 195.987012 52.989202 
L 202.48559 52.957311 
L 212.128641 52.937753 
L 222.610219 52.825789 
L 234.139954 52.840948 
L 240.219269 52.769853 
L 240.219269 52.769853 
" clip-path="url(#p96ca516a98)" style="fill: none; stroke: #8fe182; stroke-linecap: round"/>
   </g>
   <g id="patch_3">
    <path d="M 30.744984 124.13342 
L 30.744984 0.72 
" style="fill: none; stroke: #000000; stroke-width: 0.35; stroke-linejoin: miter; stroke-linecap: square"/>
   </g>
   <g id="patch_4">
    <path d="M 239.80032 124.13342 
L 239.80032 0.72 
" style="fill: none; stroke: #000000; stroke-width: 0.35; stroke-linejoin: miter; stroke-linecap: square"/>
   </g>
   <g id="patch_5">
    <path d="M 30.744984 124.13342 
L 239.80032 124.13342 
" style="fill: none; stroke: #000000; stroke-width: 0.35; stroke-linejoin: miter; stroke-linecap: square"/>
   </g>
   <g id="patch_6">
    <path d="M 30.744984 0.72 
L 239.80032 0.72 
" style="fill: none; stroke: #000000; stroke-width: 0.35; stroke-linejoin: miter; stroke-linecap: square"/>
   </g>
   <g id="text_15">
    <!-- $L=50$ -->
    <g transform="translate(210.51122 10.825669) scale(0.08 -0.08)">
     <defs>
      <path id="CMR17-3d" d="M 4115 2017 
C 4211 2017 4307 2017 4307 2125 
C 4307 2240 4198 2240 4090 2240 
L 512 2240 
C 403 2240 294 2240 294 2125 
C 294 2017 390 2017 486 2017 
L 4115 2017 
z
M 4090 896 
C 4198 896 4307 896 4307 1011 
C 4307 1119 4211 1119 4115 1119 
L 486 1119 
C 390 1119 294 1119 294 1011 
C 294 896 403 896 512 896 
L 4090 896 
z
" transform="scale(0.015625)"/>
      <path id="CMR17-35" d="M 730 3692 
C 794 3666 1056 3584 1325 3584 
C 1920 3584 2246 3911 2432 4100 
C 2432 4157 2432 4192 2394 4192 
C 2387 4192 2374 4192 2323 4163 
C 2099 4058 1837 3973 1517 3973 
C 1325 3973 1037 3999 723 4139 
C 653 4171 640 4171 634 4171 
C 602 4171 595 4164 595 4037 
L 595 2203 
C 595 2089 595 2057 659 2057 
C 691 2057 704 2070 736 2114 
C 941 2401 1222 2522 1542 2522 
C 1766 2522 2246 2382 2246 1289 
C 2246 1085 2246 715 2054 421 
C 1894 159 1645 25 1370 25 
C 947 25 518 320 403 814 
C 429 807 480 795 506 795 
C 589 795 749 840 749 1038 
C 749 1210 627 1280 506 1280 
C 358 1280 262 1190 262 1011 
C 262 454 704 -128 1382 -128 
C 2042 -128 2669 440 2669 1264 
C 2669 2030 2170 2624 1549 2624 
C 1222 2624 947 2503 730 2274 
L 730 3692 
z
" transform="scale(0.015625)"/>
     </defs>
     <use xlink:href="#CMMI12-4c" transform="scale(0.996264)"/>
     <use xlink:href="#CMR17-3d" transform="translate(94.044884 0) scale(0.996264)"/>
     <use xlink:href="#CMR17-35" transform="translate(193.433681 0) scale(0.996264)"/>
     <use xlink:href="#CMR17-30" transform="translate(239.124158 0) scale(0.996264)"/>
    </g>
   </g>
   <g id="legend_1">
    <g id="line2d_17">
     <path d="M 176.90208 82.230556 
L 186.90208 82.230556 
L 196.90208 82.230556 
" style="fill: none; stroke: #524582; stroke-linecap: round"/>
    </g>
    <g id="text_16">
     <!-- $K=5/8$ -->
     <g transform="translate(200.90208 85.030556) scale(0.08 -0.08)">
      <defs>
       <path id="CMMI12-4b" d="M 3200 2571 
C 3194 2590 3168 2641 3168 2661 
C 3168 2667 3174 2673 3283 2756 
L 3904 3242 
C 4762 3905 5043 4128 5485 4167 
C 5530 4167 5594 4167 5594 4282 
C 5594 4320 5574 4352 5523 4352 
C 5453 4352 5376 4352 5306 4352 
L 5062 4352 
C 4864 4352 4653 4352 4461 4352 
C 4416 4352 4339 4352 4339 4237 
C 4339 4173 4384 4167 4422 4167 
C 4493 4160 4576 4135 4576 4046 
C 4576 3919 4384 3765 4333 3727 
L 1824 1784 
L 2355 3887 
C 2413 4103 2426 4167 2880 4167 
C 3002 4167 3059 4167 3059 4288 
C 3059 4352 2995 4352 2963 4352 
C 2848 4352 2714 4352 2592 4352 
L 1837 4352 
C 1722 4352 1581 4352 1466 4352 
C 1414 4352 1344 4352 1344 4231 
C 1344 4167 1402 4167 1498 4167 
C 1888 4167 1888 4116 1888 4046 
C 1888 4034 1888 3995 1862 3899 
L 998 472 
C 941 249 928 185 480 185 
C 358 185 294 185 294 70 
C 294 0 352 0 390 0 
C 512 0 640 0 762 0 
L 1510 0 
C 1632 0 1766 0 1888 0 
C 1939 0 2010 0 2010 121 
C 2010 185 1952 185 1856 185 
C 1466 185 1466 236 1466 300 
C 1466 345 1504 504 1530 606 
L 1779 1593 
L 2752 2351 
C 2938 1943 3277 1128 3539 505 
C 3558 466 3571 428 3571 383 
C 3571 185 3315 185 3258 185 
C 3200 185 3136 185 3136 64 
C 3136 0 3206 0 3226 0 
C 3450 0 3686 0 3910 0 
L 4218 0 
C 4314 0 4422 0 4518 0 
C 4557 0 4627 0 4627 121 
C 4627 185 4570 185 4506 185 
C 4269 185 4186 236 4090 466 
L 3200 2571 
z
" transform="scale(0.015625)"/>
      </defs>
      <use xlink:href="#CMMI12-4b" transform="scale(0.996264)"/>
      <use xlink:href="#CMR17-3d" transform="translate(117.82143 0) scale(0.996264)"/>
      <use xlink:href="#CMR17-35" transform="translate(217.210227 0) scale(0.996264)"/>
      <use xlink:href="#CMMI12-3d" transform="translate(262.900704 0) scale(0.996264)"/>
      <use xlink:href="#CMR17-38" transform="translate(311.675623 0) scale(0.996264)"/>
     </g>
    </g>
    <g id="line2d_18">
     <path d="M 176.90208 92.200668 
L 186.90208 92.200668 
L 196.90208 92.200668 
" style="fill: none; stroke: #367bc3; stroke-linecap: round"/>
    </g>
    <g id="text_17">
     <!-- $K=4/5$ -->
     <g transform="translate(200.90208 95.000668) scale(0.08 -0.08)">
      <use xlink:href="#CMMI12-4b" transform="scale(0.996264)"/>
      <use xlink:href="#CMR17-3d" transform="translate(117.82143 0) scale(0.996264)"/>
      <use xlink:href="#CMR17-34" transform="translate(217.210227 0) scale(0.996264)"/>
      <use xlink:href="#CMMI12-3d" transform="translate(262.900704 0) scale(0.996264)"/>
      <use xlink:href="#CMR17-35" transform="translate(311.675623 0) scale(0.996264)"/>
     </g>
    </g>
    <g id="line2d_19">
     <path d="M 176.90208 102.17078 
L 186.90208 102.17078 
L 196.90208 102.17078 
" style="fill: none; stroke: #38bfa7; stroke-linecap: round"/>
    </g>
    <g id="text_18">
     <!-- $K=5/4$ -->
     <g transform="translate(200.90208 104.97078) scale(0.08 -0.08)">
      <use xlink:href="#CMMI12-4b" transform="scale(0.996264)"/>
      <use xlink:href="#CMR17-3d" transform="translate(117.82143 0) scale(0.996264)"/>
      <use xlink:href="#CMR17-35" transform="translate(217.210227 0) scale(0.996264)"/>
      <use xlink:href="#CMMI12-3d" transform="translate(262.900704 0) scale(0.996264)"/>
      <use xlink:href="#CMR17-34" transform="translate(311.675623 0) scale(0.996264)"/>
     </g>
    </g>
    <g id="line2d_20">
     <path d="M 176.90208 112.140892 
L 186.90208 112.140892 
L 196.90208 112.140892 
" style="fill: none; stroke: #8fe182; stroke-linecap: round"/>
    </g>
    <g id="text_19">
     <!-- $K=8/5$ -->
     <g transform="translate(200.90208 114.940892) scale(0.08 -0.08)">
      <use xlink:href="#CMMI12-4b" transform="scale(0.996264)"/>
      <use xlink:href="#CMR17-3d" transform="translate(117.82143 0) scale(0.996264)"/>
      <use xlink:href="#CMR17-38" transform="translate(217.210227 0) scale(0.996264)"/>
      <use xlink:href="#CMMI12-3d" transform="translate(262.900704 0) scale(0.996264)"/>
      <use xlink:href="#CMR17-35" transform="translate(311.675623 0) scale(0.996264)"/>
     </g>
    </g>
   </g>
  </g>
 </g>
 <defs>
  <clipPath id="p96ca516a98">
   <rect x="30.744984" y="0.72" width="209.055336" height="123.41342"/>
  </clipPath>
 </defs>
</svg>
